<svg xmlns="http://www.w3.org/2000/svg" xmlns:xlink="http://www.w3.org/1999/xlink" width="800" zoomAndPan="magnify" viewBox="0 0 600 599.999999" height="800" preserveAspectRatio="xMidYMid meet" version="1.0"><path fill="#15193b" d="M 231.636719 557.585938 C 247.839844 555.375 253.875 566.570312 249.753906 591.605469 C 235.46875 591.898438 227.660156 590.132812 226.1875 586.304688 C 227.957031 575.109375 229.722656 565.539062 231.636719 557.585938 Z M 231.636719 557.585938 " fill-opacity="1" fill-rule="evenodd"/><path fill="#15193b" d="M 269.929688 568.925781 C 288.488281 375.40625 265.511719 288.21875 201.003906 307.363281 C 195.261719 364.210938 202.332031 448.75 222.507812 560.824219 C 226.1875 565.242188 242.09375 567.894531 269.929688 568.925781 Z M 269.929688 568.925781 " fill-opacity="1" fill-rule="evenodd"/><path fill="#ffcc99" d="M 201.886719 307.070312 C 201.59375 307.214844 201.300781 307.214844 201.003906 307.363281 C 195.261719 364.210938 202.332031 448.75 222.507812 560.824219 C 224.421875 563.035156 229.132812 564.800781 236.792969 566.125 C 222.210938 498.378906 214.257812 413.695312 213.082031 312.222656 C 209.253906 309.574219 205.421875 307.953125 201.886719 307.070312 Z M 201.886719 307.070312 " fill-opacity="0.2" fill-rule="evenodd"/><path fill="#194cbc" d="M 205.421875 111.191406 C 221.035156 164.800781 228.988281 191.605469 228.988281 191.605469 C 262.714844 190.722656 283.183594 165.832031 290.253906 116.789062 C 272.285156 101.621094 251.078125 94.992188 227.074219 96.90625 C 212.640625 106.480469 205.421875 111.191406 205.421875 111.191406 Z M 205.421875 111.191406 " fill-opacity="1" fill-rule="evenodd"/><path fill="#d97856" d="M 417.941406 115.757812 C 413.816406 122.976562 407.484375 126.507812 399.089844 126.507812 C 407.78125 110.308594 414.40625 101.914062 418.972656 100.882812 C 420.738281 102.796875 420.445312 107.660156 417.941406 115.757812 Z M 417.941406 115.757812 " fill-opacity="1" fill-rule="evenodd"/><path fill="#15193b" d="M 417.941406 115.757812 C 413.816406 122.976562 407.484375 126.507812 399.089844 126.507812 C 407.78125 110.308594 414.40625 101.914062 418.972656 100.882812 C 420.738281 102.796875 420.445312 107.660156 417.941406 115.757812 Z M 417.941406 115.757812 " fill-opacity="0.2" fill-rule="evenodd"/><path fill="#d97856" d="M 396.4375 129.75 C 400.121094 137.40625 404.6875 140.941406 410.429688 140.351562 C 425.601562 129.898438 434.140625 123.269531 435.910156 120.617188 C 439.148438 107.511719 439.886719 98.378906 438.265625 97.054688 C 431.933594 95.433594 412.050781 109.425781 396.4375 129.75 Z M 396.4375 129.75 " fill-opacity="1" fill-rule="evenodd"/><path fill="#ffffff" d="M 407.191406 156.113281 C 396.882812 150.222656 390.84375 141.972656 388.929688 131.371094 C 392.609375 128.277344 395.113281 126.214844 396.585938 125.332031 C 403.507812 128.277344 409.398438 133.429688 414.40625 140.5 C 414.257812 141.972656 411.757812 147.128906 407.191406 156.113281 Z M 407.191406 156.113281 " fill-opacity="1" fill-rule="evenodd"/><path fill="#15193b" d="M 325.15625 188.660156 C 365.804688 192.785156 386.277344 194.84375 386.277344 194.84375 C 405.570312 168.042969 414.996094 151.988281 414.703125 146.980469 C 408.808594 139.46875 396.4375 129.898438 389.074219 128.277344 C 384.214844 129.160156 362.859375 149.335938 325.15625 188.660156 Z M 325.15625 188.660156 " fill-opacity="1" fill-rule="evenodd"/><path fill="#15193b" d="M 193.347656 206.1875 C 249.015625 216.347656 270.519531 257.878906 246.511719 326.804688 C 221.625 328.277344 181.566406 319.585938 180.535156 312.519531 C 180.535156 312.371094 184.804688 277.023438 193.347656 206.1875 Z M 193.347656 206.1875 " fill-opacity="1" fill-rule="evenodd"/><path fill="#194cbc" d="M 193.347656 206.1875 C 200.859375 207.511719 207.78125 209.574219 213.964844 212.078125 C 213.523438 214.875 213.230469 217.820312 212.785156 220.765625 C 204.246094 277.761719 201.59375 301.03125 208.664062 323.5625 C 193.492188 320.617188 180.976562 316.199219 180.535156 312.371094 C 180.535156 312.371094 184.804688 277.023438 193.347656 206.1875 Z M 193.347656 206.1875 " fill-opacity="0.2" fill-rule="evenodd"/><path fill="#15193b" d="M 339.148438 198.378906 C 287.160156 253.609375 241.359375 255.523438 201.59375 204.269531 C 212.050781 183.800781 209.695312 152.726562 194.378906 111.046875 C 206.011719 106.480469 214.847656 102.355469 220.886719 98.378906 C 221.476562 123.710938 230.164062 152.726562 249.015625 187.628906 C 269.046875 159.648438 277.144531 132.105469 273.464844 104.859375 C 271.992188 103.828125 271.253906 103.238281 271.253906 103.238281 C 278.914062 106.332031 285.984375 108.6875 292.167969 110.457031 C 305.421875 116.496094 321.179688 145.800781 339.148438 198.378906 Z M 339.148438 198.378906 " fill-opacity="1" fill-rule="evenodd"/><path fill="#15193b" d="M 284.953125 60.234375 C 250.636719 69.367188 233.554688 73.933594 233.554688 73.933594 C 219.265625 64.800781 211.609375 30.191406 217.351562 17.671875 C 227.21875 0.292969 274.054688 0 285.394531 11.339844 C 288.78125 15.609375 288.191406 38.878906 284.953125 60.234375 Z M 284.953125 60.234375 " fill-opacity="1" fill-rule="evenodd"/><path fill="#194cbc" d="M 299.386719 193.371094 C 292.019531 196.316406 288.339844 197.644531 288.339844 197.644531 C 289.8125 176.730469 289.664062 155.816406 288.042969 135.050781 C 293.050781 155.226562 296.882812 174.519531 299.386719 193.371094 Z M 299.386719 193.371094 " fill-opacity="0.2" fill-rule="evenodd"/><path fill="#d97856" d="M 249.164062 187.777344 C 263.890625 197.054688 279.0625 195.140625 294.820312 182.179688 C 284.066406 173.34375 268.898438 175.257812 249.164062 187.777344 Z M 249.164062 187.777344 " fill-opacity="1" fill-rule="evenodd"/><path fill="#ffcc99" d="M 236.941406 353.460938 L 248.574219 347.570312 L 329.871094 309.867188 L 305.863281 230.632812 L 227.21875 268.484375 L 221.625 326.066406 Z M 236.941406 353.460938 " fill-opacity="1" fill-rule="evenodd"/><path fill="#d97856" d="M 236.941406 353.460938 L 248.574219 347.570312 L 329.871094 309.867188 L 305.863281 230.632812 L 227.21875 268.484375 L 221.625 326.066406 Z M 236.941406 353.460938 " fill-opacity="0.502" fill-rule="evenodd"/><path fill="#ffcc99" d="M 378.914062 265.390625 L 275.671875 281.148438 L 295.113281 312.8125 L 360.503906 331.8125 L 441.210938 312.8125 L 460.652344 281.148438 Z M 378.914062 265.390625 " fill-opacity="1" fill-rule="evenodd"/><path fill="#d97856" d="M 378.914062 265.390625 L 275.671875 281.148438 L 295.113281 312.8125 L 360.503906 331.8125 L 441.210938 312.8125 L 460.652344 281.148438 Z M 378.914062 265.390625 " fill-opacity="0.2" fill-rule="evenodd"/><path fill="#ffcc99" d="M 236.941406 353.460938 L 295.113281 312.8125 L 335.027344 348.601562 L 335.027344 600 L 236.941406 600 Z M 236.941406 353.460938 " fill-opacity="1" fill-rule="evenodd"/><path fill="#d97856" d="M 236.941406 353.460938 L 295.113281 312.8125 L 335.027344 348.601562 L 335.027344 600 L 236.941406 600 Z M 236.941406 353.460938 " fill-opacity="0.749" fill-rule="evenodd"/><path fill="#ffcc99" d="M 295.113281 312.8125 L 441.210938 312.8125 L 441.210938 600 L 295.113281 600 Z M 295.113281 312.8125 " fill-opacity="1" fill-rule="evenodd"/><path fill="#d97856" d="M 326.042969 349.191406 L 410.429688 349.191406 C 412.199219 349.191406 413.671875 352.429688 413.671875 356.40625 L 413.671875 449.191406 C 413.671875 453.167969 412.199219 456.40625 410.429688 456.40625 L 326.042969 456.40625 C 324.273438 456.40625 322.800781 453.167969 322.800781 449.191406 L 322.800781 356.40625 C 322.800781 352.429688 324.273438 349.191406 326.042969 349.191406 Z M 326.042969 349.191406 " fill-opacity="1" fill-rule="evenodd"/><path fill="#d97856" d="M 226.042969 98.96875 C 227.808594 107.363281 235.46875 115.90625 250.636719 126.953125 C 258.148438 119.882812 262.417969 113.550781 265.21875 103.683594 C 263.300781 97.347656 262.566406 91.605469 263.007812 86.449219 C 254.613281 73.636719 243.273438 64.507812 228.988281 58.910156 C 233.40625 74.519531 232.523438 87.777344 226.042969 98.96875 Z M 226.042969 98.96875 " fill-opacity="1" fill-rule="evenodd"/><path fill="#15193b" d="M 263.597656 97.789062 C 262.859375 93.8125 262.566406 89.984375 262.714844 86.449219 C 254.320312 73.636719 242.976562 64.507812 228.691406 58.910156 C 230.753906 65.832031 231.636719 72.460938 231.492188 78.496094 C 235.320312 93.667969 251.816406 103.535156 263.597656 97.789062 Z M 263.597656 97.789062 " fill-opacity="0.2" fill-rule="evenodd"/><path fill="#15193b" d="M 264.480469 179.675781 C 256.234375 195.582031 247.25 194.992188 237.382812 177.910156 C 237.382812 177.910156 241.210938 162.886719 249.015625 132.84375 C 247.101562 127.980469 245.925781 124.152344 245.777344 121.058594 C 249.605469 121.207031 252.992188 121.207031 255.9375 121.058594 C 256.820312 122.386719 256.675781 126.804688 255.203125 132.988281 C 261.683594 164.652344 264.480469 179.675781 264.480469 179.675781 Z M 264.480469 179.675781 " fill-opacity="1" fill-rule="evenodd"/><path fill="#d97856" d="M 273.464844 25.921875 L 254.613281 25.921875 C 245.1875 25.921875 231.34375 41.238281 233.699219 52.28125 L 236.792969 66.714844 C 239.148438 77.320312 249.605469 86.007812 260.503906 86.597656 C 262.714844 86.746094 265.660156 86.746094 267.867188 86.304688 C 277.144531 84.535156 284.65625 75.699219 284.804688 66.570312 L 285.097656 53.902344 L 285.097656 52.136719 L 285.394531 37.554688 C 285.539062 31.222656 280.089844 25.921875 273.464844 25.921875 Z M 273.464844 25.921875 " fill-opacity="1" fill-rule="evenodd"/><path fill="#15193b" d="M 279.882812 45.738281 C 280.132812 45.753906 280.375 45.839844 280.597656 45.992188 C 280.820312 46.144531 281.011719 46.351562 281.175781 46.609375 C 281.335938 46.871094 281.453125 47.167969 281.523438 47.5 C 281.597656 47.832031 281.621094 48.171875 281.59375 48.523438 C 281.570312 48.871094 281.496094 49.207031 281.375 49.523438 C 281.253906 49.839844 281.09375 50.113281 280.898438 50.351562 C 280.699219 50.585938 280.480469 50.761719 280.234375 50.878906 C 279.992188 50.992188 279.742188 51.042969 279.492188 51.023438 C 279.238281 51.003906 279 50.921875 278.773438 50.769531 C 278.550781 50.617188 278.359375 50.410156 278.199219 50.148438 C 278.035156 49.890625 277.917969 49.59375 277.847656 49.261719 C 277.773438 48.929688 277.75 48.589844 277.777344 48.238281 C 277.800781 47.886719 277.875 47.554688 277.996094 47.238281 C 278.117188 46.921875 278.277344 46.644531 278.472656 46.410156 C 278.671875 46.175781 278.890625 46 279.136719 45.882812 C 279.378906 45.765625 279.628906 45.71875 279.882812 45.738281 Z M 279.882812 45.738281 " fill-opacity="1" fill-rule="nonzero"/><path fill="#15193b" d="M 266.394531 63.035156 C 265.363281 62.59375 264.332031 62.003906 264.628906 61.265625 C 264.773438 60.972656 265.660156 61.121094 266.542969 61.265625 C 268.015625 61.414062 268.75 61.414062 270.222656 61.265625 C 271.109375 61.121094 271.992188 60.972656 272.140625 61.265625 C 272.285156 61.855469 271.253906 62.59375 270.078125 63.035156 C 268.457031 63.621094 267.867188 63.621094 266.394531 63.035156 Z M 266.394531 63.035156 " fill-opacity="0.2" fill-rule="evenodd"/><path fill="#15193b" d="M 286.128906 43.742188 C 285.835938 43.742188 285.246094 43.445312 284.511719 43.003906 C 283.625 42.5625 282.449219 42.121094 281.566406 41.972656 C 279.648438 41.679688 278.175781 42.269531 276.410156 42.269531 C 275.527344 42.269531 275.085938 42.121094 274.9375 41.828125 C 274.640625 41.089844 276.851562 39.46875 279.503906 39.617188 C 281.417969 39.617188 283.332031 40.351562 284.65625 41.53125 C 285.097656 41.679688 287.160156 43.59375 286.128906 43.742188 Z M 286.128906 43.742188 " fill-opacity="1" fill-rule="evenodd"/><path fill="#15193b" d="M 255.144531 45.328125 C 255.398438 45.347656 255.636719 45.433594 255.859375 45.582031 C 256.085938 45.734375 256.277344 45.941406 256.4375 46.203125 C 256.597656 46.464844 256.714844 46.761719 256.789062 47.089844 C 256.863281 47.421875 256.886719 47.761719 256.859375 48.113281 C 256.832031 48.464844 256.757812 48.796875 256.640625 49.113281 C 256.519531 49.429688 256.359375 49.707031 256.160156 49.941406 C 255.964844 50.175781 255.742188 50.351562 255.5 50.46875 C 255.253906 50.585938 255.007812 50.636719 254.753906 50.617188 C 254.5 50.597656 254.261719 50.511719 254.039062 50.359375 C 253.8125 50.210938 253.621094 50.003906 253.460938 49.742188 C 253.300781 49.480469 253.183594 49.183594 253.109375 48.851562 C 253.039062 48.523438 253.015625 48.179688 253.039062 47.832031 C 253.066406 47.480469 253.140625 47.148438 253.261719 46.828125 C 253.382812 46.511719 253.539062 46.238281 253.738281 46.003906 C 253.933594 45.769531 254.15625 45.59375 254.398438 45.476562 C 254.644531 45.359375 254.890625 45.308594 255.144531 45.328125 Z M 255.144531 45.328125 " fill-opacity="1" fill-rule="nonzero"/><path fill="#15193b" d="M 248.132812 43.300781 C 248.425781 43.300781 249.015625 43.003906 249.898438 42.5625 C 250.929688 42.121094 252.109375 41.679688 253.140625 41.53125 C 255.203125 41.238281 256.675781 41.828125 258.589844 41.828125 C 259.472656 41.828125 260.0625 41.679688 260.210938 41.382812 C 260.652344 40.648438 258.296875 39.027344 255.644531 39.175781 C 253.582031 39.175781 251.667969 39.910156 249.898438 41.089844 C 249.457031 41.238281 247.101562 43.152344 248.132812 43.300781 Z M 248.132812 43.300781 " fill-opacity="1" fill-rule="evenodd"/><path fill="#ffffff" d="M 270.960938 71.132812 C 270.8125 73.195312 267.867188 74.816406 264.332031 74.816406 C 260.796875 74.816406 257.851562 73.195312 257.851562 71.28125 C 257.851562 70.839844 258.296875 70.398438 258.738281 70.398438 L 270.078125 70.398438 C 270.519531 70.25 270.960938 70.546875 270.960938 71.132812 Z M 270.960938 71.132812 " fill-opacity="1" fill-rule="evenodd"/><path fill="#d97856" d="M 236.941406 52.726562 C 237.824219 61.414062 238.265625 65.832031 238.265625 65.832031 C 229.578125 64.066406 224.421875 59.203125 222.65625 54.34375 C 217.5 40.5 232.816406 37.261719 236.941406 52.726562 Z M 236.941406 52.726562 " fill-opacity="1" fill-rule="evenodd"/><path fill="#15193b" d="M 235.027344 54.640625 C 235.613281 59.941406 235.910156 62.445312 235.910156 62.445312 C 230.605469 61.414062 227.660156 58.46875 226.484375 55.523438 C 223.390625 47.128906 232.667969 45.359375 235.027344 54.640625 Z M 235.027344 54.640625 " fill-opacity="0.2" fill-rule="evenodd"/><path fill="#ffffff" d="M 271.253906 188.511719 C 267.574219 192.488281 265.660156 194.402344 265.660156 194.402344 C 263.746094 189.984375 260.945312 185.566406 257.265625 181.441406 C 261.242188 179.382812 263.300781 178.496094 263.300781 178.496094 C 266.835938 180.558594 269.636719 183.800781 271.253906 188.511719 Z M 271.253906 188.511719 " fill-opacity="1" fill-rule="evenodd"/><path fill="#15193b" d="M 207.042969 204.269531 C 219.414062 156.257812 213.964844 115.167969 194.378906 111.046875 C 188.042969 113.109375 182.890625 120.914062 179.207031 134.609375 C 171.84375 161.414062 160.945312 245.507812 186.128906 259.648438 C 209.546875 272.753906 253.730469 214.285156 271.402344 196.761719 C 268.898438 187.480469 264.921875 181.441406 259.179688 178.644531 C 224.421875 195.730469 207.042969 204.269531 207.042969 204.269531 Z M 207.042969 204.269531 " fill-opacity="1" fill-rule="evenodd"/><path fill="#194cbc" d="M 194.523438 111.046875 C 188.042969 113.109375 182.890625 120.914062 179.207031 134.609375 C 171.84375 161.414062 160.945312 245.507812 186.128906 259.648438 C 197.027344 265.683594 212.199219 256.554688 227.21875 243.152344 C 226.335938 242.855469 225.304688 242.414062 224.128906 242.121094 C 209.398438 253.460938 197.027344 256.996094 189.664062 251.695312 C 162.269531 231.957031 183.480469 117.378906 194.523438 111.046875 Z M 194.523438 111.046875 " fill-opacity="0.2" fill-rule="evenodd"/><path fill="#194cbc" d="M 343.125 119.144531 L 399.828125 148.304688 C 400.414062 148.601562 400.710938 149.191406 400.859375 149.777344 L 411.609375 201.621094 L 407.632812 202.503906 L 397.175781 151.546875 L 341.0625 122.679688 C 338.558594 125.332031 334.582031 126.214844 331.050781 124.742188 L 317.207031 118.851562 C 312.640625 116.9375 310.578125 111.636719 312.492188 107.070312 C 314.40625 102.503906 319.707031 100.441406 324.273438 102.355469 L 338.117188 108.246094 C 342.390625 110.160156 344.449219 114.875 343.125 119.144531 Z M 343.125 119.144531 " fill-opacity="1" fill-rule="nonzero"/><path fill="#ffffff" d="M 251.375 120.914062 C 248.574219 125.480469 243.714844 128.867188 237.527344 131.515625 C 229.132812 120.914062 222.949219 110.015625 218.824219 98.820312 C 218.824219 98.820312 222.210938 96.761719 228.839844 92.785156 C 238.265625 108.542969 245.925781 118.113281 251.375 120.914062 Z M 251.375 120.914062 " fill-opacity="1" fill-rule="evenodd"/><path fill="#ffffff" d="M 250.34375 121.207031 C 254.464844 124.890625 256.96875 128.128906 263.890625 130.339844 C 270.078125 123.859375 272.875 112.078125 273.613281 103.09375 C 273.613281 103.09375 271.695312 102.503906 263.890625 99.261719 C 259.179688 111.636719 254.90625 118.851562 250.34375 121.207031 Z M 250.34375 121.207031 " fill-opacity="1" fill-rule="evenodd"/><path fill="#ffcc99" d="M 275.671875 182.03125 L 221.625 226.953125 L 221.625 326.066406 L 275.671875 281.148438 L 283.921875 224.300781 Z M 275.671875 182.03125 " fill-opacity="1" fill-rule="evenodd"/><path fill="#d97856" d="M 275.671875 182.03125 L 221.625 226.953125 L 221.625 326.066406 L 275.671875 281.148438 L 283.921875 224.300781 Z M 275.671875 182.03125 " fill-opacity="0.749" fill-rule="evenodd"/><path fill="#ffcc99" d="M 275.671875 182.03125 L 460.652344 182.03125 L 460.652344 281.148438 L 275.671875 281.148438 Z M 275.671875 182.03125 " fill-opacity="1" fill-rule="evenodd"/></svg>