<svg xmlns="http://www.w3.org/2000/svg" xmlns:xlink="http://www.w3.org/1999/xlink" width="800" zoomAndPan="magnify" viewBox="0 0 600 599.999999" height="800" preserveAspectRatio="xMidYMid meet" version="1.0"><defs><clipPath id="45aa720e16"><path d="M 147 402 L 376 402 L 376 537 L 147 537 Z M 147 402 " clip-rule="nonzero"/></clipPath><clipPath id="92b0e728d3"><path d="M 129.117188 237 L 394 237 L 394 403 L 129.117188 403 Z M 129.117188 237 " clip-rule="nonzero"/></clipPath><clipPath id="15439170cf"><path d="M 129.117188 338 L 196 338 L 196 403 L 129.117188 403 Z M 129.117188 338 " clip-rule="nonzero"/></clipPath><clipPath id="c4ac07935c"><path d="M 147 402 L 222 402 L 222 537 L 147 537 Z M 147 402 " clip-rule="nonzero"/></clipPath></defs><path fill="#c4eaff" d="M 470.847656 143.167969 L 434.320312 169.859375 L 427.6875 160.597656 L 394.996094 184.109375 C 394.625 184.355469 394.273438 184.621094 393.9375 184.902344 C 393.78125 185.023438 393.621094 185.164062 393.480469 185.324219 C 393.324219 185.464844 393.164062 185.640625 393.023438 185.796875 C 392.972656 185.847656 392.9375 185.902344 392.902344 185.953125 C 392.742188 186.128906 392.601562 186.324219 392.460938 186.515625 C 392.304688 186.746094 392.164062 186.972656 392.023438 187.203125 C 391.917969 187.359375 391.828125 187.519531 391.757812 187.695312 C 391.671875 187.871094 391.582031 188.046875 391.511719 188.222656 C 391.386719 188.46875 391.300781 188.714844 391.230469 188.960938 L 382.753906 215.035156 C 382.417969 216.074219 381.890625 217.058594 381.207031 217.902344 L 366.292969 236.527344 L 376.933594 239.8125 L 329.796875 392.582031 L 203.011719 353.519531 L 250.164062 200.75 L 279.550781 209.816406 L 281.628906 198.730469 L 288.242188 163.339844 C 288.347656 162.742188 288.503906 162.164062 288.679688 161.601562 C 288.925781 160.738281 289.261719 159.914062 289.648438 159.105469 C 290.421875 157.523438 291.460938 156.046875 292.691406 154.78125 C 293.09375 154.359375 293.535156 153.972656 293.992188 153.585938 C 294.675781 153.023438 295.417969 152.496094 296.191406 152.042969 L 383.015625 98.199219 L 373.539062 84.953125 L 410.03125 60 L 451.0625 116.105469 L 455.019531 121.519531 L 455.105469 121.640625 Z M 470.847656 143.167969 " fill-opacity="1" fill-rule="nonzero"/><g clip-path="url(#45aa720e16)"><path fill="#fa1d4f" d="M 147.59375 402.339844 L 375.046875 402.339844 L 375.046875 537.019531 L 147.59375 537.019531 Z M 147.59375 402.339844 " fill-opacity="1" fill-rule="nonzero"/></g><g clip-path="url(#92b0e728d3)"><path fill="#194cbc" d="M 275.015625 283.441406 C 275.3125 282.496094 276.335938 281.949219 277.285156 282.25 L 335.425781 300.171875 C 336.375 300.453125 336.921875 301.472656 336.621094 302.421875 C 336.324219 303.386719 335.304688 303.914062 334.355469 303.632812 L 276.210938 285.710938 C 275.261719 285.410156 274.714844 284.410156 275.015625 283.441406 Z M 284.003906 260.460938 L 342.144531 278.382812 C 343.09375 278.664062 344.113281 278.136719 344.414062 277.1875 C 344.464844 277.011719 344.5 276.820312 344.5 276.644531 C 344.5 275.871094 343.992188 275.148438 343.21875 274.921875 L 285.074219 256.996094 C 284.125 256.714844 283.105469 257.242188 282.804688 258.191406 C 282.753906 258.367188 282.71875 258.5625 282.71875 258.738281 C 282.71875 259.511719 283.226562 260.214844 284.003906 260.460938 Z M 287.433594 249.390625 L 345.558594 267.3125 C 346.523438 267.59375 347.527344 267.066406 347.824219 266.101562 C 347.878906 265.925781 347.914062 265.75 347.914062 265.574219 C 347.914062 264.800781 347.402344 264.078125 346.628906 263.851562 L 288.488281 245.925781 C 287.535156 245.648438 286.515625 246.171875 286.21875 247.121094 C 286.164062 247.296875 286.148438 247.472656 286.148438 247.648438 C 286.148438 248.421875 286.640625 249.144531 287.433594 249.390625 Z M 271.601562 294.511719 C 271.304688 295.480469 271.847656 296.480469 272.800781 296.78125 L 330.941406 314.703125 C 331.890625 314.984375 332.910156 314.457031 333.210938 313.492188 C 333.261719 313.316406 333.28125 313.140625 333.28125 312.964844 C 333.28125 312.191406 332.789062 311.46875 331.996094 311.242188 L 273.871094 293.320312 C 272.90625 293.019531 271.902344 293.566406 271.601562 294.511719 Z M 325.417969 338.636719 C 325.648438 337.722656 325.136719 336.773438 324.207031 336.492188 L 266.082031 318.570312 C 265.90625 318.515625 265.710938 318.480469 265.535156 318.480469 C 264.761719 318.480469 264.058594 318.992188 263.8125 319.765625 C 263.511719 320.730469 264.039062 321.734375 265.007812 322.03125 L 318.914062 338.636719 L 291.863281 338.636719 L 262.652344 329.640625 C 261.703125 329.339844 260.683594 329.886719 260.382812 330.835938 C 260.101562 331.800781 260.628906 332.804688 261.597656 333.101562 L 279.550781 338.636719 L 129.429688 338.636719 L 129.429688 402.335938 L 393.21875 402.335938 L 393.21875 338.636719 Z M 232.191406 316.199219 C 233.648438 311.453125 238.679688 308.800781 243.410156 310.257812 C 248.160156 311.714844 250.816406 316.742188 249.355469 321.488281 C 247.894531 326.214844 242.867188 328.882812 238.117188 327.40625 C 233.386719 325.949219 230.730469 320.925781 232.191406 316.199219 Z M 238.628906 325.773438 C 242.460938 326.953125 246.523438 324.808594 247.703125 320.976562 C 248.878906 317.144531 246.734375 313.085938 242.902344 311.910156 C 239.085938 310.734375 235.003906 312.875 233.824219 316.707031 C 232.648438 320.519531 234.8125 324.597656 238.628906 325.773438 Z M 243.429688 279.769531 C 244.886719 275.042969 249.917969 272.390625 254.648438 273.847656 C 259.398438 275.308594 262.054688 280.332031 260.59375 285.058594 C 259.132812 289.804688 254.105469 292.457031 249.355469 291 C 244.625 289.539062 241.96875 284.515625 243.429688 279.769531 Z M 249.867188 289.347656 C 253.699219 290.542969 257.761719 288.382812 258.941406 284.566406 C 260.117188 280.738281 257.972656 276.660156 254.15625 275.484375 C 250.324219 274.304688 246.242188 276.46875 245.0625 280.28125 C 243.886719 284.109375 246.050781 288.171875 249.867188 289.347656 Z M 260.59375 254.589844 C 265.34375 256.050781 270.371094 253.394531 271.832031 248.652344 C 273.292969 243.90625 270.636719 238.898438 265.886719 237.421875 C 261.15625 235.964844 256.125 238.617188 254.667969 243.363281 C 253.207031 248.105469 255.863281 253.113281 260.59375 254.589844 Z M 260.59375 254.589844 " fill-opacity="1" fill-rule="nonzero"/></g><g clip-path="url(#15439170cf)"><path fill="#c4eaff" d="M 129.429688 338.636719 L 195.082031 338.636719 L 195.082031 402.335938 L 129.429688 402.335938 Z M 129.429688 338.636719 " fill-opacity="0.3" fill-rule="nonzero"/></g><g clip-path="url(#c4ac07935c)"><path fill="#ffac94" d="M 147.59375 402.339844 L 221.089844 402.339844 L 221.089844 537.019531 L 147.59375 537.019531 Z M 147.59375 402.339844 " fill-opacity="0.5" fill-rule="nonzero"/></g><path fill="#c4eaff" d="M 356.753906 421.71875 L 254.882812 421.71875 C 252 421.71875 249.65625 424.0625 249.65625 426.941406 L 249.65625 452.328125 C 249.65625 455.207031 252 457.550781 254.882812 457.550781 L 356.753906 457.550781 C 359.632812 457.550781 361.980469 455.207031 361.980469 452.328125 L 361.980469 426.941406 C 361.980469 424.0625 359.632812 421.71875 356.753906 421.71875 Z M 358.464844 452.328125 C 358.464844 453.269531 357.695312 454.039062 356.753906 454.039062 L 254.882812 454.039062 C 253.941406 454.039062 253.171875 453.269531 253.171875 452.328125 L 253.171875 426.941406 C 253.171875 426 253.941406 425.230469 254.882812 425.230469 L 356.753906 425.230469 C 357.695312 425.230469 358.464844 426 358.464844 426.941406 Z M 358.464844 452.328125 " fill-opacity="1" fill-rule="nonzero"/><path fill="#ffac94" d="M 427.6875 160.597656 L 394.992188 184.109375 C 394.625 184.355469 394.273438 184.621094 393.9375 184.902344 C 393.78125 185.023438 393.621094 185.164062 393.480469 185.324219 C 393.324219 185.464844 393.164062 185.640625 393.023438 185.796875 C 392.972656 185.847656 392.9375 185.902344 392.902344 185.953125 C 392.742188 186.128906 392.601562 186.324219 392.460938 186.515625 C 392.304688 186.746094 392.164062 186.972656 392.023438 187.203125 C 391.917969 187.359375 391.828125 187.519531 391.757812 187.695312 C 391.667969 187.871094 391.582031 188.046875 391.511719 188.222656 C 391.386719 188.46875 391.300781 188.714844 391.230469 188.960938 L 382.753906 215.035156 C 382.417969 216.074219 381.890625 217.058594 381.207031 217.902344 L 366.292969 236.535156 L 362.6875 241.042969 C 361.949219 241.972656 361.015625 242.746094 359.996094 243.328125 L 359.976562 243.328125 L 325.382812 262.355469 C 325.03125 262.550781 324.699219 262.707031 324.328125 262.847656 C 322.113281 263.726562 319.6875 263.65625 317.558594 262.777344 C 317.207031 262.621094 316.855469 262.460938 316.519531 262.25 C 315.132812 261.480469 313.953125 260.320312 313.109375 258.84375 C 311.5625 256.085938 310.824219 253.097656 310.824219 250.144531 C 310.824219 248.6875 311 247.226562 311.367188 245.804688 C 311.492188 245.226562 311.667969 244.644531 311.878906 244.082031 C 312.140625 243.328125 312.457031 242.605469 312.84375 241.886719 C 313.089844 241.375 313.371094 240.882812 313.6875 240.410156 C 314.09375 239.8125 314.515625 239.234375 314.992188 238.671875 C 315.203125 238.40625 315.414062 238.160156 315.640625 237.933594 C 315.886719 237.667969 316.132812 237.421875 316.398438 237.175781 C 316.90625 236.683594 317.453125 236.210938 318.03125 235.789062 L 318.050781 235.789062 L 331.496094 225.8125 L 334.300781 223.734375 C 334.601562 223.523438 334.863281 223.296875 335.128906 223.050781 C 335.636719 222.574219 336.09375 222.03125 336.480469 221.449219 C 336.867188 220.851562 337.183594 220.21875 337.429688 219.550781 C 337.820312 218.480469 337.996094 217.320312 337.960938 216.144531 L 337.414062 199.828125 L 324.742188 198.480469 C 319.851562 197.964844 315.1875 200.675781 313.226562 205.183594 L 307.476562 218.414062 L 279.554688 209.8125 L 281.628906 198.730469 L 288.242188 163.339844 C 288.347656 162.742188 288.503906 162.164062 288.679688 161.601562 C 288.925781 160.738281 289.261719 159.914062 289.648438 159.105469 C 290.421875 157.523438 291.460938 156.046875 292.691406 154.78125 C 293.09375 154.359375 293.535156 153.972656 293.992188 153.585938 C 294.675781 153.023438 295.417969 152.5 296.191406 152.042969 L 383.015625 98.199219 L 418.066406 147.140625 L 418.351562 147.558594 Z M 427.6875 160.597656 " fill-opacity="1" fill-rule="nonzero"/><path fill="#ff7e79" d="M 331.15625 241.515625 C 331.484375 242.335938 331.160156 243.246094 330.398438 243.699219 C 329.625 244.152344 328.667969 244.417969 327.84375 244.789062 C 326.375 245.445312 324.851562 246.230469 323.609375 247.191406 C 322.394531 248.132812 321.46875 249.230469 320.832031 250.550781 C 320.214844 251.832031 319.953125 253.121094 320.339844 254.625 C 320.574219 255.546875 320.160156 256.53125 319.207031 256.839844 C 318.335938 257.121094 317.238281 256.625 316.992188 255.707031 C 316.046875 252.179688 317.324219 248.582031 319.769531 245.957031 C 322.207031 243.339844 325.480469 242.035156 328.679688 240.628906 C 329.644531 240.207031 330.742188 240.476562 331.15625 241.515625 Z M 324.742188 198.480469 C 319.851562 197.964844 315.1875 200.675781 313.226562 205.183594 L 307.476562 218.414062 L 331.496094 225.8125 L 334.300781 223.734375 C 334.601562 223.523438 334.863281 223.296875 335.128906 223.050781 C 335.636719 222.574219 336.09375 222.03125 336.480469 221.449219 C 336.867188 220.851562 337.1875 220.21875 337.433594 219.550781 C 337.820312 218.480469 337.996094 217.320312 337.960938 216.144531 L 337.414062 199.828125 Z M 352.632812 226.414062 C 351.914062 225.792969 350.714844 226.042969 350.167969 226.761719 C 349.570312 227.558594 349.792969 228.609375 350.519531 229.226562 C 353.320312 231.605469 355.28125 235.390625 355.507812 239.289062 C 355.242188 239.839844 355.199219 240.527344 355.613281 241.007812 C 355.773438 241.1875 355.929688 241.371094 356.089844 241.550781 C 356.539062 242.070312 357.429688 242.148438 358.015625 241.878906 C 358.664062 241.578125 359.074219 240.953125 359.066406 240.226562 C 359.007812 234.890625 356.671875 229.902344 352.632812 226.414062 Z M 418.351562 147.558594 L 418.066406 147.140625 L 396.296875 166.960938 C 390.984375 171.773438 389.683594 179.523438 393.023438 185.796875 C 393.164062 185.640625 393.324219 185.464844 393.480469 185.324219 C 393.621094 185.164062 393.78125 185.023438 393.9375 184.902344 C 394.273438 184.621094 394.625 184.355469 394.996094 184.109375 L 427.6875 160.597656 Z M 348.21875 232.132812 C 347.519531 231.539062 346.71875 231.015625 345.886719 230.628906 C 345.371094 230.386719 344.859375 230.164062 344.3125 230.003906 C 343.78125 229.847656 343.351562 229.746094 342.820312 229.921875 C 342.367188 230.070312 342.03125 230.445312 341.828125 230.859375 C 341.585938 231.351562 341.652344 231.929688 341.902344 232.394531 C 342.1875 232.921875 342.601562 233.144531 343.164062 233.300781 C 342.683594 233.167969 343.074219 233.28125 343.164062 233.3125 C 343.273438 233.347656 343.382812 233.386719 343.492188 233.425781 C 343.652344 233.480469 343.8125 233.535156 343.96875 233.601562 C 344.34375 233.757812 344.707031 233.964844 345.058594 234.171875 C 345.082031 234.183594 345.117188 234.207031 345.148438 234.230469 C 345.113281 234.203125 345.09375 234.191406 345.03125 234.144531 C 345.117188 234.207031 345.210938 234.265625 345.300781 234.328125 C 345.449219 234.429688 345.59375 234.539062 345.738281 234.648438 C 345.910156 234.78125 346.078125 234.917969 346.242188 235.058594 C 346.292969 235.101562 346.34375 235.144531 346.394531 235.191406 C 346.402344 235.199219 346.398438 235.195312 346.40625 235.203125 C 346.683594 235.476562 346.945312 235.765625 347.195312 236.066406 C 347.300781 236.195312 347.402344 236.339844 347.511719 236.46875 C 347.519531 236.476562 347.523438 236.488281 347.53125 236.496094 C 347.578125 236.566406 347.625 236.636719 347.671875 236.707031 C 347.871094 237.019531 348.054688 237.34375 348.21875 237.675781 C 348.273438 237.792969 348.328125 237.90625 348.378906 238.023438 C 348.332031 237.929688 348.304688 237.890625 348.433594 238.148438 C 348.433594 238.148438 348.433594 238.144531 348.433594 238.144531 C 348.429688 238.128906 348.417969 238.113281 348.414062 238.097656 C 348.425781 238.125 348.4375 238.15625 348.453125 238.183594 C 348.441406 238.164062 348.441406 238.164062 348.433594 238.148438 C 348.519531 238.375 348.597656 238.605469 348.683594 238.835938 C 348.828125 239.238281 349.320312 239.605469 349.710938 239.734375 C 350.109375 239.867188 350.65625 239.851562 351.035156 239.648438 C 351.4375 239.429688 351.804688 239.078125 351.933594 238.621094 L 352.019531 238.179688 C 352.039062 237.871094 351.980469 237.578125 351.847656 237.300781 C 351.246094 235.273438 349.804688 233.480469 348.21875 232.132812 Z M 348.21875 232.132812 " fill-opacity="1" fill-rule="nonzero"/></svg>