<svg xmlns="http://www.w3.org/2000/svg" xmlns:xlink="http://www.w3.org/1999/xlink" width="800" zoomAndPan="magnify" viewBox="0 0 600 599.999999" height="800" preserveAspectRatio="xMidYMid meet" version="1.0"><defs><clipPath id="f70b4e9d2d"><path d="M 84 102 L 578.621094 102 L 578.621094 531 L 84 531 Z M 84 102 " clip-rule="nonzero"/></clipPath><clipPath id="8cc58c3fd2"><path d="M 95 131 L 578.621094 131 L 578.621094 443 L 95 443 Z M 95 131 " clip-rule="nonzero"/></clipPath><clipPath id="09b5233e12"><path d="M 34.871094 68.039062 L 578.621094 68.039062 L 578.621094 532 L 34.871094 532 Z M 34.871094 68.039062 " clip-rule="nonzero"/></clipPath></defs><g clip-path="url(#f70b4e9d2d)"><path fill="#d18765" d="M 147.480469 119.90625 C 146.003906 117.984375 145.222656 115.691406 145.222656 113.28125 C 145.222656 107.269531 150.113281 102.378906 156.125 102.378906 C 160.007812 102.378906 163.628906 104.476562 165.574219 107.851562 L 165.734375 108.132812 L 165.921875 108.515625 C 166.65625 110.023438 167.03125 111.628906 167.03125 113.28125 C 167.03125 119.292969 162.136719 124.1875 156.125 124.1875 C 153.015625 124.1875 150.042969 122.84375 147.96875 120.496094 L 147.71875 120.21875 Z M 454.679688 287.167969 C 452.75 279.503906 450.785156 274.695312 448.839844 272.875 C 445.765625 270 437.503906 266.179688 427.652344 264.417969 L 427.652344 257.402344 C 428.550781 257.609375 429.421875 257.730469 430.21875 257.730469 C 435.894531 257.730469 437.84375 250.070312 436.742188 242.652344 C 436.714844 242.46875 436.671875 242.296875 436.640625 242.121094 C 436.582031 241.816406 436.503906 241.523438 436.425781 241.234375 C 436.457031 241.148438 436.492188 241.0625 436.519531 240.976562 C 437.75 236.867188 437.402344 233.46875 435.484375 230.882812 C 433.15625 227.738281 429.109375 226.605469 426.261719 226.59375 C 421.027344 226.59375 415.683594 228.746094 414.824219 231.199219 L 414.730469 231.460938 L 414.460938 231.539062 C 413.429688 231.84375 412.503906 232.71875 411.859375 234.011719 C 410.601562 236.539062 410.59375 240.148438 411.835938 243.433594 C 412.226562 244.46875 412.847656 245.335938 413.671875 246.039062 C 413.78125 246.386719 413.945312 246.734375 414.144531 247.066406 C 414.84375 248.234375 416.03125 249.191406 417.316406 249.289062 C 417.78125 250.292969 418.367188 251.207031 419.039062 252.035156 L 419.039062 263.484375 L 419.023438 263.484375 C 418.449219 263.464844 417.871094 263.457031 417.296875 263.457031 C 411.289062 263.457031 405.914062 264.488281 401.246094 266.554688 C 401.066406 266.601562 400.886719 266.667969 400.703125 266.753906 C 399.945312 267.09375 399.09375 267.566406 398.058594 268.222656 C 397.808594 268.378906 397.558594 268.542969 397.296875 268.71875 L 397.011719 268.902344 C 396.820312 269.023438 396.628906 269.144531 396.421875 269.300781 L 396.335938 269.390625 L 396.296875 269.417969 C 379.03125 281.917969 353.203125 319.710938 357.945312 329.125 C 360.089844 333.386719 370.128906 337.972656 386.96875 342.386719 L 387.402344 342.5 L 387.375 342.949219 C 386.128906 362.53125 385.367188 379.25 385.246094 381.949219 C 385.941406 382.234375 387.6875 382.917969 390.351562 383.738281 L 390.761719 383.863281 L 390.738281 384.289062 C 389.957031 397.90625 389.058594 414.847656 389.214844 418.230469 C 389.367188 421.523438 385.34375 432.726562 381.085938 444.589844 C 377.503906 454.558594 373.804688 464.867188 373.480469 468.351562 C 373.320312 470.105469 375.375 471.976562 379.265625 473.625 L 379.667969 473.792969 L 379.589844 474.222656 C 379.585938 474.257812 379.578125 474.292969 379.570312 474.328125 C 379.402344 474.261719 379.222656 474.195312 379.054688 474.125 C 376.121094 490.226562 373.972656 503.882812 372.628906 505.410156 C 372.035156 506.085938 371.5 506.875 371.015625 507.710938 C 371.171875 507.753906 371.351562 507.820312 371.539062 507.898438 C 371.519531 507.925781 371.503906 507.953125 371.484375 507.980469 L 371.269531 508.351562 L 370.863281 508.230469 C 370.652344 508.167969 370.472656 508.132812 370.339844 508.117188 C 369.765625 509.058594 367.84375 512.496094 367.007812 517.71875 C 366.664062 519.855469 366.355469 521.710938 366.210938 522.585938 L 379.28125 524.6875 L 379.71875 521.949219 L 392.734375 526.847656 L 411.707031 529.898438 C 411.964844 528.316406 412.140625 527.136719 411.84375 525.085938 C 411.410156 522.085938 404.179688 517.164062 399.859375 514.226562 C 397.628906 512.710938 396.449219 511.898438 396.027344 511.398438 C 395.644531 510.9375 395.238281 510.726562 394.757812 510.726562 C 394.324219 510.726562 393.8125 510.894531 393.1875 511.238281 L 392.847656 511.425781 L 392.558594 511.164062 C 392.519531 511.125 392.484375 511.085938 392.445312 511.046875 C 392.605469 510.945312 392.769531 510.847656 392.925781 510.761719 C 391.042969 509.042969 390.644531 507.484375 391.445312 505.351562 C 392.070312 503.679688 396.597656 491.664062 401.816406 477.222656 C 401.621094 477.253906 401.410156 477.277344 401.207031 477.304688 C 401.238281 477.214844 401.273438 477.125 401.304688 477.035156 L 401.414062 476.738281 L 401.730469 476.683594 C 404.578125 476.222656 406.507812 475.300781 407.300781 474.027344 C 411.0625 467.988281 417.613281 446.515625 420.253906 437.5625 L 420.394531 437.089844 C 421.59375 433.054688 423.734375 418.695312 426.574219 395.558594 L 427.648438 395.511719 L 432.886719 420.09375 C 433.574219 423.316406 431.433594 435.027344 429.167969 447.421875 C 427.265625 457.84375 425.296875 468.617188 425.546875 472.109375 C 425.660156 473.652344 427.527344 475.039062 430.8125 476.019531 L 431.210938 476.136719 L 431.199219 476.554688 C 431.199219 476.597656 431.199219 476.640625 431.195312 476.6875 C 431.015625 476.636719 430.832031 476.59375 430.65625 476.539062 C 430.1875 494.828125 430.351562 511.136719 429.167969 513.019531 C 428.6875 513.78125 428.285156 514.644531 427.9375 515.542969 C 428.101562 515.566406 428.289062 515.601562 428.484375 515.648438 C 428.46875 515.679688 428.457031 515.707031 428.445312 515.742188 L 428.289062 516.136719 L 427.867188 516.085938 C 427.675781 516.058594 427.507812 516.050781 427.375 516.050781 C 427.363281 516.050781 427.347656 516.050781 427.335938 516.050781 C 426.917969 517.074219 425.566406 520.777344 425.566406 526.0625 C 425.566406 528.679688 425.566406 530.164062 425.523438 531 L 438.785156 531 L 438.785156 528.226562 L 452.414062 531 L 471.628906 531 C 471.632812 529.398438 471.621094 528.203125 471.003906 526.226562 C 470.097656 523.328125 462.175781 519.617188 457.441406 517.402344 C 455.003906 516.261719 453.707031 515.644531 453.214844 515.21875 C 452.839844 514.894531 452.472656 514.738281 452.09375 514.738281 C 451.613281 514.738281 451.054688 514.988281 450.390625 515.507812 L 450.082031 515.75 L 449.757812 515.535156 C 449.710938 515.503906 449.671875 515.472656 449.625 515.441406 C 449.769531 515.3125 449.910156 515.191406 450.054688 515.082031 C 447.921875 513.683594 447.28125 512.207031 447.734375 509.972656 C 448.117188 508.066406 451.128906 493.304688 454.289062 476.445312 C 454.097656 476.5 453.898438 476.550781 453.703125 476.605469 C 453.71875 476.519531 453.738281 476.429688 453.753906 476.34375 L 453.8125 476.019531 L 454.128906 475.921875 C 457.242188 474.976562 459.21875 473.6875 459.839844 472.1875 C 462.566406 465.605469 465.523438 443.34375 466.667969 434.078125 L 466.726562 433.609375 C 467.46875 427.703125 464.792969 403.394531 462.417969 384.042969 L 462.363281 383.605469 L 462.78125 383.460938 C 464.792969 382.777344 466.117188 382.222656 466.695312 381.96875 C 466.550781 379.894531 465.808594 369.484375 464.539062 355.992188 L 464.484375 355.390625 L 493.964844 355.6875 C 493.925781 355.871094 493.886719 356.050781 493.84375 356.230469 C 492.8125 360.796875 493.722656 363.207031 495.730469 363.902344 C 497.859375 364.644531 498.359375 363.542969 499.433594 363.617188 C 500.726562 363.707031 500.625 364.738281 502.222656 364.871094 C 503.820312 365 503.949219 364.144531 504.808594 363.992188 C 505.882812 363.851562 505.992188 364.582031 507.105469 364.394531 C 508.21875 364.210938 508.957031 363.429688 509.355469 363.191406 C 509.753906 362.957031 511.164062 364.359375 512.121094 362.015625 C 512.5625 360.933594 512.882812 358.644531 512.890625 356.425781 C 512.894531 356.242188 512.886719 356.0625 512.882812 355.878906 L 538.90625 356.144531 L 539.625 288.433594 L 454.785156 287.574219 Z M 578.355469 339.164062 C 578.347656 337.582031 578.332031 335.996094 578.296875 334.410156 C 578.28125 333.699219 578.257812 332.992188 578.238281 332.285156 L 578.21875 331.710938 C 578.183594 330.59375 578.144531 329.480469 578.09375 328.367188 C 578.050781 327.355469 578.003906 326.347656 577.949219 325.335938 C 577.902344 324.453125 577.84375 323.574219 577.785156 322.632812 C 577.761719 322.324219 577.742188 322.015625 577.722656 321.703125 L 557.589844 321.703125 L 557.589844 340.15625 L 578.367188 340.15625 C 578.367188 340.011719 578.355469 339.164062 578.355469 339.164062 Z M 354.253906 256.3125 C 353.054688 258.871094 349.824219 262.203125 345.6875 265.800781 L 345.421875 265.308594 C 345.390625 265.335938 345.363281 265.363281 345.328125 265.390625 L 345.003906 265.675781 L 348.628906 272.453125 C 345.65625 274.703125 327.148438 288.828125 324.382812 293.957031 C 321.5 299.3125 331.75 370.867188 332.753906 377.832031 C 331.613281 378.242188 328.160156 379.441406 323.277344 380.808594 L 322.878906 380.917969 L 322.882812 381.335938 C 323.070312 431.203125 322.78125 490.472656 321.339844 493.402344 C 320.914062 494.265625 318.238281 495.5 312.085938 496.144531 L 311.617188 496.195312 L 311.597656 496.660156 C 311.59375 496.6875 311.59375 496.707031 311.59375 496.734375 C 311.773438 496.714844 311.960938 496.703125 312.140625 496.683594 C 311.804688 503.90625 311.710938 509.703125 312.191406 510.8125 C 312.191406 510.816406 312.191406 510.816406 312.191406 510.820312 C 312.015625 510.847656 311.832031 510.894531 311.652344 510.933594 C 311.664062 510.964844 311.675781 511 311.6875 511.027344 L 311.855469 511.414062 L 312.273438 511.355469 C 312.675781 511.292969 313.066406 511.261719 313.4375 511.261719 C 314.574219 511.261719 315.449219 511.558594 315.894531 512.089844 C 316.089844 512.320312 316.308594 512.59375 316.550781 512.902344 C 318.796875 515.710938 322.972656 520.941406 330.019531 521.957031 C 334.335938 522.582031 334.804688 529.085938 334.847656 531 L 315.265625 531 L 302.519531 525.535156 L 300.214844 525.578125 L 290.332031 521.339844 C 290.515625 518.304688 291.441406 511.253906 293.914062 509.542969 L 293.996094 509.484375 L 294.027344 509.441406 C 293.761719 509.222656 293.609375 509.09375 293.609375 509.09375 C 293.605469 509.09375 293.605469 509.09375 293.605469 509.09375 C 293.832031 508.765625 294.074219 508.433594 294.347656 508.089844 C 295.203125 507.011719 295.429688 502.429688 295.308594 496.359375 C 295.484375 496.386719 295.675781 496.410156 295.855469 496.4375 C 295.855469 496.40625 295.855469 496.378906 295.855469 496.347656 L 295.84375 495.898438 L 295.402344 495.824219 C 291.460938 495.152344 289.105469 494.035156 288.933594 492.757812 C 288.699219 490.996094 289.378906 475.144531 289.976562 461.15625 C 290.433594 450.445312 290.867188 440.328125 290.867188 437.179688 C 290.867188 426.730469 288.933594 407.585938 286.753906 400.960938 L 286.238281 399.386719 L 285.71875 400.960938 C 283.542969 407.589844 281.605469 426.738281 281.605469 437.179688 C 281.605469 440.332031 282.039062 450.445312 282.496094 461.15625 C 283.097656 475.140625 283.773438 490.996094 283.539062 492.757812 C 283.367188 494.035156 281.011719 495.148438 277.070312 495.820312 L 276.625 495.898438 L 276.617188 496.347656 C 276.617188 496.378906 276.617188 496.40625 276.617188 496.4375 C 276.796875 496.410156 276.988281 496.386719 277.160156 496.359375 C 277.042969 502.429688 277.269531 507.011719 278.125 508.089844 C 278.398438 508.433594 278.636719 508.765625 278.867188 509.09375 C 278.863281 509.09375 278.863281 509.09375 278.863281 509.09375 C 278.863281 509.09375 278.710938 509.222656 278.445312 509.441406 L 278.476562 509.484375 L 278.558594 509.542969 C 281.03125 511.253906 281.957031 518.304688 282.140625 521.335938 L 272.253906 525.578125 L 269.953125 525.535156 L 257.207031 531 L 237.625 531 C 237.667969 529.082031 238.140625 522.582031 242.453125 521.957031 C 249.5 520.9375 253.675781 515.710938 255.921875 512.898438 C 256.167969 512.59375 256.386719 512.320312 256.578125 512.089844 C 257.023438 511.554688 257.894531 511.261719 259.035156 511.261719 C 259.40625 511.261719 259.796875 511.292969 260.199219 511.355469 L 260.824219 511.453125 L 260.824219 510.933594 C 260.644531 510.894531 260.460938 510.847656 260.28125 510.820312 C 260.28125 510.816406 260.285156 510.8125 260.285156 510.8125 C 260.761719 509.699219 260.667969 503.90625 260.332031 496.683594 C 260.511719 496.703125 260.699219 496.714844 260.878906 496.730469 C 260.878906 496.707031 260.878906 496.683594 260.875 496.660156 L 260.855469 496.191406 L 260.390625 496.140625 C 254.238281 495.5 251.558594 494.261719 251.132812 493.402344 C 249.691406 490.472656 249.402344 431.199219 249.59375 381.335938 L 249.59375 380.917969 L 249.195312 380.808594 C 244.316406 379.441406 240.859375 378.242188 239.71875 377.832031 C 240.726562 370.867188 250.976562 299.3125 248.089844 293.953125 C 245.324219 288.828125 226.816406 274.699219 223.84375 272.453125 L 227.46875 265.679688 L 227.140625 265.394531 C 227.109375 265.363281 227.082031 265.339844 227.050781 265.308594 L 226.785156 265.804688 C 222.644531 262.207031 219.414062 258.871094 218.214844 256.3125 C 212.914062 245 213.476562 207.304688 214.015625 202.699219 C 214.550781 198.097656 209.816406 192.605469 210.039062 189.449219 C 210.085938 188.761719 210.453125 187.960938 211.007812 187.136719 C 211.46875 185.640625 214.414062 176.371094 216.632812 175.859375 C 217.105469 175.753906 217.9375 175.753906 218.972656 175.835938 C 219.144531 175.851562 219.332031 175.871094 219.515625 175.886719 L 219.515625 132.265625 L 352.484375 132.265625 L 352.484375 175.886719 C 352.667969 175.871094 352.855469 175.851562 353.027344 175.835938 C 354.0625 175.753906 354.894531 175.753906 355.363281 175.859375 C 357.261719 176.296875 359.6875 183.128906 360.644531 186.042969 C 361.652344 187.242188 362.363281 188.457031 362.429688 189.449219 C 362.652344 192.605469 357.917969 198.097656 358.457031 202.699219 C 358.992188 207.304688 359.554688 245 354.253906 256.3125 Z M 359.085938 183.234375 C 359.167969 183.460938 359.253906 183.691406 359.34375 183.929688 C 359.351562 183.925781 359.363281 183.925781 359.371094 183.917969 C 359.492188 183.78125 359.476562 183.570312 359.339844 183.449219 C 359.296875 183.414062 359.207031 183.335938 359.085938 183.234375 Z M 346.199219 203.203125 C 346.199219 203.203125 344.5 202.003906 344.679688 199.558594 C 344.691406 199.386719 344.722656 199.199219 344.753906 199.015625 L 227.722656 199.015625 C 227.753906 199.199219 227.785156 199.386719 227.800781 199.558594 C 227.980469 202.003906 226.277344 203.203125 226.277344 203.203125 L 238.757812 243.289062 C 238.757812 243.289062 238.789062 243.3125 238.816406 243.328125 L 238.558594 243.808594 L 238.953125 244.078125 L 239.296875 243.578125 C 248.300781 250.492188 256.042969 254.882812 263.621094 257.371094 L 264.339844 257.605469 L 264.335938 256.851562 C 264.332031 255.644531 264.476562 254.539062 264.78125 253.472656 C 265.082031 252.410156 265.59375 251.425781 266.300781 250.546875 L 266.726562 250.015625 L 266.117188 249.71875 C 262.597656 247.980469 260.65625 245.847656 260.65625 243.714844 C 260.65625 239.328125 278.855469 227.507812 286.238281 223.097656 C 293.621094 227.507812 311.820312 239.328125 311.820312 243.714844 C 311.820312 246.296875 308.984375 248.847656 304.042969 250.714844 L 303.066406 251.082031 L 303.929688 251.671875 C 306.265625 253.261719 307.933594 255.011719 308.886719 256.871094 L 309.101562 257.292969 L 309.546875 257.140625 C 316.910156 254.613281 324.433594 250.296875 333.179688 243.578125 L 333.464844 244.109375 L 333.917969 243.808594 L 333.660156 243.328125 C 333.683594 243.3125 333.71875 243.289062 333.71875 243.289062 Z M 222.972656 321.457031 C 222.957031 319.871094 221.90625 319.964844 221.90625 318.679688 C 221.90625 317.613281 222.761719 317.1875 222.335938 315.90625 C 221.480469 313.984375 218.917969 313.554688 218.492188 310.992188 C 218.0625 309.074219 218.277344 307.148438 217.421875 305.226562 C 216.625 303.148438 215.109375 303.265625 214.398438 304.242188 C 214.15625 304.570312 214.007812 304.996094 214.007812 305.464844 C 214.007812 305.535156 214.007812 305.617188 214.007812 305.695312 L 213.851562 305.910156 L 213.851562 284.414062 L 202.074219 284.414062 L 201.992188 283.96875 C 198.726562 266.605469 191.632812 256.644531 182.519531 256.644531 C 181.691406 256.644531 180.847656 256.730469 180.003906 256.902344 C 178.054688 257.296875 176.671875 259.339844 175.898438 262.976562 L 175.75 263.675781 L 175.117188 263.347656 C 174.546875 263.050781 173.910156 262.773438 173.230469 262.515625 L 172.949219 262.414062 L 172.886719 262.121094 C 171.824219 257.027344 167.433594 252.757812 165.597656 251.15625 L 165.125 250.746094 L 165.597656 250.335938 C 169.613281 246.851562 171.398438 241.082031 170.148438 235.640625 L 170.058594 235.253906 L 170.398438 235.054688 C 171.40625 234.457031 171.4375 233.867188 171.371094 233.476562 C 170.707031 229.503906 167.601562 222.84375 154.269531 222.84375 C 142.066406 222.84375 138.832031 229.683594 138.828125 233.296875 C 138.828125 234.121094 139.222656 234.769531 140.039062 235.277344 L 140.347656 235.472656 L 140.285156 235.828125 C 140.21875 236.246094 140.15625 236.667969 140.109375 237.101562 C 138.90625 248.605469 147.140625 252.132812 150.890625 253.136719 L 150.890625 259.710938 C 146.0625 260.078125 141.613281 261.054688 137.851562 262.484375 C 138.320312 262.507812 138.8125 262.527344 139.285156 262.550781 C 138.867188 262.691406 138.449219 262.835938 138.046875 262.992188 L 137.949219 263.027344 C 137.539062 263.183594 137.132812 263.347656 136.691406 263.535156 C 136.3125 263.699219 135.941406 263.867188 135.578125 264.039062 L 134.765625 264.429688 L 134.640625 263.726562 C 133.902344 259.617188 132.472656 257.320312 130.390625 256.902344 C 129.550781 256.730469 128.707031 256.644531 127.875 256.644531 C 118.765625 256.644531 111.667969 266.601562 108.40625 283.96875 L 108.324219 284.410156 L 93.949219 284.410156 L 93.949219 305.910156 L 93.792969 305.695312 C 93.792969 305.617188 93.792969 305.53125 93.792969 305.464844 C 93.792969 304.992188 93.644531 304.566406 93.40625 304.238281 C 92.695312 303.265625 91.175781 303.148438 90.378906 305.226562 C 89.523438 307.148438 89.738281 309.070312 89.3125 310.992188 C 88.882812 313.554688 86.320312 313.984375 85.46875 315.90625 C 85.039062 317.1875 85.894531 317.613281 85.894531 318.679688 C 85.894531 319.960938 84.847656 319.867188 84.828125 321.457031 C 84.808594 323.042969 85.683594 323.164062 85.894531 324.019531 C 86.109375 325.085938 85.382812 325.199219 85.648438 326.300781 C 85.914062 327.40625 86.75 328.132812 87.015625 328.527344 C 87.28125 328.921875 85.964844 330.332031 88.394531 331.269531 C 89.402344 331.65625 91.386719 331.941406 93.40625 331.992188 C 93.585938 332 93.765625 331.996094 93.949219 331.996094 L 93.949219 351.160156 L 118.453125 351.160156 L 118.125 351.921875 C 103.417969 386.070312 103.140625 393.730469 104.285156 395.253906 L 104.453125 395.476562 L 104.367188 395.746094 C 98.386719 414.320312 95.792969 426.214844 96.660156 431.109375 C 97.441406 435.523438 106.421875 439.015625 121.945312 440.933594 L 122.382812 440.988281 L 122.417969 441.429688 C 122.421875 441.464844 122.425781 441.503906 122.425781 441.535156 C 122.246094 441.515625 122.054688 441.496094 121.875 441.476562 C 123.519531 462.074219 126.582031 492.554688 127.914062 503.789062 C 127.175781 505.734375 123.644531 514.777344 120.019531 519.226562 C 120.265625 519.191406 120.519531 519.167969 120.769531 519.144531 C 120.660156 519.285156 120.550781 519.4375 120.441406 519.570312 L 120.308594 519.738281 L 120.097656 519.765625 C 118.660156 519.96875 117.410156 520.308594 116.378906 520.773438 C 111.222656 523.101562 112.136719 529.332031 112.488281 531 L 135.773438 531 L 144.140625 521.308594 L 145.488281 528.949219 L 148.820312 528.949219 C 148.949219 526.425781 149.398438 515 147.269531 508.683594 L 146.777344 509.136719 L 146.597656 508.558594 L 147.042969 508.152344 C 146.929688 507.792969 146.804688 507.429688 146.660156 507.074219 C 146.8125 495.960938 150.78125 464.65625 149.597656 442.972656 C 149.417969 442.972656 149.234375 442.96875 149.054688 442.96875 L 149.023438 442.429688 L 149.597656 442.429688 C 153.328125 442.417969 157.089844 442.335938 160.785156 442.179688 L 161.382812 442.15625 L 161.355469 442.695312 C 161.171875 442.703125 160.992188 442.714844 160.808594 442.722656 C 159.582031 464.417969 163.582031 495.917969 163.730469 507.074219 C 163.585938 507.429688 163.460938 507.792969 163.351562 508.152344 L 163.792969 508.558594 L 163.617188 509.136719 L 163.121094 508.683594 C 160.996094 515 161.441406 526.425781 161.574219 528.949219 L 164.902344 528.949219 L 166.253906 521.308594 L 174.621094 531 L 197.90625 531 C 198.253906 529.332031 199.171875 523.097656 194.015625 520.773438 C 192.984375 520.308594 191.730469 519.96875 190.292969 519.765625 L 190.085938 519.738281 L 189.949219 519.574219 C 189.839844 519.4375 189.730469 519.289062 189.625 519.144531 C 189.875 519.171875 190.125 519.195312 190.371094 519.226562 C 186.75 514.777344 183.214844 505.738281 182.480469 503.789062 C 183.84375 492.265625 187.03125 460.507812 188.636719 439.917969 C 188.457031 439.949219 188.269531 439.976562 188.085938 440.007812 C 188.089844 439.964844 188.09375 439.917969 188.097656 439.875 L 188.128906 439.453125 L 188.542969 439.382812 C 203.066406 436.828125 211.300781 432.945312 211.132812 428.722656 C 210.382812 409.722656 198.878906 376.460938 189.359375 351.902344 L 189.070312 351.160156 L 213.851562 351.160156 L 213.851562 331.996094 C 214.035156 331.996094 214.214844 332 214.394531 331.992188 C 216.414062 331.941406 218.398438 331.65625 219.40625 331.269531 C 221.832031 330.332031 220.519531 328.921875 220.785156 328.527344 C 221.050781 328.132812 221.886719 327.40625 222.152344 326.300781 C 222.417969 325.199219 221.691406 325.085938 221.90625 324.019531 C 222.121094 323.164062 222.992188 323.042969 222.972656 321.457031 Z M 222.972656 321.457031 " fill-opacity="1" fill-rule="nonzero"/></g><path fill="#ffffff" d="M 267.789062 445.089844 C 265.054688 447.519531 262.84375 450.683594 261.332031 454.007812 C 260.464844 455.921875 257.652344 454.261719 258.515625 452.359375 C 260.128906 448.8125 262.5625 445.371094 265.480469 442.78125 C 267.046875 441.386719 269.363281 443.6875 267.789062 445.089844 Z M 336.816406 147.429688 L 232.359375 147.429688 L 232.359375 186.601562 L 336.816406 186.601562 Z M 453.574219 514.808594 C 452.402344 513.792969 451.261719 514.140625 450.054688 515.078125 C 447.402344 517.148438 444.433594 522.078125 440.105469 521.660156 C 433.8125 521.054688 433.132812 518.230469 430.277344 516.417969 C 429.371094 515.839844 428.539062 515.621094 427.9375 515.542969 C 427.339844 515.46875 426.964844 515.535156 426.964844 515.535156 C 426.964844 515.535156 425.023438 519.617188 425.023438 526.0625 C 425.023438 529.078125 425.003906 531.542969 425.003906 531.542969 L 439.332031 531.542969 L 439.332031 528.894531 L 452.359375 531.542969 L 472.175781 531.542969 C 472.175781 529.640625 472.234375 528.34375 471.523438 526.0625 C 470.148438 521.660156 455.15625 516.175781 453.574219 514.808594 Z M 396.445312 511.046875 C 395.445312 509.859375 394.265625 510.023438 392.925781 510.761719 C 389.976562 512.382812 386.261719 516.777344 382.058594 515.679688 C 375.941406 514.082031 375.71875 511.1875 373.1875 508.941406 C 372.382812 508.230469 371.597656 507.878906 371.015625 507.710938 C 370.4375 507.542969 370.058594 507.546875 370.058594 507.546875 C 370.058594 507.546875 367.492188 511.269531 366.46875 517.632812 C 365.988281 520.609375 365.582031 523.042969 365.582031 523.039062 L 379.726562 525.3125 L 380.148438 522.695312 L 392.589844 527.378906 L 412.15625 530.523438 C 412.457031 528.644531 412.722656 527.371094 412.378906 525.007812 C 411.71875 520.445312 397.789062 512.648438 396.445312 511.046875 Z M 349.328125 272.605469 L 345.6875 265.800781 L 337.113281 249.773438 L 333.355469 242.753906 C 332.761719 243.214844 332.171875 243.664062 331.589844 244.101562 C 331.378906 244.261719 331.171875 244.410156 330.964844 244.566406 C 330.597656 244.839844 330.230469 245.113281 329.867188 245.375 C 329.609375 245.5625 329.355469 245.742188 329.101562 245.925781 C 328.796875 246.144531 328.492188 246.367188 328.1875 246.578125 C 327.90625 246.777344 327.625 246.96875 327.34375 247.164062 C 327.082031 247.34375 326.816406 247.53125 326.550781 247.707031 C 326.25 247.914062 325.949219 248.109375 325.652344 248.308594 C 325.417969 248.464844 325.183594 248.621094 324.953125 248.769531 C 324.636719 248.976562 324.324219 249.175781 324.011719 249.375 C 323.804688 249.507812 323.59375 249.640625 323.390625 249.769531 C 323.0625 249.972656 322.738281 250.167969 322.414062 250.367188 C 322.226562 250.480469 322.042969 250.59375 321.859375 250.703125 C 321.523438 250.90625 321.191406 251.097656 320.859375 251.289062 C 320.691406 251.386719 320.527344 251.484375 320.359375 251.578125 C 320.015625 251.777344 319.671875 251.964844 319.328125 252.15625 C 319.183594 252.234375 319.039062 252.316406 318.894531 252.394531 C 318.539062 252.585938 318.1875 252.773438 317.839844 252.953125 C 317.710938 253.019531 317.582031 253.089844 317.453125 253.152344 C 317.089844 253.339844 316.726562 253.523438 316.367188 253.699219 C 316.261719 253.75 316.152344 253.804688 316.042969 253.855469 C 315.671875 254.035156 315.300781 254.214844 314.929688 254.382812 C 314.839844 254.425781 314.746094 254.46875 314.65625 254.507812 C 314.273438 254.683594 313.890625 254.855469 313.511719 255.019531 C 313.4375 255.050781 313.367188 255.082031 313.296875 255.109375 C 312.898438 255.28125 312.503906 255.445312 312.113281 255.601562 C 312.0625 255.621094 312.011719 255.640625 311.960938 255.664062 C 311.550781 255.824219 311.140625 255.984375 310.734375 256.136719 C 310.707031 256.148438 310.675781 256.15625 310.648438 256.167969 C 310.222656 256.324219 309.796875 256.476562 309.371094 256.625 C 305.726562 257.875 302.207031 258.640625 298.644531 259.117188 C 298.472656 264.859375 296.570312 270.949219 291.730469 273.136719 C 283.078125 277.042969 276.976562 267.191406 277.683594 259.527344 C 272.996094 259.167969 268.488281 258.398438 263.785156 256.851562 C 262.878906 256.554688 261.960938 256.226562 261.035156 255.871094 C 261.035156 255.867188 261.03125 255.867188 261.027344 255.863281 C 260.566406 255.6875 260.101562 255.5 259.636719 255.304688 C 259.632812 255.304688 259.628906 255.300781 259.625 255.300781 C 259.160156 255.105469 258.695312 254.902344 258.222656 254.695312 C 258.210938 254.6875 258.195312 254.679688 258.179688 254.675781 C 257.71875 254.46875 257.257812 254.253906 256.789062 254.03125 C 256.765625 254.019531 256.742188 254.007812 256.71875 253.996094 C 256.261719 253.777344 255.800781 253.550781 255.335938 253.316406 C 255.296875 253.296875 255.261719 253.277344 255.222656 253.257812 C 254.773438 253.027344 254.316406 252.789062 253.855469 252.542969 C 253.804688 252.515625 253.753906 252.488281 253.703125 252.460938 C 253.257812 252.21875 252.804688 251.972656 252.351562 251.714844 C 252.289062 251.679688 252.222656 251.640625 252.15625 251.601562 C 251.714844 251.351562 251.269531 251.09375 250.820312 250.828125 C 250.726562 250.773438 250.632812 250.710938 250.539062 250.65625 C 250.113281 250.402344 249.691406 250.144531 249.261719 249.878906 C 249.140625 249.800781 249.015625 249.722656 248.894531 249.644531 C 248.488281 249.390625 248.082031 249.132812 247.667969 248.863281 C 247.507812 248.761719 247.34375 248.648438 247.183594 248.542969 C 246.804688 248.292969 246.421875 248.042969 246.039062 247.785156 C 245.835938 247.648438 245.632812 247.503906 245.433594 247.367188 C 245.078125 247.125 244.730469 246.886719 244.371094 246.636719 C 244.121094 246.460938 243.867188 246.273438 243.613281 246.09375 C 243.296875 245.867188 242.984375 245.648438 242.664062 245.414062 C 242.339844 245.179688 242.007812 244.929688 241.679688 244.6875 C 241.425781 244.496094 241.171875 244.316406 240.914062 244.121094 C 240.324219 243.679688 239.726562 243.222656 239.121094 242.753906 L 238.816406 243.328125 L 229.933594 259.929688 L 223.152344 272.605469 C 223.152344 272.605469 244.699219 288.796875 247.617188 294.210938 C 250.535156 299.628906 239.121094 378.191406 239.121094 378.191406 C 239.121094 378.191406 239.179688 378.214844 239.265625 378.246094 C 239.28125 378.25 239.296875 378.257812 239.316406 378.265625 C 239.359375 378.28125 239.40625 378.296875 239.46875 378.316406 C 239.503906 378.332031 239.542969 378.34375 239.585938 378.359375 C 239.652344 378.382812 239.722656 378.410156 239.804688 378.4375 C 239.828125 378.445312 239.851562 378.457031 239.875 378.464844 C 240.1875 378.574219 240.601562 378.71875 241.101562 378.886719 C 241.144531 378.902344 241.191406 378.917969 241.238281 378.933594 C 241.390625 378.984375 241.550781 379.039062 241.71875 379.09375 C 241.777344 379.117188 241.839844 379.136719 241.902344 379.15625 C 242.085938 379.214844 242.269531 379.277344 242.46875 379.34375 C 242.488281 379.347656 242.511719 379.355469 242.535156 379.363281 C 243.191406 379.578125 243.9375 379.8125 244.757812 380.070312 C 244.839844 380.09375 244.921875 380.117188 245.003906 380.144531 C 245.238281 380.21875 245.476562 380.289062 245.722656 380.363281 C 245.828125 380.394531 245.941406 380.429688 246.050781 380.460938 C 246.296875 380.539062 246.546875 380.613281 246.808594 380.6875 C 246.910156 380.71875 247.015625 380.75 247.117188 380.78125 C 247.734375 380.957031 248.371094 381.144531 249.042969 381.332031 C 249.046875 381.332031 249.050781 381.332031 249.054688 381.335938 C 250.148438 381.640625 251.320312 381.957031 252.554688 382.273438 C 252.6875 382.308594 252.828125 382.34375 252.964844 382.378906 C 253.429688 382.5 253.902344 382.617188 254.382812 382.734375 C 254.570312 382.78125 254.757812 382.828125 254.945312 382.871094 C 255.40625 382.984375 255.871094 383.09375 256.339844 383.203125 C 256.539062 383.25 256.730469 383.296875 256.929688 383.34375 C 257.449219 383.460938 257.976562 383.578125 258.507812 383.699219 C 258.660156 383.730469 258.808594 383.765625 258.960938 383.796875 C 259.65625 383.949219 260.363281 384.097656 261.082031 384.246094 C 261.144531 384.257812 261.214844 384.273438 261.28125 384.285156 C 261.917969 384.414062 262.5625 384.539062 263.21875 384.664062 C 263.441406 384.707031 263.667969 384.75 263.894531 384.792969 C 264.398438 384.882812 264.90625 384.976562 265.417969 385.066406 C 265.6875 385.113281 265.957031 385.160156 266.230469 385.207031 C 266.71875 385.289062 267.210938 385.367188 267.707031 385.449219 C 267.984375 385.492188 268.257812 385.535156 268.535156 385.578125 C 269.066406 385.660156 269.601562 385.738281 270.140625 385.8125 C 270.378906 385.847656 270.617188 385.882812 270.859375 385.917969 C 271.632812 386.023438 272.414062 386.121094 273.203125 386.214844 C 273.277344 386.222656 273.351562 386.230469 273.425781 386.242188 C 274.136719 386.324219 274.851562 386.398438 275.570312 386.472656 C 275.832031 386.5 276.097656 386.519531 276.363281 386.546875 C 276.902344 386.597656 277.441406 386.644531 277.980469 386.6875 C 278.28125 386.710938 278.582031 386.730469 278.882812 386.753906 C 279.398438 386.789062 279.917969 386.824219 280.4375 386.851562 C 280.742188 386.871094 281.046875 386.886719 281.351562 386.902344 C 281.902344 386.929688 282.453125 386.949219 283.003906 386.96875 C 283.269531 386.976562 283.535156 386.988281 283.796875 386.996094 C 284.613281 387.015625 285.425781 387.03125 286.238281 387.03125 C 287.054688 387.03125 287.867188 387.015625 288.679688 386.996094 C 288.945312 386.988281 289.210938 386.976562 289.476562 386.96875 C 290.027344 386.949219 290.578125 386.929688 291.128906 386.902344 C 291.433594 386.890625 291.738281 386.871094 292.042969 386.855469 C 292.5625 386.824219 293.078125 386.789062 293.59375 386.753906 C 293.898438 386.734375 294.199219 386.710938 294.5 386.6875 C 295.042969 386.644531 295.582031 386.597656 296.121094 386.546875 C 296.382812 386.523438 296.648438 386.5 296.910156 386.472656 C 297.628906 386.402344 298.347656 386.324219 299.058594 386.242188 C 299.132812 386.234375 299.207031 386.226562 299.28125 386.21875 C 300.066406 386.125 300.851562 386.023438 301.625 385.917969 C 301.863281 385.886719 302.097656 385.851562 302.332031 385.816406 C 302.875 385.742188 303.410156 385.664062 303.945312 385.582031 C 304.226562 385.539062 304.503906 385.492188 304.78125 385.449219 C 305.273438 385.371094 305.761719 385.289062 306.25 385.207031 C 306.523438 385.164062 306.792969 385.117188 307.0625 385.070312 C 307.574219 384.980469 308.078125 384.886719 308.585938 384.792969 C 308.8125 384.75 309.039062 384.710938 309.265625 384.667969 C 309.921875 384.542969 310.574219 384.414062 311.214844 384.285156 C 311.273438 384.273438 311.335938 384.261719 311.398438 384.25 C 312.117188 384.101562 312.820312 383.953125 313.515625 383.800781 C 313.671875 383.765625 313.820312 383.734375 313.972656 383.699219 C 314.507812 383.582031 315.03125 383.464844 315.550781 383.34375 C 315.746094 383.296875 315.941406 383.253906 316.136719 383.207031 C 316.609375 383.097656 317.074219 382.984375 317.535156 382.871094 C 317.722656 382.828125 317.90625 382.78125 318.09375 382.738281 C 318.574219 382.617188 319.050781 382.5 319.515625 382.378906 C 319.652344 382.34375 319.789062 382.308594 319.925781 382.277344 C 321.917969 381.761719 323.738281 381.253906 325.359375 380.78125 C 325.460938 380.75 325.566406 380.71875 325.667969 380.691406 C 325.925781 380.613281 326.175781 380.539062 326.421875 380.464844 C 326.535156 380.429688 326.652344 380.398438 326.761719 380.363281 C 327.003906 380.289062 327.242188 380.21875 327.472656 380.148438 C 327.558594 380.121094 327.644531 380.09375 327.730469 380.066406 C 328.546875 379.816406 329.285156 379.582031 329.941406 379.367188 C 329.960938 379.359375 329.988281 379.351562 330.011719 379.34375 C 330.214844 379.277344 330.40625 379.214844 330.589844 379.152344 C 330.644531 379.136719 330.695312 379.117188 330.75 379.101562 C 330.917969 379.046875 331.082031 378.992188 331.238281 378.9375 C 331.292969 378.917969 331.34375 378.902344 331.398438 378.882812 C 331.882812 378.71875 332.28125 378.582031 332.589844 378.472656 C 332.617188 378.460938 332.652344 378.449219 332.679688 378.441406 C 332.765625 378.410156 332.835938 378.382812 332.90625 378.359375 C 332.941406 378.347656 332.972656 378.335938 333 378.324219 C 333.066406 378.300781 333.117188 378.285156 333.164062 378.265625 C 333.183594 378.257812 333.195312 378.253906 333.214844 378.246094 C 333.296875 378.21875 333.355469 378.195312 333.355469 378.195312 C 333.355469 378.195312 321.945312 299.632812 324.863281 294.214844 C 327.78125 288.796875 349.328125 272.605469 349.328125 272.605469 Z M 459.726562 438.953125 C 460.542969 437.691406 459.628906 435.714844 459.15625 434.492188 C 458.503906 432.8125 457.730469 430.808594 456.390625 429.542969 C 454.863281 428.097656 452.550781 430.402344 454.082031 431.851562 C 454.882812 432.609375 455.339844 433.832031 455.785156 434.820312 C 456.074219 435.46875 456.3125 436.140625 456.527344 436.820312 C 456.605469 437.0625 456.667969 437.308594 456.726562 437.558594 C 456.738281 437.601562 456.734375 437.609375 456.738281 437.644531 C 456.117188 439.277344 458.664062 440.605469 459.726562 438.953125 Z M 432.566406 305.566406 L 432.566406 342.546875 L 525.417969 342.546875 L 525.417969 305.566406 Z M 194.242188 520.277344 C 193.082031 519.753906 191.757812 519.421875 190.371094 519.230469 C 184.15625 518.363281 176.625 520.277344 176.625 520.277344 L 163.351562 508.15625 L 162.890625 507.734375 C 160.097656 514.746094 161.058594 529.496094 161.0625 529.496094 L 165.363281 529.496094 L 166.589844 522.53125 L 174.375 531.542969 L 198.339844 531.542969 C 198.335938 531.542969 200.589844 523.144531 194.242188 520.277344 Z M 147.042969 508.15625 L 133.769531 520.277344 C 133.769531 520.277344 126.238281 518.359375 120.023438 519.230469 C 118.632812 519.421875 117.3125 519.753906 116.152344 520.277344 C 109.804688 523.144531 112.054688 531.542969 112.054688 531.542969 L 136.019531 531.542969 L 143.804688 522.53125 L 145.03125 529.496094 L 149.332031 529.496094 C 149.335938 529.496094 150.296875 514.746094 147.503906 507.734375 Z M 405.421875 437.296875 C 405.550781 438.179688 406.65625 438.648438 407.429688 438.4375 C 408.367188 438.179688 408.695312 437.308594 408.570312 436.429688 C 408.242188 434.125 406.671875 432.210938 405.851562 430.082031 C 405.101562 428.140625 401.945312 428.984375 402.703125 430.949219 C 403.515625 433.054688 405.097656 435.035156 405.421875 437.296875 Z M 93.40625 304.242188 C 93.644531 304.570312 93.792969 304.996094 93.792969 305.464844 C 93.792969 307.339844 93.792969 313.273438 93.792969 313.273438 C 93.792969 313.273438 101.347656 315.296875 101.5625 317.074219 C 101.777344 318.851562 97.394531 319.035156 94.832031 319.035156 C 95.898438 319.25 102.976562 320.390625 102.765625 321.882812 C 102.667969 322.660156 100.925781 323.378906 99.082031 323.832031 C 100.640625 324.160156 102.007812 324.777344 101.980469 325.65625 C 101.949219 326.671875 99.5625 327.632812 97.277344 328.152344 C 98.632812 328.671875 99.738281 329.492188 99.488281 330.425781 C 99.15625 331.675781 96.25 332.066406 93.40625 331.996094 L 93.40625 351.707031 L 214.398438 351.707031 L 214.398438 331.996094 C 211.554688 332.066406 208.644531 331.675781 208.3125 330.425781 C 208.0625 329.492188 209.171875 328.671875 210.527344 328.152344 C 208.238281 327.632812 205.851562 326.671875 205.820312 325.65625 C 205.792969 324.777344 207.160156 324.160156 208.722656 323.832031 C 206.875 323.378906 205.132812 322.660156 205.039062 321.882812 C 204.824219 320.390625 211.902344 319.25 212.96875 319.035156 C 210.410156 319.035156 206.027344 318.851562 206.238281 317.074219 C 206.453125 315.296875 214.007812 313.273438 214.007812 313.273438 C 214.007812 313.273438 214.007812 307.339844 214.007812 305.464844 C 214.007812 304.992188 214.15625 304.570312 214.398438 304.242188 L 214.398438 283.867188 L 93.40625 283.867188 Z M 306.960938 442.417969 C 305.4375 440.960938 303.128906 443.269531 304.652344 444.726562 C 307.269531 447.230469 309.3125 450.207031 311.46875 453.097656 C 312.710938 454.765625 315.546875 453.140625 314.285156 451.453125 C 311.964844 448.34375 309.773438 445.113281 306.960938 442.417969 Z M 433.042969 252 C 433.085938 251.621094 432.667969 251.421875 432.355469 251.476562 C 431.386719 251.644531 428.140625 250.769531 428.148438 250.777344 C 428.929688 253.667969 432.777344 254.464844 433.042969 252 Z M 433.042969 252 " fill-opacity="1" fill-rule="nonzero"/><path fill="#5170ff" d="M 147.046875 120.238281 C 145.566406 118.308594 144.679688 115.902344 144.679688 113.28125 C 144.679688 106.960938 149.804688 101.835938 156.125 101.835938 C 160.371094 101.835938 164.066406 104.148438 166.042969 107.582031 C 163.816406 108.929688 161.613281 110.324219 159.425781 111.734375 C 155.222656 114.449219 151.097656 117.289062 147.046875 120.238281 Z M 156.125 124.730469 C 162.449219 124.730469 167.574219 119.605469 167.574219 113.28125 C 167.574219 111.484375 167.148438 109.792969 166.410156 108.277344 C 159.941406 112.210938 153.660156 116.417969 147.558594 120.859375 C 149.65625 123.226562 152.710938 124.730469 156.125 124.730469 Z M 304.238281 251.222656 C 302.519531 250.050781 300.519531 249.015625 298.347656 248.144531 C 297.660156 249.140625 296.617188 249.925781 295.488281 250.0625 C 294.441406 252.726562 292.691406 254.984375 290.546875 256.3125 L 290.546875 265.179688 L 286.242188 269.609375 L 281.933594 265.179688 L 281.933594 256.308594 C 279.792969 254.976562 278.046875 252.722656 276.996094 250.0625 C 275.046875 249.832031 273.339844 247.632812 273.308594 245.859375 C 270.164062 246.703125 267.546875 248.125 265.878906 250.203125 C 265.144531 251.117188 264.59375 252.152344 264.257812 253.320312 C 263.925781 254.5 263.789062 255.679688 263.792969 256.855469 C 263.828125 266.421875 274.289062 275.535156 281.179688 280.496094 C 277.003906 285.28125 268.925781 295.988281 270.664062 305.53125 C 270.664062 305.53125 282.199219 296.359375 285.933594 286.933594 C 289.671875 296.359375 301.207031 305.53125 301.207031 305.53125 C 302.765625 296.957031 296.410156 287.453125 292.074219 282.140625 C 298.722656 278.769531 309.726562 271.621094 310.339844 260.980469 C 310.425781 259.445312 310.074219 257.988281 309.371094 256.621094 C 308.339844 254.609375 306.542969 252.792969 304.238281 251.222656 Z M 286.238281 253.59375 C 288.144531 253.59375 288.699219 252.402344 288.859375 251.699219 C 287.976562 252.058594 287.117188 252.207031 286.335938 252.207031 C 285.246094 252.207031 284.300781 251.945312 283.613281 251.679688 C 283.769531 252.378906 284.316406 253.59375 286.238281 253.59375 Z M 288.820312 251.003906 C 288.605469 250.695312 287.980469 250.136719 286.238281 250.136719 C 284.507812 250.136719 283.882812 250.691406 283.664062 251 C 284.722656 251.457031 286.671875 251.972656 288.820312 251.003906 Z M 157.78125 245.835938 C 157.5625 245.527344 156.941406 244.972656 155.199219 244.972656 C 153.464844 244.972656 152.839844 245.523438 152.621094 245.832031 C 153.683594 246.289062 155.628906 246.804688 157.78125 245.835938 Z M 155.199219 248.425781 C 157.101562 248.425781 157.65625 247.234375 157.820312 246.53125 C 156.933594 246.890625 156.074219 247.039062 155.292969 247.039062 C 154.203125 247.039062 153.257812 246.78125 152.574219 246.511719 C 152.730469 247.210938 153.277344 248.425781 155.199219 248.425781 Z M 117.625 351.707031 C 109.304688 371.03125 101.226562 392.082031 103.851562 395.582031 C 103.855469 395.585938 103.855469 395.589844 103.859375 395.59375 C 108.933594 402.21875 189.199219 428.15625 189.199219 428.15625 L 168.847656 351.707031 Z M 177.285156 264.105469 C 176.726562 263.640625 176.074219 263.230469 175.367188 262.863281 C 174.757812 262.546875 174.105469 262.261719 173.421875 262.007812 C 168.003906 259.984375 160.839844 259.8125 160.605469 259.808594 C 160.601562 259.808594 160.59375 259.808594 160.59375 259.808594 C 161.085938 260.667969 161.53125 261.695312 161.945312 262.859375 C 163.703125 267.847656 157.023438 275.417969 157.644531 283.867188 L 193.550781 283.867188 C 193.511719 283.597656 180.59375 266.839844 177.285156 264.105469 Z M 139.75 235.738281 C 141.386719 236.761719 143.808594 236.816406 143.808594 236.816406 C 143.808594 236.816406 143.808594 227.128906 155.199219 227.128906 C 166.585938 227.128906 166.011719 236.722656 166.011719 236.722656 C 166.011719 236.722656 168.941406 236.550781 170.679688 235.519531 C 171.507812 235.027344 172.066406 234.339844 171.910156 233.382812 C 171.410156 230.414062 169.007812 222.296875 154.269531 222.296875 C 140.804688 222.296875 138.289062 230.359375 138.285156 233.292969 C 138.285156 234.445312 138.917969 235.214844 139.75 235.738281 Z M 472.558594 317.222656 C 472.304688 316.742188 471.964844 316.382812 471.511719 316.128906 C 471.050781 315.871094 470.523438 315.746094 469.898438 315.753906 C 469.277344 315.757812 468.753906 315.890625 468.296875 316.164062 C 467.851562 316.425781 467.515625 316.789062 467.269531 317.273438 C 467.015625 317.785156 466.890625 318.390625 466.898438 319.082031 L 466.957031 324.515625 C 466.964844 325.207031 467.101562 325.808594 467.367188 326.3125 C 467.621094 326.792969 467.964844 327.152344 468.417969 327.40625 C 468.878906 327.664062 469.40625 327.789062 470.027344 327.78125 C 470.652344 327.777344 471.175781 327.644531 471.632812 327.371094 C 472.078125 327.109375 472.414062 326.746094 472.65625 326.261719 C 472.910156 325.75 473.039062 325.144531 473.03125 324.453125 L 472.972656 319.019531 C 472.964844 318.328125 472.828125 317.726562 472.558594 317.222656 Z M 540.175781 287.894531 L 539.621094 340.035156 L 539.613281 340.699219 L 539.445312 356.691406 L 512.890625 356.421875 C 512.902344 353.828125 512.488281 351.324219 511.332031 350.9375 C 510.394531 350.625 509.558594 351.667969 509.03125 352.976562 C 508.519531 350.671875 507.566406 348.230469 506.542969 348.128906 C 505.660156 348.042969 505.03125 349.355469 504.691406 350.882812 C 504.6875 348.652344 503.988281 347.078125 502.75 347.089844 C 501.234375 347.101562 500.0625 353.722656 499.839844 354.765625 C 499.855469 352.222656 499.691406 347.859375 497.898438 347.945312 C 496.105469 348.035156 495.382812 350.261719 494.03125 355.394531 C 493.949219 355.691406 493.90625 355.949219 493.84375 356.230469 L 465.082031 355.941406 L 406.453125 377.742188 L 417.75 349.183594 C 420.652344 349.277344 423.683594 348.894531 424.023438 347.617188 C 424.269531 346.6875 423.164062 345.863281 421.808594 345.34375 C 424.097656 344.824219 426.484375 343.863281 426.515625 342.847656 C 426.542969 341.96875 425.175781 341.355469 423.613281 341.027344 C 425.460938 340.570312 427.203125 339.855469 427.296875 339.078125 C 427.511719 337.582031 420.433594 336.445312 419.363281 336.230469 C 421.925781 336.230469 426.308594 336.046875 426.097656 334.269531 C 425.882812 332.488281 418.328125 330.464844 418.328125 330.464844 C 418.328125 330.464844 418.328125 324.535156 418.328125 322.660156 C 418.328125 322.261719 418.21875 321.902344 418.042969 321.601562 L 410.804688 278.363281 L 455.207031 287.035156 Z M 456.984375 311.734375 L 452.152344 311.78125 L 448.394531 324.21875 L 444.375 311.859375 L 439.542969 311.910156 L 446.550781 332.171875 L 450.410156 332.132812 Z M 477.585938 324.320312 L 477.527344 319.066406 C 477.511719 317.5625 477.183594 316.21875 476.550781 315.070312 C 475.90625 313.894531 474.988281 312.976562 473.820312 312.335938 C 472.667969 311.707031 471.332031 311.398438 469.855469 311.410156 C 468.375 311.425781 467.046875 311.765625 465.90625 312.417969 C 464.753906 313.078125 463.855469 314.015625 463.238281 315.203125 C 462.628906 316.367188 462.328125 317.71875 462.34375 319.214844 L 462.398438 324.472656 C 462.417969 325.972656 462.746094 327.316406 463.378906 328.46875 C 464.023438 329.640625 464.941406 330.5625 466.105469 331.199219 C 467.257812 331.828125 468.59375 332.140625 470.074219 332.125 C 471.554688 332.109375 472.882812 331.773438 474.019531 331.121094 C 475.171875 330.460938 476.070312 329.523438 476.691406 328.335938 C 477.300781 327.171875 477.601562 325.820312 477.585938 324.320312 Z M 497.960938 315.574219 L 497.917969 311.320312 L 482.679688 311.472656 L 482.726562 315.726562 L 488.097656 315.671875 L 488.269531 331.75 L 492.757812 331.703125 L 492.585938 315.628906 Z M 518.3125 331.449219 L 518.265625 327.191406 L 508.722656 327.289062 L 508.683594 323.570312 L 516.789062 323.488281 L 516.746094 319.234375 L 508.640625 319.316406 L 508.597656 315.464844 L 518.140625 315.371094 L 518.097656 311.117188 L 504.0625 311.257812 L 504.28125 331.589844 Z M 518.3125 331.449219 " fill-opacity="1" fill-rule="nonzero"/><g clip-path="url(#8cc58c3fd2)"><path fill="#194cbc" d="M 578.25 340.035156 L 557.046875 340.035156 L 557.046875 321.15625 L 577.5625 321.15625 C 577.660156 322.550781 577.753906 323.945312 577.832031 325.34375 C 577.871094 326.054688 577.902344 326.773438 577.9375 327.488281 C 578 328.863281 578.054688 330.242188 578.097656 331.621094 C 578.125 332.402344 578.148438 333.179688 578.167969 333.960938 C 578.207031 335.648438 578.230469 337.34375 578.238281 339.039062 C 578.238281 339.371094 578.25 339.703125 578.25 340.035156 Z M 218.980469 131.71875 L 353.027344 131.71875 L 353.027344 175.835938 C 348.769531 176.175781 341.015625 177.9375 340.128906 179.523438 C 339.023438 181.492188 345.207031 182.816406 349.402344 182.152344 C 349.628906 182.117188 349.835938 182.105469 350.035156 182.109375 C 347.101562 183.640625 343.621094 186.296875 343.996094 187.289062 C 344.53125 188.691406 348.117188 188.308594 349.703125 187.609375 C 351.289062 186.910156 354.257812 187.96875 349.511719 192.160156 C 345.949219 195.308594 344.808594 197.765625 344.679688 199.558594 L 227.800781 199.558594 C 227.667969 197.765625 226.53125 195.308594 222.964844 192.160156 C 218.21875 187.96875 221.1875 186.910156 222.773438 187.609375 C 224.363281 188.308594 227.945312 188.691406 228.480469 187.289062 C 228.851562 186.304688 225.429688 183.679688 222.511719 182.144531 C 222.542969 182.148438 222.570312 182.144531 222.605469 182.152344 C 226.800781 182.816406 232.984375 181.492188 231.878906 179.523438 C 230.988281 177.9375 223.238281 176.175781 218.980469 175.835938 Z M 314.769531 177.507812 L 330.761719 177.507812 L 330.761719 172.542969 L 319.882812 172.542969 L 319.882812 168.195312 L 329.121094 168.195312 L 329.121094 163.230469 L 319.882812 163.230469 L 319.882812 158.738281 L 330.761719 158.738281 L 330.761719 153.769531 L 314.769531 153.769531 Z M 290.402344 158.738281 L 296.527344 158.738281 L 296.527344 177.507812 L 301.640625 177.507812 L 301.640625 158.738281 L 307.761719 158.738281 L 307.761719 153.769531 L 290.402344 153.769531 Z M 267.136719 168.707031 C 267.136719 170.457031 267.496094 172.03125 268.203125 173.382812 C 268.925781 174.761719 269.960938 175.84375 271.28125 176.601562 C 272.585938 177.351562 274.101562 177.730469 275.789062 177.730469 C 277.476562 177.730469 278.992188 177.351562 280.296875 176.601562 C 281.617188 175.84375 282.65625 174.761719 283.375 173.382812 C 284.082031 172.03125 284.441406 170.457031 284.441406 168.707031 L 284.441406 162.570312 C 284.441406 160.820312 284.082031 159.246094 283.375 157.894531 C 282.65625 156.515625 281.621094 155.433594 280.296875 154.675781 C 278.992188 153.925781 277.472656 153.546875 275.789062 153.546875 C 274.101562 153.546875 272.585938 153.925781 271.28125 154.675781 C 269.957031 155.433594 268.921875 156.515625 268.203125 157.894531 C 267.496094 159.246094 267.136719 160.820312 267.136719 162.570312 Z M 241.246094 153.769531 L 248.984375 177.507812 L 253.382812 177.507812 L 261.121094 153.769531 L 255.613281 153.769531 L 251.183594 168.246094 L 246.753906 153.769531 Z M 273.957031 172.203125 C 274.480469 172.511719 275.078125 172.660156 275.789062 172.660156 C 276.5 172.660156 277.097656 172.511719 277.621094 172.203125 C 278.132812 171.902344 278.519531 171.480469 278.804688 170.917969 C 279.101562 170.324219 279.25 169.617188 279.25 168.8125 L 279.25 162.46875 C 279.25 161.664062 279.097656 160.953125 278.800781 160.363281 C 278.519531 159.800781 278.132812 159.378906 277.621094 159.078125 C 277.097656 158.769531 276.5 158.621094 275.789062 158.621094 C 275.078125 158.621094 274.480469 158.769531 273.957031 159.078125 C 273.445312 159.378906 273.058594 159.800781 272.777344 160.363281 C 272.480469 160.953125 272.328125 161.660156 272.328125 162.46875 L 272.328125 168.8125 C 272.328125 169.617188 272.480469 170.324219 272.777344 170.917969 C 273.058594 171.480469 273.445312 171.898438 273.957031 172.203125 Z M 183.988281 283.054688 L 184.460938 279.246094 C 184.484375 279.0625 184.652344 278.929688 184.832031 278.957031 C 185.011719 278.980469 185.140625 279.144531 185.117188 279.324219 L 184.554688 283.867188 L 202.523438 283.867188 C 198.3125 261.429688 188.65625 254.59375 179.898438 256.367188 C 177.523438 256.851562 176.121094 259.324219 175.367188 262.863281 C 176.074219 263.230469 176.726562 263.640625 177.285156 264.105469 C 180.59375 266.839844 182.675781 274.496094 183.988281 283.054688 Z M 125.28125 279.324219 C 125.257812 279.144531 125.386719 278.976562 125.570312 278.957031 C 125.742188 278.929688 125.914062 279.0625 125.9375 279.246094 L 126.511719 283.867188 L 165.371094 283.867188 C 164.75 275.417969 163.703125 267.847656 161.941406 262.859375 C 159.738281 262.902344 157.5 262.933594 155.195312 262.933594 C 149.019531 262.933594 143.152344 262.773438 137.851562 262.484375 C 137.851562 262.484375 137.847656 262.484375 137.847656 262.484375 C 137.824219 262.492188 137.800781 262.5 137.777344 262.511719 C 137.351562 262.675781 136.929688 262.839844 136.523438 263.015625 C 136.507812 263.023438 136.492188 263.03125 136.476562 263.039062 C 136.089844 263.203125 135.714844 263.375 135.34375 263.550781 C 135.289062 263.578125 135.230469 263.605469 135.175781 263.632812 C 134.46875 259.6875 133.042969 256.882812 130.496094 256.367188 C 121.742188 254.59375 112.085938 261.429688 107.871094 283.867188 L 125.84375 283.867188 Z M 168.847656 351.707031 L 169.988281 406.082031 C 169.988281 406.082031 108.933594 402.21875 103.859375 395.59375 C 103.855469 395.589844 103.851562 395.585938 103.847656 395.582031 C 98.644531 411.746094 95.128906 425.597656 96.125 431.207031 C 97.03125 436.328125 107.539062 439.703125 121.878906 441.476562 C 130.203125 442.507812 139.816406 442.996094 149.597656 442.972656 C 153.332031 442.964844 157.089844 442.882812 160.808594 442.726562 C 170.769531 442.304688 180.441406 441.359375 188.640625 439.917969 C 202.324219 437.515625 211.875 433.730469 211.679688 428.703125 C 210.929688 409.742188 199.589844 376.785156 189.867188 351.707031 Z M 286.238281 222.460938 C 286.238281 222.460938 260.117188 237.988281 260.117188 243.710938 C 260.117188 243.710938 264.632812 240.570312 279.421875 239.800781 C 281.488281 239.695312 283.753906 239.632812 286.238281 239.632812 C 288.726562 239.632812 290.992188 239.695312 293.058594 239.800781 C 307.847656 240.570312 312.363281 243.710938 312.363281 243.710938 C 312.363281 237.988281 286.238281 222.460938 286.238281 222.460938 Z M 465.082031 355.941406 C 466.511719 371.15625 467.265625 382.304688 467.265625 382.304688 C 467.265625 382.304688 465.792969 383.011719 462.957031 383.976562 C 456.855469 386.046875 444.425781 389.304688 426.589844 389.304688 C 409.550781 389.304688 396.925781 386.332031 390.195312 384.261719 C 386.601562 383.15625 384.683594 382.304688 384.683594 382.304688 C 384.683594 382.304688 385.460938 364.460938 386.832031 342.917969 C 373.554688 339.4375 360.148438 334.710938 357.460938 329.371094 C 352.328125 319.175781 379.390625 280.984375 395.976562 268.976562 C 396.027344 268.929688 396.078125 268.867188 396.128906 268.832031 C 396.414062 268.632812 396.710938 268.453125 397 268.265625 C 397.257812 268.089844 397.515625 267.921875 397.769531 267.761719 C 397.78125 267.753906 397.796875 267.746094 397.8125 267.738281 C 398.742188 267.148438 399.640625 266.636719 400.476562 266.257812 C 400.691406 266.164062 400.898438 266.089844 401.101562 266.03125 C 406.640625 263.574219 412.890625 262.746094 419.039062 262.945312 L 419.039062 265.851562 L 427.652344 270.757812 L 427.652344 263.863281 C 437.476562 265.605469 445.9375 269.417969 449.210938 272.476562 C 451.386719 274.511719 453.390625 279.808594 455.207031 287.035156 L 418.410156 286.664062 L 418.042969 321.601562 C 417.386719 320.480469 415.753906 320.234375 414.914062 322.421875 C 414.058594 324.34375 414.273438 326.265625 413.84375 328.1875 C 413.417969 330.75 410.855469 331.179688 410 333.097656 C 409.574219 334.382812 410.429688 334.808594 410.429688 335.875 C 410.429688 337.15625 409.378906 337.0625 409.359375 338.652344 C 409.339844 340.238281 410.214844 340.359375 410.429688 341.214844 C 410.640625 342.28125 409.914062 342.394531 410.179688 343.496094 C 410.445312 344.597656 411.28125 345.328125 411.550781 345.722656 C 411.816406 346.117188 410.5 347.523438 412.929688 348.464844 C 413.90625 348.839844 415.796875 349.121094 417.75 349.183594 L 417.683594 355.464844 Z M 465.082031 355.941406 " fill-opacity="1" fill-rule="nonzero"/></g><g clip-path="url(#09b5233e12)"><path fill="#000000" d="M 578.914062 340.367188 C 578.914062 340.550781 578.765625 340.699219 578.582031 340.699219 L 539.613281 340.699219 L 539.621094 340.035156 L 578.25 340.035156 C 578.25 339.703125 578.238281 339.371094 578.238281 339.039062 C 578.230469 337.34375 578.207031 335.648438 578.167969 333.960938 C 578.148438 333.179688 578.121094 332.402344 578.097656 331.621094 C 578.054688 330.242188 578 328.863281 577.9375 327.488281 C 577.902344 326.773438 577.871094 326.054688 577.832031 325.34375 C 577.757812 323.945312 577.660156 322.550781 577.5625 321.15625 C 577.523438 320.628906 577.5 320.09375 577.457031 319.566406 C 577.453125 319.492188 577.449219 319.417969 577.445312 319.34375 C 577.363281 318.324219 577.261719 317.3125 577.171875 316.296875 C 577.0625 315.0625 576.964844 313.820312 576.839844 312.589844 C 576.75 311.71875 576.640625 310.859375 576.542969 309.992188 C 576.390625 308.628906 576.242188 307.261719 576.070312 305.90625 C 575.949219 304.964844 575.808594 304.03125 575.679688 303.09375 C 575.507812 301.839844 575.339844 300.585938 575.148438 299.335938 C 574.980469 298.234375 574.792969 297.140625 574.613281 296.042969 C 574.4375 294.988281 574.269531 293.929688 574.082031 292.878906 C 573.851562 291.574219 573.601562 290.277344 573.347656 288.976562 C 573.191406 288.167969 573.042969 287.355469 572.878906 286.546875 C 572.566406 285.003906 572.234375 283.46875 571.894531 281.933594 C 571.78125 281.40625 571.667969 280.878906 571.550781 280.351562 C 571.136719 278.539062 570.707031 276.734375 570.257812 274.9375 C 570.207031 274.726562 570.15625 274.511719 570.101562 274.300781 C 541.894531 162.394531 443.570312 78.3125 326.644531 69.734375 C 326.382812 69.714844 326.121094 69.699219 325.859375 69.683594 C 323.992188 69.550781 322.117188 69.433594 320.242188 69.339844 C 319.203125 69.289062 318.160156 69.261719 317.121094 69.222656 C 315.96875 69.179688 314.820312 69.125 313.667969 69.097656 C 311.417969 69.039062 309.160156 69.011719 306.894531 69.011719 C 255.507812 69.011719 207.414062 83.367188 166.410156 108.277344 C 159.941406 112.210938 153.660156 116.417969 147.558594 120.859375 C 79.804688 170.171875 35.644531 250.035156 35.535156 340.035156 L 93.40625 340.035156 L 93.40625 340.699219 L 35.203125 340.699219 C 35.113281 340.699219 35.03125 340.664062 34.96875 340.601562 C 34.910156 340.542969 34.871094 340.460938 34.871094 340.367188 C 34.871094 303.644531 42.0625 268.023438 56.25 234.488281 C 69.09375 204.121094 87.136719 176.652344 109.925781 152.753906 C 111.445312 151.160156 112.984375 149.582031 114.546875 148.019531 C 124.714844 137.855469 135.574219 128.589844 147.046875 120.238281 C 151.097656 117.289062 155.222656 114.453125 159.425781 111.734375 C 161.613281 110.324219 163.816406 108.933594 166.042969 107.582031 C 177.207031 100.820312 188.878906 94.859375 201.011719 89.726562 C 234.546875 75.539062 270.167969 68.347656 306.890625 68.347656 C 309.113281 68.347656 311.332031 68.375 313.546875 68.429688 C 314.585938 68.457031 315.617188 68.503906 316.652344 68.539062 C 317.777344 68.578125 318.910156 68.609375 320.035156 68.664062 C 321.601562 68.738281 323.167969 68.839844 324.734375 68.9375 C 325.292969 68.976562 325.855469 69.003906 326.414062 69.042969 C 328.300781 69.175781 330.179688 69.335938 332.058594 69.507812 C 332.277344 69.527344 332.492188 69.542969 332.707031 69.5625 C 359.242188 72.046875 385.050781 78.386719 409.757812 88.492188 C 410.664062 88.863281 411.574219 89.222656 412.476562 89.601562 C 412.574219 89.644531 412.675781 89.683594 412.773438 89.722656 C 413.675781 90.105469 414.5625 90.507812 415.460938 90.898438 C 416.445312 91.328125 417.4375 91.75 418.417969 92.191406 C 419.441406 92.652344 420.457031 93.132812 421.476562 93.605469 C 422.386719 94.027344 423.300781 94.445312 424.207031 94.878906 C 425.40625 95.453125 426.597656 96.042969 427.789062 96.636719 C 428.476562 96.980469 429.171875 97.316406 429.859375 97.664062 C 431.265625 98.378906 432.664062 99.109375 434.058594 99.847656 C 434.503906 100.085938 434.957031 100.316406 435.40625 100.558594 C 436.992188 101.410156 438.570312 102.28125 440.140625 103.164062 C 440.378906 103.300781 440.621094 103.429688 440.859375 103.566406 C 442.589844 104.546875 444.308594 105.546875 446.011719 106.5625 C 446.089844 106.609375 446.167969 106.652344 446.246094 106.699219 C 455.300781 112.105469 464.023438 118.035156 472.398438 124.472656 C 472.464844 124.527344 472.535156 124.578125 472.601562 124.628906 C 474.160156 125.828125 475.703125 127.046875 477.234375 128.277344 C 477.421875 128.429688 477.609375 128.582031 477.800781 128.734375 C 479.199219 129.867188 480.589844 131.019531 481.96875 132.179688 C 482.300781 132.460938 482.632812 132.742188 482.964844 133.023438 C 484.195312 134.066406 485.414062 135.125 486.625 136.195312 C 487.109375 136.621094 487.59375 137.050781 488.074219 137.480469 C 489.128906 138.421875 490.175781 139.375 491.222656 140.339844 C 491.527344 140.621094 491.835938 140.890625 492.140625 141.175781 C 492.464844 141.476562 492.777344 141.785156 493.101562 142.089844 C 493.988281 142.925781 494.871094 143.765625 495.75 144.613281 C 496.496094 145.332031 497.238281 146.058594 497.976562 146.789062 C 498.394531 147.199219 498.824219 147.605469 499.238281 148.019531 C 499.582031 148.363281 499.914062 148.71875 500.257812 149.0625 C 501.058594 149.871094 501.851562 150.6875 502.640625 151.503906 C 503.351562 152.238281 504.058594 152.976562 504.757812 153.71875 C 505.539062 154.542969 506.3125 155.375 507.082031 156.210938 C 507.789062 156.980469 508.496094 157.753906 509.199219 158.53125 C 509.914062 159.324219 510.621094 160.125 511.324219 160.925781 C 512.066406 161.769531 512.808594 162.617188 513.542969 163.46875 C 514.167969 164.199219 514.785156 164.933594 515.402344 165.667969 C 516.191406 166.609375 516.980469 167.550781 517.757812 168.5 C 518.289062 169.152344 518.8125 169.8125 519.339844 170.46875 C 520.175781 171.507812 521.003906 172.546875 521.820312 173.597656 C 522.273438 174.179688 522.71875 174.769531 523.167969 175.355469 C 524.03125 176.484375 524.890625 177.609375 525.734375 178.75 C 526.125 179.28125 526.511719 179.816406 526.902344 180.351562 C 527.769531 181.542969 528.640625 182.738281 529.488281 183.949219 C 529.855469 184.46875 530.210938 184.992188 530.574219 185.511719 C 531.421875 186.734375 532.265625 187.957031 533.09375 189.191406 C 533.476562 189.761719 533.84375 190.335938 534.222656 190.910156 C 535.003906 192.097656 535.789062 193.285156 536.550781 194.484375 C 537.023438 195.226562 537.480469 195.980469 537.949219 196.726562 C 538.589844 197.761719 539.238281 198.789062 539.867188 199.828125 C 540.601562 201.042969 541.3125 202.265625 542.027344 203.492188 C 542.367188 204.074219 542.714844 204.648438 543.046875 205.234375 C 549.554688 216.578125 555.214844 228.375 560.011719 240.535156 C 560.164062 240.925781 560.3125 241.320312 560.464844 241.710938 C 561.074219 243.285156 561.679688 244.863281 562.261719 246.449219 C 562.558594 247.253906 562.84375 248.066406 563.132812 248.875 C 563.542969 250.019531 563.949219 251.167969 564.34375 252.316406 C 564.730469 253.453125 565.105469 254.59375 565.480469 255.734375 C 565.746094 256.539062 566.007812 257.34375 566.261719 258.152344 C 566.710938 259.5625 567.144531 260.980469 567.570312 262.398438 C 567.722656 262.917969 567.878906 263.4375 568.027344 263.953125 C 568.515625 265.613281 568.984375 267.273438 569.433594 268.9375 C 569.503906 269.195312 569.574219 269.453125 569.640625 269.710938 C 570.148438 271.601562 570.636719 273.492188 571.105469 275.394531 C 571.105469 275.394531 571.105469 275.398438 571.105469 275.398438 C 574.890625 290.828125 577.300781 306.589844 578.328125 322.59375 C 578.386719 323.496094 578.445312 324.394531 578.496094 325.300781 C 578.550781 326.3125 578.597656 327.324219 578.640625 328.339844 C 578.691406 329.453125 578.730469 330.570312 578.765625 331.6875 C 578.792969 332.589844 578.824219 333.488281 578.84375 334.394531 C 578.875 335.980469 578.894531 337.570312 578.902344 339.15625 C 578.902344 339.566406 578.914062 339.964844 578.914062 340.367188 Z M 278.871094 509.09375 C 278.871094 509.09375 278.871094 509.089844 278.867188 509.089844 C 278.867188 509.089844 267.765625 518.621094 266.332031 514.886719 C 265.484375 512.679688 262.765625 511.203125 260.285156 510.816406 C 258.558594 510.550781 256.945312 510.808594 256.167969 511.738281 C 254.265625 514.003906 250 520.316406 242.382812 521.417969 C 236.796875 522.226562 237.082031 531.542969 237.082031 531.542969 L 257.324219 531.542969 L 270.0625 526.078125 L 272.367188 526.125 L 282.707031 521.6875 C 282.707031 521.6875 282.242188 511.425781 278.871094 509.09375 Z M 330.097656 521.417969 C 322.480469 520.316406 318.214844 514.003906 316.3125 511.738281 C 315.535156 510.808594 313.921875 510.550781 312.195312 510.816406 C 309.714844 511.203125 306.996094 512.679688 306.148438 514.886719 C 304.714844 518.621094 293.613281 509.089844 293.613281 509.089844 C 293.609375 509.089844 293.609375 509.09375 293.609375 509.09375 C 290.238281 511.429688 289.773438 521.6875 289.773438 521.6875 L 300.113281 526.125 L 302.417969 526.078125 L 315.15625 531.542969 L 335.398438 531.542969 C 335.398438 531.542969 335.683594 522.226562 330.097656 521.417969 Z M 295.3125 496.355469 C 291.429688 495.695312 288.628906 494.546875 288.398438 492.832031 C 287.976562 489.660156 290.328125 444.503906 290.328125 437.179688 C 290.328125 426.496094 288.335938 407.503906 286.242188 401.128906 C 284.148438 407.503906 282.152344 426.496094 282.152344 437.179688 C 282.152344 444.503906 284.507812 489.660156 284.082031 492.832031 C 283.851562 494.546875 281.050781 495.695312 277.167969 496.355469 C 272.300781 497.1875 265.742188 497.246094 260.339844 496.683594 C 255.359375 496.160156 251.375 495.109375 250.652344 493.640625 C 248.746094 489.761719 248.984375 400.316406 249.054688 381.332031 C 258.121094 383.871094 272.210938 387.023438 286.238281 387.023438 C 300.273438 387.023438 314.359375 383.871094 323.425781 381.328125 C 323.5 400.3125 323.738281 489.761719 321.828125 493.640625 C 321.105469 495.109375 317.121094 496.160156 312.140625 496.683594 C 306.738281 497.246094 300.175781 497.1875 295.3125 496.355469 Z M 306.632812 445.253906 L 312.011719 452 C 312.074219 452.082031 312.171875 452.125 312.269531 452.125 C 312.34375 452.125 312.414062 452.101562 312.476562 452.050781 C 312.617188 451.9375 312.640625 451.730469 312.527344 451.585938 L 307.152344 444.84375 C 307.039062 444.699219 306.828125 444.675781 306.6875 444.789062 C 306.542969 444.902344 306.519531 445.113281 306.632812 445.253906 Z M 265.792969 444.789062 C 265.648438 444.675781 265.441406 444.699219 265.328125 444.84375 L 259.949219 451.585938 C 259.835938 451.730469 259.859375 451.9375 260.003906 452.050781 C 260.0625 452.101562 260.136719 452.125 260.210938 452.125 C 260.304688 452.125 260.402344 452.082031 260.46875 452 L 265.84375 445.253906 C 265.957031 445.113281 265.933594 444.90625 265.792969 444.789062 Z M 279.421875 239.800781 C 264.632812 240.570312 260.117188 243.710938 260.117188 243.710938 C 260.117188 246.171875 262.277344 248.425781 265.878906 250.203125 C 267.546875 248.125 270.160156 246.703125 273.308594 245.859375 C 273.308594 245.84375 273.300781 245.828125 273.300781 245.8125 C 273.300781 244.777344 273.582031 244.132812 274.339844 243.75 C 274.472656 244.089844 274.625 244.417969 274.800781 244.730469 C 274.667969 244.753906 274.550781 244.832031 274.523438 244.976562 C 274.492188 245.15625 274.613281 245.328125 274.792969 245.359375 C 274.804688 245.363281 275.898438 245.628906 275.898438 248.105469 C 275.898438 248.289062 276.046875 248.4375 276.226562 248.4375 C 276.414062 248.4375 276.558594 248.289062 276.558594 248.105469 C 276.558594 247.359375 276.464844 246.777344 276.320312 246.320312 C 277.386719 246.777344 278.726562 246.460938 278.007812 245.035156 C 277.234375 243.503906 278.117188 242.859375 278.84375 241.550781 C 279.128906 241.035156 279.34375 240.414062 279.421875 239.800781 Z M 282.78125 244.800781 C 282.78125 244.082031 282.371094 243.5 281.867188 243.5 C 281.363281 243.5 280.957031 244.082031 280.957031 244.800781 C 280.957031 245.515625 281.363281 246.097656 281.867188 246.097656 C 282.371094 246.097656 282.78125 245.515625 282.78125 244.800781 Z M 283.691406 241.214844 C 282.277344 240.707031 280.03125 241.113281 279.484375 242.46875 C 279.300781 242.929688 281.875 241.953125 283.777344 242.703125 C 284.636719 243.039062 284.652344 241.558594 283.691406 241.214844 Z M 289.808594 244.800781 C 289.808594 245.515625 290.214844 246.097656 290.71875 246.097656 C 291.222656 246.097656 291.632812 245.515625 291.632812 244.800781 C 291.632812 244.082031 291.222656 243.5 290.71875 243.5 C 290.214844 243.5 289.808594 244.082031 289.808594 244.800781 Z M 288.894531 241.214844 C 287.933594 241.558594 287.953125 243.039062 288.8125 242.703125 C 290.714844 241.953125 293.289062 242.929688 293.101562 242.46875 C 292.558594 241.113281 290.3125 240.707031 288.894531 241.214844 Z M 286.710938 245.28125 C 286.710938 245.097656 286.5625 244.949219 286.382812 244.949219 C 286.199219 244.949219 286.050781 245.097656 286.050781 245.28125 C 286.050781 246.046875 285.785156 246.304688 285.503906 246.578125 C 285.253906 246.820312 284.96875 247.097656 284.980469 247.652344 C 285.019531 249.035156 286.636719 249.035156 287.167969 249.035156 C 287.351562 249.035156 287.496094 248.886719 287.496094 248.703125 C 287.496094 248.519531 287.351562 248.371094 287.167969 248.371094 C 285.839844 248.371094 285.652344 248 285.640625 247.636719 C 285.636719 247.382812 285.734375 247.273438 285.964844 247.054688 C 286.28125 246.746094 286.710938 246.328125 286.710938 245.28125 Z M 282.824219 250.5625 C 282.671875 250.460938 282.464844 250.5 282.363281 250.652344 C 282.261719 250.800781 282.300781 251.007812 282.453125 251.109375 C 282.464844 251.117188 282.898438 251.402344 283.613281 251.679688 C 284.300781 251.945312 285.246094 252.207031 286.335938 252.207031 C 287.117188 252.207031 287.976562 252.058594 288.859375 251.699219 C 289.242188 251.546875 289.628906 251.363281 290.019531 251.117188 C 290.175781 251.019531 290.21875 250.816406 290.121094 250.660156 C 290.023438 250.503906 289.816406 250.460938 289.664062 250.554688 C 289.382812 250.734375 289.101562 250.878906 288.820312 251.003906 C 286.671875 251.972656 284.722656 251.457031 283.664062 250.996094 C 283.167969 250.785156 282.863281 250.585938 282.824219 250.5625 Z M 248.171875 292.070312 C 248.191406 292.070312 248.207031 292.070312 248.230469 292.066406 C 248.410156 292.035156 248.527344 291.863281 248.496094 291.683594 L 246.535156 280.558594 C 246.503906 280.378906 246.328125 280.257812 246.152344 280.292969 C 245.972656 280.324219 245.851562 280.496094 245.882812 280.675781 L 247.84375 291.796875 C 247.871094 291.957031 248.011719 292.070312 248.171875 292.070312 Z M 324.308594 292.070312 C 324.46875 292.070312 324.605469 291.957031 324.636719 291.796875 L 326.597656 280.675781 C 326.628906 280.492188 326.507812 280.320312 326.328125 280.289062 C 326.148438 280.257812 325.976562 280.378906 325.945312 280.558594 L 323.984375 291.679688 C 323.953125 291.863281 324.074219 292.035156 324.253906 292.066406 C 324.269531 292.070312 324.289062 292.070312 324.308594 292.070312 Z M 218.242188 180.390625 C 217.011719 180.507812 213.933594 183.148438 213.585938 183.449219 C 213.445312 183.570312 213.433594 183.777344 213.550781 183.917969 C 213.617188 183.992188 213.710938 184.03125 213.800781 184.03125 C 213.878906 184.03125 213.957031 184.003906 214.019531 183.949219 C 215.269531 182.867188 217.535156 181.121094 218.304688 181.050781 C 219.175781 180.964844 221.230469 181.796875 221.945312 182.125 C 222.109375 182.199219 222.308594 182.128906 222.382812 181.960938 C 222.460938 181.792969 222.386719 181.597656 222.21875 181.523438 C 221.941406 181.394531 219.441406 180.285156 218.242188 180.390625 Z M 354.683594 180.390625 C 353.453125 180.277344 350.984375 181.394531 350.703125 181.523438 C 350.539062 181.597656 350.464844 181.792969 350.539062 181.960938 C 350.617188 182.128906 350.8125 182.199219 350.980469 182.125 C 351.695312 181.796875 353.734375 180.976562 354.621094 181.050781 C 355.386719 181.121094 357.65625 182.867188 358.90625 183.949219 C 358.96875 184.003906 359.042969 184.03125 359.121094 184.03125 C 359.214844 184.03125 359.308594 183.992188 359.371094 183.917969 C 359.492188 183.78125 359.476562 183.570312 359.339844 183.449219 C 358.992188 183.148438 355.910156 180.507812 354.683594 180.390625 Z M 155.199219 227.128906 C 143.808594 227.128906 143.808594 236.816406 143.808594 236.816406 C 143.808594 236.816406 141.386719 236.761719 139.75 235.738281 C 139.679688 236.167969 139.613281 236.597656 139.566406 237.046875 C 138.476562 247.480469 144.898438 252.148438 150.890625 253.699219 L 150.890625 251.140625 C 148.75 249.808594 147.003906 247.554688 145.953125 244.894531 C 143.988281 244.660156 142.257812 242.421875 142.257812 240.640625 C 142.257812 239.277344 142.730469 238.574219 144.1875 238.289062 C 144.457031 238.828125 144.613281 239.511719 144.769531 240.160156 C 144.351562 239.636719 143.902344 239.542969 143.867188 239.539062 C 143.6875 239.511719 143.515625 239.625 143.480469 239.804688 C 143.449219 239.988281 143.570312 240.160156 143.75 240.191406 C 143.761719 240.191406 144.855469 240.457031 144.855469 242.9375 C 144.855469 243.117188 145.003906 243.265625 145.1875 243.265625 C 145.371094 243.265625 145.519531 243.117188 145.519531 242.9375 C 145.519531 242.441406 145.472656 242.023438 145.402344 241.660156 C 145.453125 241.714844 145.496094 241.785156 145.554688 241.824219 C 146.527344 242.488281 146.71875 239.535156 146.632812 238.378906 C 146.28125 233.539062 151.945312 232.410156 151.78125 230.753906 C 155.289062 234.441406 162.070312 230.917969 163.855469 238.214844 C 164.039062 238.953125 164.03125 241.589844 165 241.609375 C 164.925781 241.980469 164.878906 242.417969 164.878906 242.9375 C 164.878906 243.117188 165.023438 243.265625 165.207031 243.265625 C 165.390625 243.265625 165.539062 243.117188 165.539062 242.9375 C 165.539062 242.070312 165.679688 241.484375 165.855469 241.078125 C 165.902344 241 165.945312 240.917969 165.980469 240.828125 C 166.28125 240.308594 166.632812 240.195312 166.652344 240.191406 C 166.828125 240.152344 166.945312 239.984375 166.914062 239.804688 C 166.878906 239.625 166.703125 239.511719 166.527344 239.539062 C 166.511719 239.542969 166.390625 239.566406 166.222656 239.65625 C 166.253906 239.207031 166.238281 238.734375 166.203125 238.289062 C 167.660156 238.574219 168.136719 239.277344 168.136719 240.640625 C 168.136719 242.421875 166.410156 244.65625 164.445312 244.894531 C 163.394531 247.558594 161.644531 249.816406 159.503906 251.148438 L 159.503906 259.710938 C 159.871094 259.738281 160.238281 259.773438 160.605469 259.808594 C 160.839844 259.816406 168.003906 259.984375 173.417969 262.007812 C 172.320312 256.738281 167.777344 252.335938 165.953125 250.746094 C 170.273438 247 171.921875 240.929688 170.675781 235.519531 C 168.9375 236.550781 166.007812 236.726562 166.007812 236.726562 C 166.007812 236.726562 166.585938 227.128906 155.199219 227.128906 Z M 149.914062 239.632812 C 149.914062 240.347656 150.324219 240.929688 150.828125 240.929688 C 151.332031 240.929688 151.738281 240.347656 151.738281 239.632812 C 151.738281 238.914062 151.332031 238.332031 150.828125 238.332031 C 150.324219 238.332031 149.914062 238.914062 149.914062 239.632812 Z M 152.652344 236.046875 C 151.234375 235.539062 148.988281 235.945312 148.445312 237.300781 C 148.257812 237.761719 150.832031 236.789062 152.734375 237.535156 C 153.59375 237.871094 153.613281 236.390625 152.652344 236.046875 Z M 159.679688 240.929688 C 160.183594 240.929688 160.589844 240.347656 160.589844 239.632812 C 160.589844 238.914062 160.183594 238.332031 159.679688 238.332031 C 159.175781 238.332031 158.765625 238.914062 158.765625 239.632812 C 158.765625 240.347656 159.175781 240.929688 159.679688 240.929688 Z M 162.0625 237.300781 C 161.515625 235.945312 159.269531 235.539062 157.851562 236.046875 C 156.894531 236.390625 156.910156 237.871094 157.769531 237.535156 C 159.671875 236.789062 162.246094 237.761719 162.0625 237.300781 Z M 155.671875 240.113281 C 155.671875 239.929688 155.523438 239.78125 155.339844 239.78125 C 155.15625 239.78125 155.007812 239.929688 155.007812 240.113281 C 155.007812 240.878906 154.742188 241.136719 154.464844 241.410156 C 154.210938 241.652344 153.925781 241.929688 153.941406 242.484375 C 153.976562 243.867188 155.59375 243.867188 156.125 243.867188 C 156.308594 243.867188 156.457031 243.714844 156.457031 243.535156 C 156.457031 243.351562 156.308594 243.203125 156.125 243.203125 C 154.800781 243.203125 154.613281 242.832031 154.601562 242.46875 C 154.59375 242.214844 154.695312 242.105469 154.921875 241.886719 C 155.238281 241.578125 155.671875 241.160156 155.671875 240.113281 Z M 159.078125 245.492188 C 158.980469 245.335938 158.777344 245.292969 158.621094 245.390625 C 158.339844 245.566406 158.058594 245.710938 157.78125 245.835938 C 155.628906 246.804688 153.683594 246.289062 152.621094 245.832031 C 152.128906 245.621094 151.820312 245.421875 151.78125 245.394531 C 151.628906 245.292969 151.425781 245.332031 151.320312 245.484375 C 151.21875 245.632812 151.257812 245.839844 151.410156 245.941406 C 151.421875 245.953125 151.855469 246.238281 152.574219 246.511719 C 153.257812 246.777344 154.203125 247.039062 155.292969 247.039062 C 156.078125 247.039062 156.933594 246.890625 157.820312 246.53125 C 158.203125 246.378906 158.585938 246.195312 158.976562 245.949219 C 159.132812 245.851562 159.175781 245.648438 159.078125 245.492188 Z M 125.9375 279.246094 C 125.914062 279.0625 125.742188 278.929688 125.570312 278.957031 C 125.386719 278.976562 125.257812 279.144531 125.28125 279.324219 L 125.84375 283.867188 L 126.511719 283.867188 Z M 185.117188 279.324219 C 185.140625 279.144531 185.011719 278.980469 184.832031 278.957031 C 184.652344 278.929688 184.484375 279.0625 184.460938 279.246094 L 183.988281 283.054688 C 184.03125 283.324219 184.070312 283.597656 184.109375 283.867188 L 184.554688 283.867188 Z M 93.71875 319.230469 C 93.742188 319.234375 93.761719 319.234375 93.785156 319.234375 C 93.941406 319.234375 94.078125 319.125 94.109375 318.964844 C 94.140625 318.785156 94.023438 318.613281 93.84375 318.578125 L 89.78125 317.804688 C 89.601562 317.773438 89.429688 317.890625 89.394531 318.070312 C 89.359375 318.25 89.476562 318.421875 89.65625 318.457031 Z M 97.417969 323.761719 C 94.800781 323.992188 88.496094 323.21875 88.433594 323.214844 C 88.25 323.1875 88.089844 323.320312 88.066406 323.5 C 88.042969 323.683594 88.171875 323.847656 88.355469 323.871094 C 88.582031 323.898438 93.25 324.46875 96.238281 324.46875 C 96.699219 324.46875 97.117188 324.457031 97.476562 324.421875 C 97.660156 324.40625 97.792969 324.246094 97.777344 324.066406 C 97.761719 323.882812 97.59375 323.75 97.417969 323.761719 Z M 96.054688 328.078125 C 95.144531 328.273438 90.800781 328.140625 89.199219 328.070312 C 89.195312 328.070312 89.191406 328.070312 89.1875 328.070312 C 89.011719 328.070312 88.863281 328.207031 88.855469 328.386719 C 88.847656 328.570312 88.988281 328.722656 89.171875 328.730469 C 89.328125 328.738281 91.773438 328.839844 93.78125 328.839844 C 94.84375 328.839844 95.785156 328.8125 96.191406 328.726562 C 96.371094 328.6875 96.484375 328.511719 96.449219 328.332031 C 96.40625 328.152344 96.234375 328.042969 96.054688 328.078125 Z M 214.082031 319.230469 L 218.144531 318.457031 C 218.324219 318.425781 218.441406 318.25 218.40625 318.070312 C 218.371094 317.890625 218.199219 317.773438 218.019531 317.808594 L 213.957031 318.578125 C 213.777344 318.613281 213.65625 318.789062 213.691406 318.96875 C 213.722656 319.125 213.863281 319.234375 214.015625 319.234375 C 214.039062 319.234375 214.058594 319.234375 214.082031 319.230469 Z M 219.363281 323.214844 C 219.300781 323.222656 213 323.992188 210.378906 323.765625 C 210.199219 323.761719 210.039062 323.882812 210.023438 324.066406 C 210.007812 324.246094 210.140625 324.410156 210.324219 324.425781 C 210.683594 324.457031 211.101562 324.46875 211.5625 324.46875 C 214.550781 324.46875 219.21875 323.898438 219.445312 323.871094 C 219.628906 323.847656 219.757812 323.683594 219.734375 323.503906 C 219.710938 323.320312 219.554688 323.1875 219.363281 323.214844 Z M 218.597656 328.066406 C 217.003906 328.136719 212.65625 328.273438 211.746094 328.074219 C 211.566406 328.042969 211.390625 328.152344 211.351562 328.332031 C 211.316406 328.511719 211.429688 328.683594 211.605469 328.722656 C 212.015625 328.8125 212.957031 328.839844 214.023438 328.839844 C 216.027344 328.839844 218.472656 328.738281 218.628906 328.730469 C 218.808594 328.722656 218.953125 328.566406 218.945312 328.382812 C 218.9375 328.203125 218.800781 328.0625 218.597656 328.066406 Z M 119.082031 320.394531 L 114.648438 305.917969 L 109.144531 305.917969 L 116.882812 329.65625 L 121.28125 329.65625 L 129.019531 305.917969 L 123.511719 305.917969 Z M 151.273438 310.046875 C 151.980469 311.394531 152.335938 312.96875 152.339844 314.71875 L 152.339844 320.855469 C 152.339844 322.605469 151.980469 324.179688 151.273438 325.53125 C 150.550781 326.910156 149.515625 327.992188 148.195312 328.75 C 146.890625 329.5 145.375 329.878906 143.6875 329.878906 C 142 329.878906 140.480469 329.5 139.175781 328.75 C 137.859375 327.992188 136.820312 326.910156 136.101562 325.53125 C 135.394531 324.179688 135.035156 322.605469 135.035156 320.855469 L 135.035156 314.71875 C 135.035156 312.96875 135.394531 311.394531 136.101562 310.042969 C 136.820312 308.667969 137.855469 307.582031 139.175781 306.824219 C 140.484375 306.074219 142 305.695312 143.6875 305.695312 C 145.371094 305.695312 146.890625 306.074219 148.195312 306.824219 C 149.519531 307.582031 150.554688 308.664062 151.273438 310.046875 Z M 147.148438 314.613281 C 147.148438 313.8125 146.996094 313.101562 146.699219 312.511719 C 146.414062 311.949219 146.027344 311.527344 145.519531 311.226562 C 144.996094 310.917969 144.398438 310.765625 143.6875 310.765625 C 142.976562 310.765625 142.375 310.917969 141.851562 311.226562 C 141.34375 311.527344 140.957031 311.949219 140.671875 312.511719 C 140.375 313.101562 140.226562 313.808594 140.226562 314.613281 L 140.226562 320.960938 C 140.226562 321.765625 140.375 322.472656 140.671875 323.066406 C 140.957031 323.628906 141.34375 324.046875 141.855469 324.351562 C 142.375 324.660156 142.976562 324.808594 143.6875 324.808594 C 144.394531 324.808594 144.996094 324.660156 145.519531 324.351562 C 146.03125 324.050781 146.417969 323.628906 146.699219 323.066406 C 146.996094 322.472656 147.148438 321.765625 147.148438 320.960938 Z M 158.300781 310.886719 L 164.421875 310.886719 L 164.421875 329.65625 L 169.539062 329.65625 L 169.539062 310.886719 L 175.660156 310.886719 L 175.660156 305.917969 L 158.300781 305.917969 Z M 182.667969 329.65625 L 198.65625 329.65625 L 198.65625 324.691406 L 187.78125 324.691406 L 187.78125 320.34375 L 197.019531 320.34375 L 197.019531 315.378906 L 187.78125 315.378906 L 187.78125 310.886719 L 198.65625 310.886719 L 198.65625 305.917969 L 182.667969 305.917969 Z M 304.238281 251.222656 C 309.242188 249.332031 312.363281 246.667969 312.363281 243.710938 C 312.363281 243.710938 307.847656 240.570312 293.058594 239.800781 C 293.136719 240.414062 293.351562 241.035156 293.636719 241.550781 C 294.359375 242.855469 295.246094 243.5 294.472656 245.03125 C 293.753906 246.460938 295.09375 246.777344 296.160156 246.316406 C 296.015625 246.773438 295.917969 247.355469 295.917969 248.105469 C 295.917969 248.285156 296.066406 248.433594 296.25 248.433594 C 296.433594 248.433594 296.582031 248.285156 296.582031 248.105469 C 296.582031 245.664062 297.660156 245.367188 297.695312 245.355469 C 297.871094 245.320312 297.988281 245.152344 297.957031 244.972656 C 297.929688 244.832031 297.8125 244.753906 297.679688 244.730469 C 297.851562 244.417969 298.003906 244.085938 298.136719 243.746094 C 298.898438 244.128906 299.179688 244.777344 299.179688 245.808594 C 299.179688 246.566406 298.855469 247.40625 298.347656 248.144531 C 300.519531 249.015625 302.519531 250.050781 304.238281 251.222656 Z M 437.039062 241.132812 C 440.367188 230.023438 431.683594 226.074219 426.355469 226.050781 C 420.867188 226.023438 415.285156 228.238281 414.308594 231.019531 C 410.976562 231.992188 409.105469 237.757812 411.328125 243.628906 C 411.917969 245.1875 412.917969 246.292969 414.144531 247.070312 C 413.746094 246.40625 413.5 245.683594 413.5 245.027344 C 413.5 243.457031 414.128906 242.765625 416.152344 242.574219 C 416.164062 242.625 416.171875 242.671875 416.1875 242.722656 C 417.109375 246.132812 419.277344 246.363281 419.71875 243.933594 C 420.050781 242.277344 420.160156 239.058594 421.484375 239.675781 C 422.8125 240.292969 425.121094 240.449219 426.003906 239.675781 C 426.445312 239.234375 425.933594 236.207031 426.707031 236.316406 C 427.367188 236.425781 427.097656 238.683594 427.652344 239.675781 C 428.097656 240.484375 434.109375 240.96875 435.980469 239.875 C 436.261719 240.566406 436.484375 241.3125 436.636719 242.117188 C 436.792969 241.808594 436.933594 241.484375 437.039062 241.132812 Z M 462.957031 383.976562 C 465.324219 403.253906 468.019531 427.707031 467.265625 433.675781 C 466.976562 435.984375 463.535156 464.6875 460.34375 472.394531 C 459.605469 474.175781 457.332031 475.519531 454.289062 476.441406 C 447.585938 478.476562 437.097656 478.464844 430.65625 476.539062 C 427.378906 475.5625 425.144531 474.097656 425.003906 472.152344 C 424.464844 464.644531 433.617188 426.136719 432.355469 420.207031 C 431.796875 417.59375 429.503906 406.835938 427.113281 395.625 C 424.953125 413.230469 422.398438 432.261719 420.914062 437.246094 C 420.25 439.476562 412.171875 467.234375 407.761719 474.3125 C 406.816406 475.832031 404.640625 476.761719 401.816406 477.222656 C 395.328125 478.277344 385.421875 476.816406 379.054688 474.128906 C 375.273438 472.527344 372.738281 470.5 372.9375 468.304688 C 373.632812 460.808594 388.949219 424.316406 388.671875 418.257812 C 388.515625 414.894531 389.386719 398.324219 390.195312 384.261719 C 396.921875 386.332031 409.550781 389.308594 426.589844 389.308594 C 444.429688 389.304688 456.855469 386.046875 462.957031 383.976562 Z M 407.105469 437.300781 L 404.457031 431.109375 C 404.386719 430.9375 404.191406 430.863281 404.023438 430.933594 C 403.851562 431.007812 403.773438 431.203125 403.847656 431.367188 L 406.496094 437.558594 C 406.550781 437.683594 406.671875 437.761719 406.800781 437.761719 C 406.84375 437.761719 406.890625 437.75 406.929688 437.734375 C 407.101562 437.660156 407.179688 437.464844 407.105469 437.300781 Z M 458.558594 437.300781 L 455.90625 431.109375 C 455.835938 430.9375 455.636719 430.863281 455.472656 430.933594 C 455.304688 431.007812 455.226562 431.203125 455.296875 431.367188 L 457.945312 437.558594 C 458 437.683594 458.121094 437.761719 458.25 437.761719 C 458.292969 437.761719 458.339844 437.75 458.382812 437.734375 C 458.550781 437.660156 458.628906 437.464844 458.558594 437.300781 Z M 388.632812 343.722656 C 402.355469 347.207031 409.113281 348.203125 409.179688 348.214844 C 409.195312 348.214844 409.210938 348.214844 409.226562 348.214844 C 409.386719 348.214844 409.527344 348.097656 409.550781 347.933594 C 409.578125 347.75 409.453125 347.582031 409.273438 347.558594 C 409.207031 347.546875 402.480469 346.554688 388.792969 343.082031 C 388.617188 343.03125 388.4375 343.140625 388.390625 343.320312 C 388.347656 343.496094 388.453125 343.679688 388.632812 343.722656 Z M 405.671875 291.089844 C 405.511719 291.003906 405.308594 291.066406 405.222656 291.226562 C 400.6875 299.757812 388.675781 315.683594 388.554688 315.84375 C 388.488281 315.929688 388.46875 316.042969 388.503906 316.144531 C 388.539062 316.25 388.621094 316.328125 388.722656 316.359375 L 412.226562 323.390625 C 412.257812 323.398438 412.289062 323.402344 412.320312 323.402344 C 412.464844 323.402344 412.59375 323.3125 412.636719 323.167969 C 412.691406 322.992188 412.589844 322.808594 412.417969 322.757812 L 389.367188 315.859375 C 391.230469 313.375 401.640625 299.371094 405.808594 291.535156 C 405.894531 291.375 405.832031 291.175781 405.671875 291.089844 Z M 427.269531 246.226562 C 427.773438 246.226562 428.179688 245.644531 428.179688 244.925781 C 428.179688 244.210938 427.773438 243.628906 427.269531 243.628906 C 426.765625 243.628906 426.355469 244.210938 426.355469 244.925781 C 426.355469 245.644531 426.765625 246.226562 427.269531 246.226562 Z M 435.292969 244.925781 C 435.292969 244.210938 434.882812 243.628906 434.378906 243.628906 C 433.875 243.628906 433.464844 244.210938 433.464844 244.925781 C 433.464844 245.644531 433.875 246.226562 434.378906 246.226562 C 434.882812 246.226562 435.292969 245.644531 435.292969 244.925781 Z M 429.039062 242.832031 C 429.839844 243.167969 429.859375 241.6875 428.960938 241.34375 C 427.640625 240.835938 425.550781 241.242188 425.042969 242.597656 C 424.867188 243.058594 427.269531 242.082031 429.039062 242.832031 Z M 436.042969 242.597656 C 435.65625 241.242188 434.066406 240.835938 433.0625 241.34375 C 432.382812 241.6875 432.394531 243.167969 433.003906 242.832031 C 434.351562 242.082031 436.175781 243.058594 436.042969 242.597656 Z M 431.996094 248.5 L 431.765625 248.5 C 431.582031 248.5 431.433594 248.648438 431.433594 248.832031 C 431.433594 249.015625 431.582031 249.164062 431.765625 249.164062 L 431.992188 249.164062 C 432.074219 249.164062 432.164062 249.164062 432.25 249.164062 C 432.875 249.164062 433.519531 249.125 433.820312 248.742188 C 433.921875 248.609375 434.027344 248.378906 433.941406 248.03125 C 433.828125 247.589844 433.582031 247.066406 433.324219 246.515625 C 433.089844 246.011719 432.84375 245.492188 432.699219 245.027344 C 432.644531 244.851562 432.464844 244.753906 432.285156 244.808594 C 432.109375 244.863281 432.011719 245.046875 432.066406 245.222656 C 432.226562 245.730469 432.480469 246.273438 432.726562 246.796875 C 432.96875 247.320312 433.203125 247.8125 433.300781 248.195312 C 433.3125 248.242188 433.320312 248.304688 433.300781 248.332031 C 433.160156 248.511719 432.410156 248.507812 431.996094 248.5 Z M 433.957031 251.304688 C 433.785156 251.417969 433.589844 251.515625 433.375 251.597656 C 433.414062 252.007812 433.410156 252.742188 432.953125 253.261719 C 432.625 253.636719 432.144531 253.824219 431.519531 253.824219 C 431.410156 253.824219 431.300781 253.820312 431.1875 253.808594 C 428.6875 253.574219 427.390625 250.558594 427.335938 250.429688 C 427.277344 250.285156 427.324219 250.117188 427.453125 250.03125 C 427.582031 249.941406 427.757812 249.953125 427.871094 250.0625 C 429.019531 251.160156 431.390625 251.472656 432.855469 251.070312 C 432.878906 251.058594 432.902344 251.050781 432.929688 251.042969 C 432.941406 251.042969 432.953125 251.039062 432.964844 251.039062 C 433.203125 250.964844 433.417969 250.867188 433.59375 250.753906 C 433.746094 250.652344 433.949219 250.691406 434.050781 250.847656 C 434.152344 251 434.109375 251.203125 433.957031 251.304688 Z M 432.722656 251.78125 C 431.484375 252.039062 429.878906 251.898438 428.613281 251.328125 C 429.171875 252.117188 430.066406 253.035156 431.25 253.148438 C 431.816406 253.203125 432.21875 253.09375 432.453125 252.828125 C 432.710938 252.53125 432.742188 252.089844 432.722656 251.78125 Z M 416.097656 247.320312 C 416.097656 247.5 416.246094 247.648438 416.429688 247.648438 C 416.613281 247.648438 416.761719 247.5 416.761719 247.320312 C 416.761719 244.253906 415.175781 243.933594 415.109375 243.921875 C 414.929688 243.890625 414.757812 244.007812 414.722656 244.1875 C 414.691406 244.371094 414.8125 244.542969 414.992188 244.574219 C 415.003906 244.574219 416.097656 244.839844 416.097656 247.320312 Z M 499.765625 355.472656 C 499.585938 355.4375 499.410156 355.550781 499.375 355.730469 L 498.574219 359.710938 C 498.539062 359.890625 498.65625 360.066406 498.835938 360.101562 C 498.859375 360.105469 498.878906 360.109375 498.902344 360.109375 C 499.054688 360.109375 499.191406 360 499.222656 359.84375 L 500.023438 355.863281 C 500.0625 355.683594 499.945312 355.507812 499.765625 355.472656 Z M 504.96875 352.1875 C 504.792969 352.171875 504.625 352.3125 504.613281 352.496094 L 504.007812 361.449219 C 503.996094 361.632812 504.132812 361.789062 504.316406 361.800781 C 504.324219 361.800781 504.332031 361.800781 504.339844 361.800781 C 504.511719 361.800781 504.660156 361.667969 504.671875 361.492188 L 505.277344 352.542969 C 505.289062 352.359375 505.152344 352.199219 504.96875 352.1875 Z M 509.203125 353.8125 C 509.023438 353.851562 508.910156 354.027344 508.945312 354.203125 C 509.140625 355.125 508.980469 359.429688 508.902344 361.007812 C 508.894531 361.191406 509.035156 361.347656 509.21875 361.355469 C 509.222656 361.355469 509.230469 361.355469 509.234375 361.355469 C 509.410156 361.355469 509.558594 361.21875 509.5625 361.042969 C 509.574219 360.804688 509.84375 355.257812 509.59375 354.070312 C 509.558594 353.890625 509.378906 353.773438 509.203125 353.8125 Z M 413.929688 335.265625 C 413.894531 335.445312 414.011719 335.617188 414.191406 335.652344 L 418.253906 336.425781 C 418.277344 336.429688 418.296875 336.429688 418.316406 336.429688 C 418.472656 336.429688 418.613281 336.320312 418.640625 336.160156 C 418.675781 335.980469 418.558594 335.808594 418.378906 335.773438 L 414.316406 335 C 414.132812 334.964844 413.960938 335.085938 413.929688 335.265625 Z M 422.3125 341.261719 C 422.296875 341.078125 422.132812 340.941406 421.953125 340.957031 C 419.328125 341.1875 413.03125 340.414062 412.96875 340.40625 C 412.785156 340.382812 412.625 340.511719 412.601562 340.695312 C 412.578125 340.878906 412.707031 341.042969 412.890625 341.0625 C 413.117188 341.09375 417.78125 341.664062 420.773438 341.664062 C 421.234375 341.664062 421.652344 341.648438 422.011719 341.617188 C 422.191406 341.601562 422.328125 341.441406 422.3125 341.261719 Z M 413.734375 345.261719 C 413.527344 345.246094 413.398438 345.398438 413.390625 345.578125 C 413.382812 345.761719 413.523438 345.917969 413.707031 345.925781 C 413.863281 345.929688 416.308594 346.035156 418.3125 346.035156 C 419.378906 346.035156 420.316406 346.003906 420.726562 345.917969 C 420.90625 345.878906 421.019531 345.703125 420.980469 345.523438 C 420.945312 345.347656 420.765625 345.238281 420.589844 345.269531 C 419.675781 345.464844 415.332031 345.332031 413.734375 345.261719 Z M 413.734375 345.261719 " fill-opacity="1" fill-rule="nonzero"/></g></svg>