<svg xmlns="http://www.w3.org/2000/svg" xmlns:xlink="http://www.w3.org/1999/xlink" width="800" zoomAndPan="magnify" viewBox="0 0 600 599.999999" height="800" preserveAspectRatio="xMidYMid meet" version="1.0"><path fill="#07284b" d="M 370.554688 555.144531 C 362.261719 553.21875 354.714844 554.996094 348.050781 560.621094 C 345.980469 572.464844 344.941406 578.386719 344.941406 578.386719 C 355.453125 589.636719 395.71875 592.746094 402.234375 585.046875 C 402.675781 582.234375 401.492188 580.164062 398.53125 578.832031 C 386.394531 573.5 377.066406 565.65625 370.554688 555.144531 Z M 370.554688 555.144531 " fill-opacity="1" fill-rule="evenodd"/><path fill="#07284b" d="M 273.585938 559.882812 C 286.761719 564.617188 293.277344 566.988281 293.277344 566.988281 C 296.535156 580.3125 298.164062 586.972656 298.164062 586.972656 C 293.574219 596.152344 251.085938 600 244.277344 595.113281 C 243.832031 592.597656 246.644531 589.488281 250.492188 586.234375 C 255.675781 581.9375 262.632812 577.5 266.332031 573.796875 C 270.332031 569.800781 272.699219 565.210938 273.585938 559.882812 Z M 273.585938 559.882812 " fill-opacity="1" fill-rule="evenodd"/><path fill="#15193b" d="M 298.902344 564.914062 C 295.941406 568.910156 273.734375 567.136719 267.667969 564.617188 C 242.796875 467.949219 240.871094 377.5 258.191406 305.105469 C 287.800781 286.75 305.269531 299.039062 310.894531 341.671875 C 315.335938 362.992188 311.484375 390.527344 299.199219 424.574219 C 298.015625 431.234375 297.421875 441.894531 297.421875 456.550781 C 297.71875 493.414062 300.53125 527.460938 298.902344 564.914062 Z M 298.902344 564.914062 " fill-opacity="1" fill-rule="evenodd"/><path fill="#07284b" d="M 298.902344 564.914062 C 297.570312 566.691406 292.832031 567.285156 287.207031 567.285156 L 284.542969 459.363281 C 284.246094 407.253906 290.761719 366.246094 304.082031 336.34375 C 307.042969 342.5625 309.855469 348.628906 312.375 354.550781 C 313.410156 373.796875 308.96875 397.039062 299.050781 424.574219 C 297.867188 431.234375 297.273438 441.894531 297.273438 456.550781 C 297.71875 493.414062 300.53125 527.460938 298.902344 564.914062 Z M 298.902344 564.914062 " fill-opacity="0.102" fill-rule="evenodd"/><path fill="#15193b" d="M 339.464844 241.15625 C 299.199219 289.265625 279.214844 313.398438 279.214844 313.398438 C 303.046875 367.875 323.773438 449.890625 341.390625 559.4375 C 342.277344 561.65625 377.808594 564.914062 379.878906 558.105469 C 374.105469 489.710938 369.515625 290.007812 339.464844 241.15625 Z M 339.464844 241.15625 " fill-opacity="1" fill-rule="evenodd"/><path fill="#07284b" d="M 368.480469 562.101562 C 374.402344 561.65625 379.140625 560.621094 379.878906 558.253906 C 374.996094 499.1875 370.847656 342.265625 350.417969 268.984375 C 342.277344 269.875 335.171875 272.984375 328.804688 278.460938 C 349.085938 287.492188 363.003906 389.933594 368.480469 562.101562 Z M 368.480469 562.101562 " fill-opacity="0.102" fill-rule="evenodd"/><path fill="#194cbc" d="M 275.660156 136.34375 C 290.316406 197.1875 270.628906 233.160156 217.183594 241.746094 C 227.84375 191.265625 238.945312 160.621094 250.347656 149.964844 C 264.261719 143.152344 272.699219 138.5625 275.660156 136.34375 Z M 275.660156 136.34375 " fill-opacity="1" fill-rule="evenodd"/><path fill="#ad795b" d="M 376.621094 31.976562 C 379.730469 34.050781 382.988281 33.753906 386.097656 31.382812 C 387.578125 17.171875 387.28125 7.847656 385.207031 3.257812 C 384.765625 1.183594 383.136719 0 380.175781 1.183594 C 379.140625 1.183594 376.917969 1.777344 373.367188 3.257812 C 371.292969 4.144531 368.925781 4.738281 366.113281 5.179688 C 362.261719 6.515625 361.375 9.917969 363.300781 15.542969 C 362.707031 16.875 362.558594 18.207031 362.707031 19.246094 C 363.300781 22.945312 366.261719 28.128906 371.886719 34.640625 C 371.738281 34.789062 374.550781 33.753906 376.621094 31.976562 Z M 376.621094 31.976562 " fill-opacity="1" fill-rule="evenodd"/><path fill="#7f4a55" d="M 368.480469 9.03125 C 368.628906 9.03125 368.777344 8.882812 368.777344 8.882812 C 371.144531 7.992188 370.996094 11.398438 370.554688 14.507812 C 380.621094 19.097656 386.246094 8.4375 385.0625 3.257812 C 385.355469 3.847656 385.503906 4.441406 385.800781 5.035156 C 386.394531 15.988281 381.953125 22.207031 379.582031 23.242188 C 376.328125 24.722656 372.476562 20.875 370.109375 20.132812 C 370.257812 21.023438 370.699219 22.058594 371.292969 23.390625 C 371.589844 24.277344 372.035156 25.019531 372.476562 25.90625 C 368.925781 21.023438 367.445312 19.097656 368.925781 13.027344 C 369.515625 10.660156 369.367188 9.328125 368.480469 9.03125 Z M 368.480469 9.03125 " fill-opacity="1" fill-rule="evenodd"/><path fill="#194cbc" d="M 323.03125 126.128906 C 301.863281 134.417969 286.023438 137.824219 275.660156 136.34375 C 260.414062 170.984375 249.902344 227.683594 243.980469 306.292969 C 246.496094 320.503906 271.070312 318.875 317.851562 301.40625 C 336.058594 295.78125 347.902344 287.785156 353.085938 277.71875 C 363.152344 258.179688 341.390625 216.136719 359.746094 173.203125 C 365.222656 160.621094 371.738281 154.109375 377.808594 147.59375 C 406.230469 117.394531 398.089844 64.691406 391.722656 28.867188 C 385.652344 26.351562 366.554688 31.089844 365.371094 35.382812 C 365.074219 97.113281 351.011719 127.3125 323.03125 126.128906 Z M 323.03125 126.128906 " fill-opacity="1" fill-rule="evenodd"/><path fill="#07284b" d="M 319.777344 300.667969 C 336.949219 295.039062 347.902344 287.34375 352.9375 277.570312 C 363.003906 258.03125 341.242188 215.988281 359.597656 173.058594 C 365.074219 160.472656 371.589844 153.960938 377.660156 147.445312 C 406.082031 117.246094 397.941406 64.542969 391.574219 28.71875 C 389.355469 27.832031 385.207031 27.832031 380.914062 28.570312 C 408.746094 149.667969 351.011719 122.871094 345.089844 200 C 341.390625 247.078125 353.378906 268.691406 319.777344 300.667969 Z M 319.777344 300.667969 " fill-opacity="0.2" fill-rule="evenodd"/><path fill="#07284b" d="M 267.074219 159.734375 C 256.414062 194.523438 248.71875 243.375 243.980469 306.292969 C 244.867188 311.324219 248.421875 314.285156 254.785156 315.46875 C 253.304688 307.03125 253.160156 295.484375 253.601562 280.386719 C 254.34375 251.8125 257.304688 210.953125 267.074219 159.734375 Z M 267.074219 159.734375 " fill-opacity="0.2" fill-rule="evenodd"/><path fill="#07284b" d="M 304.527344 250.480469 C 305.710938 255.957031 336.058594 245.742188 339.464844 241.15625 C 341.832031 191.710938 335.171875 151.148438 319.777344 119.171875 C 307.339844 130.273438 301.121094 135.898438 301.121094 135.898438 C 304.378906 168.320312 305.5625 206.515625 304.527344 250.480469 Z M 304.527344 250.480469 " fill-opacity="1" fill-rule="evenodd"/><path fill="#07284b" d="M 279.066406 143.746094 C 291.5 136.640625 303.789062 133.976562 315.925781 135.75 C 321.699219 129.976562 324.511719 124.5 324.511719 119.46875 C 322.882812 105.996094 319.035156 101.109375 313.113281 104.367188 C 288.242188 116.507812 275.957031 122.722656 275.957031 122.722656 C 273.441406 123.019531 269.441406 135.898438 271.070312 139.15625 C 273.441406 141.082031 276.105469 142.5625 279.066406 143.746094 Z M 279.066406 143.746094 " fill-opacity="1" fill-rule="evenodd"/><path fill="#15193b" d="M 261.894531 87.785156 C 288.242188 123.019531 304.378906 132.9375 310.300781 117.542969 C 316.519531 102.148438 327.621094 82.011719 322.589844 66.023438 C 319.777344 56.847656 313.113281 51.515625 305.121094 49.59375 C 285.28125 44.410156 257.304688 60.105469 261.894531 87.785156 Z M 261.894531 87.785156 " fill-opacity="1" fill-rule="evenodd"/><path fill="#ad795b" d="M 312.671875 136.046875 C 302.457031 144.484375 287.800781 147.890625 277.4375 140.339844 C 279.363281 134.714844 280.25 129.535156 280.101562 124.945312 C 288.09375 113.546875 298.605469 105.253906 311.632812 100.371094 C 306.898438 114.136719 307.339844 126.128906 312.671875 136.046875 Z M 312.671875 136.046875 " fill-opacity="1" fill-rule="evenodd"/><path fill="#7f4a55" d="M 278.917969 135.011719 C 279.804688 131.457031 280.25 128.054688 280.101562 124.945312 C 288.09375 113.546875 298.605469 105.253906 311.632812 100.371094 C 309.5625 106.585938 308.375 112.359375 308.375 117.839844 C 304.527344 131.308594 289.429688 140.191406 278.917969 135.011719 Z M 278.917969 135.011719 " fill-opacity="1" fill-rule="evenodd"/><path fill="#ad795b" d="M 273.144531 70.761719 L 290.019531 70.761719 C 298.457031 70.761719 310.300781 84.382812 307.636719 94.300781 L 304.230469 107.179688 C 301.714844 116.65625 291.945312 124.351562 282.175781 124.945312 C 280.101562 125.09375 277.585938 125.09375 275.660156 124.648438 C 267.371094 123.167969 261.152344 115.320312 261.449219 107.179688 L 261.746094 95.929688 L 261.746094 94.449219 L 262.039062 81.421875 C 262.1875 75.5 267.222656 70.761719 273.144531 70.761719 Z M 273.144531 70.761719 " fill-opacity="1" fill-rule="evenodd"/><path fill="#15193b" d="M 266.652344 88.425781 C 266.890625 88.433594 267.113281 88.496094 267.328125 88.625 C 267.542969 88.75 267.730469 88.925781 267.890625 89.152344 C 268.050781 89.378906 268.175781 89.636719 268.257812 89.929688 C 268.339844 90.222656 268.375 90.527344 268.367188 90.839844 C 268.359375 91.152344 268.308594 91.453125 268.210938 91.742188 C 268.113281 92.03125 267.976562 92.28125 267.804688 92.5 C 267.632812 92.71875 267.4375 92.882812 267.214844 93 C 266.996094 93.113281 266.765625 93.167969 266.53125 93.160156 C 266.296875 93.15625 266.070312 93.089844 265.855469 92.964844 C 265.640625 92.839844 265.453125 92.664062 265.292969 92.4375 C 265.132812 92.210938 265.011719 91.949219 264.929688 91.65625 C 264.847656 91.367188 264.808594 91.0625 264.816406 90.75 C 264.824219 90.433594 264.878906 90.132812 264.976562 89.84375 C 265.074219 89.558594 265.207031 89.304688 265.378906 89.085938 C 265.550781 88.871094 265.75 88.703125 265.96875 88.589844 C 266.191406 88.472656 266.417969 88.417969 266.652344 88.425781 Z M 266.652344 88.425781 " fill-opacity="1" fill-rule="nonzero"/><path fill="#7f4a55" d="M 277.882812 103.921875 C 278.769531 103.480469 279.804688 102.886719 279.507812 102.441406 C 279.507812 102.292969 278.621094 102.292969 277.734375 102.441406 C 276.402344 102.589844 275.808594 102.589844 274.476562 102.441406 C 273.585938 102.292969 272.847656 102.292969 272.847656 102.441406 C 272.699219 103.035156 273.585938 103.628906 274.625 104.070312 C 276.105469 104.515625 276.546875 104.515625 277.882812 103.921875 Z M 277.882812 103.921875 " fill-opacity="1" fill-rule="evenodd"/><path fill="#15193b" d="M 261.003906 86.601562 C 261.152344 86.601562 261.746094 86.304688 262.484375 86.011719 C 263.375 85.566406 264.410156 85.269531 265.148438 85.121094 C 266.925781 84.824219 268.109375 85.269531 269.738281 85.269531 C 270.480469 85.269531 270.921875 85.121094 271.070312 84.824219 C 271.367188 84.085938 269.441406 82.753906 267.074219 82.753906 C 265.296875 82.753906 263.667969 83.34375 262.335938 84.53125 C 262.1875 84.824219 260.265625 86.601562 261.003906 86.601562 Z M 261.003906 86.601562 " fill-opacity="1" fill-rule="evenodd"/><path fill="#15193b" d="M 288.859375 88.09375 C 289.09375 88.097656 289.320312 88.164062 289.535156 88.289062 C 289.746094 88.417969 289.9375 88.59375 290.097656 88.820312 C 290.257812 89.046875 290.378906 89.304688 290.460938 89.597656 C 290.542969 89.890625 290.582031 90.191406 290.574219 90.507812 C 290.566406 90.820312 290.511719 91.121094 290.414062 91.410156 C 290.316406 91.695312 290.183594 91.949219 290.011719 92.167969 C 289.835938 92.386719 289.640625 92.550781 289.421875 92.664062 C 289.199219 92.78125 288.972656 92.835938 288.738281 92.828125 C 288.5 92.824219 288.277344 92.757812 288.0625 92.628906 C 287.847656 92.503906 287.660156 92.328125 287.5 92.101562 C 287.335938 91.875 287.214844 91.617188 287.132812 91.324219 C 287.050781 91.03125 287.011719 90.730469 287.023438 90.414062 C 287.03125 90.101562 287.082031 89.800781 287.179688 89.511719 C 287.277344 89.222656 287.414062 88.972656 287.585938 88.753906 C 287.757812 88.535156 287.953125 88.371094 288.175781 88.253906 C 288.394531 88.140625 288.621094 88.085938 288.859375 88.09375 Z M 288.859375 88.09375 " fill-opacity="1" fill-rule="nonzero"/><path fill="#15193b" d="M 295.054688 86.304688 C 294.757812 86.304688 294.3125 86.011719 293.574219 85.714844 C 292.683594 85.269531 291.5 84.972656 290.761719 84.824219 C 288.984375 84.679688 287.652344 85.121094 285.875 85.121094 C 284.988281 85.121094 284.542969 84.972656 284.542969 84.679688 C 284.246094 83.9375 286.320312 82.605469 288.835938 82.605469 C 290.613281 82.605469 292.390625 83.199219 293.867188 84.382812 C 294.015625 84.53125 296.089844 86.160156 295.054688 86.304688 Z M 295.054688 86.304688 " fill-opacity="1" fill-rule="evenodd"/><path fill="#07284b" d="M 273.585938 111.175781 C 273.585938 112.953125 276.253906 114.433594 279.363281 114.433594 C 282.46875 114.433594 285.136719 112.953125 285.28125 111.175781 C 285.28125 110.734375 284.988281 110.4375 284.542969 110.4375 L 274.476562 110.4375 C 273.882812 110.289062 273.585938 110.734375 273.585938 111.175781 Z M 273.585938 111.175781 " fill-opacity="1" fill-rule="evenodd"/><path fill="#ad795b" d="M 304.675781 94.746094 C 303.492188 102.589844 302.898438 106.441406 302.898438 106.441406 C 310.746094 104.8125 315.484375 100.519531 317.257812 96.078125 C 322.589844 83.789062 308.96875 80.976562 304.675781 94.746094 Z M 304.675781 94.746094 " fill-opacity="1" fill-rule="evenodd"/><path fill="#7f4a55" d="M 306.304688 96.375 C 305.5625 101.109375 305.269531 103.480469 305.269531 103.480469 C 310.003906 102.441406 312.816406 99.925781 313.855469 97.261719 C 316.964844 89.710938 308.820312 88.082031 306.304688 96.375 Z M 306.304688 96.375 " fill-opacity="1" fill-rule="evenodd"/><path fill="#7f4a55" d="M 288.984375 207.992188 C 295.496094 202.960938 299.9375 198.074219 302.457031 193.191406 C 302.308594 188.898438 296.828125 192.152344 287.652344 202.367188 C 288.242188 203.554688 288.6875 205.476562 288.984375 207.992188 Z M 288.984375 207.992188 " fill-opacity="1" fill-rule="evenodd"/><path fill="#ad795b" d="M 289.132812 223.390625 C 299.644531 220.875 307.042969 218.0625 311.335938 214.804688 C 317.109375 210.214844 315.1875 208.585938 314.003906 203.257812 C 313.707031 201.777344 313.410156 200 313.113281 197.925781 C 312.523438 194.375 311.929688 191.5625 311.042969 189.636719 C 309.414062 188.304688 306.453125 189.339844 302.457031 193.191406 C 298.753906 197.039062 294.164062 200.886719 288.539062 205.035156 C 289.722656 210.066406 289.871094 217.914062 289.132812 223.390625 Z M 289.132812 223.390625 " fill-opacity="1" fill-rule="evenodd"/><path fill="#07284b" d="M 276.992188 126.574219 C 276.546875 130.570312 275.808594 135.601562 274.921875 141.671875 C 288.984375 149.371094 302.601562 147.445312 316.074219 135.75 C 316.074219 135.75 315.484375 127.609375 314.296875 111.175781 C 302.75 124.351562 290.464844 129.535156 276.992188 126.574219 Z M 276.992188 126.574219 " fill-opacity="1" fill-rule="evenodd"/><path fill="#15193b" d="M 307.933594 88.675781 C 309.265625 78.164062 303.789062 74.019531 296.386719 72.984375 C 301.269531 77.128906 301.863281 85.417969 300.53125 97.558594 C 302.308594 96.667969 305.121094 94.449219 305.121094 94.449219 C 306.007812 92.226562 307.042969 90.007812 307.933594 88.675781 Z M 307.933594 88.675781 " fill-opacity="1" fill-rule="evenodd"/><path fill="#07284b" d="M 308.230469 243.078125 C 308.230469 247.816406 308.082031 251.664062 308.082031 254.773438 C 307.933594 257.882812 307.933594 259.957031 307.785156 261.289062 L 305.859375 261.140625 C 306.007812 259.808594 306.15625 257.734375 306.15625 254.773438 C 306.304688 251.8125 306.304688 247.964844 306.304688 243.078125 Z M 308.230469 243.078125 " fill-opacity="1" fill-rule="nonzero"/><path fill="#07284b" d="M 313.410156 246.039062 C 313.261719 248.554688 313.113281 250.628906 312.964844 252.554688 C 312.816406 254.476562 312.671875 256.253906 312.523438 257.585938 L 310.597656 257.4375 C 310.746094 256.105469 310.894531 254.476562 311.042969 252.554688 C 311.191406 250.628906 311.335938 248.410156 311.484375 246.039062 Z M 313.410156 246.039062 " fill-opacity="1" fill-rule="nonzero"/><path fill="#07284b" d="M 318 245.597656 L 317.703125 253.886719 C 317.703125 256.253906 317.554688 258.328125 317.554688 260.105469 L 315.628906 260.105469 C 315.628906 258.328125 315.777344 256.253906 315.777344 253.886719 L 316.074219 245.597656 Z M 318 245.597656 " fill-opacity="1" fill-rule="nonzero"/><path fill="#07284b" d="M 323.921875 243.226562 C 323.773438 246.039062 323.476562 248.410156 323.328125 250.480469 C 323.179688 252.554688 322.882812 254.332031 322.738281 255.808594 L 320.8125 255.664062 C 321.109375 254.183594 321.257812 252.554688 321.402344 250.480469 C 321.550781 248.410156 321.847656 246.039062 321.996094 243.226562 Z M 323.921875 243.226562 " fill-opacity="1" fill-rule="nonzero"/><path fill="#07284b" d="M 328.804688 242.78125 C 328.804688 245.742188 328.65625 248.410156 328.363281 250.777344 C 328.214844 253.144531 327.917969 255.21875 327.621094 256.996094 L 325.699219 256.699219 C 325.992188 254.921875 326.289062 252.996094 326.4375 250.628906 C 326.585938 248.261719 326.734375 245.742188 326.882812 242.78125 Z M 328.804688 242.78125 " fill-opacity="1" fill-rule="nonzero"/><path fill="#07284b" d="M 333.097656 241.449219 C 333.097656 243.820312 333.246094 246.039062 333.246094 247.816406 C 333.246094 249.59375 333.246094 250.925781 333.246094 252.109375 L 331.324219 252.109375 C 331.324219 251.074219 331.324219 249.742188 331.324219 247.816406 C 331.324219 246.039062 331.324219 243.96875 331.175781 241.449219 Z M 333.097656 241.449219 " fill-opacity="1" fill-rule="nonzero"/><path fill="#07284b" d="M 337.390625 238.046875 C 337.6875 240.414062 337.835938 242.929688 337.984375 245.300781 C 338.132812 247.667969 338.132812 250.035156 338.132812 252.40625 L 336.207031 252.40625 C 336.207031 250.035156 336.207031 247.816406 336.058594 245.449219 C 335.910156 243.078125 335.765625 240.710938 335.46875 238.34375 Z M 337.390625 238.046875 " fill-opacity="1" fill-rule="nonzero"/><path fill="#194cbc" d="M 219.257812 231.828125 C 215.851562 242.929688 214.816406 252.703125 218.960938 258.625 C 232.136719 277.570312 281.136719 235.824219 292.09375 226.054688 C 294.015625 220.429688 290.167969 201.332031 288.390625 199.40625 C 275.363281 203.40625 251.679688 213.175781 219.257812 231.828125 Z M 219.257812 231.828125 " fill-opacity="1" fill-rule="evenodd"/><path fill="#07284b" d="M 218.074219 257.289062 C 218.371094 257.734375 218.664062 258.179688 218.960938 258.625 C 232.136719 277.570312 281.136719 235.824219 292.09375 226.054688 C 292.535156 224.871094 292.683594 222.945312 292.683594 220.726562 C 256.5625 252.703125 230.210938 266.171875 218.074219 257.289062 Z M 289.871094 203.847656 C 289.28125 201.628906 288.6875 200 288.242188 199.40625 C 276.105469 203.109375 254.640625 211.84375 225.476562 228.273438 C 257.894531 212.730469 279.363281 204.589844 289.871094 203.847656 Z M 289.871094 203.847656 " fill-opacity="0.2" fill-rule="evenodd"/></svg>