<svg xmlns="http://www.w3.org/2000/svg" xmlns:xlink="http://www.w3.org/1999/xlink" width="800" zoomAndPan="magnify" viewBox="0 0 600 599.999999" height="800" preserveAspectRatio="xMidYMid meet" version="1.0"><path fill="#d18765" d="M 560.078125 0.917969 C 538.734375 0.917969 521.480469 17.628906 520.789062 38.957031 L 520.769531 39.539062 L 31.636719 39.539062 C 31.246094 39.539062 30.921875 39.859375 30.921875 40.253906 L 30.921875 368.246094 L 1.039062 420.027344 L 30.921875 420.027344 L 30.921875 568.882812 C 30.921875 569.277344 31.246094 569.597656 31.636719 569.597656 L 117.257812 569.597656 C 117.394531 569.792969 117.527344 570.003906 117.667969 570.199219 C 130.851562 588.242188 152.472656 594.582031 171.308594 590.726562 C 171.507812 590.6875 171.707031 590.636719 171.910156 590.59375 L 171.910156 591.21875 L 399.027344 591.21875 L 399.027344 591.820312 L 398.425781 591.820312 L 398.425781 592.75 L 467.664062 592.75 L 466.683594 570.199219 L 466.65625 569.597656 L 560.078125 569.597656 C 560.472656 569.597656 560.792969 569.277344 560.792969 568.882812 L 560.792969 79.578125 L 561.375 79.558594 C 582.695312 78.867188 599.398438 61.601562 599.398438 40.253906 C 599.398438 18.5625 581.761719 0.917969 560.078125 0.917969 Z M 207.375 313.75 L 207.289062 313.097656 C 207.398438 313.214844 207.492188 313.347656 207.554688 313.503906 C 207.574219 313.558594 207.570312 313.609375 207.585938 313.664062 Z M 559.363281 568.167969 L 466.59375 568.167969 L 466.566406 567.566406 L 464.65625 523.648438 L 464.0625 523.796875 L 464.039062 523.183594 L 485.527344 517.820312 C 482.972656 509.585938 454.550781 420.058594 416.460938 382.785156 C 378.492188 345.628906 332.796875 344.554688 327.710938 344.554688 L 327.589844 344.554688 L 327.539062 344.605469 L 327.238281 344.554688 C 327.09375 344.53125 326.945312 344.511719 326.800781 344.488281 L 327.332031 343.964844 C 321.410156 342.988281 315.285156 342.25 308.992188 341.769531 L 308.992188 307.75 C 317.472656 302.476562 324.441406 293.5625 328.605469 283.027344 C 336.410156 282.09375 343.253906 273.132812 343.253906 266.0625 C 343.253906 265.0625 343.1875 264.160156 343.050781 263.335938 C 343.007812 263.074219 342.949219 262.828125 342.890625 262.582031 C 346.238281 258.574219 348.660156 253.84375 350.074219 248.515625 C 353.113281 235.933594 351.289062 221.484375 345.320312 210.820312 C 340.675781 202.859375 325.460938 191.292969 312.191406 191.292969 C 309.148438 191.292969 306.332031 191.898438 303.820312 193.089844 L 303.398438 193.289062 L 303.101562 192.933594 C 299.183594 188.25 293.34375 185.875 285.738281 185.875 C 277.339844 185.875 269.046875 188.757812 264.863281 190.46875 C 237.046875 202.542969 234.84375 230.707031 236.007812 246.421875 C 236.527344 253.445312 238.085938 259.519531 240.621094 264.527344 C 240.589844 264.917969 240.5625 265.3125 240.558594 265.738281 C 240.558594 265.847656 240.546875 265.949219 240.546875 266.0625 C 240.546875 273.128906 247.386719 282.085938 255.183594 283.027344 C 259.347656 293.582031 266.320312 302.507812 274.8125 307.777344 L 274.8125 341.773438 C 268.523438 342.25 262.394531 342.988281 256.472656 343.96875 L 257.003906 344.492188 C 256.859375 344.515625 256.714844 344.535156 256.570312 344.558594 L 256.257812 344.601562 L 256.214844 344.558594 L 256.097656 344.558594 C 253.339844 344.558594 238.601562 344.878906 219.480469 351.1875 L 219.300781 351.246094 C 219.296875 351.035156 219.296875 350.828125 219.292969 350.617188 C 219.28125 349.957031 219.269531 349.296875 219.253906 348.628906 C 223.441406 348.433594 227.253906 345.503906 226.894531 337.699219 C 226.769531 335.042969 226.359375 326.164062 226.234375 323.507812 C 225.925781 316.792969 218.488281 311.683594 211.777344 311.996094 C 210.375 312.0625 209.078125 312.40625 207.867188 312.898438 C 207.050781 306.699219 201.664062 302.027344 195.300781 302.324219 C 193.710938 302.398438 192.214844 302.792969 190.851562 303.414062 C 188.929688 298.847656 184.351562 295.71875 179.113281 295.960938 C 177.234375 296.046875 175.496094 296.59375 173.941406 297.433594 C 175.117188 282.316406 174.398438 253.925781 166.171875 253.925781 C 156.015625 253.925781 155.578125 281.578125 153.386719 297.761719 C 149.679688 325.148438 152.1875 344.101562 151.386719 361.460938 C 150.5 380.574219 125.414062 446.324219 113.300781 483.582031 C 100.699219 522.347656 104.484375 549.941406 115.863281 567.566406 C 115.996094 567.773438 116.136719 567.964844 116.273438 568.167969 L 32.351562 568.167969 L 32.351562 420.027344 L 62.234375 420.027344 L 32.351562 368.246094 L 32.351562 40.96875 L 520.769531 40.96875 L 520.789062 41.550781 C 521.457031 62.195312 538.148438 78.890625 558.785156 79.558594 L 559.363281 79.578125 Z M 559.363281 568.167969 " fill-opacity="1" fill-rule="nonzero"/><path fill="#fcd116" d="M 588.632812 68.15625 C 588.296875 68.5 587.949219 68.835938 587.601562 69.167969 C 587.5 69.265625 587.394531 69.363281 587.292969 69.460938 C 586.929688 69.800781 586.558594 70.128906 586.183594 70.453125 C 586.085938 70.539062 585.992188 70.621094 585.894531 70.703125 C 585.503906 71.035156 585.109375 71.359375 584.707031 71.671875 C 584.617188 71.742188 584.53125 71.8125 584.441406 71.878906 C 584.027344 72.203125 583.601562 72.515625 583.171875 72.820312 C 583.09375 72.875 583.015625 72.933594 582.9375 72.988281 C 582.496094 73.296875 582.042969 73.597656 581.585938 73.890625 C 581.515625 73.9375 581.445312 73.980469 581.375 74.027344 C 580.90625 74.324219 580.429688 74.609375 579.949219 74.886719 C 579.890625 74.921875 579.828125 74.957031 579.769531 74.988281 C 579.273438 75.269531 578.769531 75.542969 578.261719 75.804688 C 578.210938 75.828125 578.164062 75.855469 578.113281 75.878906 C 577.59375 76.144531 577.066406 76.394531 576.535156 76.636719 C 576.496094 76.65625 576.453125 76.675781 576.410156 76.695312 C 575.867188 76.9375 575.320312 77.167969 574.765625 77.386719 C 574.730469 77.402344 574.695312 77.414062 574.664062 77.429688 C 574.097656 77.648438 573.53125 77.859375 572.953125 78.054688 C 572.929688 78.0625 572.902344 78.070312 572.878906 78.082031 C 572.292969 78.28125 571.703125 78.464844 571.105469 78.632812 C 571.089844 78.640625 571.070312 78.644531 571.050781 78.648438 C 570.449219 78.820312 569.839844 78.980469 569.226562 79.125 C 569.214844 79.128906 569.199219 79.132812 569.1875 79.132812 C 568.566406 79.277344 567.941406 79.410156 567.3125 79.523438 C 567.304688 79.523438 567.292969 79.527344 567.285156 79.527344 C 566.652344 79.644531 566.011719 79.746094 565.367188 79.832031 C 565.359375 79.832031 565.359375 79.832031 565.351562 79.832031 C 564.703125 79.917969 564.050781 79.988281 563.390625 80.042969 C 562.296875 80.132812 561.195312 80.191406 560.078125 80.191406 C 558.980469 80.191406 557.898438 80.132812 556.820312 80.046875 C 556.816406 80.046875 556.808594 80.046875 556.800781 80.046875 C 556.160156 79.992188 555.527344 79.925781 554.894531 79.84375 C 554.886719 79.84375 554.875 79.839844 554.863281 79.839844 C 554.234375 79.757812 553.613281 79.660156 552.996094 79.550781 C 552.984375 79.546875 552.972656 79.546875 552.960938 79.542969 C 552.339844 79.433594 551.726562 79.308594 551.121094 79.167969 C 551.109375 79.167969 551.101562 79.164062 551.089844 79.160156 C 550.480469 79.019531 549.875 78.867188 549.273438 78.699219 C 549.269531 78.695312 549.261719 78.695312 549.257812 78.695312 C 535.910156 74.941406 525.402344 64.429688 521.652344 51.082031 C 521.652344 51.074219 521.648438 51.066406 521.648438 51.0625 C 521.480469 50.464844 521.324219 49.859375 521.183594 49.246094 C 521.183594 49.238281 521.179688 49.226562 521.175781 49.21875 C 521.039062 48.609375 520.910156 47.996094 520.800781 47.378906 C 520.800781 47.367188 520.796875 47.355469 520.796875 47.34375 C 520.683594 46.722656 520.589844 46.101562 520.507812 45.472656 C 520.503906 45.460938 520.503906 45.453125 520.503906 45.441406 C 520.421875 44.808594 520.355469 44.175781 520.300781 43.535156 C 520.300781 43.527344 520.300781 43.523438 520.300781 43.515625 C 520.210938 42.4375 520.15625 41.355469 520.15625 40.253906 C 520.15625 39.136719 520.214844 38.035156 520.304688 36.941406 C 520.359375 36.28125 520.429688 35.628906 520.511719 34.980469 C 520.511719 34.976562 520.515625 34.972656 520.515625 34.964844 C 520.601562 34.320312 520.699219 33.679688 520.816406 33.046875 C 520.820312 33.039062 520.820312 33.027344 520.820312 33.019531 C 520.9375 32.390625 521.066406 31.765625 521.210938 31.144531 C 521.214844 31.132812 521.21875 31.121094 521.21875 31.105469 C 521.363281 30.492188 521.523438 29.882812 521.695312 29.277344 C 521.699219 29.261719 521.707031 29.242188 521.710938 29.222656 C 521.882812 28.625 522.066406 28.035156 522.265625 27.449219 C 522.273438 27.425781 522.28125 27.398438 522.289062 27.375 C 522.488281 26.796875 522.695312 26.226562 522.917969 25.664062 C 522.929688 25.632812 522.945312 25.597656 522.957031 25.5625 C 523.175781 25.007812 523.40625 24.460938 523.652344 23.917969 C 523.671875 23.875 523.691406 23.835938 523.710938 23.789062 C 523.949219 23.257812 524.203125 22.730469 524.464844 22.210938 C 524.492188 22.160156 524.515625 22.113281 524.542969 22.0625 C 524.804688 21.554688 525.074219 21.050781 525.355469 20.554688 C 525.390625 20.496094 525.425781 20.4375 525.457031 20.378906 C 525.738281 19.894531 526.023438 19.417969 526.320312 18.945312 C 526.363281 18.878906 526.410156 18.808594 526.453125 18.738281 C 526.746094 18.28125 527.046875 17.832031 527.359375 17.386719 C 527.414062 17.308594 527.46875 17.230469 527.523438 17.152344 C 527.828125 16.722656 528.144531 16.296875 528.464844 15.878906 C 528.535156 15.792969 528.601562 15.707031 528.671875 15.621094 C 528.988281 15.214844 529.308594 14.816406 529.640625 14.425781 C 529.722656 14.332031 529.808594 14.234375 529.890625 14.140625 C 530.214844 13.761719 530.546875 13.390625 530.886719 13.027344 C 530.980469 12.925781 531.078125 12.824219 531.175781 12.722656 C 531.511719 12.371094 531.847656 12.027344 532.191406 11.6875 C 532.304688 11.578125 532.417969 11.472656 532.53125 11.363281 C 532.871094 11.042969 533.210938 10.722656 533.558594 10.410156 C 533.691406 10.296875 533.824219 10.183594 533.953125 10.070312 C 534.296875 9.773438 534.636719 9.480469 534.988281 9.199219 C 535.136719 9.078125 535.289062 8.964844 535.4375 8.84375 C 535.78125 8.574219 536.125 8.304688 536.476562 8.046875 C 536.644531 7.925781 536.8125 7.8125 536.980469 7.691406 C 537.324219 7.445312 537.667969 7.203125 538.019531 6.96875 C 538.207031 6.847656 538.398438 6.726562 538.585938 6.609375 C 538.925781 6.390625 539.269531 6.171875 539.617188 5.960938 C 539.824219 5.839844 540.03125 5.722656 540.242188 5.601562 C 540.582031 5.40625 540.921875 5.210938 541.265625 5.027344 C 541.492188 4.90625 541.722656 4.792969 541.949219 4.675781 C 542.285156 4.503906 542.621094 4.328125 542.964844 4.167969 C 543.210938 4.050781 543.460938 3.941406 543.707031 3.832031 C 544.039062 3.679688 544.371094 3.527344 544.710938 3.386719 C 544.976562 3.277344 545.246094 3.175781 545.515625 3.070312 C 545.84375 2.941406 546.167969 2.808594 546.5 2.691406 C 546.785156 2.585938 547.074219 2.492188 547.363281 2.398438 C 547.6875 2.289062 548.007812 2.175781 548.332031 2.078125 C 548.636719 1.984375 548.945312 1.902344 549.253906 1.8125 C 549.570312 1.722656 549.886719 1.632812 550.203125 1.550781 C 550.53125 1.464844 550.863281 1.394531 551.195312 1.320312 C 551.5 1.25 551.804688 1.175781 552.113281 1.113281 C 552.46875 1.042969 552.824219 0.984375 553.179688 0.921875 C 553.472656 0.871094 553.765625 0.8125 554.058594 0.769531 C 554.441406 0.710938 554.828125 0.667969 555.214844 0.621094 C 555.488281 0.589844 555.761719 0.546875 556.035156 0.519531 C 556.476562 0.476562 556.917969 0.449219 557.363281 0.417969 C 557.589844 0.402344 557.8125 0.378906 558.042969 0.371094 C 558.71875 0.335938 559.394531 0.316406 560.078125 0.316406 C 564.898438 0.316406 569.523438 1.171875 573.804688 2.742188 C 574.417969 2.964844 575.019531 3.203125 575.617188 3.457031 C 576.8125 3.960938 577.976562 4.523438 579.105469 5.136719 C 582.5 6.984375 585.597656 9.304688 588.308594 12.015625 C 589.210938 12.917969 590.070312 13.867188 590.882812 14.851562 C 596.578125 21.757812 600 30.605469 600 40.253906 C 600 40.9375 599.980469 41.617188 599.949219 42.289062 C 599.9375 42.519531 599.914062 42.746094 599.898438 42.976562 C 599.867188 43.417969 599.839844 43.859375 599.796875 44.296875 C 599.769531 44.578125 599.726562 44.855469 599.691406 45.136719 C 599.644531 45.515625 599.605469 45.898438 599.546875 46.273438 C 599.5 46.574219 599.441406 46.871094 599.390625 47.167969 C 599.328125 47.519531 599.273438 47.875 599.203125 48.222656 C 599.140625 48.53125 599.0625 48.835938 598.996094 49.144531 C 598.917969 49.472656 598.847656 49.804688 598.765625 50.132812 C 598.683594 50.453125 598.589844 50.769531 598.5 51.089844 C 598.414062 51.394531 598.332031 51.699219 598.242188 52.003906 C 598.140625 52.332031 598.027344 52.65625 597.917969 52.980469 C 597.820312 53.265625 597.730469 53.554688 597.625 53.839844 C 597.507812 54.171875 597.375 54.496094 597.246094 54.824219 C 597.140625 55.09375 597.039062 55.363281 596.929688 55.632812 C 596.789062 55.96875 596.636719 56.300781 596.484375 56.632812 C 596.375 56.878906 596.265625 57.128906 596.148438 57.375 C 595.984375 57.71875 595.8125 58.054688 595.640625 58.394531 C 595.523438 58.621094 595.410156 58.851562 595.292969 59.074219 C 595.105469 59.421875 594.910156 59.761719 594.714844 60.101562 C 594.59375 60.308594 594.480469 60.519531 594.355469 60.722656 C 594.148438 61.074219 593.925781 61.417969 593.707031 61.761719 C 593.585938 61.949219 593.472656 62.136719 593.347656 62.320312 C 593.117188 62.671875 592.871094 63.019531 592.628906 63.363281 C 592.507812 63.53125 592.390625 63.699219 592.269531 63.867188 C 592.011719 64.21875 591.746094 64.5625 591.476562 64.90625 C 591.355469 65.054688 591.242188 65.207031 591.121094 65.355469 C 590.839844 65.707031 590.546875 66.050781 590.25 66.390625 C 590.136719 66.523438 590.023438 66.65625 589.910156 66.785156 C 589.597656 67.136719 589.28125 67.476562 588.957031 67.8125 C 588.847656 67.925781 588.742188 68.042969 588.632812 68.15625 Z M 327.34375 343.960938 L 327.335938 343.964844 L 291.90625 378.851562 L 256.472656 343.964844 L 256.46875 343.960938 C 256.46875 343.960938 240.492188 343.621094 219.296875 350.617188 C 219.574219 368.261719 217.425781 382.171875 203.125 382.371094 C 199.566406 410.9375 212.738281 486.980469 208.253906 549.265625 C 206.582031 572.488281 190.378906 586.824219 171.308594 590.726562 L 171.308594 591.820312 L 412.5 591.820312 L 412.5 536.664062 L 464.65625 523.648438 L 486.285156 518.253906 C 486.285156 518.253906 457.195312 421.8125 416.882812 382.359375 C 376.566406 342.90625 327.34375 343.960938 327.34375 343.960938 Z M 327.34375 343.960938 " fill-opacity="1" fill-rule="nonzero"/><path fill="#ffffff" d="M 350.660156 248.65625 C 349.09375 254.550781 346.457031 259.371094 343.050781 263.335938 C 342.589844 260.550781 341.265625 258.703125 338.589844 257.570312 C 338.269531 259.023438 337.859375 260.421875 337.332031 261.6875 C 336.132812 264.554688 334.335938 266.714844 331.636719 267.199219 C 331.617188 267.203125 331.601562 267.203125 331.582031 267.207031 C 323.117188 268.675781 328.082031 255.699219 324.585938 250.449219 C 321.082031 244.3125 314.289062 240.328125 308.152344 237.695312 C 303.003906 235.636719 295.621094 224.546875 295.621094 224.546875 C 295.621094 224.546875 290.332031 234.191406 277.476562 237.695312 C 264.625 241.203125 259.878906 244.824219 258.199219 250.449219 C 256.519531 256.078125 258.417969 263.207031 254.910156 265.835938 C 253.933594 266.570312 253.027344 266.976562 252.191406 267.109375 C 249.59375 267.507812 247.671875 265.222656 246.277344 261.746094 C 245.785156 260.511719 245.359375 259.128906 244.992188 257.664062 C 241.777344 259.113281 240.621094 261.667969 240.558594 265.738281 C 237.414062 259.960938 235.910156 253.21875 235.414062 246.46875 C 233.660156 222.796875 241.402344 200 264.625 189.917969 C 274.269531 185.972656 293.667969 180.710938 303.566406 192.550781 C 318.75 185.34375 340.175781 200.808594 345.839844 210.519531 C 351.976562 221.480469 353.730469 235.945312 350.660156 248.65625 Z M 283.039062 284.800781 C 284.59375 286.949219 287.371094 289.441406 291.902344 289.441406 C 296.484375 289.441406 299.253906 286.839844 300.773438 284.667969 C 298.242188 285.5 295.078125 286.195312 291.523438 286.195312 C 288.871094 286.195312 286.007812 285.796875 283.039062 284.800781 Z M 169.894531 261.214844 C 169.894531 261.210938 169.894531 261.207031 169.894531 261.203125 C 169.753906 260.03125 169.464844 258.945312 168.972656 258.042969 C 168.910156 257.925781 168.84375 257.808594 168.773438 257.699219 C 168.691406 257.574219 168.605469 257.449219 168.515625 257.332031 C 168.355469 257.125 168.179688 256.933594 167.988281 256.761719 C 167.929688 256.710938 167.863281 256.667969 167.804688 256.621094 C 167.609375 256.46875 167.398438 256.332031 167.171875 256.214844 C 167.09375 256.175781 167.011719 256.136719 166.925781 256.097656 C 166.632812 255.972656 166.320312 255.867188 165.972656 255.804688 C 159.667969 254.695312 158.441406 267.09375 158.621094 269.324219 C 158.628906 269.453125 158.679688 269.574219 158.746094 269.691406 C 158.761719 269.726562 158.789062 269.757812 158.8125 269.792969 C 158.875 269.878906 158.945312 269.960938 159.03125 270.042969 C 159.066406 270.074219 159.097656 270.105469 159.132812 270.136719 C 159.261719 270.246094 159.40625 270.347656 159.570312 270.445312 C 159.570312 270.445312 159.570312 270.445312 159.574219 270.445312 C 159.742188 270.539062 159.933594 270.632812 160.136719 270.71875 C 160.199219 270.746094 160.261719 270.769531 160.324219 270.792969 C 160.480469 270.855469 160.644531 270.917969 160.8125 270.972656 C 160.878906 270.996094 160.945312 271.019531 161.015625 271.039062 C 161.25 271.113281 161.492188 271.183594 161.746094 271.242188 C 161.75 271.242188 161.75 271.242188 161.75 271.246094 C 162.007812 271.308594 162.273438 271.363281 162.542969 271.414062 C 162.621094 271.429688 162.703125 271.441406 162.785156 271.457031 C 162.984375 271.492188 163.183594 271.523438 163.386719 271.550781 C 163.464844 271.5625 163.546875 271.574219 163.628906 271.585938 C 163.902344 271.621094 164.175781 271.648438 164.445312 271.671875 C 164.449219 271.671875 164.449219 271.671875 164.453125 271.671875 C 164.726562 271.695312 164.992188 271.707031 165.253906 271.714844 C 165.335938 271.71875 165.414062 271.71875 165.492188 271.71875 C 165.679688 271.722656 165.867188 271.722656 166.046875 271.71875 C 166.125 271.71875 166.199219 271.71875 166.273438 271.714844 C 166.511719 271.703125 166.742188 271.6875 166.957031 271.664062 C 166.964844 271.664062 166.96875 271.664062 166.972656 271.664062 C 167.945312 271.550781 168.65625 271.296875 168.828125 270.871094 C 169.191406 269.953125 170.148438 266.007812 169.992188 262.371094 C 169.972656 261.980469 169.941406 261.597656 169.894531 261.214844 Z M 169.894531 261.214844 " fill-opacity="1" fill-rule="nonzero"/><path fill="#0038a8" d="M 32.953125 368.085938 L 63.273438 420.625 L 0 420.625 L 30.324219 368.085938 L 31.636719 365.808594 Z M 169.988281 262.375 C 169.953125 261.585938 169.863281 260.816406 169.707031 260.089844 C 169.695312 260.046875 169.691406 260 169.679688 259.957031 C 169.679688 259.957031 169.675781 259.957031 169.675781 259.957031 C 167.335938 262.960938 162.84375 264.324219 159.878906 261.28125 C 158.796875 264.527344 158.53125 268.207031 158.621094 269.324219 C 158.757812 271 164.046875 271.992188 166.96875 271.664062 C 167.945312 271.554688 168.65625 271.296875 168.828125 270.871094 C 168.949219 270.566406 169.132812 269.917969 169.324219 269.070312 C 169.339844 268.984375 169.359375 268.894531 169.378906 268.804688 C 169.417969 268.625 169.453125 268.441406 169.492188 268.246094 C 169.539062 268.011719 169.582031 267.765625 169.625 267.507812 C 169.640625 267.40625 169.65625 267.304688 169.675781 267.199219 C 169.707031 266.980469 169.742188 266.753906 169.773438 266.519531 C 169.773438 266.515625 169.773438 266.511719 169.773438 266.507812 C 169.945312 265.214844 170.046875 263.777344 169.988281 262.386719 C 169.988281 262.382812 169.988281 262.378906 169.988281 262.375 Z M 169.988281 262.375 " fill-opacity="1" fill-rule="nonzero"/><path fill="#000000" d="M 334.507812 350.496094 C 335.027344 351 335.042969 351.832031 334.539062 352.355469 L 292.851562 395.542969 C 292.601562 395.800781 292.257812 395.945312 291.902344 395.945312 C 291.542969 395.945312 291.203125 395.800781 290.953125 395.542969 L 249.269531 352.355469 C 248.765625 351.832031 248.777344 351 249.304688 350.496094 C 249.824219 349.992188 250.660156 350.003906 251.164062 350.527344 L 291.90625 392.738281 L 332.648438 350.527344 C 333.152344 350.007812 333.988281 349.992188 334.507812 350.496094 Z M 252.171875 276.484375 C 252.898438 276.484375 253.488281 275.894531 253.488281 275.167969 C 253.488281 271.632812 252.949219 269.039062 252.191406 267.109375 C 249.59375 267.507812 247.671875 265.222656 246.28125 261.746094 C 245.84375 261.894531 245.5 262.25 245.410156 262.738281 C 245.28125 263.453125 245.757812 264.136719 246.46875 264.265625 C 246.515625 264.273438 250.859375 265.332031 250.859375 275.167969 C 250.855469 275.894531 251.445312 276.484375 252.171875 276.484375 Z M 217.976562 332.609375 C 217.25 332.640625 216.6875 333.253906 216.722656 333.980469 L 217.273438 345.960938 C 217.304688 346.664062 217.886719 347.214844 218.585938 347.214844 C 218.605469 347.214844 218.625 347.214844 218.644531 347.214844 C 219.371094 347.183594 219.933594 346.570312 219.898438 345.84375 L 219.347656 333.863281 C 219.316406 333.136719 218.683594 332.554688 217.976562 332.609375 Z M 288.222656 276.230469 C 287.496094 276.230469 286.90625 276.820312 286.90625 277.546875 C 286.90625 278.269531 287.496094 278.859375 288.222656 278.859375 C 290.792969 278.859375 294.382812 278.160156 296.046875 276.171875 C 296.789062 275.289062 297.074219 274.230469 296.875 273.113281 C 296.335938 270.046875 292.871094 263.984375 292.476562 263.300781 C 292.113281 262.671875 291.308594 262.453125 290.679688 262.820312 C 290.050781 263.183594 289.835938 263.988281 290.199219 264.617188 C 291.203125 266.355469 293.898438 271.359375 294.289062 273.574219 C 294.351562 273.925781 294.273438 274.195312 294.03125 274.484375 C 293.199219 275.476562 290.699219 276.230469 288.222656 276.230469 Z M 171.304688 298.660156 C 170.992188 298.792969 163.65625 302.023438 161.410156 315.800781 C 161.292969 316.519531 161.78125 317.195312 162.496094 317.3125 C 162.570312 317.324219 162.640625 317.328125 162.710938 317.328125 C 163.339844 317.328125 163.902344 316.867188 164.007812 316.222656 C 165.984375 304.066406 172.203125 301.136719 172.332031 301.078125 C 172.992188 300.796875 173.304688 300.027344 173.023438 299.363281 C 172.742188 298.691406 171.96875 298.386719 171.304688 298.660156 Z M 205.847656 312.769531 C 205.558594 312.886719 198.804688 315.710938 196.710938 327.664062 C 196.585938 328.378906 197.066406 329.0625 197.78125 329.1875 C 197.855469 329.203125 197.933594 329.207031 198.007812 329.207031 C 198.636719 329.207031 199.191406 328.757812 199.304688 328.117188 C 201.121094 317.738281 206.578125 315.316406 206.832031 315.207031 C 207.5 314.9375 207.824219 314.175781 207.558594 313.503906 C 207.285156 312.828125 206.523438 312.503906 205.847656 312.769531 Z M 32.953125 567.566406 L 32.953125 420.625 L 30.324219 420.625 L 30.324219 568.882812 C 30.324219 569.609375 30.910156 570.199219 31.636719 570.199219 L 117.667969 570.199219 C 117.046875 569.347656 116.445312 568.472656 115.863281 567.566406 Z M 188.371094 304.089844 C 188.0625 304.222656 180.722656 307.453125 178.476562 321.230469 C 178.359375 321.949219 178.847656 322.625 179.5625 322.742188 C 179.636719 322.753906 179.707031 322.757812 179.777344 322.757812 C 180.410156 322.757812 180.96875 322.300781 181.074219 321.65625 C 183.054688 309.484375 189.285156 306.5625 189.398438 306.511719 C 190.0625 306.226562 190.371094 305.460938 190.09375 304.792969 C 189.8125 304.125 189.042969 303.8125 188.371094 304.089844 Z M 278.304688 279.644531 C 288.652344 286.1875 298.386719 283.175781 302.878906 281.078125 C 302.953125 281.03125 303.03125 280.996094 303.113281 280.964844 C 304.496094 280.300781 305.332031 279.753906 305.460938 279.667969 C 306.066406 279.257812 306.878906 279.421875 307.285156 280.023438 C 307.691406 280.621094 307.535156 281.4375 306.933594 281.84375 C 306.902344 281.867188 306.054688 282.421875 304.605469 283.125 C 303.773438 285.117188 300.269531 292.074219 291.902344 292.074219 C 283.523438 292.074219 279.941406 285.089844 279.101562 283.121094 C 278.371094 282.742188 277.636719 282.335938 276.902344 281.871094 C 276.289062 281.484375 276.105469 280.667969 276.492188 280.054688 C 276.878906 279.445312 277.691406 279.257812 278.304688 279.644531 Z M 283.039062 284.800781 C 284.59375 286.949219 287.371094 289.441406 291.902344 289.441406 C 296.484375 289.441406 299.253906 286.839844 300.773438 284.667969 C 298.242188 285.5 295.078125 286.195312 291.523438 286.195312 C 288.871094 286.195312 286.007812 285.796875 283.039062 284.800781 Z M 337.328125 261.6875 C 336.128906 264.554688 334.335938 266.714844 331.632812 267.199219 C 331.613281 267.203125 331.597656 267.203125 331.582031 267.207031 C 330.84375 269.128906 330.324219 271.691406 330.324219 275.167969 C 330.324219 275.894531 330.910156 276.484375 331.636719 276.484375 C 332.363281 276.484375 332.953125 275.894531 332.953125 275.164062 C 332.953125 265.472656 337.234375 264.292969 337.363281 264.261719 C 338.066406 264.121094 338.527344 263.445312 338.398438 262.738281 C 338.300781 262.175781 337.859375 261.777344 337.328125 261.6875 Z M 274.121094 267.199219 C 276.125 267.199219 277.746094 264.890625 277.746094 262.046875 C 277.746094 259.199219 276.121094 256.890625 274.121094 256.890625 C 272.121094 256.890625 270.496094 259.199219 270.496094 262.046875 C 270.496094 264.890625 272.117188 267.199219 274.121094 267.199219 Z M 560.078125 38.941406 L 31.636719 38.941406 C 30.910156 38.941406 30.324219 39.53125 30.324219 40.253906 L 30.324219 368.085938 L 31.636719 365.808594 L 32.953125 368.085938 L 32.953125 41.570312 L 558.765625 41.570312 L 558.765625 567.566406 L 466.566406 567.566406 L 466.683594 570.195312 L 560.078125 570.195312 C 560.808594 570.195312 561.394531 569.609375 561.394531 568.882812 L 561.394531 40.253906 C 561.390625 39.53125 560.804688 38.941406 560.078125 38.941406 Z M 412.667969 450.953125 C 411.941406 450.953125 411.355469 451.542969 411.355469 452.269531 L 411.355469 531.089844 C 411.355469 531.816406 411.941406 532.40625 412.667969 532.40625 C 413.394531 532.40625 413.984375 531.816406 413.984375 531.089844 L 413.984375 452.269531 C 413.984375 451.542969 413.394531 450.953125 412.667969 450.953125 Z M 281.363281 247.820312 C 275.738281 245.796875 266.824219 247.417969 264.664062 252.792969 C 263.925781 254.625 274.144531 250.753906 281.699219 253.726562 C 285.109375 255.066406 285.179688 249.1875 281.363281 247.820312 Z M 309.253906 267.199219 C 311.257812 267.199219 312.878906 264.890625 312.878906 262.046875 C 312.878906 259.199219 311.257812 256.890625 309.253906 256.890625 C 307.25 256.890625 305.628906 259.199219 305.628906 262.046875 C 305.628906 264.890625 307.253906 267.199219 309.253906 267.199219 Z M 304.683594 270.511719 C 305.972656 271.851562 307.457031 272.328125 308.871094 272.328125 C 310.824219 272.328125 312.648438 271.425781 313.675781 270.648438 C 314.253906 270.210938 314.363281 269.390625 313.929688 268.808594 C 313.488281 268.230469 312.664062 268.117188 312.085938 268.550781 C 311.953125 268.648438 308.78125 270.984375 306.578125 268.6875 C 306.078125 268.164062 305.246094 268.148438 304.722656 268.652344 C 304.199219 269.152344 304.183594 269.988281 304.683594 270.511719 Z M 269.550781 270.511719 C 270.839844 271.851562 272.320312 272.328125 273.738281 272.328125 C 275.691406 272.328125 277.519531 271.425781 278.542969 270.648438 C 279.121094 270.210938 279.230469 269.390625 278.792969 268.808594 C 278.351562 268.230469 277.53125 268.117188 276.953125 268.550781 C 276.820312 268.648438 273.648438 270.984375 271.445312 268.6875 C 270.941406 268.164062 270.113281 268.148438 269.585938 268.652344 C 269.0625 269.152344 269.046875 269.988281 269.550781 270.511719 Z M 318.710938 252.792969 C 316.550781 247.417969 307.636719 245.796875 302.011719 247.820312 C 298.195312 249.1875 298.265625 255.070312 301.675781 253.726562 C 309.230469 250.753906 319.449219 254.625 318.710938 252.792969 Z M 318.710938 252.792969 " fill-opacity="1" fill-rule="nonzero"/></svg>