<svg xmlns="http://www.w3.org/2000/svg" xmlns:xlink="http://www.w3.org/1999/xlink" width="800" zoomAndPan="magnify" viewBox="0 0 600 599.999999" height="800" preserveAspectRatio="xMidYMid meet" version="1.0"><defs><clipPath id="537974653e"><path d="M 47.554688 549 L 104 549 L 104 596 L 47.554688 596 Z M 47.554688 549 " clip-rule="nonzero"/></clipPath></defs><path fill="#deeaff" d="M 69.589844 595.394531 L 69.589844 246.660156 C 69.589844 110.5 179.96875 0.121094 316.128906 0.121094 C 452.285156 0.121094 562.664062 110.5 562.664062 246.660156 L 562.664062 595.394531 Z M 69.589844 595.394531 " fill-opacity="1" fill-rule="nonzero"/><path fill="#ffb98a" d="M 60.816406 541.085938 C 60.816406 541.085938 80.074219 566.105469 84.847656 566.585938 C 89.347656 567.042969 81.738281 545.445312 81.738281 545.445312 C 81.738281 545.445312 132.46875 454.519531 143.371094 420.15625 C 149.433594 401.046875 139.863281 337.988281 139.863281 337.988281 C 139.863281 337.988281 165.039062 405.394531 164.394531 410.0625 C 156.179688 469.5 185.808594 564.527344 185.808594 564.527344 C 185.808594 564.527344 213.128906 580.640625 221.285156 573.882812 C 226.386719 569.65625 208.894531 562.5625 208.894531 562.5625 C 208.894531 562.5625 199.496094 431.691406 198.714844 400.175781 C 197.984375 370.828125 180.734375 341.933594 180.054688 334.105469 C 179.566406 328.460938 111.503906 316.792969 105.230469 336.539062 C 101.847656 347.183594 116.148438 408.417969 113.273438 410.964844 C 90.210938 431.390625 60.816406 541.085938 60.816406 541.085938 Z M 60.816406 541.085938 " fill-opacity="1" fill-rule="nonzero"/><path fill="#be0b31" d="M 135.492188 65.367188 C 122.714844 70.671875 110.167969 89.488281 107.539062 103.046875 C 104.703125 117.695312 106.519531 130.082031 109.28125 140.867188 C 112.546875 153.636719 90.664062 169.261719 84.851562 185.929688 C 61.320312 253.390625 147.441406 249.160156 159.109375 247.917969 C 170.78125 246.671875 173.613281 174.917969 182.496094 167.257812 C 203.617188 149.039062 198.738281 103.671875 194.132812 83.148438 " fill-opacity="1" fill-rule="nonzero"/><path fill="#ffffff" d="M 194.257812 121.339844 C 193.726562 121.480469 193.570312 122.238281 193.964844 122.675781 C 195.863281 124.777344 197.023438 127.726562 197.070312 130.691406 C 197.09375 132.261719 196.746094 133.972656 195.628906 134.886719 C 194.007812 136.207031 190.296875 136.066406 188.753906 132.269531 C 187.164062 128.359375 189.558594 124.796875 189.558594 124.796875 C 189.558594 124.796875 188.378906 123.933594 187.558594 123.316406 C 185.328125 126.589844 185.160156 133.34375 187.320312 136.792969 C 189.480469 140.238281 193.835938 141.9375 197.152344 140.148438 C 200.691406 138.230469 202.425781 131.402344 199.058594 125.492188 C 197.625 122.976562 195.445312 121.015625 194.257812 121.339844 Z M 194.257812 121.339844 " fill-opacity="1" fill-rule="nonzero"/><path fill="#ffb98a" d="M 147.460938 129.777344 C 147.460938 129.777344 145.308594 156.5625 144.667969 158.769531 C 144.269531 160.140625 139.820312 160.015625 139.820312 160.015625 C 139.820312 160.015625 133.925781 186.710938 159.980469 191.191406 C 189.339844 196.242188 186.792969 171.628906 186.792969 171.628906 C 186.792969 171.628906 180.105469 168.355469 178.375 166.179688 C 177.289062 164.816406 177.941406 147.207031 177.941406 147.207031 Z M 147.460938 129.777344 " fill-opacity="1" fill-rule="nonzero"/><path fill="#d99162" d="M 145.296875 138.683594 C 145.296875 138.683594 149.648438 148.90625 160.730469 153.976562 C 170.066406 158.246094 177.75 157.710938 177.75 157.710938 L 177.953125 150.964844 Z M 145.296875 138.683594 " fill-opacity="1" fill-rule="nonzero"/><path fill="#ffb98a" d="M 177.953125 150.960938 C 166.988281 153.953125 156.597656 148.824219 148.933594 143.257812 C 132.589844 131.394531 133.769531 111.160156 133.769531 111.160156 C 133.769531 111.160156 128.519531 89.585938 135.28125 78.851562 C 138.773438 73.3125 172.242188 54.992188 190.695312 81.371094 C 197.144531 90.59375 191.382812 99.78125 194.425781 114.972656 C 197.398438 129.828125 187.304688 148.410156 177.953125 150.960938 Z M 177.953125 150.960938 " fill-opacity="1" fill-rule="nonzero"/><path fill="#d99162" d="M 190.167969 269.921875 C 197.933594 291.351562 239.679688 342.683594 239.679688 342.683594 C 239.679688 342.683594 241.878906 347.4375 242.703125 349.164062 C 244.988281 353.929688 247.449219 353.515625 253.980469 359.734375 C 256.746094 362.367188 260.261719 361.988281 259.976562 359.222656 C 259.773438 357.242188 255.902344 351.042969 255.902344 351.042969 L 263.339844 354.128906 C 263.339844 354.128906 261.433594 363.003906 264.621094 363.136719 C 266.328125 363.207031 267.960938 357.777344 267.960938 357.777344 C 267.960938 357.777344 265.628906 366.570312 268.851562 366.621094 C 271 366.652344 272.957031 360.902344 272.957031 360.902344 C 272.957031 360.902344 271.910156 369.039062 274.914062 369.058594 C 276.972656 369.070312 277.527344 364.679688 277.527344 364.679688 C 277.527344 364.679688 278.761719 367.695312 281.320312 366.378906 C 282.921875 365.554688 279.710938 355.902344 278.074219 353.960938 C 276.527344 352.125 272.109375 348.246094 272.109375 348.246094 C 272.109375 348.246094 269.292969 344.054688 267.832031 342.570312 C 264.933594 339.621094 258.996094 335.890625 255.242188 334.945312 C 253.503906 334.507812 224.792969 274.023438 216.789062 258.003906 C 216.386719 257.203125 200.621094 167.761719 188.984375 170.554688 C 187.246094 170.976562 184.152344 175.769531 181.550781 192.132812 C 179.125 207.40625 181.632812 221.105469 181.632812 221.105469 C 181.632812 221.105469 185.214844 256.25 190.167969 269.921875 Z M 190.167969 269.921875 " fill-opacity="1" fill-rule="nonzero"/><path fill="#ba7446" d="M 271.617188 347.84375 C 271.550781 347.84375 271.480469 347.824219 271.421875 347.78125 C 271.042969 347.503906 270.679688 347.230469 270.324219 346.964844 C 268.324219 345.464844 266.59375 344.167969 263.617188 342.960938 C 263.449219 342.890625 263.367188 342.699219 263.4375 342.53125 C 263.507812 342.359375 263.699219 342.277344 263.867188 342.347656 C 266.921875 343.59375 268.683594 344.910156 270.71875 346.4375 C 271.074219 346.703125 271.433594 346.972656 271.8125 347.25 C 271.960938 347.355469 271.988281 347.5625 271.882812 347.710938 C 271.820312 347.796875 271.722656 347.84375 271.617188 347.84375 Z M 271.617188 347.84375 " fill-opacity="1" fill-rule="nonzero"/><path fill="#ba7446" d="M 276.953125 364.882812 C 276.8125 364.882812 276.683594 364.792969 276.640625 364.652344 C 275.65625 361.5625 274.007812 359.558594 273.21875 358.59375 L 273.175781 358.542969 C 272.625 357.871094 269.71875 356.835938 267.160156 355.917969 C 265.671875 355.386719 264.269531 354.886719 263.214844 354.425781 C 263.046875 354.355469 262.96875 354.160156 263.042969 353.992188 C 263.113281 353.828125 263.308594 353.75 263.476562 353.824219 C 264.511719 354.269531 265.902344 354.769531 267.378906 355.296875 C 270.28125 356.332031 273.019531 357.3125 273.6875 358.125 L 273.730469 358.175781 C 274.546875 359.171875 276.246094 361.242188 277.269531 364.453125 C 277.324219 364.625 277.230469 364.8125 277.054688 364.867188 C 277.019531 364.878906 276.988281 364.882812 276.953125 364.882812 Z M 276.953125 364.882812 " fill-opacity="1" fill-rule="nonzero"/><path fill="#ba7446" d="M 272.964844 361.230469 C 272.929688 361.230469 272.894531 361.226562 272.859375 361.214844 C 272.6875 361.15625 272.59375 360.96875 272.652344 360.792969 C 272.65625 360.78125 273.113281 359.449219 273.199219 358.679688 C 273.21875 358.5 273.382812 358.367188 273.5625 358.390625 C 273.746094 358.410156 273.875 358.574219 273.855469 358.753906 C 273.761719 359.597656 273.296875 360.953125 273.277344 361.011719 C 273.230469 361.144531 273.101562 361.230469 272.964844 361.230469 Z M 272.964844 361.230469 " fill-opacity="1" fill-rule="nonzero"/><path fill="#ba7446" d="M 267.742188 359.03125 C 267.738281 359.03125 267.730469 359.03125 267.722656 359.03125 C 267.542969 359.019531 267.40625 358.867188 267.414062 358.683594 C 267.414062 358.652344 267.464844 357.867188 268.152344 356.214844 C 268.222656 356.046875 268.414062 355.964844 268.582031 356.035156 C 268.753906 356.105469 268.832031 356.300781 268.761719 356.46875 C 268.128906 357.992188 268.074219 358.714844 268.074219 358.722656 C 268.0625 358.894531 267.914062 359.03125 267.742188 359.03125 Z M 267.742188 359.03125 " fill-opacity="1" fill-rule="nonzero"/><path fill="#ffb98a" d="M 144.285156 129.960938 C 144.285156 129.960938 140.488281 131.90625 138.5 131.988281 C 130.039062 132.335938 124.59375 125.039062 122.226562 120.003906 C 119.550781 114.328125 119.644531 108.84375 124.984375 105.71875 C 132.820312 101.128906 142.589844 109.746094 142.589844 109.746094 Z M 144.285156 129.960938 " fill-opacity="1" fill-rule="nonzero"/><path fill="#d99162" d="M 135.5 124.113281 C 135.332031 124.113281 135.1875 123.988281 135.171875 123.816406 C 134.574219 118.242188 132.40625 115.121094 130.691406 113.488281 C 128.753906 111.640625 126.332031 110.671875 124.214844 110.902344 C 124.035156 110.921875 123.871094 110.789062 123.851562 110.609375 C 123.832031 110.429688 123.964844 110.265625 124.144531 110.246094 C 126.453125 109.996094 129.070312 111.03125 131.148438 113.011719 C 132.941406 114.722656 135.210938 117.972656 135.828125 123.75 C 135.847656 123.929688 135.714844 124.09375 135.535156 124.113281 C 135.519531 124.109375 135.507812 124.113281 135.5 124.113281 Z M 135.5 124.113281 " fill-opacity="1" fill-rule="nonzero"/><path fill="#d99162" d="M 128.109375 112.097656 C 127.007812 112.539062 126.5 114.113281 126.425781 115.515625 C 125.9375 124.597656 133.097656 125.1875 135.035156 122.96875 C 135.773438 122.121094 131.992188 110.738281 128.109375 112.097656 Z M 128.109375 112.097656 " fill-opacity="1" fill-rule="nonzero"/><path fill="#be0b31" d="M 138.210938 108.617188 C 141.113281 110.65625 141.867188 93.070312 148.949219 91.976562 C 162.574219 89.867188 183.484375 80.835938 183.484375 80.835938 C 183.484375 80.835938 191.441406 90.476562 194.128906 101.859375 C 197.3125 98.007812 198.960938 91.917969 197.085938 82.261719 C 194.34375 68.140625 161.734375 54.222656 146.753906 64.6875 C 138.339844 62.507812 132.105469 63.875 123.855469 74.492188 C 118.734375 81.078125 119.804688 94.910156 123.355469 106.894531 C 125.601562 104.984375 130.707031 103.351562 138.210938 108.617188 Z M 138.210938 108.617188 " fill-opacity="1" fill-rule="nonzero"/><path fill="#ffffff" d="M 112.757812 207.046875 C 110.285156 210.207031 115.199219 239.375 109.886719 253.882812 C 105.226562 266.601562 100.964844 279.492188 166.023438 286.398438 C 172.792969 287.117188 195.152344 285.707031 192.136719 274.730469 C 189.464844 265.003906 192.589844 244.113281 196.019531 239.640625 C 211.625 219.289062 199.558594 195.996094 189.824219 170.382812 C 188.632812 167.253906 181.59375 167.089844 180.429688 167.285156 C 180.328125 167.296875 177.683594 177.722656 161.796875 177.050781 C 146.988281 176.425781 141.519531 159.96875 140.824219 160.03125 C 127.84375 161.261719 123.566406 163.390625 123.566406 163.390625 C 123.566406 163.390625 125.511719 190.742188 112.757812 207.046875 Z M 112.757812 207.046875 " fill-opacity="1" fill-rule="nonzero"/><path fill="#dedede" d="M 177.328125 216.703125 C 172.796875 226.144531 166.695312 234.242188 159.429688 240.429688 C 159.21875 240.605469 159.230469 241.03125 159.457031 241.277344 C 161.136719 243.085938 163.570312 243.484375 165.46875 242.714844 C 167.539062 241.878906 169.078125 239.917969 170.386719 237.847656 C 174.148438 231.90625 176.507812 224.710938 178.097656 217.261719 C 178.21875 216.6875 177.5625 216.210938 177.328125 216.703125 Z M 177.328125 216.703125 " fill-opacity="1" fill-rule="nonzero"/><path fill="#002768" d="M 111.253906 271.65625 C 110.621094 272.363281 102.359375 294.265625 97.839844 321.324219 C 93.132812 349.503906 103.253906 400.371094 103.160156 402.953125 C 104.390625 403.300781 57.84375 516.027344 57.84375 516.027344 C 57.84375 516.027344 82.628906 558.484375 111 541.695312 C 116.320312 538.546875 149.847656 427.550781 153.574219 402.367188 C 156.882812 379.996094 149.074219 361.261719 149.074219 361.261719 C 149.074219 361.261719 161.695312 406.179688 161.40625 410.898438 C 156.632812 488.925781 161.496094 551.847656 162.503906 552.328125 C 181.390625 561.386719 208.5 554.351562 215.675781 544.828125 C 217.316406 542.644531 213.980469 425.394531 206.605469 385.832031 C 196.9375 333.976562 183.585938 287.304688 182.890625 284.910156 C 159.640625 288.664062 121.347656 277.589844 111.253906 271.65625 Z M 111.253906 271.65625 " fill-opacity="1" fill-rule="nonzero"/><path fill="#dedede" d="M 163.265625 184.53125 C 158.136719 184.53125 153.160156 183.117188 148.8125 180.421875 C 143.554688 177.164062 139.535156 172.277344 136.855469 165.890625 C 136.785156 165.726562 136.867188 165.53125 137.03125 165.460938 C 137.199219 165.390625 137.394531 165.46875 137.464844 165.636719 C 140.089844 171.890625 144.023438 176.675781 149.160156 179.859375 C 153.640625 182.640625 158.8125 184.023438 164.113281 183.855469 C 173.066406 183.578125 180.644531 178.890625 182.972656 172.191406 C 183.035156 172.019531 183.222656 171.929688 183.394531 171.988281 C 183.566406 172.050781 183.660156 172.238281 183.597656 172.410156 C 181.175781 179.363281 173.355469 184.230469 164.132812 184.515625 C 163.84375 184.527344 163.554688 184.53125 163.265625 184.53125 Z M 163.265625 184.53125 " fill-opacity="1" fill-rule="nonzero"/><path fill="#ffffff" d="M 135.191406 126.296875 C 134.660156 126.441406 134.503906 127.199219 134.898438 127.636719 C 136.800781 129.738281 137.957031 132.683594 138.003906 135.652344 C 138.03125 137.222656 137.683594 138.933594 136.5625 139.84375 C 134.941406 141.167969 131.230469 141.023438 129.6875 137.230469 C 128.097656 133.320312 130.492188 129.757812 130.492188 129.757812 C 130.492188 129.757812 129.316406 128.894531 128.492188 128.273438 C 126.265625 131.546875 126.09375 138.304688 128.253906 141.75 C 130.414062 145.199219 134.773438 146.898438 138.085938 145.105469 C 141.625 143.191406 143.359375 136.359375 139.992188 130.449219 C 138.558594 127.933594 136.375 125.976562 135.191406 126.296875 Z M 135.191406 126.296875 " fill-opacity="1" fill-rule="nonzero"/><path fill="#ffffff" d="M 187.183594 594.695312 C 186.257812 593.769531 185.996094 585.550781 185.996094 585.550781 L 253.574219 585.238281 C 253.574219 585.238281 253.773438 594.339844 251.605469 594.730469 C 241.460938 596.554688 189.382812 596.890625 187.183594 594.695312 Z M 187.183594 594.695312 " fill-opacity="1" fill-rule="nonzero"/><path fill="#002768" d="M 185.351562 563.015625 C 197.121094 575.203125 211.472656 567.316406 208.898438 562.5625 C 218.027344 566.988281 230.074219 572.046875 243.265625 575.527344 C 246.039062 576.257812 248.558594 578.101562 250.722656 580.230469 C 255.300781 584.730469 254.671875 591.207031 253.199219 591.433594 C 230.835938 594.824219 193.21875 591.546875 187.960938 588.835938 C 184.554688 587.074219 182.902344 566.605469 185.351562 563.015625 Z M 185.351562 563.015625 " fill-opacity="1" fill-rule="nonzero"/><g clip-path="url(#537974653e)"><path fill="#ffffff" d="M 47.609375 555.710938 C 47.5625 554.410156 50.992188 549.800781 50.992188 549.800781 L 103.40625 590.261719 C 103.40625 590.261719 100.261719 595.648438 99.046875 595.609375 C 88.96875 595.273438 47.84375 562.304688 47.609375 555.710938 Z M 47.609375 555.710938 " fill-opacity="1" fill-rule="nonzero"/></g><path fill="#002768" d="M 63.539062 531.882812 C 64.496094 539.210938 68.199219 546.15625 74.644531 548.335938 C 75.945312 548.773438 77.371094 549.0625 78.773438 548.652344 C 80.179688 548.246094 81.535156 546.972656 81.738281 545.445312 C 86.289062 554.441406 92.726562 565.6875 100.949219 576.378906 C 102.679688 578.628906 103.582031 581.601562 104.046875 584.585938 C 104.433594 587.066406 104.144531 589.859375 102.894531 592.152344 C 102.453125 592.96875 101.480469 593.496094 100.777344 593.101562 C 81.566406 582.308594 53.175781 558.882812 50.648438 553.574219 C 49.015625 550.132812 59.605469 533.246094 63.539062 531.882812 Z M 63.539062 531.882812 " fill-opacity="1" fill-rule="nonzero"/><path fill="#6b90d1" d="M 153.234375 377.398438 C 153.066406 377.398438 152.921875 377.273438 152.90625 377.101562 C 152.253906 370.371094 151.96875 363.476562 151.691406 356.808594 C 151.414062 350.152344 151.128906 343.265625 150.476562 336.554688 C 150.460938 336.375 150.59375 336.210938 150.773438 336.195312 C 150.957031 336.175781 151.117188 336.308594 151.136719 336.492188 C 151.789062 343.222656 152.074219 350.117188 152.351562 356.78125 C 152.628906 363.441406 152.914062 370.328125 153.5625 377.035156 C 153.582031 377.21875 153.449219 377.378906 153.265625 377.398438 C 153.253906 377.398438 153.246094 377.398438 153.234375 377.398438 Z M 153.234375 377.398438 " fill-opacity="1" fill-rule="nonzero"/><path fill="#ffffff" d="M 242.257812 266.308594 L 255.277344 212.929688 C 255.472656 212.136719 256.269531 211.652344 257.058594 211.84375 L 292.902344 220.589844 C 293.695312 220.78125 294.179688 221.578125 293.988281 222.371094 L 280.964844 275.75 C 280.773438 276.539062 279.976562 277.023438 279.1875 276.832031 L 243.339844 268.089844 C 242.550781 267.894531 242.066406 267.097656 242.257812 266.308594 Z M 242.257812 266.308594 " fill-opacity="1" fill-rule="nonzero"/><path fill="#6b90d1" d="M 165.285156 294.875 C 145.90625 294.875 126.488281 290.429688 109.132812 281.871094 C 108.972656 281.792969 108.902344 281.59375 108.984375 281.429688 C 109.066406 281.265625 109.265625 281.199219 109.425781 281.28125 C 132.320312 292.574219 158.832031 296.660156 184.074219 292.789062 C 184.253906 292.761719 184.421875 292.886719 184.449219 293.066406 C 184.476562 293.25 184.351562 293.417969 184.171875 293.445312 C 177.929688 294.398438 171.609375 294.875 165.285156 294.875 Z M 165.285156 294.875 " fill-opacity="1" fill-rule="nonzero"/><path fill="#6b90d1" d="M 182.9375 543.433594 C 175.722656 543.433594 168.527344 542.25 161.882812 539.949219 C 161.710938 539.890625 161.617188 539.699219 161.675781 539.527344 C 161.738281 539.359375 161.925781 539.265625 162.097656 539.324219 C 170.078125 542.089844 178.871094 543.226562 187.523438 542.609375 C 196.175781 541.996094 204.714844 539.632812 212.226562 535.769531 C 212.390625 535.6875 212.585938 535.75 212.671875 535.914062 C 212.753906 536.074219 212.691406 536.273438 212.527344 536.355469 C 204.941406 540.261719 196.308594 542.652344 187.570312 543.269531 C 186.03125 543.378906 184.484375 543.433594 182.9375 543.433594 Z M 182.9375 543.433594 " fill-opacity="1" fill-rule="nonzero"/><path fill="#6b90d1" d="M 113.183594 528.710938 C 113.183594 528.710938 113.179688 528.710938 113.179688 528.710938 C 95.660156 528.367188 78.464844 519.351562 67.183594 504.585938 C 67.074219 504.4375 67.101562 504.234375 67.246094 504.121094 C 67.390625 504.011719 67.597656 504.039062 67.710938 504.183594 C 78.867188 518.792969 95.871094 527.714844 113.1875 528.050781 C 113.371094 528.054688 113.515625 528.203125 113.511719 528.386719 C 113.511719 528.566406 113.363281 528.710938 113.183594 528.710938 Z M 113.183594 528.710938 " fill-opacity="1" fill-rule="nonzero"/><path fill="#ffb98a" d="M 232.566406 231.175781 C 232.566406 231.175781 245.78125 225.121094 251.484375 226.390625 C 253.734375 226.894531 256.441406 227.628906 261.097656 229.355469 C 267.554688 231.753906 276.476562 248.695312 274.1875 250.300781 C 271.441406 252.222656 268.125 244.339844 268.125 244.339844 C 268.125 244.339844 274.136719 251.925781 271.160156 252.84375 C 267.570312 253.953125 263.304688 247.441406 260.8125 245.117188 C 258.925781 243.359375 252.917969 239.902344 252.917969 239.902344 C 252.917969 239.902344 259.425781 246.046875 260.464844 247.933594 C 261.453125 249.734375 264.230469 254.273438 262.480469 255.800781 C 259.953125 258.015625 255 250.292969 252.542969 248.421875 C 249.53125 246.128906 246.941406 245.152344 244.84375 244.785156 C 243.746094 244.589844 242.714844 245.558594 238.246094 246.136719 C 233.761719 246.714844 231.136719 244.675781 231.136719 244.675781 C 231.136719 244.675781 171.253906 275.585938 141.527344 266.253906 C 120.167969 259.546875 109.972656 206.085938 111.285156 179.714844 C 111.859375 168.222656 119.460938 162.511719 125.332031 164.273438 C 143.949219 169.855469 150.515625 238.910156 154.265625 238.613281 C 165.710938 237.707031 232.566406 231.175781 232.566406 231.175781 Z M 232.566406 231.175781 " fill-opacity="1" fill-rule="nonzero"/><path fill="#d99162" d="M 271.046875 249.390625 C 270.929688 249.390625 270.816406 249.324219 270.753906 249.214844 C 269.226562 246.316406 267.648438 243.324219 265.394531 240.886719 C 263.46875 238.808594 261.058594 237.164062 258.414062 236.132812 C 258.246094 236.066406 258.160156 235.875 258.226562 235.703125 C 258.292969 235.535156 258.484375 235.449219 258.65625 235.515625 C 261.386719 236.585938 263.886719 238.285156 265.878906 240.4375 C 268.191406 242.9375 269.792969 245.972656 271.339844 248.90625 C 271.425781 249.066406 271.363281 249.265625 271.199219 249.351562 C 271.152344 249.378906 271.101562 249.390625 271.046875 249.390625 Z M 271.046875 249.390625 " fill-opacity="1" fill-rule="nonzero"/><path fill="#d99162" d="M 148.730469 247.351562 C 148.71875 247.351562 148.707031 247.351562 148.695312 247.351562 C 148.515625 247.332031 148.382812 247.167969 148.402344 246.984375 C 148.777344 243.761719 150.597656 240.738281 153.277344 238.90625 C 153.425781 238.800781 153.632812 238.839844 153.738281 238.992188 C 153.839844 239.140625 153.800781 239.347656 153.652344 239.449219 C 151.128906 241.175781 149.414062 244.019531 149.058594 247.058594 C 149.039062 247.226562 148.898438 247.351562 148.730469 247.351562 Z M 148.730469 247.351562 " fill-opacity="1" fill-rule="nonzero"/><path fill="#ffb98a" d="M 482.886719 126.917969 C 482.886719 126.917969 485.039062 153.796875 485.679688 156.011719 C 486.078125 157.390625 490.527344 157.261719 490.527344 157.261719 C 490.527344 157.261719 496.421875 184.046875 470.367188 188.546875 C 441.007812 193.613281 443.554688 168.914062 443.554688 168.914062 C 443.554688 168.914062 449.363281 165.1875 451.09375 163.003906 C 451.558594 162.417969 451.867188 158.914062 452.066406 155.105469 C 452.332031 150.03125 454.992188 146 454.992188 146 Z M 482.886719 126.917969 " fill-opacity="1" fill-rule="nonzero"/><path fill="#d99162" d="M 485.050781 135.855469 C 485.050781 135.855469 480.699219 146.109375 469.617188 151.195312 C 460.28125 155.484375 452.058594 155.175781 452.058594 155.175781 L 452.195312 141.335938 Z M 485.050781 135.855469 " fill-opacity="1" fill-rule="nonzero"/><path fill="#ffb98a" d="M 452.394531 147.515625 C 464.851562 151.191406 479.832031 144.515625 486.0625 137.363281 C 492.261719 130.246094 496.578125 108.234375 496.578125 108.234375 C 496.578125 108.234375 501.828125 86.578125 495.066406 75.8125 C 491.574219 70.25 458.105469 51.867188 439.652344 78.339844 C 433.203125 87.59375 438.964844 96.8125 435.921875 112.058594 C 432.949219 126.96875 441.332031 144.25 452.394531 147.515625 Z M 452.394531 147.515625 " fill-opacity="1" fill-rule="nonzero"/><path fill="#d99162" d="M 351.757812 215.234375 C 351.664062 215.234375 351.570312 215.191406 351.503906 215.117188 C 351.386719 214.976562 351.402344 214.769531 351.542969 214.652344 C 353.992188 212.582031 356.523438 210.4375 359.445312 209.097656 C 361.96875 207.941406 364.742188 207.421875 367.464844 207.59375 C 367.648438 207.605469 367.785156 207.765625 367.773438 207.945312 C 367.761719 208.128906 367.605469 208.265625 367.425781 208.253906 C 364.808594 208.085938 362.144531 208.585938 359.71875 209.695312 C 356.878906 211 354.382812 213.109375 351.972656 215.152344 C 351.90625 215.207031 351.832031 215.234375 351.757812 215.234375 Z M 351.757812 215.234375 " fill-opacity="1" fill-rule="nonzero"/><path fill="#d99162" d="M 455.578125 265.558594 C 455.546875 265.558594 455.515625 265.554688 455.484375 265.546875 C 455.3125 265.492188 455.210938 265.3125 455.261719 265.132812 C 456.152344 262.148438 455.8125 258.753906 454.351562 256.0625 C 454.269531 255.902344 454.328125 255.699219 454.484375 255.613281 C 454.644531 255.527344 454.847656 255.589844 454.933594 255.746094 C 456.472656 258.589844 456.832031 262.167969 455.890625 265.320312 C 455.851562 265.46875 455.722656 265.558594 455.578125 265.558594 Z M 455.578125 265.558594 " fill-opacity="1" fill-rule="nonzero"/><path fill="#ffb98a" d="M 374.867188 215.066406 C 374.867188 215.066406 366.097656 203.789062 360.796875 202.535156 C 358.707031 202.039062 356.140625 201.570312 351.550781 201.191406 C 345.175781 200.667969 331.070312 212.632812 332.375 215.101562 C 333.9375 218.066406 339.800781 212.140625 339.800781 212.140625 C 339.800781 212.140625 331.785156 216.636719 333.933594 218.765625 C 336.523438 221.332031 342.648438 217.085938 345.65625 215.988281 C 347.929688 215.15625 354.335938 214.503906 354.335938 214.503906 C 354.335938 214.503906 346.460938 217.445312 344.855469 218.757812 C 343.320312 220.011719 339.214844 223.050781 340.097656 225.222656 C 341.367188 228.363281 348.542969 223.289062 351.339844 222.597656 C 354.765625 221.746094 357.328125 221.945312 359.238281 222.496094 C 360.238281 222.785156 360.734375 224.128906 364.269531 226.570312 C 367.820312 229.027344 370.828125 228.25 370.828125 228.25 C 370.828125 228.25 414.96875 268.039062 443.640625 272.042969 C 464.238281 274.917969 439.96875 207.828125 449.117188 182.714844 C 453.105469 171.773438 435.066406 172.375 429.074219 180.859375 C 418.648438 195.617188 428.40625 236.609375 425.367188 234.734375 C 416.074219 229 374.867188 215.066406 374.867188 215.066406 Z M 374.867188 215.066406 " fill-opacity="1" fill-rule="nonzero"/><path fill="#ffffff" d="M 327.070312 240.5 L 318.421875 186.238281 C 318.292969 185.433594 318.839844 184.679688 319.644531 184.550781 L 356.078125 178.746094 C 356.882812 178.617188 357.636719 179.164062 357.765625 179.96875 L 366.414062 234.230469 C 366.542969 235.03125 365.992188 235.789062 365.191406 235.914062 L 328.753906 241.722656 C 327.953125 241.851562 327.195312 241.300781 327.070312 240.5 Z M 327.070312 240.5 " fill-opacity="1" fill-rule="nonzero"/><path fill="#ffb98a" d="M 368.664062 212.332031 C 361.933594 210.78125 349.914062 212.953125 349.410156 213.371094 C 348.371094 214.230469 348.875 216.121094 350.199219 217.199219 C 353.445312 219.84375 357.5 218.308594 360.941406 220.746094 C 364.277344 223.109375 366.457031 225.019531 369.183594 226.472656 " fill-opacity="1" fill-rule="nonzero"/><path fill="#ffb98a" d="M 486.0625 127.101562 C 486.0625 127.101562 489.863281 129.050781 491.847656 129.132812 C 500.3125 129.480469 505.753906 122.15625 508.121094 117.105469 C 510.796875 111.410156 510.703125 105.910156 505.363281 102.773438 C 497.527344 98.164062 487.757812 106.8125 487.757812 106.8125 Z M 486.0625 127.101562 " fill-opacity="1" fill-rule="nonzero"/><path fill="#d99162" d="M 494.851562 121.230469 C 494.839844 121.230469 494.828125 121.230469 494.816406 121.226562 C 494.636719 121.207031 494.503906 121.042969 494.523438 120.863281 C 495.203125 114.484375 497.84375 111.128906 499.945312 109.4375 C 501.890625 107.867188 504.171875 107.09375 506.207031 107.3125 C 506.386719 107.332031 506.519531 107.496094 506.5 107.675781 C 506.480469 107.855469 506.316406 107.988281 506.136719 107.96875 C 504.277344 107.769531 502.171875 108.492188 500.359375 109.949219 C 498.359375 111.5625 495.835938 114.777344 495.183594 120.933594 C 495.160156 121.105469 495.019531 121.230469 494.851562 121.230469 Z M 494.851562 121.230469 " fill-opacity="1" fill-rule="nonzero"/><path fill="#d99162" d="M 502.242188 109.171875 C 503.339844 109.617188 503.851562 111.195312 503.925781 112.605469 C 504.414062 121.71875 497.253906 122.308594 495.3125 120.082031 C 494.574219 119.234375 498.355469 107.808594 502.242188 109.171875 Z M 502.242188 109.171875 " fill-opacity="1" fill-rule="nonzero"/><path fill="#660117" d="M 492.136719 105.683594 C 489.234375 107.726562 494.777344 88.980469 481.398438 88.980469 C 453.960938 88.980469 446.863281 77.800781 446.863281 77.800781 C 446.863281 77.800781 438.90625 87.476562 436.21875 98.898438 C 433.035156 95.035156 426.1875 76.839844 430.398438 69.328125 C 435.304688 60.582031 443.496094 65.542969 443.496094 65.542969 C 443.496094 65.542969 436.652344 56.78125 452.390625 53.546875 C 464.574219 51.042969 489.664062 58.238281 496.597656 71.5 C 505.011719 69.316406 509.988281 74.957031 511.382812 78.695312 C 515.359375 89.34375 511.550781 95.824219 506.996094 103.949219 C 504.75 102.035156 499.640625 100.394531 492.136719 105.683594 Z M 492.136719 105.683594 " fill-opacity="1" fill-rule="nonzero"/><path fill="#ffb98a" d="M 538.316406 273.777344 C 541.035156 308.253906 546.238281 343.238281 545.679688 344.320312 C 543.363281 348.800781 541.9375 354.625 540.832031 364.316406 C 540.363281 368.417969 543.171875 370.855469 545.496094 368.582031 C 547.167969 366.949219 550.117188 359.335938 550.117188 359.335938 L 552.511719 367.398438 C 552.511719 367.398438 543.066406 372.527344 545.175781 375.09375 C 546.308594 376.472656 552.414062 373.691406 552.414062 373.691406 C 552.414062 373.691406 542.746094 378.433594 544.957031 380.964844 C 546.433594 382.652344 553.0625 379.894531 553.0625 379.894531 C 553.0625 379.894531 544.894531 385.136719 546.980469 387.480469 C 548.410156 389.085938 552.8125 386.246094 552.8125 386.246094 C 552.8125 386.246094 550.921875 389.445312 553.917969 390.449219 C 555.792969 391.082031 562.367188 381.40625 562.992188 378.691406 C 563.585938 376.125 564.039062 369.816406 564.039062 369.816406 C 564.039062 369.816406 565.890625 364.515625 566.226562 362.277344 C 566.890625 357.839844 565.222656 347.011719 563.457031 343.398438 C 562.941406 342.351562 569.5625 300.8125 566.214844 272.753906 C 563.695312 251.609375 547.128906 205.488281 546.597656 205.089844 C 545.304688 204.117188 517.289062 218.089844 517.289062 218.089844 C 517.289062 218.089844 538.25 272.925781 538.316406 273.777344 Z M 538.316406 273.777344 " fill-opacity="1" fill-rule="nonzero"/><path fill="#d99162" d="M 564.359375 369.214844 C 564.179688 369.214844 564.03125 369.070312 564.027344 368.890625 C 564.015625 368.390625 564.011719 367.90625 564.003906 367.429688 C 563.96875 364.765625 563.945312 362.464844 562.964844 359.257812 C 562.910156 359.085938 563.007812 358.902344 563.183594 358.847656 C 563.359375 358.792969 563.542969 358.890625 563.597656 359.066406 C 564.601562 362.363281 564.628906 364.707031 564.664062 367.421875 C 564.671875 367.898438 564.675781 368.378906 564.6875 368.875 C 564.691406 369.058594 564.542969 369.210938 564.363281 369.214844 C 564.363281 369.214844 564.359375 369.214844 564.359375 369.214844 Z M 564.359375 369.214844 " fill-opacity="1" fill-rule="nonzero"/><path fill="#d99162" d="M 552.523438 386.03125 C 552.457031 386.03125 552.390625 386.011719 552.332031 385.972656 C 552.183594 385.867188 552.144531 385.660156 552.25 385.511719 C 554.394531 382.4375 555.070312 379.667969 555.398438 378.335938 L 555.417969 378.265625 C 555.644531 377.339844 554.558594 374.316406 553.601562 371.652344 C 553.042969 370.105469 552.519531 368.644531 552.199219 367.484375 C 552.148438 367.308594 552.253906 367.128906 552.425781 367.078125 C 552.601562 367.03125 552.785156 367.132812 552.835938 367.308594 C 553.148438 368.441406 553.671875 369.890625 554.222656 371.429688 C 555.308594 374.449219 556.335938 377.304688 556.058594 378.421875 L 556.042969 378.492188 C 555.703125 379.863281 555.007812 382.714844 552.792969 385.886719 C 552.730469 385.980469 552.628906 386.03125 552.523438 386.03125 Z M 552.523438 386.03125 " fill-opacity="1" fill-rule="nonzero"/><path fill="#d99162" d="M 553.066406 380.222656 C 552.933594 380.222656 552.8125 380.144531 552.757812 380.015625 C 552.6875 379.847656 552.769531 379.65625 552.9375 379.585938 C 552.953125 379.578125 554.496094 378.9375 555.269531 378.425781 C 555.421875 378.324219 555.628906 378.367188 555.730469 378.519531 C 555.832031 378.667969 555.789062 378.875 555.636719 378.976562 C 554.808594 379.523438 553.253906 380.167969 553.191406 380.199219 C 553.152344 380.210938 553.105469 380.222656 553.066406 380.222656 Z M 553.066406 380.222656 " fill-opacity="1" fill-rule="nonzero"/><path fill="#d99162" d="M 551.417969 374.535156 C 551.316406 374.535156 551.214844 374.488281 551.152344 374.402344 C 551.042969 374.253906 551.074219 374.050781 551.222656 373.941406 C 551.253906 373.917969 551.992188 373.382812 553.964844 372.6875 C 554.136719 372.628906 554.328125 372.71875 554.386719 372.890625 C 554.445312 373.0625 554.355469 373.253906 554.183594 373.3125 C 552.324219 373.964844 551.621094 374.46875 551.613281 374.472656 C 551.554688 374.515625 551.488281 374.535156 551.417969 374.535156 Z M 551.417969 374.535156 " fill-opacity="1" fill-rule="nonzero"/><path fill="#ffb98a" d="M 475.769531 574.714844 L 472.570312 532.632812 L 446.984375 534.847656 L 450.1875 576.929688 Z M 475.769531 574.714844 " fill-opacity="1" fill-rule="nonzero"/><path fill="#d99162" d="M 474.15625 553.507812 L 471.84375 527.957031 L 446.628906 530.140625 L 449.109375 562.792969 C 449.109375 562.792969 455.867188 562.363281 462.949219 559.859375 C 469.433594 557.566406 474.15625 553.507812 474.15625 553.507812 Z M 474.15625 553.507812 " fill-opacity="1" fill-rule="nonzero"/><path fill="#ffb98a" d="M 519.738281 574.800781 L 515.027344 535.625 L 540.710938 532.109375 L 545.421875 571.289062 Z M 519.738281 574.800781 " fill-opacity="1" fill-rule="nonzero"/><path fill="#d99162" d="M 517.703125 557.894531 L 512.992188 518.714844 L 538.671875 515.203125 L 544.25 561.585938 C 544.25 561.585938 537.222656 561.757812 531.078125 560.59375 C 526.222656 559.667969 517.703125 557.894531 517.703125 557.894531 Z M 517.703125 557.894531 " fill-opacity="1" fill-rule="nonzero"/><path fill="#002768" d="M 549.324219 552.195312 L 531.496094 312.945312 L 450.976562 318.136719 C 450.976562 318.136719 437.230469 377.585938 434.378906 415.070312 C 432.742188 436.542969 441.519531 542.585938 442.515625 554.527344 C 442.574219 555.1875 443.019531 555.722656 443.625 555.851562 C 446.121094 556.394531 452.851562 557.6875 459.9375 557.6875 C 468.097656 557.6875 474.558594 555.019531 476.800781 553.960938 C 477.316406 553.71875 477.648438 553.171875 477.636719 552.570312 L 475.398438 426.734375 C 475.378906 425.589844 475.496094 424.449219 475.75 423.335938 L 486.394531 376.515625 C 486.5625 375.769531 487.578125 375.820312 487.683594 376.582031 L 512.332031 555.382812 C 512.421875 556.015625 512.875 556.519531 513.464844 556.632812 C 515.941406 557.105469 522.941406 558.179688 533.152344 557.59375 C 539.5 557.230469 546.039062 554.710938 548.441406 553.695312 C 549.015625 553.457031 549.371094 552.851562 549.324219 552.195312 Z M 549.324219 552.195312 " fill-opacity="1" fill-rule="nonzero"/><path fill="#acc0e3" d="M 523.527344 548.734375 C 519.898438 548.734375 516.296875 548.464844 512.976562 547.84375 C 512.796875 547.8125 512.679688 547.640625 512.710938 547.460938 C 512.746094 547.28125 512.917969 547.164062 513.097656 547.195312 C 524.355469 549.289062 538.808594 547.351562 546.699219 544.460938 C 546.871094 544.402344 547.058594 544.488281 547.121094 544.65625 C 547.183594 544.828125 547.097656 545.019531 546.925781 545.082031 C 541.285156 547.148438 532.316406 548.734375 523.527344 548.734375 Z M 523.527344 548.734375 " fill-opacity="1" fill-rule="nonzero"/><path fill="#acc0e3" d="M 456.929688 549.664062 C 456.925781 549.664062 456.925781 549.664062 456.921875 549.664062 C 450.746094 549.664062 445.210938 548.820312 443.621094 548.042969 C 443.460938 547.960938 443.390625 547.765625 443.46875 547.597656 C 443.550781 547.4375 443.746094 547.367188 443.914062 547.445312 C 446.691406 548.8125 465.195312 550.875 475.613281 545.417969 C 475.773438 545.332031 475.972656 545.394531 476.058594 545.554688 C 476.140625 545.71875 476.078125 545.917969 475.917969 546 C 472.734375 547.671875 466.855469 549.664062 456.929688 549.664062 Z M 456.929688 549.664062 " fill-opacity="1" fill-rule="nonzero"/><path fill="#ffffff" d="M 480.015625 596.566406 C 481.960938 595.179688 480.179688 587.925781 479.742188 586.269531 C 479.691406 586.066406 479.523438 585.929688 479.332031 585.925781 L 398.03125 584.539062 C 397.835938 584.535156 397.660156 584.675781 397.609375 584.882812 C 397.261719 586.25 396.832031 594.769531 397.917969 595.964844 C 400.507812 598.808594 475.347656 599.894531 480.015625 596.566406 Z M 480.015625 596.566406 " fill-opacity="1" fill-rule="nonzero"/><path fill="#be0b31" d="M 397.507812 585.476562 C 397.335938 589.261719 422.695312 590.929688 436.839844 590.929688 C 447.261719 590.929688 459.210938 590.269531 467.773438 589.648438 C 472.492188 589.304688 472.949219 584.757812 474.789062 584.542969 C 475.503906 584.457031 479.210938 581.265625 478.726562 577.144531 C 478.246094 573.117188 477.359375 569.453125 475.691406 568.972656 C 474.328125 568.574219 469.246094 571.769531 463.511719 571.421875 C 459.984375 571.214844 452.699219 569.039062 451.328125 565.46875 C 450.621094 563.628906 448.839844 559.746094 447.136719 559.296875 C 445.238281 558.785156 442.8125 563.015625 438.820312 565.75 C 433.304688 569.535156 423.480469 574.304688 418.40625 576.46875 C 413.496094 578.558594 397.777344 579.527344 397.507812 585.476562 Z M 397.507812 585.476562 " fill-opacity="1" fill-rule="nonzero"/><path fill="#ffffff" d="M 441.050781 575.421875 C 440.898438 575.421875 440.761719 575.3125 440.726562 575.160156 C 440.382812 573.5 439.976562 571.757812 439.160156 570.261719 C 438.28125 568.65625 437 567.578125 435.644531 567.292969 C 435.46875 567.257812 435.351562 567.082031 435.390625 566.902344 C 435.425781 566.722656 435.601562 566.609375 435.78125 566.644531 C 437.324219 566.96875 438.765625 568.171875 439.738281 569.945312 C 440.601562 571.523438 441.019531 573.316406 441.375 575.023438 C 441.414062 575.203125 441.296875 575.378906 441.121094 575.414062 C 441.097656 575.417969 441.074219 575.421875 441.050781 575.421875 Z M 441.050781 575.421875 " fill-opacity="1" fill-rule="nonzero"/><path fill="#ffffff" d="M 435.085938 577.441406 C 434.933594 577.441406 434.792969 577.332031 434.761719 577.175781 C 434.472656 575.710938 434.136719 574.171875 433.449219 572.847656 C 432.71875 571.4375 431.65625 570.488281 430.539062 570.242188 C 430.363281 570.203125 430.25 570.023438 430.289062 569.847656 C 430.328125 569.667969 430.503906 569.554688 430.683594 569.597656 C 431.992188 569.886719 433.214844 570.957031 434.035156 572.542969 C 434.761719 573.9375 435.113281 575.535156 435.410156 577.046875 C 435.445312 577.226562 435.332031 577.398438 435.152344 577.433594 C 435.128906 577.441406 435.109375 577.441406 435.085938 577.441406 Z M 435.085938 577.441406 " fill-opacity="1" fill-rule="nonzero"/><path fill="#ffffff" d="M 429.160156 579.015625 C 429.003906 579.015625 428.867188 578.90625 428.835938 578.746094 C 428.605469 577.484375 428.335938 576.152344 427.789062 575.015625 C 427.210938 573.8125 426.378906 573.003906 425.507812 572.796875 C 425.328125 572.753906 425.21875 572.578125 425.261719 572.398438 C 425.304688 572.21875 425.480469 572.113281 425.660156 572.152344 C 426.726562 572.410156 427.71875 573.347656 428.386719 574.730469 C 428.964844 575.941406 429.25 577.320312 429.488281 578.628906 C 429.519531 578.804688 429.402344 578.980469 429.222656 579.011719 C 429.199219 579.015625 429.179688 579.015625 429.160156 579.015625 Z M 429.160156 579.015625 " fill-opacity="1" fill-rule="nonzero"/><path fill="#ffffff" d="M 423.824219 580.222656 C 423.667969 580.222656 423.53125 580.113281 423.5 579.957031 C 423.269531 578.828125 423 577.644531 422.457031 576.632812 C 421.878906 575.5625 421.046875 574.839844 420.171875 574.652344 C 419.996094 574.617188 419.878906 574.441406 419.917969 574.261719 C 419.957031 574.085938 420.132812 573.972656 420.3125 574.007812 C 421.375 574.238281 422.371094 575.078125 423.035156 576.320312 C 423.621094 577.410156 423.90625 578.648438 424.144531 579.824219 C 424.179688 580.003906 424.0625 580.175781 423.886719 580.214844 C 423.867188 580.21875 423.84375 580.222656 423.824219 580.222656 Z M 423.824219 580.222656 " fill-opacity="1" fill-rule="nonzero"/><path fill="#c24a64" d="M 467.773438 589.648438 C 472.492188 589.304688 476.179688 588.96875 478.015625 588.753906 C 478.730469 588.667969 479.261719 588.011719 479.261719 587.222656 C 479.253906 585.128906 479.175781 580.964844 478.722656 577.144531 C 478.664062 576.945312 478.597656 576.742188 478.53125 576.53125 C 476.980469 576.160156 475.324219 576.570312 473.945312 577.449219 C 472.574219 578.324219 471.457031 579.632812 470.554688 581.070312 C 468.972656 583.601562 468.003906 586.585938 467.773438 589.648438 Z M 467.773438 589.648438 " fill-opacity="1" fill-rule="nonzero"/><path fill="#c24a64" d="M 418.890625 585.417969 C 418.734375 585.417969 418.59375 585.300781 418.566406 585.140625 C 418.535156 584.960938 418.660156 584.789062 418.835938 584.761719 C 431.085938 582.714844 442.609375 577.066406 452.164062 568.414062 C 452.296875 568.289062 452.507812 568.300781 452.628906 568.4375 C 452.753906 568.570312 452.742188 568.777344 452.605469 568.902344 C 442.957031 577.636719 431.316406 583.347656 418.945312 585.410156 C 418.929688 585.414062 418.910156 585.417969 418.890625 585.417969 Z M 418.890625 585.417969 " fill-opacity="1" fill-rule="nonzero"/><path fill="#c24a64" d="M 419.375 589.738281 C 419.207031 589.738281 419.066406 589.613281 419.046875 589.445312 C 418.628906 585.816406 417.402344 580.9375 413.9375 578.304688 C 413.792969 578.195312 413.761719 577.988281 413.871094 577.839844 C 413.984375 577.695312 414.191406 577.667969 414.335938 577.777344 C 417.988281 580.550781 419.269531 585.613281 419.699219 589.367188 C 419.71875 589.546875 419.589844 589.710938 419.410156 589.734375 C 419.398438 589.734375 419.386719 589.738281 419.375 589.738281 Z M 419.375 589.738281 " fill-opacity="1" fill-rule="nonzero"/><path fill="#be0b31" d="M 552.128906 593.480469 L 509.085938 593.808594 C 509.085938 593.808594 507.394531 584.734375 514.171875 577.507812 C 516.625 574.886719 517.097656 574.242188 518.070312 570.464844 C 519.3125 565.636719 522.429688 562.527344 533.175781 562.960938 C 541.960938 563.316406 544.285156 565.613281 545.417969 570.707031 C 546.199219 574.21875 549.550781 576.996094 551.257812 581.480469 C 554.535156 590.085938 552.128906 593.480469 552.128906 593.480469 Z M 552.128906 593.480469 " fill-opacity="1" fill-rule="nonzero"/><path fill="#ffffff" d="M 552.671875 586.445312 C 545.652344 591.289062 520.097656 593.054688 509.355469 586.917969 C 509.066406 586.753906 508.671875 586.890625 508.597656 587.171875 C 507.96875 589.507812 508.5 595.609375 509.78125 595.828125 C 522.675781 598.066406 551.003906 596.300781 552.308594 595.609375 C 554.316406 594.550781 554.152344 588.964844 553.476562 586.648438 C 553.390625 586.351562 552.953125 586.25 552.671875 586.445312 Z M 552.671875 586.445312 " fill-opacity="1" fill-rule="nonzero"/><path fill="#ffffff" d="M 522.550781 572.546875 C 522.476562 572.546875 522.402344 572.523438 522.339844 572.472656 C 522.199219 572.359375 522.175781 572.148438 522.292969 572.007812 C 523.949219 569.96875 527.03125 568.71875 530.539062 568.65625 C 534.164062 568.59375 537.433594 569.820312 539.285156 571.941406 C 539.402344 572.078125 539.390625 572.289062 539.253906 572.410156 C 539.117188 572.527344 538.90625 572.515625 538.785156 572.378906 C 537.0625 570.402344 533.984375 569.261719 530.550781 569.320312 C 527.234375 569.375 524.339844 570.539062 522.804688 572.425781 C 522.742188 572.507812 522.648438 572.546875 522.550781 572.546875 Z M 522.550781 572.546875 " fill-opacity="1" fill-rule="nonzero"/><path fill="#ffffff" d="M 523.570312 575.675781 C 523.503906 575.675781 523.433594 575.65625 523.375 575.613281 C 523.226562 575.503906 523.195312 575.296875 523.304688 575.148438 C 524.597656 573.386719 526.980469 572.355469 530.011719 572.238281 C 533.347656 572.105469 536.746094 573.152344 538.097656 574.714844 C 538.214844 574.855469 538.199219 575.0625 538.0625 575.183594 C 537.921875 575.300781 537.714844 575.285156 537.59375 575.148438 C 536.382812 573.742188 533.136719 572.777344 530.035156 572.898438 C 528.398438 572.960938 525.414062 573.386719 523.835938 575.542969 C 523.769531 575.628906 523.671875 575.675781 523.570312 575.675781 Z M 523.570312 575.675781 " fill-opacity="1" fill-rule="nonzero"/><path fill="#ffffff" d="M 524.101562 578.128906 C 524.011719 578.128906 523.925781 578.09375 523.863281 578.023438 C 523.734375 577.890625 523.742188 577.683594 523.878906 577.558594 C 525.960938 575.605469 529.636719 575.21875 532.15625 575.480469 C 534.425781 575.714844 536.140625 576.441406 536.863281 577.46875 C 536.96875 577.621094 536.929688 577.824219 536.78125 577.929688 C 536.632812 578.035156 536.425781 577.996094 536.320312 577.847656 C 535.726562 577 534.105469 576.347656 532.085938 576.136719 C 528.28125 575.742188 525.527344 576.917969 524.328125 578.042969 C 524.265625 578.097656 524.183594 578.128906 524.101562 578.128906 Z M 524.101562 578.128906 " fill-opacity="1" fill-rule="nonzero"/><path fill="#c24a64" d="M 540.878906 582.441406 C 540.820312 582.441406 540.761719 582.425781 540.707031 582.390625 C 540.550781 582.296875 540.503906 582.09375 540.597656 581.9375 C 543.234375 577.605469 544.464844 573.085938 544.867188 571.347656 C 544.910156 571.167969 545.089844 571.058594 545.265625 571.097656 C 545.441406 571.140625 545.550781 571.316406 545.511719 571.496094 C 545.097656 573.265625 543.847656 577.867188 541.160156 582.28125 C 541.097656 582.386719 540.988281 582.441406 540.878906 582.441406 Z M 540.878906 582.441406 " fill-opacity="1" fill-rule="nonzero"/><path fill="#c24a64" d="M 520.101562 583.453125 C 519.957031 583.453125 519.824219 583.359375 519.78125 583.210938 C 519.445312 581.980469 518.6875 579.921875 517.960938 577.933594 C 517.550781 576.804688 517.160156 575.738281 516.855469 574.855469 C 516.796875 574.683594 516.890625 574.496094 517.0625 574.4375 C 517.234375 574.375 517.421875 574.46875 517.484375 574.640625 C 517.785156 575.519531 518.171875 576.582031 518.582031 577.707031 C 519.316406 579.707031 520.074219 581.78125 520.421875 583.035156 C 520.46875 583.210938 520.367188 583.394531 520.191406 583.441406 C 520.160156 583.453125 520.128906 583.453125 520.101562 583.453125 Z M 520.101562 583.453125 " fill-opacity="1" fill-rule="nonzero"/><path fill="#c24a64" d="M 513.84375 588.226562 C 513.769531 588.226562 513.699219 588.199219 513.640625 588.15625 C 513.496094 588.042969 513.472656 587.832031 513.585938 587.691406 C 515.890625 584.78125 518.949219 582.660156 522.679688 581.386719 C 525.945312 580.269531 529.636719 579.859375 533.351562 580.195312 C 540.011719 580.800781 545.84375 583.761719 547.863281 587.5625 C 547.949219 587.722656 547.886719 587.921875 547.726562 588.007812 C 547.566406 588.09375 547.367188 588.035156 547.28125 587.871094 C 545.359375 584.261719 539.738281 581.441406 533.289062 580.855469 C 525.316406 580.132812 518.324219 582.773438 514.105469 588.101562 C 514.039062 588.183594 513.941406 588.226562 513.84375 588.226562 Z M 513.84375 588.226562 " fill-opacity="1" fill-rule="nonzero"/><path fill="#ffffff" d="M 535.628906 583.273438 C 535.628906 583.46875 535.5 583.652344 535.25 583.832031 C 535 584.011719 534.644531 584.167969 534.179688 584.304688 C 533.714844 584.441406 533.179688 584.546875 532.574219 584.621094 C 531.96875 584.695312 531.339844 584.734375 530.683594 584.734375 C 530.027344 584.734375 529.398438 584.695312 528.792969 584.621094 C 528.183594 584.546875 527.652344 584.441406 527.1875 584.304688 C 526.722656 584.167969 526.367188 584.011719 526.117188 583.832031 C 525.863281 583.652344 525.738281 583.46875 525.738281 583.273438 C 525.738281 583.082031 525.863281 582.894531 526.117188 582.714844 C 526.367188 582.535156 526.722656 582.378906 527.1875 582.242188 C 527.652344 582.105469 528.183594 582 528.792969 581.925781 C 529.398438 581.851562 530.027344 581.816406 530.683594 581.816406 C 531.339844 581.816406 531.96875 581.851562 532.574219 581.925781 C 533.179688 582 533.714844 582.105469 534.179688 582.242188 C 534.644531 582.378906 535 582.535156 535.25 582.714844 C 535.5 582.894531 535.628906 583.082031 535.628906 583.273438 Z M 535.628906 583.273438 " fill-opacity="0.51" fill-rule="nonzero"/><path fill="#ffffff" d="M 407.738281 581.078125 C 407.777344 581.25 407.71875 581.433594 407.566406 581.632812 C 407.417969 581.832031 407.179688 582.03125 406.859375 582.230469 C 406.539062 582.429688 406.160156 582.617188 405.722656 582.785156 C 405.28125 582.953125 404.816406 583.097656 404.324219 583.210938 C 403.835938 583.324219 403.355469 583.398438 402.886719 583.441406 C 402.417969 583.480469 401.992188 583.480469 401.617188 583.441406 C 401.242188 583.402344 400.945312 583.328125 400.71875 583.214844 C 400.496094 583.101562 400.363281 582.960938 400.324219 582.792969 C 400.285156 582.625 400.34375 582.4375 400.496094 582.238281 C 400.648438 582.039062 400.882812 581.839844 401.203125 581.640625 C 401.523438 581.441406 401.902344 581.257812 402.339844 581.085938 C 402.78125 580.917969 403.246094 580.777344 403.738281 580.660156 C 404.230469 580.546875 404.707031 580.472656 405.179688 580.429688 C 405.648438 580.390625 406.070312 580.390625 406.445312 580.429688 C 406.820312 580.46875 407.117188 580.542969 407.34375 580.65625 C 407.566406 580.769531 407.699219 580.910156 407.738281 581.078125 Z M 407.738281 581.078125 " fill-opacity="0.51" fill-rule="nonzero"/><path fill="#ffffff" d="M 523.46875 238.394531 C 525.511719 257.695312 537.136719 332.113281 537.136719 332.113281 C 537.136719 332.113281 513.03125 327.339844 488.574219 333.875 C 465.625 340.003906 432.472656 338.820312 432.472656 338.820312 C 432.472656 338.820312 423.285156 205.535156 431.429688 179.761719 C 433.289062 173.875 447.105469 164.78125 448.269531 164.972656 C 448.371094 164.988281 452.265625 181.476562 469.875 178.757812 C 487.300781 176.070312 489.492188 156.550781 490.183594 156.617188 C 503.164062 157.851562 516.058594 161.375 519.769531 163.726562 C 542.742188 178.3125 555.566406 220.585938 555.566406 220.585938 C 555.566406 220.585938 522.726562 231.382812 523.46875 238.394531 Z M 523.46875 238.394531 " fill-opacity="1" fill-rule="nonzero"/><path fill="#ffffff" d="M 447.621094 165.160156 C 440.632812 165.261719 433.304688 170.992188 430.210938 176.605469 C 422.796875 190.066406 421.316406 207.910156 422.265625 217.046875 C 428.792969 215.949219 435.089844 214.210938 442.785156 213.578125 C 443.257812 201.734375 443.730469 189.890625 444.207031 178.050781 C 444.355469 174.269531 443.699219 169.9375 447.621094 165.160156 Z M 447.621094 165.160156 " fill-opacity="1" fill-rule="nonzero"/><path fill="#fff5e1" d="M 443.164062 593.46875 C 444.089844 592.539062 444.351562 584.292969 444.351562 584.292969 L 376.777344 583.980469 C 376.777344 583.980469 376.578125 593.113281 378.746094 593.503906 C 388.890625 595.335938 440.96875 595.671875 443.164062 593.46875 Z M 443.164062 593.46875 " fill-opacity="1" fill-rule="nonzero"/><path fill="#002768" d="M 445 561.675781 C 433.226562 573.910156 418.875 565.992188 421.449219 561.222656 C 412.320312 565.667969 400.273438 570.742188 387.082031 574.230469 C 384.308594 574.96875 381.789062 576.816406 379.625 578.949219 C 375.046875 583.464844 375.675781 589.96875 377.148438 590.191406 C 399.511719 593.597656 437.128906 590.308594 442.386719 587.585938 C 445.796875 585.824219 447.445312 565.28125 445 561.675781 Z M 445 561.675781 " fill-opacity="1" fill-rule="nonzero"/><path fill="#6b90d1" d="M 199.753906 307.300781 L 199.753906 289.925781 C 199.753906 287.421875 201.78125 285.390625 204.285156 285.390625 L 461.128906 285.390625 C 463.632812 285.390625 465.664062 287.421875 465.664062 289.925781 L 465.664062 307.300781 C 465.664062 309.804688 463.632812 311.835938 461.128906 311.835938 L 204.285156 311.835938 C 201.78125 311.832031 199.753906 309.804688 199.753906 307.300781 Z M 199.753906 307.300781 " fill-opacity="1" fill-rule="nonzero"/><path fill="#acc0e3" d="M 210.105469 311.832031 L 455.308594 311.832031 L 455.308594 595.609375 L 210.105469 595.609375 Z M 210.105469 311.832031 " fill-opacity="1" fill-rule="nonzero"/><path fill="#002768" d="M 445.183594 329.777344 L 445.183594 551.113281 C 445.183594 555.15625 441.90625 558.4375 437.859375 558.4375 C 437.859375 558.4375 285.097656 558.4375 234.179688 558.4375 C 232.523438 558.4375 231.296875 553.71875 231.296875 553.71875 C 229.859375 553.71875 224.777344 558.023438 223.644531 557.304688 C 222.457031 556.554688 221.5 555.472656 220.90625 554.1875 C 220.472656 553.253906 223.035156 550.285156 223.035156 549.1875 L 220.230469 549.570312 L 220.230469 329.777344 C 220.230469 325.734375 223.511719 322.457031 227.554688 322.457031 L 416.523438 322.457031 L 415.894531 326.308594 L 421.179688 322.457031 L 426.726562 322.457031 L 428.277344 327.300781 L 437.859375 322.457031 C 437.992188 322.457031 438.125 322.460938 438.253906 322.46875 C 442.117188 322.671875 445.183594 325.867188 445.183594 329.777344 Z M 445.183594 329.777344 " fill-opacity="1" fill-rule="nonzero"/><path fill="#acc0e3" d="M 267.953125 529.894531 C 282.746094 528.851562 297.140625 522.792969 308.230469 512.953125 C 308.804688 512.441406 309.703125 512.609375 310.050781 513.296875 C 316.003906 525.054688 322.410156 540.21875 321.777344 540.851562 C 304.3125 558.316406 278.050781 555.304688 273.542969 554.632812 C 273.125 554.574219 272.777344 554.292969 272.625 553.902344 C 271.484375 550.972656 266.785156 538.417969 266.871094 531.039062 C 266.878906 530.4375 267.351562 529.9375 267.953125 529.894531 Z M 267.953125 529.894531 " fill-opacity="1" fill-rule="nonzero"/><path fill="#acc0e3" d="M 258.640625 500.867188 C 256.105469 515.480469 258.535156 530.90625 265.429688 544.03125 C 265.785156 544.714844 265.40625 545.546875 264.65625 545.71875 C 251.8125 548.675781 235.554688 551.261719 235.09375 550.496094 C 222.324219 529.351562 231.550781 504.582031 233.28125 500.363281 C 233.441406 499.972656 233.796875 499.703125 234.210938 499.648438 C 237.332031 499.246094 250.644531 497.691406 257.789062 499.542969 C 258.371094 499.695312 258.742188 500.273438 258.640625 500.867188 Z M 258.640625 500.867188 " fill-opacity="1" fill-rule="nonzero"/><path fill="#deeaff" d="M 237.242188 530.167969 C 251.6875 526.816406 264.949219 518.566406 274.355469 507.105469 C 274.839844 506.511719 275.757812 506.535156 276.207031 507.15625 C 283.9375 517.835938 292.648438 531.804688 292.121094 532.527344 C 277.617188 552.523438 251.207031 553.671875 246.648438 553.71875 C 246.230469 553.726562 245.839844 553.503906 245.628906 553.140625 C 244.042969 550.425781 237.425781 538.769531 236.351562 531.46875 C 236.265625 530.871094 236.652344 530.304688 237.242188 530.167969 Z M 237.242188 530.167969 " fill-opacity="1" fill-rule="nonzero"/><path fill="#e8f0ff" d="M 421.179688 322.457031 L 220.90625 554.1875 C 220.472656 553.253906 220.230469 552.210938 220.230469 551.113281 L 220.230469 549.585938 L 416.523438 322.457031 Z M 421.179688 322.457031 " fill-opacity="1" fill-rule="nonzero"/><path fill="#e8f0ff" d="M 438.253906 322.46875 L 234.3125 558.4375 L 227.554688 558.4375 C 226.117188 558.4375 224.777344 558.023438 223.644531 557.304688 L 426.617188 322.457031 L 437.859375 322.457031 C 437.992188 322.457031 438.125 322.460938 438.253906 322.46875 Z M 438.253906 322.46875 " fill-opacity="1" fill-rule="nonzero"/><path fill="#ffffff" d="M 279.414062 441.269531 L 279.414062 411.480469 C 279.414062 409.75 280.816406 408.34375 282.550781 408.34375 L 389.265625 408.34375 C 390.996094 408.34375 392.402344 409.746094 392.402344 411.480469 L 392.402344 441.269531 C 392.402344 443 391 444.40625 389.265625 444.40625 L 282.550781 444.40625 C 280.820312 444.40625 279.414062 443.003906 279.414062 441.269531 Z M 279.414062 441.269531 " fill-opacity="1" fill-rule="nonzero"/><path fill="#6b90d1" d="M 213.171875 569.496094 C 212.992188 569.496094 212.84375 569.347656 212.84375 569.167969 C 212.84375 568.984375 212.992188 568.835938 213.171875 568.835938 L 450.464844 568.617188 C 450.648438 568.617188 450.796875 568.765625 450.796875 568.945312 C 450.796875 569.128906 450.648438 569.277344 450.464844 569.277344 Z M 213.171875 569.496094 " fill-opacity="1" fill-rule="nonzero"/><path fill="#acc0e3" d="M 341.0625 513.210938 C 353.707031 520.957031 368.945312 524.386719 383.6875 522.816406 C 384.453125 522.734375 385.085938 523.394531 384.972656 524.15625 C 382.988281 537.1875 379.394531 553.25 378.511719 553.398438 C 354.148438 557.46875 334.523438 539.761719 331.242188 536.59375 C 330.941406 536.304688 330.816406 535.871094 330.921875 535.464844 C 331.695312 532.417969 335.160156 519.46875 339.515625 513.515625 C 339.875 513.027344 340.546875 512.894531 341.0625 513.210938 Z M 341.0625 513.210938 " fill-opacity="1" fill-rule="nonzero"/><path fill="#acc0e3" d="M 368.222656 509.730469 C 380.253906 518.390625 395.199219 522.941406 410.015625 522.472656 C 410.785156 522.449219 411.367188 523.152344 411.195312 523.902344 C 408.25 536.75 403.472656 552.503906 402.582031 552.585938 C 377.984375 554.835938 359.726562 535.71875 356.691406 532.316406 C 356.410156 532.003906 356.320312 531.566406 356.457031 531.167969 C 357.457031 528.1875 361.871094 515.53125 366.660156 509.914062 C 367.046875 509.457031 367.730469 509.375 368.222656 509.730469 Z M 368.222656 509.730469 " fill-opacity="1" fill-rule="nonzero"/><path fill="#acc0e3" d="M 408.542969 483.445312 C 410.507812 498.144531 407.476562 513.464844 400.074219 526.3125 C 399.691406 526.976562 400.035156 527.824219 400.777344 528.027344 C 413.496094 531.484375 429.640625 534.703125 430.132812 533.957031 C 443.71875 513.324219 435.46875 488.214844 433.902344 483.933594 C 433.757812 483.539062 433.414062 483.253906 433 483.183594 C 429.898438 482.65625 416.65625 480.582031 409.449219 482.15625 C 408.859375 482.285156 408.464844 482.847656 408.542969 483.445312 Z M 408.542969 483.445312 " fill-opacity="1" fill-rule="nonzero"/><path fill="#deeaff" d="M 317.257812 510.445312 C 329.222656 519.199219 344.128906 523.867188 358.953125 523.511719 C 359.71875 523.496094 360.300781 524.203125 360.121094 524.949219 C 357.070312 537.773438 352.175781 553.492188 351.28125 553.5625 C 326.667969 555.621094 308.5625 536.367188 305.550781 532.941406 C 305.273438 532.628906 305.1875 532.1875 305.324219 531.792969 C 306.347656 528.816406 310.863281 516.199219 315.691406 510.617188 C 316.085938 510.164062 316.769531 510.085938 317.257812 510.445312 Z M 317.257812 510.445312 " fill-opacity="1" fill-rule="nonzero"/><path fill="#deeaff" d="M 345.398438 504.589844 C 360.070312 502.460938 373.980469 495.355469 384.316406 484.726562 C 384.847656 484.175781 385.757812 484.277344 386.15625 484.933594 C 392.960938 496.222656 400.46875 510.875 399.882812 511.550781 C 383.753906 530.257812 357.34375 529.1875 352.796875 528.851562 C 352.375 528.820312 352.007812 528.566406 351.828125 528.1875 C 350.476562 525.347656 344.859375 513.179688 344.402344 505.8125 C 344.363281 505.210938 344.800781 504.675781 345.398438 504.589844 Z M 345.398438 504.589844 " fill-opacity="1" fill-rule="nonzero"/><path fill="#deeaff" d="M 285.78125 496.734375 C 300.429688 499.03125 315.816406 496.351562 328.832031 489.246094 C 329.503906 488.875 330.34375 489.242188 330.527344 489.984375 C 333.695312 502.78125 336.542969 518.992188 335.785156 519.46875 C 314.851562 532.578125 289.933594 523.757812 285.6875 522.097656 C 285.292969 521.945312 285.015625 521.59375 284.957031 521.175781 C 284.503906 518.066406 282.730469 504.78125 284.46875 497.609375 C 284.613281 497.023438 285.183594 496.644531 285.78125 496.734375 Z M 285.78125 496.734375 " fill-opacity="1" fill-rule="nonzero"/><path fill="#deeaff" d="M 384.339844 533.089844 C 398.691406 530.421875 411.789062 523.480469 420.976562 513.679688 C 421.453125 513.167969 422.367188 513.207031 422.828125 513.753906 C 430.71875 523.167969 439.648438 535.453125 439.136719 536.074219 C 425.003906 553.203125 398.675781 553.753906 394.128906 553.71875 C 393.710938 553.714844 393.316406 553.515625 393.101562 553.195312 C 391.472656 550.808594 384.671875 540.566406 383.476562 534.203125 C 383.375 533.683594 383.753906 533.199219 384.339844 533.089844 Z M 384.339844 533.089844 " fill-opacity="1" fill-rule="nonzero"/><path fill="#002768" d="M 303.324219 415.203125 C 303.25 414.855469 303.515625 414.53125 303.867188 414.53125 L 306.136719 414.53125 C 306.402344 414.53125 306.636719 414.722656 306.6875 414.984375 L 310.351562 434.636719 L 313.871094 414.988281 C 313.917969 414.722656 314.148438 414.53125 314.421875 414.53125 L 316.410156 414.53125 C 316.761719 414.53125 317.03125 414.855469 316.957031 415.203125 L 312.222656 437.6875 C 312.167969 437.949219 311.941406 438.132812 311.675781 438.132812 L 308.617188 438.132812 C 308.355469 438.132812 308.125 437.949219 308.074219 437.691406 Z M 303.324219 415.203125 " fill-opacity="1" fill-rule="nonzero"/><path fill="#002768" d="M 322.453125 436.699219 C 321.492188 435.558594 321.011719 433.476562 321.011719 430.453125 L 321.011719 421.753906 C 321.011719 419.101562 321.535156 417.183594 322.582031 416.007812 C 323.632812 414.832031 325.34375 414.242188 327.71875 414.242188 C 330.136719 414.242188 331.863281 414.828125 332.886719 416 C 333.914062 417.171875 334.425781 419.128906 334.425781 421.871094 L 334.425781 431.773438 C 334.425781 434.117188 333.902344 435.808594 332.855469 436.851562 C 331.804688 437.894531 330.09375 438.414062 327.71875 438.414062 C 325.164062 438.414062 323.410156 437.84375 322.453125 436.699219 Z M 330.378906 434.660156 C 330.925781 433.929688 331.199219 432.746094 331.199219 431.105469 L 331.199219 421.203125 C 331.199219 419.574219 330.949219 418.449219 330.453125 417.832031 C 329.960938 417.214844 329.046875 416.902344 327.722656 416.902344 C 326.496094 416.902344 325.609375 417.289062 325.0625 418.054688 C 324.515625 418.828125 324.242188 420.074219 324.242188 421.804688 L 324.242188 430.503906 C 324.242188 432.5 324.492188 433.871094 324.988281 434.625 C 325.480469 435.378906 326.394531 435.753906 327.722656 435.753906 C 328.945312 435.757812 329.835938 435.390625 330.378906 434.660156 Z M 330.378906 434.660156 " fill-opacity="1" fill-rule="nonzero"/><path fill="#002768" d="M 343.285156 417.1875 L 338.96875 417.1875 C 338.660156 417.1875 338.40625 416.9375 338.40625 416.628906 L 338.40625 415.089844 C 338.40625 414.78125 338.660156 414.53125 338.96875 414.53125 L 351.949219 414.53125 C 352.257812 414.53125 352.507812 414.78125 352.507812 415.089844 L 352.507812 416.628906 C 352.507812 416.9375 352.257812 417.1875 351.949219 417.1875 L 347.632812 417.1875 C 347.324219 417.1875 347.070312 417.441406 347.070312 417.75 L 347.070312 437.574219 C 347.070312 437.878906 346.820312 438.132812 346.511719 438.132812 L 344.402344 438.132812 C 344.09375 438.132812 343.84375 437.878906 343.84375 437.574219 L 343.84375 417.75 C 343.84375 417.4375 343.597656 417.1875 343.285156 417.1875 Z M 343.285156 417.1875 " fill-opacity="1" fill-rule="nonzero"/><path fill="#002768" d="M 356.542969 437.574219 L 356.542969 415.085938 C 356.542969 414.777344 356.792969 414.527344 357.101562 414.527344 L 366.554688 414.527344 C 366.863281 414.527344 367.113281 414.777344 367.113281 415.085938 L 367.113281 416.628906 C 367.113281 416.9375 366.863281 417.1875 366.554688 417.1875 L 360.328125 417.1875 C 360.023438 417.1875 359.769531 417.4375 359.769531 417.746094 L 359.769531 424.105469 C 359.769531 424.414062 360.023438 424.664062 360.328125 424.664062 L 366.121094 424.664062 C 366.429688 424.664062 366.679688 424.914062 366.679688 425.222656 L 366.679688 426.765625 C 366.679688 427.074219 366.429688 427.324219 366.121094 427.324219 L 360.328125 427.324219 C 360.023438 427.324219 359.769531 427.574219 359.769531 427.882812 L 359.769531 434.910156 C 359.769531 435.21875 360.023438 435.46875 360.328125 435.46875 L 366.773438 435.46875 C 367.082031 435.46875 367.332031 435.722656 367.332031 436.03125 L 367.332031 437.570312 C 367.332031 437.878906 367.082031 438.128906 366.773438 438.128906 L 357.101562 438.128906 C 356.792969 438.132812 356.542969 437.878906 356.542969 437.574219 Z M 356.542969 437.574219 " fill-opacity="1" fill-rule="nonzero"/><path fill="#dedede" d="M 523.484375 237.804688 C 522.566406 230.023438 520.417969 219.941406 518.46875 211.480469 C 518.265625 210.597656 519.472656 210.140625 519.910156 210.929688 C 523.558594 217.609375 526.910156 225.660156 528.511719 232.429688 C 525.753906 234.421875 524.292969 235.511719 523.484375 237.804688 Z M 523.484375 237.804688 " fill-opacity="1" fill-rule="nonzero"/><path fill="#dedede" d="M 459.527344 250.800781 C 459.320312 249.964844 460.460938 249.507812 460.894531 250.246094 C 466.683594 260.144531 469.683594 260.78125 476.042969 265.414062 C 482.367188 270.023438 488.980469 275.40625 491.539062 282.613281 C 491.804688 283.355469 490.878906 283.941406 490.316406 283.386719 C 485.355469 278.539062 479.105469 275.101562 473.425781 271.039062 C 467.71875 266.957031 462.25 261.699219 459.527344 250.800781 Z M 459.527344 250.800781 " fill-opacity="1" fill-rule="nonzero"/><path fill="#dedede" d="M 427.886719 212.742188 C 427.710938 212.742188 427.5625 212.605469 427.554688 212.429688 C 426.851562 198.292969 429.441406 183.953125 435.039062 170.953125 C 435.109375 170.789062 435.304688 170.710938 435.472656 170.785156 C 435.636719 170.855469 435.714844 171.050781 435.644531 171.21875 C 430.085938 184.121094 427.515625 198.359375 428.214844 212.394531 C 428.222656 212.578125 428.082031 212.730469 427.902344 212.742188 C 427.898438 212.742188 427.890625 212.742188 427.886719 212.742188 Z M 427.886719 212.742188 " fill-opacity="1" fill-rule="nonzero"/><path fill="#dedede" d="M 468.363281 184.613281 C 459.617188 184.613281 450.832031 180.074219 445.820312 172.914062 C 445.714844 172.765625 445.75 172.558594 445.902344 172.453125 C 446.050781 172.347656 446.253906 172.386719 446.359375 172.535156 C 451.386719 179.714844 460.300781 184.191406 469.0625 183.945312 C 473.925781 183.804688 479.175781 181.832031 483.476562 178.53125 C 487.117188 175.734375 491.808594 170.617188 493.453125 162.121094 C 493.488281 161.941406 493.664062 161.824219 493.839844 161.855469 C 494.019531 161.890625 494.136719 162.066406 494.101562 162.246094 C 492.414062 170.945312 487.613281 176.1875 483.878906 179.054688 C 479.472656 182.4375 474.078125 184.460938 469.085938 184.601562 C 468.84375 184.613281 468.601562 184.613281 468.363281 184.613281 Z M 468.363281 184.613281 " fill-opacity="1" fill-rule="nonzero"/><path fill="#d99162" d="M 425.984375 244.40625 C 425.980469 244.40625 425.976562 244.40625 425.972656 244.40625 C 425.789062 244.398438 425.648438 244.242188 425.65625 244.058594 C 425.789062 241.140625 425.359375 238.132812 424.414062 235.367188 C 424.355469 235.195312 424.449219 235.003906 424.621094 234.945312 C 424.789062 234.886719 424.980469 234.980469 425.039062 235.152344 C 426.011719 237.996094 426.449219 241.085938 426.3125 244.089844 C 426.308594 244.265625 426.164062 244.40625 425.984375 244.40625 Z M 425.984375 244.40625 " fill-opacity="1" fill-rule="nonzero"/><path fill="#d99162" d="M 363.125 211.734375 C 362.945312 211.734375 362.796875 211.589844 362.796875 211.410156 C 362.792969 211.226562 362.9375 211.078125 363.121094 211.074219 L 368.207031 211.015625 C 368.398438 211.023438 368.539062 211.160156 368.542969 211.34375 C 368.546875 211.527344 368.398438 211.675781 368.21875 211.679688 L 363.128906 211.734375 C 363.128906 211.734375 363.128906 211.734375 363.125 211.734375 Z M 363.125 211.734375 " fill-opacity="1" fill-rule="nonzero"/><path fill="#d99162" d="M 370.851562 227.953125 C 370.695312 227.953125 370.558594 227.84375 370.527344 227.6875 C 370.488281 227.507812 370.605469 227.335938 370.785156 227.296875 C 371.9375 227.058594 373.023438 226.394531 373.761719 225.476562 C 373.875 225.332031 374.082031 225.308594 374.226562 225.425781 C 374.371094 225.539062 374.390625 225.746094 374.277344 225.890625 C 373.445312 226.929688 372.21875 227.679688 370.914062 227.945312 C 370.894531 227.949219 370.871094 227.953125 370.851562 227.953125 Z M 370.851562 227.953125 " fill-opacity="1" fill-rule="nonzero"/><path fill="#d99162" d="M 545.507812 276.808594 C 545.425781 276.808594 545.34375 276.777344 545.277344 276.71875 C 543.59375 275.082031 541.492188 273.945312 539.203125 273.433594 C 539.023438 273.394531 538.910156 273.21875 538.949219 273.039062 C 538.992188 272.859375 539.167969 272.75 539.34375 272.789062 C 541.753906 273.328125 543.964844 274.523438 545.734375 276.246094 C 545.863281 276.371094 545.871094 276.582031 545.742188 276.710938 C 545.679688 276.777344 545.59375 276.808594 545.507812 276.808594 Z M 545.507812 276.808594 " fill-opacity="1" fill-rule="nonzero"/><path fill="#ffffff" d="M 99.746094 577.160156 C 100.171875 577.660156 100.554688 578.160156 100.894531 578.667969 C 101.230469 579.175781 101.5 579.652344 101.699219 580.09375 C 101.894531 580.53125 102.007812 580.90625 102.035156 581.214844 C 102.066406 581.519531 102.003906 581.738281 101.859375 581.863281 C 101.710938 581.988281 101.488281 582.015625 101.1875 581.941406 C 100.890625 581.867188 100.539062 581.699219 100.132812 581.4375 C 99.726562 581.171875 99.296875 580.835938 98.847656 580.425781 C 98.398438 580.015625 97.957031 579.558594 97.53125 579.0625 C 97.105469 578.566406 96.722656 578.0625 96.382812 577.554688 C 96.042969 577.046875 95.777344 576.570312 95.578125 576.128906 C 95.378906 575.691406 95.265625 575.316406 95.238281 575.007812 C 95.210938 574.703125 95.269531 574.484375 95.417969 574.359375 C 95.566406 574.234375 95.789062 574.207031 96.085938 574.28125 C 96.386719 574.355469 96.738281 574.523438 97.144531 574.785156 C 97.550781 575.050781 97.976562 575.386719 98.429688 575.796875 C 98.878906 576.207031 99.320312 576.664062 99.746094 577.160156 Z M 99.746094 577.160156 " fill-opacity="0.51" fill-rule="nonzero"/><path fill="#ffffff" d="M 341.507812 96.191406 C 341.507812 97.308594 341.453125 98.421875 341.34375 99.535156 C 341.234375 100.648438 341.070312 101.75 340.851562 102.847656 C 340.632812 103.941406 340.363281 105.023438 340.039062 106.09375 C 339.714844 107.164062 339.335938 108.214844 338.910156 109.246094 C 338.484375 110.28125 338.003906 111.289062 337.476562 112.273438 C 336.953125 113.257812 336.378906 114.214844 335.757812 115.144531 C 335.136719 116.074219 334.472656 116.972656 333.761719 117.835938 C 333.054688 118.699219 332.304688 119.527344 331.515625 120.316406 C 330.722656 121.105469 329.898438 121.855469 329.03125 122.566406 C 328.167969 123.273438 327.273438 123.9375 326.34375 124.558594 C 325.414062 125.179688 324.457031 125.753906 323.472656 126.28125 C 322.484375 126.808594 321.476562 127.285156 320.445312 127.710938 C 319.414062 128.140625 318.363281 128.515625 317.292969 128.839844 C 316.222656 129.164062 315.140625 129.4375 314.042969 129.652344 C 312.949219 129.871094 311.84375 130.035156 310.730469 130.144531 C 309.621094 130.253906 308.503906 130.308594 307.386719 130.308594 C 306.269531 130.308594 305.15625 130.253906 304.042969 130.144531 C 302.933594 130.035156 301.828125 129.871094 300.730469 129.652344 C 299.636719 129.4375 298.554688 129.164062 297.484375 128.839844 C 296.414062 128.515625 295.363281 128.140625 294.332031 127.710938 C 293.300781 127.285156 292.289062 126.808594 291.304688 126.28125 C 290.320312 125.753906 289.363281 125.179688 288.433594 124.558594 C 287.503906 123.9375 286.605469 123.273438 285.742188 122.566406 C 284.878906 121.855469 284.050781 121.105469 283.261719 120.316406 C 282.472656 119.527344 281.722656 118.699219 281.015625 117.835938 C 280.304688 116.972656 279.640625 116.074219 279.019531 115.144531 C 278.398438 114.214844 277.824219 113.257812 277.296875 112.273438 C 276.769531 111.289062 276.292969 110.28125 275.867188 109.246094 C 275.4375 108.214844 275.0625 107.164062 274.738281 106.09375 C 274.414062 105.023438 274.144531 103.941406 273.925781 102.847656 C 273.707031 101.75 273.542969 100.648438 273.433594 99.535156 C 273.324219 98.421875 273.269531 97.308594 273.269531 96.191406 C 273.269531 95.074219 273.324219 93.957031 273.433594 92.847656 C 273.542969 91.734375 273.707031 90.628906 273.925781 89.535156 C 274.144531 88.4375 274.414062 87.355469 274.738281 86.285156 C 275.0625 85.214844 275.4375 84.164062 275.867188 83.132812 C 276.292969 82.101562 276.769531 81.09375 277.296875 80.105469 C 277.824219 79.121094 278.398438 78.164062 279.019531 77.234375 C 279.640625 76.304688 280.304688 75.410156 281.015625 74.546875 C 281.722656 73.679688 282.472656 72.855469 283.261719 72.0625 C 284.050781 71.273438 284.878906 70.523438 285.742188 69.816406 C 286.605469 69.105469 287.503906 68.441406 288.433594 67.820312 C 289.363281 67.199219 290.320312 66.625 291.304688 66.101562 C 292.289062 65.574219 293.300781 65.097656 294.332031 64.667969 C 295.363281 64.242188 296.414062 63.863281 297.484375 63.539062 C 298.554688 63.214844 299.636719 62.945312 300.730469 62.726562 C 301.828125 62.507812 302.933594 62.34375 304.042969 62.234375 C 305.15625 62.125 306.269531 62.070312 307.386719 62.070312 C 308.503906 62.070312 309.621094 62.125 310.734375 62.234375 C 311.84375 62.34375 312.949219 62.507812 314.042969 62.726562 C 315.140625 62.945312 316.222656 63.214844 317.292969 63.539062 C 318.363281 63.863281 319.414062 64.242188 320.445312 64.667969 C 321.476562 65.097656 322.484375 65.574219 323.472656 66.101562 C 324.457031 66.625 325.414062 67.199219 326.34375 67.820312 C 327.273438 68.441406 328.167969 69.105469 329.03125 69.816406 C 329.898438 70.523438 330.722656 71.273438 331.515625 72.0625 C 332.304688 72.855469 333.054688 73.679688 333.761719 74.546875 C 334.472656 75.410156 335.136719 76.304688 335.757812 77.234375 C 336.378906 78.164062 336.953125 79.121094 337.476562 80.105469 C 338.003906 81.09375 338.484375 82.101562 338.910156 83.132812 C 339.335938 84.164062 339.714844 85.214844 340.039062 86.285156 C 340.363281 87.355469 340.632812 88.4375 340.851562 89.535156 C 341.070312 90.628906 341.234375 91.734375 341.34375 92.847656 C 341.453125 93.957031 341.507812 95.074219 341.507812 96.191406 Z M 341.507812 96.191406 " fill-opacity="1" fill-rule="nonzero"/><path fill="#ffffff" d="M 256.640625 225.257812 L 258.871094 216.101562 C 259.035156 215.441406 259.699219 215.035156 260.359375 215.199219 L 289.050781 222.195312 C 289.710938 222.355469 290.113281 223.023438 289.953125 223.683594 L 287.71875 232.839844 C 287.558594 233.5 286.890625 233.90625 286.230469 233.746094 L 257.542969 226.746094 C 256.882812 226.585938 256.476562 225.917969 256.640625 225.257812 Z M 256.640625 225.257812 " fill-opacity="1" fill-rule="nonzero"/><path fill="#6b90d1" d="M 286.527344 234.109375 C 286.402344 234.109375 286.277344 234.09375 286.15625 234.066406 L 257.464844 227.070312 C 257.0625 226.96875 256.71875 226.71875 256.503906 226.363281 C 256.285156 226.003906 256.21875 225.585938 256.320312 225.183594 L 258.554688 216.023438 C 258.652344 215.621094 258.902344 215.277344 259.261719 215.0625 C 259.617188 214.84375 260.035156 214.78125 260.441406 214.878906 L 289.128906 221.875 C 289.535156 221.976562 289.878906 222.226562 290.09375 222.582031 C 290.308594 222.9375 290.375 223.359375 290.277344 223.761719 L 288.042969 232.917969 C 287.941406 233.324219 287.691406 233.667969 287.335938 233.882812 C 287.085938 234.035156 286.808594 234.109375 286.527344 234.109375 Z M 260.066406 215.496094 C 259.664062 215.496094 259.292969 215.769531 259.195312 216.179688 L 256.960938 225.339844 C 256.902344 225.570312 256.941406 225.8125 257.066406 226.019531 C 257.191406 226.222656 257.386719 226.367188 257.621094 226.425781 L 286.3125 233.421875 C 286.542969 233.480469 286.785156 233.445312 286.992188 233.316406 C 287.195312 233.191406 287.339844 232.996094 287.398438 232.761719 L 289.632812 223.605469 C 289.691406 223.371094 289.652344 223.128906 289.527344 222.925781 C 289.402344 222.71875 289.207031 222.574219 288.96875 222.515625 L 260.28125 215.519531 C 260.210938 215.5 260.140625 215.496094 260.066406 215.496094 Z M 260.066406 215.496094 " fill-opacity="1" fill-rule="nonzero"/><path fill="#6b90d1" d="M 273.964844 220.542969 L 268.9375 225.738281 C 268.578125 226.109375 268.757812 226.730469 269.261719 226.851562 L 276.359375 228.582031 C 276.863281 228.707031 277.308594 228.234375 277.160156 227.738281 L 275.089844 220.816406 C 274.941406 220.328125 274.320312 220.175781 273.964844 220.542969 Z M 273.964844 220.542969 " fill-opacity="1" fill-rule="nonzero"/><path fill="#6b90d1" d="M 276.523438 228.933594 C 276.441406 228.933594 276.363281 228.925781 276.28125 228.90625 L 269.183594 227.175781 C 268.832031 227.089844 268.5625 226.832031 268.460938 226.484375 C 268.359375 226.136719 268.449219 225.769531 268.703125 225.511719 L 273.726562 220.316406 L 273.964844 220.546875 L 273.726562 220.316406 C 273.976562 220.058594 274.335938 219.957031 274.683594 220.042969 C 275.03125 220.128906 275.300781 220.382812 275.402344 220.726562 L 277.472656 227.652344 C 277.578125 228 277.492188 228.367188 277.238281 228.628906 C 277.046875 228.824219 276.792969 228.933594 276.523438 228.933594 Z M 274.441406 220.667969 C 274.375 220.667969 274.28125 220.691406 274.203125 220.773438 L 269.175781 225.964844 C 269.054688 226.09375 269.078125 226.238281 269.09375 226.296875 C 269.109375 226.351562 269.167969 226.488281 269.34375 226.53125 L 276.4375 228.261719 C 276.609375 228.304688 276.726562 228.210938 276.765625 228.164062 C 276.808594 228.121094 276.898438 228.003906 276.847656 227.832031 L 274.777344 220.90625 C 274.726562 220.738281 274.589844 220.691406 274.53125 220.675781 C 274.507812 220.675781 274.476562 220.667969 274.441406 220.667969 Z M 274.441406 220.667969 " fill-opacity="1" fill-rule="nonzero"/><path fill="#ffffff" d="M 323.949219 196.769531 L 322.492188 187.457031 C 322.386719 186.785156 322.84375 186.15625 323.515625 186.050781 L 352.691406 181.476562 C 353.359375 181.371094 353.992188 181.832031 354.097656 182.503906 L 355.554688 191.8125 C 355.660156 192.484375 355.199219 193.113281 354.53125 193.21875 L 325.355469 197.792969 C 324.683594 197.898438 324.054688 197.441406 323.949219 196.769531 Z M 323.949219 196.769531 " fill-opacity="1" fill-rule="nonzero"/><path fill="#6b90d1" d="M 325.164062 198.136719 C 324.835938 198.136719 324.515625 198.035156 324.246094 197.839844 C 323.910156 197.59375 323.691406 197.230469 323.625 196.820312 L 322.164062 187.507812 C 322.03125 186.660156 322.613281 185.855469 323.464844 185.726562 L 352.640625 181.152344 C 353.488281 181.015625 354.289062 181.601562 354.421875 182.453125 L 355.882812 191.761719 C 355.945312 192.175781 355.847656 192.585938 355.597656 192.925781 C 355.351562 193.261719 354.992188 193.484375 354.582031 193.546875 L 325.40625 198.121094 C 325.324219 198.132812 325.246094 198.136719 325.164062 198.136719 Z M 352.882812 181.792969 C 352.835938 181.792969 352.789062 181.796875 352.738281 181.800781 L 323.566406 186.375 C 323.078125 186.453125 322.738281 186.917969 322.816406 187.40625 L 324.277344 196.714844 C 324.3125 196.953125 324.441406 197.164062 324.636719 197.304688 C 324.828125 197.445312 325.066406 197.5 325.304688 197.464844 L 354.476562 192.890625 C 354.714844 192.855469 354.921875 192.726562 355.066406 192.535156 C 355.207031 192.339844 355.261719 192.101562 355.226562 191.863281 L 353.769531 182.554688 C 353.699219 182.109375 353.316406 181.792969 352.882812 181.792969 Z M 352.882812 181.792969 " fill-opacity="1" fill-rule="nonzero"/><path fill="#002768" d="M 303.605469 114.765625 L 279.28125 89.886719 C 278.414062 89 278.429688 87.570312 279.316406 86.699219 L 281.601562 84.464844 C 282.492188 83.597656 283.921875 83.613281 284.789062 84.5 L 303.726562 103.871094 C 304.597656 104.757812 306.027344 104.777344 306.914062 103.90625 L 347.550781 64.171875 C 348.441406 63.304688 349.871094 63.320312 350.738281 64.207031 L 352.972656 66.492188 C 353.84375 67.382812 353.828125 68.8125 352.9375 69.679688 L 306.792969 114.800781 C 305.902344 115.671875 304.476562 115.652344 303.605469 114.765625 Z M 303.605469 114.765625 " fill-opacity="1" fill-rule="nonzero"/><path fill="#6b90d1" d="M 343.320312 189.632812 C 343.320312 189.917969 343.292969 190.195312 343.238281 190.472656 C 343.183594 190.75 343.101562 191.019531 342.992188 191.277344 C 342.886719 191.539062 342.753906 191.789062 342.597656 192.023438 C 342.441406 192.257812 342.261719 192.472656 342.0625 192.671875 C 341.863281 192.871094 341.644531 193.050781 341.410156 193.207031 C 341.175781 193.363281 340.929688 193.496094 340.667969 193.605469 C 340.40625 193.710938 340.140625 193.792969 339.863281 193.847656 C 339.585938 193.902344 339.304688 193.929688 339.023438 193.929688 C 338.742188 193.929688 338.460938 193.902344 338.1875 193.847656 C 337.910156 193.792969 337.640625 193.710938 337.378906 193.605469 C 337.121094 193.496094 336.871094 193.363281 336.636719 193.207031 C 336.402344 193.050781 336.183594 192.871094 335.984375 192.671875 C 335.785156 192.472656 335.609375 192.257812 335.453125 192.023438 C 335.292969 191.789062 335.164062 191.539062 335.054688 191.277344 C 334.945312 191.019531 334.863281 190.75 334.808594 190.472656 C 334.753906 190.195312 334.726562 189.917969 334.726562 189.632812 C 334.726562 189.351562 334.753906 189.074219 334.808594 188.796875 C 334.863281 188.519531 334.945312 188.25 335.054688 187.992188 C 335.164062 187.730469 335.292969 187.480469 335.453125 187.246094 C 335.609375 187.011719 335.785156 186.796875 335.984375 186.597656 C 336.183594 186.398438 336.402344 186.21875 336.636719 186.0625 C 336.871094 185.90625 337.121094 185.773438 337.378906 185.664062 C 337.640625 185.558594 337.910156 185.476562 338.1875 185.421875 C 338.460938 185.367188 338.742188 185.335938 339.023438 185.335938 C 339.304688 185.335938 339.585938 185.367188 339.863281 185.421875 C 340.140625 185.476562 340.40625 185.558594 340.667969 185.664062 C 340.929688 185.773438 341.175781 185.90625 341.410156 186.0625 C 341.644531 186.21875 341.863281 186.398438 342.0625 186.597656 C 342.261719 186.796875 342.441406 187.011719 342.597656 187.246094 C 342.753906 187.480469 342.886719 187.730469 342.992188 187.992188 C 343.101562 188.25 343.183594 188.519531 343.238281 188.796875 C 343.292969 189.074219 343.320312 189.351562 343.320312 189.632812 Z M 343.320312 189.632812 " fill-opacity="1" fill-rule="nonzero"/><path fill="#6b90d1" d="M 339.023438 194.261719 C 336.472656 194.261719 334.398438 192.1875 334.398438 189.632812 C 334.398438 187.082031 336.472656 185.007812 339.023438 185.007812 C 341.574219 185.007812 343.652344 187.082031 343.652344 189.632812 C 343.652344 192.1875 341.574219 194.261719 339.023438 194.261719 Z M 339.023438 185.667969 C 336.835938 185.667969 335.058594 187.449219 335.058594 189.632812 C 335.058594 191.824219 336.839844 193.601562 339.023438 193.601562 C 341.210938 193.601562 342.992188 191.820312 342.992188 189.632812 C 342.992188 187.445312 341.210938 185.667969 339.023438 185.667969 Z M 339.023438 185.667969 " fill-opacity="1" fill-rule="nonzero"/><path fill="#943e04" d="M 452.042969 72.957031 C 451.933594 72.957031 451.824219 72.898438 451.761719 72.796875 C 450.566406 70.824219 449.332031 68.78125 448.703125 66.488281 C 447.992188 63.90625 448.25 61.359375 449.402344 59.507812 C 450.511719 57.730469 452.269531 56.757812 453.550781 56.257812 C 455.28125 55.578125 457.109375 55.347656 458.671875 55.214844 C 458.851562 55.199219 459.011719 55.332031 459.027344 55.511719 C 459.042969 55.695312 458.90625 55.855469 458.726562 55.871094 C 457.210938 56.003906 455.441406 56.226562 453.789062 56.871094 C 452.601562 57.335938 450.972656 58.230469 449.960938 59.855469 C 448.902344 61.550781 448.675781 63.90625 449.335938 66.3125 C 449.941406 68.515625 451.152344 70.515625 452.324219 72.453125 C 452.417969 72.609375 452.367188 72.8125 452.210938 72.90625 C 452.160156 72.941406 452.101562 72.957031 452.042969 72.957031 Z M 452.042969 72.957031 " fill-opacity="1" fill-rule="nonzero"/><path fill="#943e04" d="M 457.546875 69.320312 C 457.390625 69.320312 457.246094 69.210938 457.222656 69.050781 C 456.847656 66.957031 457.652344 64.605469 459.3125 62.910156 C 460.726562 61.46875 462.738281 60.457031 465.136719 59.976562 C 467.140625 59.574219 469.175781 59.558594 471.609375 59.660156 C 471.792969 59.667969 471.933594 59.820312 471.929688 60.003906 C 471.921875 60.1875 471.765625 60.324219 471.585938 60.320312 C 469.199219 60.21875 467.207031 60.234375 465.265625 60.621094 C 463 61.074219 461.105469 62.027344 459.785156 63.375 C 458.265625 64.917969 457.535156 67.046875 457.871094 68.933594 C 457.902344 69.113281 457.78125 69.28125 457.605469 69.316406 C 457.585938 69.320312 457.566406 69.320312 457.546875 69.320312 Z M 457.546875 69.320312 " fill-opacity="1" fill-rule="nonzero"/><path fill="#943e04" d="M 434.722656 87.765625 C 434.570312 87.765625 434.433594 87.660156 434.402344 87.503906 C 433.671875 84.15625 432.84375 80.359375 433.429688 76.699219 C 434.089844 72.59375 436.632812 69.308594 439.910156 68.332031 C 440.082031 68.28125 440.269531 68.382812 440.320312 68.554688 C 440.375 68.730469 440.273438 68.914062 440.097656 68.96875 C 437.066406 69.871094 434.703125 72.949219 434.085938 76.804688 C 433.515625 80.34375 434.332031 84.074219 435.046875 87.367188 C 435.089844 87.542969 434.972656 87.71875 434.796875 87.757812 C 434.769531 87.757812 434.746094 87.765625 434.722656 87.765625 Z M 434.722656 87.765625 " fill-opacity="1" fill-rule="nonzero"/><path fill="#943e04" d="M 506.3125 98.871094 C 506.28125 98.871094 506.246094 98.867188 506.214844 98.855469 C 506.039062 98.804688 505.941406 98.617188 505.996094 98.445312 C 506.953125 95.296875 507.632812 92.050781 508.015625 88.785156 C 508.296875 86.421875 508.402344 83.730469 507.070312 81.675781 C 505.828125 79.761719 503.644531 78.773438 501.125 77.765625 C 500.957031 77.695312 500.875 77.503906 500.941406 77.335938 C 501.007812 77.164062 501.199219 77.082031 501.371094 77.148438 C 503.992188 78.199219 506.277344 79.234375 507.625 81.3125 C 509.066406 83.542969 508.964844 86.378906 508.671875 88.859375 C 508.28125 92.164062 507.59375 95.453125 506.625 98.632812 C 506.585938 98.777344 506.453125 98.871094 506.3125 98.871094 Z M 506.3125 98.871094 " fill-opacity="1" fill-rule="nonzero"/><path fill="#943e04" d="M 499.890625 97.945312 C 499.847656 97.945312 499.808594 97.941406 499.765625 97.921875 C 499.597656 97.855469 499.515625 97.664062 499.585938 97.492188 C 500.632812 94.875 500.746094 91.832031 499.890625 89.140625 C 499.835938 88.96875 499.929688 88.78125 500.105469 88.726562 C 500.277344 88.671875 500.460938 88.769531 500.515625 88.941406 C 501.421875 91.773438 501.304688 94.980469 500.195312 97.738281 C 500.144531 97.867188 500.019531 97.945312 499.890625 97.945312 Z M 499.890625 97.945312 " fill-opacity="1" fill-rule="nonzero"/><path fill="#940c29" d="M 144.71875 87.945312 C 144.542969 87.945312 144.394531 87.804688 144.390625 87.625 C 144.382812 87.441406 144.527344 87.289062 144.707031 87.285156 C 155.757812 86.925781 166.660156 83.230469 175.417969 76.886719 C 175.566406 76.78125 175.773438 76.8125 175.878906 76.960938 C 175.984375 77.109375 175.953125 77.316406 175.804688 77.421875 C 166.941406 83.839844 155.90625 87.578125 144.730469 87.941406 C 144.726562 87.945312 144.722656 87.945312 144.71875 87.945312 Z M 144.71875 87.945312 " fill-opacity="1" fill-rule="nonzero"/><path fill="#940c29" d="M 114.453125 153.179688 C 114.386719 153.179688 114.324219 153.164062 114.265625 153.121094 C 114.117188 153.023438 114.074219 152.816406 114.175781 152.664062 C 116.960938 148.523438 117.933594 142.722656 116.988281 135.878906 C 116.578125 132.910156 115.875 129.933594 115.195312 127.058594 C 114.546875 124.300781 113.875 121.453125 113.457031 118.601562 C 112.410156 111.5 113.289062 105.675781 116.070312 101.296875 C 116.167969 101.144531 116.371094 101.097656 116.527344 101.195312 C 116.679688 101.292969 116.726562 101.496094 116.628906 101.652344 C 113.933594 105.894531 113.085938 111.5625 114.105469 118.507812 C 114.523438 121.332031 115.191406 124.167969 115.839844 126.910156 C 116.523438 129.800781 117.226562 132.792969 117.640625 135.792969 C 118.625 142.894531 117.640625 148.695312 114.726562 153.035156 C 114.664062 153.128906 114.558594 153.179688 114.453125 153.179688 Z M 114.453125 153.179688 " fill-opacity="1" fill-rule="nonzero"/><path fill="#940c29" d="M 99.484375 234.941406 C 99.390625 234.941406 99.300781 234.902344 99.234375 234.820312 C 92.199219 226.449219 88.238281 215.378906 88.363281 204.445312 C 88.488281 193.511719 92.703125 182.53125 99.925781 174.324219 C 100.046875 174.1875 100.253906 174.171875 100.390625 174.292969 C 100.527344 174.414062 100.539062 174.621094 100.421875 174.757812 C 93.304688 182.851562 89.148438 193.675781 89.027344 204.449219 C 88.902344 215.226562 92.808594 226.144531 99.742188 234.398438 C 99.859375 234.535156 99.839844 234.746094 99.703125 234.859375 C 99.636719 234.914062 99.5625 234.941406 99.484375 234.941406 Z M 99.484375 234.941406 " fill-opacity="1" fill-rule="nonzero"/><path fill="#940c29" d="M 105.523438 226.882812 C 105.414062 226.882812 105.304688 226.828125 105.242188 226.726562 C 100.710938 219.390625 98.769531 210.636719 99.773438 202.074219 C 99.796875 201.894531 99.960938 201.765625 100.140625 201.785156 C 100.320312 201.808594 100.449219 201.96875 100.429688 202.152344 C 99.445312 210.5625 101.351562 219.167969 105.804688 226.375 C 105.902344 226.53125 105.851562 226.734375 105.695312 226.828125 C 105.644531 226.867188 105.582031 226.882812 105.523438 226.882812 Z M 105.523438 226.882812 " fill-opacity="1" fill-rule="nonzero"/><path fill="#940c29" d="M 195.527344 93.554688 C 195.367188 93.554688 195.222656 93.433594 195.203125 93.265625 C 194.53125 88.328125 192.414062 83.496094 189.238281 79.652344 C 189.121094 79.511719 189.140625 79.304688 189.285156 79.1875 C 189.425781 79.070312 189.632812 79.089844 189.746094 79.230469 C 193 83.167969 195.167969 88.117188 195.855469 93.175781 C 195.878906 93.355469 195.753906 93.523438 195.574219 93.546875 C 195.558594 93.550781 195.542969 93.554688 195.527344 93.554688 Z M 195.527344 93.554688 " fill-opacity="1" fill-rule="nonzero"/></svg>