<svg xmlns="http://www.w3.org/2000/svg" xmlns:xlink="http://www.w3.org/1999/xlink" width="800" zoomAndPan="magnify" viewBox="0 0 600 599.999999" height="800" preserveAspectRatio="xMidYMid meet" version="1.0"><path fill="#d18765" d="M 598.921875 299.375 C 598.921875 134.625 464.820312 0.589844 299.980469 0.589844 C 258.851562 0.589844 218.988281 8.832031 181.492188 25.089844 C 145.289062 40.789062 112.941406 63.203125 85.34375 91.707031 L 84.957031 92.109375 L 84.523438 91.75 C 80.132812 88.078125 74.566406 86.058594 68.84375 86.058594 C 55.347656 86.058594 44.363281 97.042969 44.363281 110.542969 C 44.363281 117.984375 47.703125 124.9375 53.523438 129.617188 L 53.957031 129.96875 L 53.640625 130.433594 C 19.292969 180.335938 1.140625 238.753906 1.140625 299.375 C 1.140625 313.96875 1.078125 583.542969 1.078125 583.542969 L 63.039062 583.601562 L 63.039062 597.472656 C 63.039062 600.144531 65.214844 602.320312 67.882812 602.320312 L 180.265625 602.320312 C 182.933594 602.320312 185.109375 600.144531 185.109375 597.472656 L 185.109375 583.714844 L 288.773438 583.8125 L 288.574219 584.570312 C 286.855469 591.011719 285.3125 597.085938 283.863281 603.113281 C 288.707031 603.089844 306.972656 603.082031 338.234375 603.082031 L 343.714844 603.082031 L 343.71875 603.683594 C 343.71875 603.769531 343.773438 603.863281 343.902344 603.882812 C 343.996094 603.882812 344.078125 603.804688 344.109375 603.601562 L 344.183594 603.082031 L 344.707031 603.082031 C 379.285156 603.082031 421.851562 603.097656 454.816406 603.105469 L 455.359375 603.1875 L 455.429688 603.710938 C 455.441406 603.808594 455.523438 603.882812 455.621094 603.882812 L 455.652344 603.878906 C 455.75 603.863281 455.796875 603.773438 455.800781 603.691406 L 455.820312 603.109375 L 506.375 603.121094 C 504.960938 597.222656 503.449219 591.054688 501.875 584.761719 L 501.6875 584.007812 L 598.921875 584.101562 Z M 339.511719 440.902344 C 337.769531 448.054688 333.558594 458.210938 327.730469 472.265625 C 317.597656 496.707031 302.28125 533.644531 289.003906 582.96875 L 288.882812 583.417969 L 185.109375 583.320312 L 185.109375 581.148438 C 185.109375 579.257812 183.992188 577.535156 182.261719 576.746094 L 181.910156 576.585938 L 181.910156 496.261719 L 182.25 496.097656 C 184.011719 495.246094 185.109375 493.609375 185.109375 491.824219 L 185.109375 485.164062 C 185.109375 480.359375 183.179688 475.875 179.671875 472.542969 C 176.203125 469.238281 171.59375 467.421875 166.695312 467.421875 L 148.910156 467.421875 L 149.792969 464.609375 C 150.011719 464.585938 150.226562 464.5625 150.449219 464.539062 C 163.027344 463.101562 183.460938 456.675781 192.058594 443.875 C 211.355469 439.066406 246.496094 434.324219 273.894531 427.4375 C 273.894531 427.4375 273.894531 427.4375 273.898438 427.433594 C 273.597656 427.304688 273.320312 427.160156 273.035156 427.019531 C 273.269531 426.964844 273.511719 426.90625 273.746094 426.847656 L 273.945312 426.800781 L 274.132812 426.882812 C 277.140625 428.1875 280.792969 428.847656 284.996094 428.847656 C 289.160156 428.847656 293.953125 428.199219 299.238281 426.914062 L 299.796875 426.78125 L 299.960938 427.332031 C 300.011719 427.507812 305.394531 445.128906 321.859375 445.128906 C 326.914062 445.128906 332.558594 443.476562 338.640625 440.226562 L 339.828125 439.589844 Z M 387.847656 261.296875 C 388.003906 261.261719 388.164062 261.230469 388.324219 261.1875 L 388.324219 261.878906 L 387.878906 261.902344 L 387.796875 261.308594 C 387.8125 261.304688 387.828125 261.300781 387.847656 261.296875 Z M 598.53125 554.617188 L 569.445312 554.617188 L 569.445312 583.675781 L 501.589844 583.617188 L 501.476562 583.160156 C 488.628906 531.992188 475.667969 489.621094 463.988281 460.625 L 463.917969 460.445312 C 464.128906 460.429688 464.335938 460.414062 464.550781 460.398438 C 497.261719 457.980469 540.511719 451.285156 548.414062 432.875 C 548.414062 432.871094 548.414062 432.871094 548.417969 432.871094 C 548.421875 432.859375 548.425781 432.847656 548.429688 432.835938 C 548.664062 432.292969 548.851562 431.757812 549.007812 431.230469 C 550.558594 426.445312 550.363281 420.769531 548.886719 414.503906 C 548.675781 414.480469 548.460938 414.453125 548.25 414.425781 L 548.105469 413.808594 L 549.621094 413.980469 C 551.085938 414.125 552.519531 414.199219 553.878906 414.199219 C 565.128906 414.199219 569.808594 409.417969 571.597656 406.570312 C 571.792969 406.261719 571.972656 405.945312 572.132812 405.628906 C 572.660156 404.597656 573.03125 403.519531 573.238281 402.425781 C 573.453125 401.273438 573.496094 400.113281 573.363281 398.980469 C 573.160156 397.21875 572.535156 395.527344 571.554688 394.082031 C 561.527344 379.257812 514.230469 317.082031 476.566406 286.027344 C 464.765625 276.296875 448.84375 269.058594 430.53125 265.101562 L 430.054688 265 L 430.054688 236.335938 C 430.054688 212.234375 418.507812 198.414062 398.375 198.414062 C 367.433594 198.414062 363.542969 218.582031 363.082031 222.507812 C 363.730469 222.519531 364.84375 222.539062 366.308594 222.558594 L 367.058594 222.570312 L 366.917969 223.171875 C 366.714844 223.167969 366.492188 223.167969 366.300781 223.164062 C 366.113281 223.964844 365.945312 224.78125 365.820312 225.632812 C 363.273438 242.75 367.457031 260.371094 379.761719 261.953125 C 379.785156 261.953125 379.808594 261.957031 379.832031 261.957031 L 379.824219 262.550781 C 358.636719 264.765625 339.042969 270.832031 323.164062 280.097656 C 288.675781 300.226562 250.085938 339.234375 234.105469 363.84375 C 231.226562 368.089844 229.121094 371.976562 227.839844 375.40625 C 226.671875 378.347656 226.164062 380.75 226.339844 382.625 C 226.347656 385.609375 226.777344 388.359375 227.621094 390.800781 L 227.804688 391.332031 L 227.277344 391.558594 C 227.207031 391.367188 227.117188 391.191406 227.050781 390.996094 L 186.765625 408.351562 C 186.761719 408.351562 186.761719 408.351562 186.757812 408.351562 C 178.648438 410.519531 163.347656 411.335938 149.691406 413.972656 C 144.5625 414.964844 139.121094 419.292969 134.324219 424.320312 L 134.972656 424.523438 C 134.902344 424.597656 134.832031 424.664062 134.761719 424.738281 L 134.5 425.007812 L 121.363281 420.875 L 106.726562 467.421875 L 80.742188 467.421875 C 70.652344 467.421875 63.042969 475.050781 63.042969 485.164062 L 63.042969 491.824219 C 63.042969 493.953125 64.121094 495.679688 65.855469 496.339844 L 66.246094 496.488281 L 66.246094 576.585938 L 65.890625 576.746094 C 64.160156 577.53125 63.042969 579.257812 63.042969 581.148438 L 63.042969 583.207031 L 1.46875 583.152344 C 1.46875 583.152344 1.535156 313.972656 1.535156 299.375 C 1.535156 238.859375 19.652344 180.535156 53.929688 130.707031 L 54.273438 130.203125 L 54.773438 130.554688 C 58.921875 133.476562 63.785156 135.023438 68.84375 135.023438 C 82.339844 135.023438 93.320312 124.039062 93.320312 110.539062 C 93.320312 103.78125 90.605469 97.480469 85.679688 92.800781 L 85.238281 92.382812 L 85.664062 91.941406 C 142.472656 33.289062 218.585938 0.984375 299.980469 0.984375 C 464.601562 0.984375 598.53125 134.84375 598.53125 299.375 Z M 598.53125 554.617188 " fill-opacity="1" fill-rule="nonzero"/><path fill="#0038a8" d="M 597.925781 554.011719 L 597.925781 583.101562 L 568.839844 583.074219 L 568.839844 554.011719 Z M 502.0625 583.011719 C 489.84375 534.339844 476.839844 490.910156 464.550781 460.402344 C 443.441406 461.960938 426.71875 461.742188 426.71875 461.742188 C 426.71875 461.742188 425.441406 467.324219 410.433594 468.128906 C 405.960938 468.371094 401.144531 467.765625 397.371094 469.339844 C 403.535156 473.097656 404.371094 481.121094 399.78125 481.371094 C 395.925781 481.578125 381.59375 478.652344 377.445312 476.078125 C 373.300781 473.503906 373.890625 469.820312 374.71875 468.371094 C 367.082031 466.398438 367.90625 456.003906 371.371094 453.910156 C 368.726562 448.761719 371.933594 445.285156 377.445312 441.894531 C 384.859375 437.335938 403.304688 434.257812 421.660156 432.238281 C 421.695312 432.230469 423.265625 431.640625 425.90625 430.660156 C 411.609375 420.195312 396.730469 407.945312 386.972656 396.796875 C 377.886719 411.269531 361.25 426.722656 343.476562 438.085938 C 341.90625 439.089844 340.390625 439.972656 338.921875 440.757812 C 338.921875 440.757812 338.921875 440.757812 338.921875 440.761719 C 334.066406 460.707031 309.058594 506.132812 288.417969 582.8125 C 288.277344 583.347656 288.132812 583.878906 287.988281 584.414062 C 286.324219 590.652344 284.6875 597.070312 283.09375 603.722656 C 287.003906 603.695312 311.566406 603.683594 343.113281 603.683594 C 343.113281 603.648438 343.101562 603.613281 343.105469 603.578125 L 344.707031 603.683594 C 379.28125 603.6875 421.851562 603.699219 454.816406 603.710938 L 456.414062 603.578125 C 456.417969 603.625 456.40625 603.664062 456.402344 603.710938 C 483.375 603.71875 503.597656 603.726562 507.140625 603.722656 C 505.597656 597.277344 504.035156 590.90625 502.460938 584.613281 C 502.328125 584.078125 502.195312 583.542969 502.0625 583.011719 Z M 415.632812 324.382812 C 409.960938 324.390625 404.289062 324.394531 398.621094 324.398438 C 398.574219 324.796875 398.25 325.105469 397.839844 325.105469 C 397.429688 325.105469 397.105469 324.796875 397.054688 324.398438 C 394.945312 324.402344 392.832031 324.40625 390.722656 324.40625 C 383.957031 324.398438 377.191406 324.375 370.425781 324.351562 C 377.050781 333.578125 383.007812 343.394531 387.296875 352.589844 C 394.660156 343.277344 404.859375 333.445312 415.632812 324.382812 Z M 384.730469 245.167969 C 383.382812 244.519531 380.898438 243.570312 377.847656 243.570312 C 375.070312 243.570312 374.152344 244.617188 373.859375 245.457031 C 376.382812 246.773438 381.222656 246.710938 384.730469 245.167969 Z M 373.894531 247.226562 C 374.242188 248.464844 375.308594 250.796875 378.472656 250.796875 C 381.542969 250.796875 383.96875 248.230469 385.109375 246.761719 C 383.109375 247.59375 380.796875 248.003906 378.621094 248.003906 C 376.875 248.003906 375.226562 247.738281 373.894531 247.226562 Z M 70.367188 569.78125 L 176.183594 569.78125 L 176.183594 509.566406 L 70.367188 509.566406 Z M 302.125 416.285156 L 308.308594 414.863281 L 310.183594 420.800781 C 310.359375 421.355469 314.59375 434.328125 326.605469 434.328125 C 331.808594 434.328125 337.980469 432.105469 344.949219 427.722656 C 345.605469 427.3125 345.804688 426.441406 345.390625 425.785156 C 344.992188 425.152344 344.089844 424.949219 343.457031 425.34375 C 336.9375 429.441406 331.265625 431.515625 326.597656 431.515625 C 316.625 431.515625 313.011719 420.429688 312.863281 419.957031 L 310.59375 412.777344 C 310.375 412.089844 309.652344 411.675781 308.9375 411.832031 L 301.480469 413.550781 C 296.785156 414.671875 292.613281 415.238281 289.082031 415.238281 C 283.984375 415.238281 280.441406 414.085938 278.554688 411.8125 C 275.738281 408.425781 276.011719 401.863281 276.429688 399.855469 L 278.960938 387.695312 C 279.054688 387.222656 278.910156 386.746094 278.570312 386.410156 C 278.234375 386.074219 277.738281 385.933594 277.277344 386.039062 L 264.96875 388.78125 C 260.734375 389.726562 256.851562 390.207031 253.421875 390.207031 C 240.148438 390.207031 238.351562 383.929688 238.34375 377.792969 C 238.34375 375.367188 239.96875 371.445312 242.917969 366.742188 C 243.121094 366.425781 243.183594 366.046875 243.101562 365.683594 C 243.015625 365.316406 242.796875 365.003906 242.476562 364.804688 C 241.839844 364.40625 240.941406 364.613281 240.539062 365.246094 C 237.261719 370.464844 235.53125 374.804688 235.535156 377.796875 C 235.539062 381.558594 235.550781 393.015625 253.421875 393.015625 C 257.058594 393.015625 261.148438 392.515625 265.578125 391.527344 L 275.765625 389.253906 L 273.679688 399.28125 C 273.203125 401.574219 272.675781 409.128906 276.390625 413.605469 C 278.839844 416.554688 283.109375 418.046875 289.082031 418.046875 C 292.835938 418.050781 297.226562 417.457031 302.125 416.285156 Z M 387.082031 396.621094 C 387.304688 396.753906 387.558594 396.824219 387.8125 396.824219 C 388.300781 396.824219 388.761719 396.5625 389.007812 396.152344 C 389.300781 395.671875 396.199219 384.316406 395.515625 375.761719 C 394.855469 367.460938 389.839844 354.867188 389.625 354.335938 C 389.347656 353.632812 388.511719 353.261719 387.800781 353.550781 C 387.449219 353.691406 387.175781 353.957031 387.027344 354.304688 C 386.882812 354.648438 386.878906 355.03125 387.019531 355.382812 C 387.226562 355.910156 392.105469 368.324219 392.71875 375.988281 C 393.316406 383.507812 386.683594 394.574219 386.613281 394.6875 C 386.210938 395.34375 386.417969 396.210938 387.082031 396.621094 Z M 336.410156 290.363281 C 336.679688 290.691406 337.074219 290.875 337.496094 290.875 C 337.816406 290.875 338.132812 290.765625 338.382812 290.558594 C 338.671875 290.324219 338.855469 289.984375 338.890625 289.613281 C 338.929688 289.238281 338.816406 288.871094 338.578125 288.582031 L 330.484375 278.6875 C 330.011719 278.109375 329.085938 278.015625 328.507812 278.488281 C 327.910156 278.980469 327.820312 279.867188 328.308594 280.46875 Z M 461.96875 293.75 C 462.257812 293.75 462.539062 293.660156 462.78125 293.488281 L 472.300781 286.707031 C 472.929688 286.257812 473.074219 285.378906 472.628906 284.746094 C 472.191406 284.140625 471.277344 283.984375 470.667969 284.417969 L 461.152344 291.199219 C 460.523438 291.652344 460.375 292.527344 460.824219 293.160156 C 461.082031 293.527344 461.511719 293.75 461.96875 293.75 Z M 569.332031 395.214844 C 569.277344 394.84375 569.082031 394.515625 568.777344 394.289062 C 568.183594 393.847656 567.265625 393.980469 566.8125 394.578125 C 562.804688 399.960938 557.0625 402.691406 549.734375 402.691406 C 540.820312 402.691406 532.652344 398.546875 532.570312 398.503906 C 531.894531 398.152344 531.023438 398.429688 530.675781 399.097656 C 530.5 399.433594 530.46875 399.8125 530.582031 400.171875 C 530.695312 400.53125 530.9375 400.820312 531.269531 400.996094 C 531.355469 401.042969 539.964844 405.5 549.78125 405.5 C 558.015625 405.5 564.507812 402.390625 569.066406 396.253906 C 569.292969 395.957031 569.386719 395.585938 569.332031 395.214844 Z M 569.332031 395.214844 " fill-opacity="1" fill-rule="nonzero"/><path fill="#fcd116" d="M 54.425781 131.046875 C 54.664062 130.707031 54.90625 130.371094 55.144531 130.03125 C 54.699219 129.730469 54.28125 129.398438 53.859375 129.070312 C 53.625 129.414062 53.378906 129.746094 53.144531 130.089844 C 47.429688 125.492188 43.761719 118.449219 43.761719 110.539062 C 43.761719 96.683594 54.992188 85.453125 68.84375 85.453125 C 74.960938 85.453125 80.5625 87.648438 84.914062 91.285156 C 84.828125 91.371094 84.746094 91.460938 84.660156 91.550781 C 85.0625 91.902344 85.46875 92.25 85.847656 92.628906 C 85.933594 92.539062 86.015625 92.449219 86.101562 92.363281 C 90.914062 96.933594 93.929688 103.375 93.929688 110.539062 C 93.929688 124.394531 82.699219 135.625 68.847656 135.625 C 63.472656 135.625 58.507812 133.921875 54.425781 131.046875 Z M 185.714844 581.148438 L 185.714844 597.472656 C 185.714844 600.480469 183.277344 602.921875 180.265625 602.921875 L 67.886719 602.921875 C 64.878906 602.921875 62.4375 600.484375 62.4375 597.472656 L 62.4375 581.148438 C 62.4375 578.941406 63.757812 577.050781 65.640625 576.195312 L 65.640625 496.902344 C 63.667969 496.152344 62.441406 494.183594 62.441406 491.824219 L 62.441406 485.164062 C 62.441406 474.800781 70.378906 466.816406 80.742188 466.816406 L 106.285156 466.816406 L 103.261719 476.425781 L 146.714844 476.425781 L 149.734375 466.816406 L 166.695312 466.816406 C 177.054688 466.816406 185.714844 474.800781 185.710938 485.164062 L 185.710938 491.824219 C 185.710938 493.949219 184.359375 495.75 182.511719 496.640625 L 182.511719 576.195312 C 184.394531 577.054688 185.714844 578.941406 185.714844 581.148438 Z M 169.703125 513.253906 L 76.847656 513.253906 L 76.847656 566.09375 L 169.703125 566.09375 Z M 413.972656 253.113281 C 416.546875 252.125 418.378906 249.632812 418.378906 246.710938 C 418.378906 245.523438 418.078125 244.40625 417.546875 243.433594 C 416.382812 241.292969 414.117188 239.84375 411.511719 239.84375 C 407.71875 239.84375 404.644531 242.917969 404.644531 246.710938 C 404.644531 249.632812 406.476562 252.125 409.046875 253.113281 C 406.472656 254.105469 404.644531 256.597656 404.644531 259.519531 C 404.644531 262.476562 406.515625 264.988281 409.136719 265.957031 C 409.875 266.230469 410.675781 266.386719 411.511719 266.386719 C 414.308594 266.386719 416.714844 264.710938 417.785156 262.308594 C 418.164062 261.457031 418.378906 260.515625 418.378906 259.523438 C 418.378906 256.597656 416.546875 254.105469 413.972656 253.113281 Z M 413.972656 253.113281 " fill-opacity="1" fill-rule="nonzero"/><path fill="#ffffff" d="M 134.324219 424.320312 L 160.503906 432.554688 L 156.535156 445.179688 C 154.71875 445.78125 152.753906 446.289062 150.625 446.664062 C 139.195312 448.671875 136.933594 460.054688 140.164062 463.753906 C 141.128906 464.859375 145.078125 465.152344 150.449219 464.535156 L 149.734375 466.816406 L 146.714844 476.421875 L 103.265625 476.421875 L 106.285156 466.816406 L 120.96875 420.117188 Z M 573.835938 402.535156 C 573.617188 403.679688 573.230469 404.8125 572.671875 405.90625 C 572.503906 406.242188 572.316406 406.570312 572.109375 406.894531 C 568.933594 411.953125 561.714844 415.777344 549.5625 414.585938 C 549.339844 414.5625 549.113281 414.535156 548.886719 414.507812 C 531.171875 412.566406 514.378906 402.808594 497.5 406.042969 C 496.78125 406.179688 496.003906 406.414062 495.207031 406.691406 C 493.390625 406.976562 491.570312 407.40625 489.78125 408.027344 C 489.363281 408.171875 489.144531 408.628906 489.285156 409.042969 C 489.296875 409.066406 489.3125 409.082031 489.320312 409.105469 C 488.597656 409.253906 487.902344 409.414062 487.25 409.589844 C 471.339844 413.859375 437.746094 426.253906 425.910156 430.660156 C 411.609375 420.195312 396.734375 407.945312 386.972656 396.796875 C 377.886719 411.269531 361.253906 426.722656 343.476562 438.085938 C 341.910156 439.089844 340.394531 439.972656 338.925781 440.757812 C 338.925781 440.757812 338.925781 440.757812 338.925781 440.761719 C 308.132812 457.226562 299.382812 427.503906 299.382812 427.503906 C 287.441406 430.402344 279.355469 429.808594 273.894531 427.4375 C 273.894531 427.4375 273.898438 427.4375 273.898438 427.433594 C 259.59375 421.21875 263.363281 402.765625 263.363281 402.765625 C 243.476562 407.28125 230.953125 402.300781 227.050781 391 C 226.191406 388.503906 225.746094 385.707031 225.738281 382.628906 C 225.738281 382.625 225.738281 382.617188 225.738281 382.609375 C 225.554688 380.664062 226.105469 378.144531 227.28125 375.1875 C 228.621094 371.589844 230.792969 367.65625 233.605469 363.503906 C 249.960938 338.320312 288.839844 299.433594 322.863281 279.578125 C 339.296875 269.988281 359.242188 264.097656 379.765625 261.953125 C 380.355469 262.027344 380.957031 262.078125 381.585938 262.078125 C 383.53125 262.078125 385.648438 261.8125 387.847656 261.296875 C 388.003906 261.289062 388.164062 261.285156 388.324219 261.277344 L 388.324219 280.058594 C 364.332031 281.660156 343.402344 286.9375 339.75 291.085938 C 349.222656 298.191406 360.558594 310.613281 370.425781 324.355469 C 377.050781 333.582031 383.007812 343.398438 387.296875 352.589844 C 394.660156 343.277344 404.859375 333.445312 415.636719 324.382812 C 431.132812 311.351562 447.800781 299.921875 458.910156 293.925781 C 447.789062 284.320312 428.78125 280.398438 409.136719 279.699219 L 409.136719 265.957031 C 409.875 266.230469 410.675781 266.386719 411.511719 266.386719 C 414.308594 266.386719 416.714844 264.710938 417.785156 262.308594 C 422.144531 262.859375 426.441406 263.601562 430.660156 264.511719 C 448.355469 268.335938 464.527344 275.320312 476.949219 285.5625 C 514.4375 316.46875 562.164062 379.117188 572.058594 393.746094 C 573.101562 395.289062 573.75 397.0625 573.964844 398.910156 C 574.105469 400.101562 574.0625 401.324219 573.835938 402.535156 Z M 328.777344 280.085938 L 336.875 289.980469 C 337.035156 290.171875 337.261719 290.273438 337.496094 290.273438 C 337.675781 290.273438 337.855469 290.210938 338.003906 290.089844 C 338.34375 289.8125 338.394531 289.304688 338.117188 288.964844 L 330.019531 279.070312 C 329.738281 278.726562 329.234375 278.679688 328.890625 278.957031 C 328.546875 279.238281 328.5 279.742188 328.777344 280.085938 Z M 344.882812 426.109375 C 344.644531 425.734375 344.148438 425.625 343.777344 425.855469 C 337.160156 430.015625 331.382812 432.121094 326.597656 432.121094 C 316.171875 432.121094 312.441406 420.628906 312.285156 420.140625 L 310.015625 412.960938 C 309.890625 412.566406 309.484375 412.328125 309.074219 412.421875 L 301.617188 414.140625 C 296.878906 415.269531 292.65625 415.84375 289.078125 415.84375 C 283.792969 415.84375 280.09375 414.617188 278.085938 412.203125 C 274.902344 408.367188 275.515625 401.28125 275.835938 399.734375 L 278.367188 387.574219 C 278.421875 387.308594 278.335938 387.03125 278.144531 386.839844 C 277.949219 386.648438 277.675781 386.570312 277.40625 386.628906 L 265.097656 389.375 C 260.824219 390.328125 256.894531 390.8125 253.421875 390.8125 C 239.539062 390.8125 237.746094 383.855469 237.742188 377.796875 C 237.738281 375.257812 239.394531 371.21875 242.410156 366.421875 C 242.644531 366.050781 242.53125 365.554688 242.15625 365.320312 C 241.785156 365.085938 241.289062 365.199219 241.054688 365.570312 C 237.835938 370.691406 236.136719 374.917969 236.140625 377.796875 C 236.144531 381.410156 236.15625 392.414062 253.421875 392.414062 C 257.015625 392.414062 261.0625 391.914062 265.449219 390.9375 L 276.546875 388.460938 L 274.273438 399.402344 C 273.8125 401.625 273.296875 408.929688 276.859375 413.222656 C 279.183594 416.023438 283.296875 417.441406 289.082031 417.441406 C 292.785156 417.441406 297.128906 416.855469 301.988281 415.695312 L 308.714844 414.148438 L 310.761719 420.617188 C 310.929688 421.152344 315.015625 433.71875 326.605469 433.71875 C 331.691406 433.71875 337.757812 431.527344 344.628906 427.207031 C 345.003906 426.976562 345.113281 426.484375 344.882812 426.109375 Z M 394.914062 375.808594 C 394.265625 367.632812 389.277344 355.085938 389.0625 354.558594 C 388.898438 354.144531 388.433594 353.945312 388.023438 354.109375 C 387.613281 354.273438 387.414062 354.742188 387.578125 355.152344 C 387.628906 355.277344 392.6875 368.003906 393.320312 375.9375 C 393.941406 383.730469 387.199219 394.886719 387.128906 395 C 386.898438 395.375 387.019531 395.867188 387.394531 396.101562 C 387.527344 396.179688 387.671875 396.21875 387.8125 396.21875 C 388.082031 396.21875 388.34375 396.082031 388.492188 395.832031 C 388.785156 395.359375 395.578125 384.125 394.914062 375.808594 Z M 472.136719 285.097656 C 471.878906 284.738281 471.378906 284.65625 471.019531 284.910156 L 461.503906 291.691406 C 461.144531 291.949219 461.058594 292.449219 461.316406 292.808594 C 461.472656 293.027344 461.71875 293.144531 461.96875 293.144531 C 462.128906 293.144531 462.292969 293.09375 462.433594 292.996094 L 471.949219 286.214844 C 472.304688 285.957031 472.390625 285.460938 472.136719 285.097656 Z M 568.417969 394.773438 C 568.066406 394.511719 567.5625 394.582031 567.296875 394.9375 C 555.445312 410.863281 532.519531 399.160156 532.289062 399.039062 C 531.894531 398.832031 531.414062 398.988281 531.210938 399.378906 C 531.003906 399.773438 531.15625 400.253906 531.550781 400.460938 C 531.691406 400.535156 540.21875 404.894531 549.78125 404.894531 C 556.355469 404.894531 563.421875 402.832031 568.585938 395.894531 C 568.847656 395.539062 568.773438 395.039062 568.417969 394.773438 Z M 95.949219 546.175781 L 90.457031 528.226562 L 86.960938 528.226562 L 94.421875 551.121094 L 97.472656 551.121094 L 104.9375 528.226562 L 101.441406 528.226562 Z M 122.542969 531.996094 C 123.210938 533.273438 123.542969 534.75 123.542969 536.429688 L 123.542969 542.914062 C 123.542969 544.597656 123.210938 546.074219 122.542969 547.347656 C 121.878906 548.625 120.9375 549.609375 119.71875 550.308594 C 118.5 551.007812 117.09375 551.355469 115.5 551.355469 C 113.90625 551.355469 112.5 551.007812 111.28125 550.308594 C 110.0625 549.609375 109.125 548.621094 108.457031 547.347656 C 107.789062 546.074219 107.457031 544.597656 107.457031 542.914062 L 107.457031 536.429688 C 107.457031 534.75 107.789062 533.273438 108.457031 531.996094 C 109.125 530.722656 110.0625 529.734375 111.28125 529.039062 C 112.5 528.339844 113.90625 527.992188 115.5 527.992188 C 117.09375 527.992188 118.5 528.339844 119.71875 529.039062 C 120.9375 529.734375 121.878906 530.722656 122.542969 531.996094 Z M 120.253906 536.320312 C 120.253906 535.289062 120.058594 534.386719 119.664062 533.601562 C 119.273438 532.820312 118.714844 532.21875 117.996094 531.792969 C 117.277344 531.367188 116.445312 531.15625 115.5 531.15625 C 114.558594 531.15625 113.722656 531.367188 113.007812 531.792969 C 112.289062 532.21875 111.730469 532.820312 111.339844 533.601562 C 110.945312 534.386719 110.746094 535.289062 110.746094 536.320312 L 110.746094 543.027344 C 110.746094 544.054688 110.945312 544.960938 111.339844 545.742188 C 111.730469 546.523438 112.285156 547.128906 113.007812 547.554688 C 113.726562 547.980469 114.558594 548.191406 115.5 548.191406 C 116.445312 548.191406 117.277344 547.976562 117.996094 547.554688 C 118.714844 547.125 119.273438 546.523438 119.664062 545.742188 C 120.058594 544.960938 120.253906 544.054688 120.253906 543.027344 Z M 125.589844 531.28125 L 132.058594 531.28125 L 132.058594 551.117188 L 135.273438 551.117188 L 135.273438 531.28125 L 141.742188 531.28125 L 141.742188 528.226562 L 125.589844 528.226562 Z M 146.449219 528.226562 L 144.890625 528.226562 L 144.890625 551.121094 L 159.59375 551.121094 L 159.59375 548.066406 L 148.101562 548.066406 L 148.101562 541.28125 L 157.859375 541.28125 L 157.859375 538.226562 L 148.101562 538.226562 L 148.101562 531.28125 L 159.59375 531.28125 L 159.59375 528.230469 L 146.449219 528.230469 Z M 146.449219 528.226562 " fill-opacity="1" fill-rule="nonzero"/><path fill="#000000" d="M 599.527344 299.375 L 599.527344 584.703125 L 502.460938 584.613281 C 502.328125 584.078125 502.195312 583.542969 502.0625 583.011719 L 568.839844 583.074219 L 597.925781 583.097656 L 597.925781 299.375 C 597.925781 135.175781 464.265625 1.585938 299.980469 1.585938 C 216.128906 1.585938 140.277344 36.421875 86.097656 92.363281 C 74.5 104.335938 63.898438 117.273438 54.425781 131.046875 C 21.464844 178.964844 2.140625 236.953125 2.140625 299.375 C 2.140625 313.972656 2.121094 377.667969 2.105469 441.359375 C 2.089844 503.953125 2.074219 566.550781 2.074219 582.546875 L 62.4375 582.601562 L 62.4375 584.203125 L 0.472656 584.144531 L 0.472656 583.34375 C 0.472656 568.746094 0.488281 505.054688 0.503906 441.359375 C 0.519531 377.664062 0.535156 313.96875 0.535156 299.371094 C 0.535156 236.589844 19.980469 178.273438 53.140625 130.085938 C 62.648438 116.273438 73.28125 103.296875 84.910156 91.285156 C 139.382812 35.023438 215.660156 -0.015625 299.980469 -0.015625 C 465.148438 -0.015625 599.527344 134.289062 599.527344 299.375 Z M 185.714844 584.320312 L 287.988281 584.414062 C 288.132812 583.875 288.277344 583.347656 288.421875 582.8125 L 185.714844 582.71875 Z M 388.71875 228 C 387.5 228 386.511719 229.40625 386.511719 231.140625 C 386.511719 232.871094 387.5 234.277344 388.71875 234.277344 C 389.9375 234.277344 390.925781 232.871094 390.925781 231.140625 C 390.925781 229.40625 389.9375 228 388.71875 228 Z M 373.738281 231.140625 C 373.738281 229.40625 372.75 228 371.53125 228 C 370.3125 228 369.324219 229.40625 369.324219 231.140625 C 369.324219 232.871094 370.3125 234.277344 371.53125 234.277344 C 372.75 234.277344 373.738281 232.871094 373.738281 231.140625 Z M 384.621094 222.476562 C 382.457031 223.3125 382.496094 226.890625 384.433594 226.074219 C 388.71875 224.265625 394.519531 226.621094 394.097656 225.503906 C 392.871094 222.234375 387.8125 221.246094 384.621094 222.476562 Z M 376.75 232.300781 C 376.75 231.859375 376.390625 231.5 375.949219 231.5 C 375.507812 231.5 375.148438 231.859375 375.148438 232.300781 C 375.148438 234.15625 374.507812 234.78125 373.828125 235.4375 C 373.21875 236.027344 372.53125 236.695312 372.566406 238.039062 C 372.652344 241.375 376.5625 241.375 377.847656 241.375 C 378.292969 241.375 378.648438 241.015625 378.648438 240.570312 C 378.648438 240.128906 378.289062 239.769531 377.847656 239.769531 C 374.644531 239.769531 374.1875 238.871094 374.164062 237.992188 C 374.148438 237.382812 374.390625 237.121094 374.945312 236.585938 C 375.707031 235.847656 376.75 234.835938 376.75 232.300781 Z M 373.429688 245.21875 C 373.058594 244.976562 372.566406 245.078125 372.320312 245.449219 C 372.078125 245.816406 372.179688 246.3125 372.550781 246.554688 C 372.941406 246.816406 373.398438 247.039062 373.894531 247.226562 C 375.226562 247.738281 376.875 248.003906 378.621094 248.003906 C 380.792969 248.003906 383.105469 247.59375 385.105469 246.761719 C 386.347656 246.242188 387.472656 245.5625 388.363281 244.710938 C 388.683594 244.40625 388.695312 243.898438 388.386719 243.578125 C 388.085938 243.257812 387.578125 243.25 387.257812 243.554688 C 386.570312 244.210938 385.699219 244.742188 384.726562 245.167969 C 381.21875 246.714844 376.378906 246.773438 373.855469 245.457031 C 373.710938 245.378906 373.5625 245.304688 373.429688 245.21875 Z M 68.84375 577.300781 L 179.3125 577.300781 C 179.753906 577.300781 180.109375 576.941406 180.109375 576.503906 C 180.109375 576.0625 179.753906 575.703125 179.3125 575.703125 L 68.84375 575.703125 C 68.402344 575.703125 68.042969 576.0625 68.042969 576.503906 C 68.042969 576.941406 68.402344 577.300781 68.84375 577.300781 Z M 116.875 503.644531 L 116.875 498.84375 L 68.84375 498.84375 C 68.402344 498.84375 68.042969 498.484375 68.042969 498.042969 C 68.042969 497.597656 68.402344 497.242188 68.84375 497.242188 L 179.3125 497.242188 C 179.753906 497.242188 180.109375 497.601562 180.109375 498.042969 C 180.109375 498.484375 179.753906 498.84375 179.3125 498.84375 L 129.679688 498.84375 L 129.679688 503.644531 C 129.679688 507.117188 126.679688 510.050781 123.128906 510.050781 C 119.621094 510.050781 116.875 507.238281 116.875 503.644531 Z M 118.472656 503.644531 C 118.472656 506.339844 120.515625 508.449219 123.125 508.449219 C 125.8125 508.449219 128.078125 506.25 128.078125 503.644531 L 128.078125 498.84375 L 118.472656 498.84375 Z M 184.113281 489.234375 L 64.042969 489.234375 C 63.597656 489.234375 63.242188 489.59375 63.242188 490.035156 C 63.242188 490.476562 63.601562 490.835938 64.042969 490.835938 L 184.113281 490.835938 C 184.554688 490.835938 184.914062 490.476562 184.914062 490.035156 C 184.914062 489.59375 184.554688 489.234375 184.113281 489.234375 Z M 184.113281 594.917969 L 64.042969 594.917969 C 63.597656 594.917969 63.242188 595.273438 63.242188 595.714844 C 63.242188 596.15625 63.601562 596.515625 64.042969 596.515625 L 184.113281 596.515625 C 184.554688 596.515625 184.914062 596.15625 184.914062 595.714844 C 184.914062 595.273438 184.554688 594.917969 184.113281 594.917969 Z M 158.984375 444.597656 C 159.144531 444.582031 162.984375 444.152344 167.113281 440.761719 C 167.453125 440.480469 167.503906 439.972656 167.222656 439.632812 C 166.941406 439.292969 166.4375 439.242188 166.09375 439.523438 C 162.359375 442.59375 158.851562 443.003906 158.816406 443.007812 C 158.378906 443.050781 158.058594 443.445312 158.105469 443.886719 C 158.148438 444.296875 158.496094 444.601562 158.898438 444.601562 C 158.929688 444.601562 158.957031 444.601562 158.984375 444.597656 Z M 103.261719 476.425781 L 96.058594 476.425781 C 95.617188 476.425781 95.261719 476.785156 95.261719 477.226562 C 95.261719 477.667969 95.617188 478.023438 96.058594 478.023438 L 166.601562 478.023438 C 167.046875 478.023438 167.402344 477.667969 167.402344 477.226562 C 167.402344 476.785156 167.042969 476.425781 166.601562 476.425781 Z M 389.765625 460.59375 L 377.136719 465.917969 C 376.730469 466.089844 376.539062 466.5625 376.710938 466.96875 C 376.839844 467.273438 377.136719 467.457031 377.449219 467.457031 C 377.550781 467.457031 377.660156 467.4375 377.757812 467.394531 L 390.386719 462.070312 C 390.792969 461.898438 390.984375 461.429688 390.816406 461.023438 C 390.640625 460.613281 390.171875 460.429688 389.765625 460.59375 Z M 386.179688 447.902344 C 386.003906 447.496094 385.535156 447.308594 385.128906 447.476562 L 372.5 452.800781 C 372.09375 452.972656 371.902344 453.441406 372.074219 453.847656 C 372.203125 454.152344 372.5 454.335938 372.8125 454.335938 C 372.917969 454.335938 373.019531 454.316406 373.121094 454.273438 L 385.75 448.949219 C 386.15625 448.78125 386.347656 448.308594 386.179688 447.902344 Z M 518 410.6875 C 518.324219 410.6875 518.632812 410.488281 518.75 410.164062 C 518.902344 409.75 518.691406 409.289062 518.277344 409.136719 C 517.738281 408.9375 506.605469 404.902344 495.207031 406.691406 C 493.390625 406.976562 491.566406 407.40625 489.78125 408.027344 C 489.363281 408.171875 489.140625 408.628906 489.285156 409.042969 C 489.292969 409.066406 489.3125 409.082031 489.320312 409.105469 C 489.488281 409.480469 489.90625 409.675781 490.304688 409.535156 C 502.757812 405.21875 517.574219 410.582031 517.722656 410.636719 C 517.816406 410.671875 517.90625 410.6875 518 410.6875 Z M 398.378906 197.808594 C 363.820312 197.808594 362.417969 223.101562 362.417969 223.101562 C 362.417969 223.101562 363.882812 223.132812 366.300781 223.164062 C 367.109375 223.175781 368.035156 223.1875 369.042969 223.195312 C 368.351562 223.769531 367.792969 224.519531 367.511719 225.503906 C 367.195312 226.621094 371.597656 224.265625 374.855469 226.070312 C 376.039062 226.730469 376.285156 224.542969 375.484375 223.226562 C 375.636719 223.226562 375.789062 223.226562 375.945312 223.226562 C 380.496094 223.226562 387.542969 217.007812 392.523438 210.644531 C 397.148438 211.421875 401.042969 209.816406 405.84375 217.421875 C 410.648438 225.027344 408.820312 235.824219 412.222656 237.941406 C 412.820312 238.3125 413.710938 237.289062 414.597656 235.378906 C 414.804688 235.332031 415 235.226562 415.113281 235.03125 C 416.328125 232.980469 417.964844 231.9375 419.976562 231.9375 C 420.421875 231.9375 420.777344 231.582031 420.777344 231.140625 C 420.777344 230.699219 420.417969 230.339844 419.976562 230.339844 C 418.480469 230.339844 417.132812 230.804688 415.964844 231.675781 C 416.5625 229.679688 417.074219 227.347656 417.402344 224.839844 C 421.347656 225.773438 424.269531 227.949219 424.269531 232.035156 C 424.269531 236.046875 421.375 240.84375 417.546875 243.433594 C 418.078125 244.40625 418.378906 245.523438 418.378906 246.710938 C 418.378906 249.632812 416.546875 252.125 413.972656 253.113281 C 416.546875 254.105469 418.378906 256.597656 418.378906 259.519531 C 418.378906 260.515625 418.164062 261.453125 417.78125 262.308594 C 422.144531 262.859375 426.441406 263.601562 430.660156 264.511719 C 430.660156 259.332031 430.660156 249.816406 430.660156 236.339844 C 430.660156 215.058594 421.453125 197.808594 398.378906 197.808594 Z M 356.46875 512.460938 C 356.046875 512.40625 355.628906 512.707031 355.566406 513.144531 L 343.105469 603.574219 C 343.101562 603.613281 343.113281 603.648438 343.113281 603.683594 C 343.113281 604.074219 343.390625 604.421875 343.789062 604.476562 C 343.828125 604.484375 343.863281 604.484375 343.902344 604.484375 C 344.292969 604.484375 344.636719 604.195312 344.691406 603.792969 L 344.707031 603.683594 L 357.152344 513.363281 C 357.214844 512.925781 356.90625 512.523438 356.46875 512.460938 Z M 443.050781 512.460938 C 442.613281 512.519531 442.304688 512.925781 442.367188 513.363281 L 454.816406 603.710938 L 454.828125 603.792969 C 454.882812 604.195312 455.226562 604.484375 455.617188 604.484375 C 455.65625 604.484375 455.691406 604.480469 455.726562 604.476562 C 456.121094 604.421875 456.390625 604.089844 456.402344 603.710938 C 456.40625 603.664062 456.417969 603.621094 456.414062 603.574219 L 443.949219 513.144531 C 443.890625 512.703125 443.480469 512.394531 443.050781 512.460938 Z M 397.839844 315.5 C 397.398438 315.5 397.039062 315.859375 397.039062 316.300781 L 397.039062 324.308594 C 397.039062 324.339844 397.054688 324.367188 397.058594 324.398438 C 397.105469 324.796875 397.429688 325.105469 397.839844 325.105469 C 398.25 325.105469 398.574219 324.796875 398.621094 324.398438 C 398.625 324.367188 398.640625 324.339844 398.640625 324.308594 L 398.640625 316.300781 C 398.640625 315.859375 398.28125 315.5 397.839844 315.5 Z M 397.839844 315.5 " fill-opacity="1" fill-rule="nonzero"/></svg>