<svg xmlns="http://www.w3.org/2000/svg" xmlns:xlink="http://www.w3.org/1999/xlink" width="800" zoomAndPan="magnify" viewBox="0 0 600 599.999999" height="800" preserveAspectRatio="xMidYMid meet" version="1.0"><defs><clipPath id="d767108555"><path d="M 31.253906 163 L 569 163 L 569 498 L 31.253906 498 Z M 31.253906 163 " clip-rule="nonzero"/></clipPath><clipPath id="e079a4e45e"><path d="M 31.253906 237 L 455 237 L 455 402 L 31.253906 402 Z M 31.253906 237 " clip-rule="nonzero"/></clipPath><clipPath id="15332b8305"><path d="M 84 101.617188 L 569.003906 101.617188 L 569.003906 498 L 84 498 Z M 84 101.617188 " clip-rule="nonzero"/></clipPath></defs><g clip-path="url(#d767108555)"><path fill="#d18765" d="M 84.574219 175.792969 C 84.574219 169.003906 90.101562 163.480469 96.894531 163.480469 C 103.683594 163.480469 109.210938 169.003906 109.210938 175.792969 C 109.210938 182.578125 103.683594 188.101562 96.894531 188.101562 C 90.101562 188.101562 84.574219 182.578125 84.574219 175.792969 Z M 547.890625 190.851562 L 547.890625 211.414062 L 568.238281 215.40625 L 568.238281 194.839844 Z M 497.613281 477.832031 C 498.5 478.921875 502.570312 486.296875 501.816406 488.546875 C 501.722656 488.832031 501.566406 488.980469 501.292969 489.046875 L 468.957031 497.023438 C 468.628906 497.101562 468.328125 497.144531 468.070312 497.144531 C 467.636719 497.144531 467.320312 497.03125 467.101562 496.796875 C 466.511719 496.171875 466.601562 494.6875 466.648438 493.890625 C 466.808594 491.25 472.085938 487.070312 475.574219 484.308594 C 476.519531 483.5625 477.363281 482.890625 478.007812 482.339844 C 478.398438 482 478.796875 481.839844 479.257812 481.839844 C 479.566406 481.839844 479.914062 481.914062 480.308594 482.066406 L 480.652344 482.195312 L 480.898438 481.925781 C 480.941406 481.878906 480.96875 481.835938 481.011719 481.789062 C 480.839844 481.703125 480.667969 481.628906 480.5 481.5625 C 481.789062 480.136719 481.980469 478.910156 481.230469 477.328125 C 479.917969 474.539062 460.53125 433.730469 455.445312 418.863281 C 455.632812 418.878906 455.835938 418.882812 456.027344 418.894531 C 456.003906 418.828125 455.976562 418.757812 455.957031 418.691406 L 455.839844 418.355469 L 455.480469 418.332031 C 451.292969 418.066406 450.675781 417.429688 450.617188 417.355469 C 450.421875 417.109375 449.855469 415.566406 448.832031 406.65625 L 447.773438 406.605469 C 447.488281 407.964844 447.207031 409.253906 446.941406 410.433594 C 446.492188 412.425781 446.375 414.179688 446.289062 415.460938 C 446.222656 416.445312 446.148438 417.558594 445.929688 417.738281 C 445.71875 417.910156 445.246094 418.144531 444.191406 418.289062 L 443.570312 418.371094 L 443.71875 418.875 C 443.902344 418.859375 444.09375 418.84375 444.261719 418.820312 C 449.273438 435.902344 447.152344 480.515625 448.933594 483.347656 C 449.140625 483.675781 449.324219 484.03125 449.5 484.394531 C 449.300781 484.367188 449.09375 484.367188 448.886719 484.390625 C 448.925781 484.472656 448.972656 484.546875 449.011719 484.628906 L 449.136719 484.886719 L 449.421875 484.929688 C 449.636719 484.960938 450.023438 485.0625 450.171875 485.375 C 450.773438 486.648438 452.960938 494.777344 451.6875 496.785156 C 451.527344 497.039062 451.339844 497.148438 451.058594 497.148438 L 417.75 497.148438 C 416.90625 497.148438 416.339844 496.960938 416.066406 496.585938 C 415.539062 495.867188 416.007812 494.363281 416.261719 493.554688 C 417.050781 491.03125 423.171875 488.238281 427.222656 486.390625 C 428.316406 485.890625 429.296875 485.441406 430.054688 485.058594 C 430.367188 484.902344 430.664062 484.824219 430.960938 484.824219 C 431.398438 484.824219 431.839844 484.988281 432.351562 485.34375 L 432.65625 485.554688 L 432.960938 485.347656 C 433.011719 485.3125 433.050781 485.277344 433.101562 485.242188 C 432.953125 485.121094 432.808594 485.007812 432.660156 484.902344 C 434.253906 483.828125 434.734375 482.679688 434.386719 480.964844 C 434.078125 479.4375 431.613281 467.363281 429.078125 453.777344 C 429.042969 453.601562 429.011719 453.421875 428.980469 453.246094 L 417.070312 455.722656 L 417.238281 456.234375 L 417.769531 456.125 C 418.105469 457.148438 418.367188 457.820312 418.542969 458.058594 C 419.90625 459.917969 422.304688 463.847656 422.230469 466.621094 L 421.691406 466.753906 L 421.675781 467.308594 L 423.183594 466.941406 L 424.101562 470.679688 L 391.011719 478.777344 C 390.683594 478.855469 390.386719 478.894531 390.128906 478.894531 C 389.695312 478.894531 389.375 478.78125 389.15625 478.550781 C 388.566406 477.921875 388.660156 476.4375 388.710938 475.640625 C 388.875 473 394.15625 468.832031 397.652344 466.074219 C 398.597656 465.332031 399.441406 464.664062 400.085938 464.109375 C 400.40625 463.835938 400.796875 463.703125 401.28125 463.703125 C 401.589844 463.703125 401.941406 463.757812 402.320312 463.871094 L 402.714844 463.984375 L 402.929688 463.632812 C 402.949219 463.597656 402.964844 463.566406 402.984375 463.535156 C 402.8125 463.46875 402.640625 463.402344 402.46875 463.351562 C 403.367188 461.867188 403.542969 460.484375 403.003906 459.1875 L 403.535156 459.078125 C 403.523438 459.046875 403.515625 459.015625 403.5 458.984375 L 403.332031 458.570312 L 389.851562 461.371094 C 388.351562 456.160156 375.136719 410.238281 372.546875 398.769531 C 371.988281 396.296875 371.242188 390.972656 370.324219 382.9375 L 369.257812 382.925781 C 368.597656 387.742188 368.078125 392.644531 368.746094 395.890625 C 368.957031 396.914062 369.308594 398.53125 369.757812 400.605469 C 372.578125 413.570312 380.015625 447.753906 379.824219 463.160156 L 366.558594 462.695312 L 366.597656 463.234375 L 367.140625 463.253906 C 367.222656 464.328125 367.316406 465.042969 367.429688 465.3125 C 368.3125 467.445312 369.707031 471.832031 368.980469 474.507812 L 368.421875 474.507812 L 368.277344 475.046875 L 369.824219 475.046875 L 369.824219 478.898438 L 335.757812 478.898438 C 334.914062 478.898438 334.347656 478.710938 334.074219 478.335938 C 333.546875 477.617188 334.015625 476.113281 334.269531 475.304688 C 335.058594 472.777344 341.183594 469.984375 345.234375 468.132812 C 346.328125 467.636719 347.308594 467.191406 348.0625 466.808594 C 348.296875 466.6875 348.542969 466.632812 348.808594 466.632812 C 349.246094 466.632812 349.746094 466.789062 350.289062 467.105469 L 350.648438 467.316406 L 350.941406 467.019531 C 350.96875 466.996094 350.988281 466.96875 351.015625 466.941406 C 350.863281 466.835938 350.710938 466.730469 350.558594 466.640625 C 351.785156 465.410156 352.285156 464.109375 352.070312 462.722656 L 352.613281 462.742188 C 352.609375 462.710938 352.609375 462.675781 352.605469 462.644531 L 352.535156 462.203125 L 338.777344 461.722656 L 338.574219 456.597656 L 317.109375 461.890625 C 316.777344 461.972656 316.476562 462.015625 316.21875 462.015625 C 315.789062 462.015625 315.46875 461.902344 315.25 461.667969 C 314.660156 461.039062 314.75 459.554688 314.800781 458.757812 C 314.960938 456.117188 320.234375 451.941406 323.726562 449.179688 C 324.667969 448.433594 325.511719 447.761719 326.15625 447.207031 C 326.550781 446.871094 326.945312 446.710938 327.40625 446.710938 C 327.71875 446.710938 328.0625 446.785156 328.457031 446.9375 L 328.800781 447.070312 L 329.046875 446.792969 C 329.089844 446.75 329.121094 446.703125 329.160156 446.660156 C 328.988281 446.574219 328.820312 446.5 328.648438 446.433594 C 329.941406 445.007812 330.128906 443.78125 329.382812 442.195312 C 329.230469 441.871094 328.832031 441.039062 328.246094 439.792969 C 328.449219 439.816406 328.65625 439.824219 328.863281 439.839844 L 328.605469 439.292969 L 328.308594 439.257812 C 325.914062 438.992188 323.695312 438.175781 321.878906 436.894531 C 314.316406 431.546875 300.464844 388.855469 299.757812 386.152344 C 298.574219 381.589844 297.507812 375.992188 296.597656 369.519531 L 295.539062 369.484375 L 293.714844 378.273438 C 293.296875 380.289062 294.402344 387.308594 295.804688 396.191406 C 298.121094 410.855469 301.289062 430.9375 298.429688 435.691406 C 297.820312 436.703125 296.988281 437.644531 295.953125 438.484375 L 295.75 438.652344 L 295.753906 438.914062 C 295.757812 439.039062 295.761719 439.152344 295.765625 439.269531 C 295.9375 439.144531 296.128906 439.035156 296.292969 438.902344 C 296.421875 443.988281 296.621094 447.488281 297.082031 448.21875 C 297.289062 448.546875 297.472656 448.898438 297.644531 449.265625 C 297.449219 449.234375 297.238281 449.234375 297.03125 449.257812 C 297.074219 449.339844 297.121094 449.414062 297.160156 449.496094 L 297.285156 449.753906 L 297.566406 449.796875 C 297.785156 449.828125 298.171875 449.925781 298.320312 450.246094 C 298.921875 451.515625 301.105469 459.652344 299.832031 461.65625 C 299.671875 461.90625 299.488281 462.015625 299.207031 462.015625 L 265.898438 462.015625 C 265.054688 462.015625 264.488281 461.828125 264.214844 461.453125 C 263.683594 460.734375 264.15625 459.230469 264.410156 458.421875 C 265.199219 455.894531 271.324219 453.101562 275.375 451.253906 C 276.46875 450.753906 277.445312 450.308594 278.203125 449.925781 C 278.515625 449.769531 278.8125 449.691406 279.109375 449.691406 C 279.546875 449.691406 279.988281 449.855469 280.5 450.210938 L 280.804688 450.421875 L 281.105469 450.214844 C 281.160156 450.179688 281.199219 450.144531 281.25 450.109375 C 281.101562 449.988281 280.953125 449.875 280.808594 449.769531 C 282.402344 448.695312 282.878906 447.546875 282.535156 445.832031 C 282.4375 445.34375 282.121094 443.789062 281.652344 441.464844 C 281.84375 441.519531 282.039062 441.546875 282.230469 441.59375 C 282.160156 441.257812 282.117188 441.039062 282.117188 441.039062 L 281.804688 440.949219 C 279.054688 440.15625 276.707031 438.703125 275.011719 436.738281 L 274.808594 436.503906 L 269.03125 437.671875 L 267.882812 432.003906 L 251.726562 441.179688 L 236.085938 444.347656 C 235.589844 438.679688 245.253906 433.199219 246.84375 432.335938 L 247.808594 432.742188 L 248.042969 432.605469 C 248.15625 432.535156 248.257812 432.464844 248.367188 432.398438 L 247.765625 432.140625 C 254.253906 428.285156 255.550781 423.710938 254.277344 420.6875 C 253.863281 419.707031 251.480469 414.089844 248.355469 406.542969 C 248.542969 406.519531 248.722656 406.488281 248.90625 406.464844 C 248.886719 406.421875 248.871094 406.378906 248.851562 406.335938 L 248.695312 405.960938 L 248.289062 406.011719 C 242.636719 406.703125 236.476562 407.054688 229.96875 407.054688 C 226.363281 407.054688 222.660156 406.945312 218.96875 406.730469 L 218.386719 406.695312 L 218.398438 407.230469 C 218.578125 407.242188 218.753906 407.253906 218.933594 407.265625 C 219.117188 417.800781 219.1875 426.089844 219.921875 427.257812 C 220.53125 428.226562 220.988281 429.285156 221.34375 430.332031 L 220.835938 430.511719 L 221.003906 431.019531 L 221.476562 430.855469 C 221.816406 431.753906 222.511719 433.871094 222.511719 436.222656 L 222.511719 444.445312 L 216.460938 444.445312 L 216.460938 438.664062 L 198.800781 444.445312 L 182.847656 444.445312 C 183.488281 438.796875 194.046875 435.339844 195.773438 434.8125 L 196.640625 435.402344 L 196.898438 435.3125 C 197.023438 435.269531 197.136719 435.21875 197.257812 435.175781 L 196.71875 434.804688 C 203.84375 432.3125 206.023438 428.089844 205.375 424.875 C 205.128906 423.644531 203.488281 415.59375 201.53125 405.421875 C 201.71875 405.449219 201.910156 405.476562 202.097656 405.507812 C 202.085938 405.445312 202.070312 405.382812 202.058594 405.320312 L 201.988281 404.949219 L 201.617188 404.890625 C 192.910156 403.503906 186.34375 401.609375 184.277344 399.90625 C 184.992188 395.027344 194.539062 329.792969 202.875 280.648438 L 202.980469 280.019531 L 202.4375 280.019531 L 202.34375 280.558594 C 202.339844 280.558594 186.332031 281.773438 183.261719 278.613281 C 175.21875 270.332031 207.398438 227.367188 214.160156 224.484375 C 214.59375 224.300781 215.003906 224.1875 215.398438 224.140625 C 217.890625 222.167969 221.375 220.722656 224.957031 220.207031 L 225.289062 220.160156 L 225.390625 219.84375 C 225.722656 218.847656 226.105469 217.765625 226.570312 216.542969 L 226.886719 215.707031 L 226.285156 215.78125 C 226.210938 215.972656 226.140625 216.160156 226.066406 216.351562 C 225.410156 216.433594 224.777344 216.453125 224.203125 216.402344 C 219.773438 216.007812 218.78125 209.898438 220.15625 204.1875 C 220.28125 203.667969 220.445312 203.183594 220.636719 202.730469 C 220.75 202.902344 220.886719 203.058594 221.03125 203.203125 C 221.066406 203.113281 221.09375 203.027344 221.132812 202.9375 L 221.242188 202.671875 L 221.085938 202.433594 C 219.984375 200.765625 220.496094 197.988281 221.378906 196.929688 C 222.472656 195.613281 223.640625 194.972656 224.953125 194.972656 C 225.824219 194.972656 226.757812 195.25 227.816406 195.8125 L 228 195.914062 L 228.203125 195.859375 C 229.359375 195.558594 230.46875 195.40625 231.503906 195.40625 L 231.550781 195.40625 L 231.613281 195.398438 C 232.234375 195.285156 232.84375 195.226562 233.425781 195.226562 C 234.753906 195.226562 235.984375 195.515625 237.179688 196.113281 C 240.816406 198.054688 243.558594 201.972656 244.152344 206.085938 C 246.601562 223.007812 251.332031 236.515625 254.460938 245.457031 C 256.589844 251.535156 258.269531 256.335938 257.40625 257.484375 C 256.824219 258.261719 253.636719 259.378906 246.570312 259.980469 L 246.191406 260.011719 L 246.097656 260.378906 C 244.375 267.101562 242.101562 273.375 240.496094 277.449219 L 240.375 277.757812 L 240.59375 278.003906 C 242.054688 279.640625 244.375 283.523438 247.125 292.746094 C 250.230469 303.148438 259.808594 349.648438 265.238281 376.441406 L 266.304688 376.359375 C 267.097656 360.0625 271.097656 339.777344 272.78125 331.808594 L 272.886719 331.3125 L 272.394531 331.179688 C 268.765625 330.203125 267.898438 329.375 267.722656 329.148438 L 270.941406 308.894531 L 270.316406 308.890625 C 269.886719 308.886719 259.828125 308.652344 258.4375 294.160156 C 257 279.171875 271.234375 249.761719 280.742188 244.058594 C 286.339844 240.699219 291.878906 238.761719 297.203125 238.292969 L 297.691406 238.25 L 297.691406 237.722656 C 297.515625 237.738281 297.332031 237.738281 297.15625 237.757812 L 297.15625 233.707031 C 296.082031 233.957031 295.042969 234.046875 294.140625 233.96875 C 289.710938 233.574219 288.71875 227.464844 290.09375 221.753906 C 290.191406 221.34375 290.320312 220.964844 290.457031 220.59375 C 290.585938 220.746094 290.726562 220.886719 290.882812 221.011719 C 290.910156 220.933594 290.929688 220.867188 290.960938 220.785156 L 291.070312 220.492188 L 290.871094 220.25 C 289.574219 218.703125 290.003906 215.660156 290.972656 214.5 C 292.070312 213.183594 293.238281 212.542969 294.550781 212.542969 C 295.417969 212.542969 296.355469 212.816406 297.410156 213.382812 L 297.597656 213.484375 L 297.800781 213.429688 C 298.953125 213.128906 300.0625 212.976562 301.097656 212.976562 L 301.148438 212.976562 L 301.207031 212.96875 C 301.832031 212.855469 302.441406 212.796875 303.023438 212.796875 C 304.351562 212.796875 305.578125 213.085938 306.773438 213.683594 C 310.621094 215.734375 310.75 219.59375 310.175781 222.46875 C 309.703125 224.863281 308.320312 227.074219 307.207031 228.855469 C 306.523438 229.953125 305.929688 230.902344 305.621094 231.742188 C 305.4375 232.464844 304.457031 232.589844 303.890625 232.601562 L 303.363281 232.617188 L 303.363281 233.121094 C 303.546875 233.132812 303.726562 233.144531 303.902344 233.140625 L 303.902344 237.960938 C 303.722656 237.933594 303.542969 237.917969 303.363281 237.894531 L 303.363281 238.421875 L 303.820312 238.492188 C 308.363281 239.179688 312.742188 241.042969 316.832031 244.03125 C 328.011719 252.199219 340.582031 283.375 336.644531 299.5 C 335.398438 304.609375 332.589844 307.53125 328.300781 308.191406 L 327.8125 308.265625 L 327.847656 308.757812 C 328.300781 315.359375 328.867188 321.289062 329.585938 326.871094 C 328.96875 327.351562 327.035156 328.730469 323.707031 330.167969 L 323.363281 330.316406 L 325.515625 375.671875 C 325.609375 377.734375 328.433594 384.257812 332.011719 392.515625 C 333.238281 395.351562 334.539062 398.363281 335.824219 401.40625 L 336.859375 401.195312 C 336.84375 399.441406 336.84375 397.953125 336.863281 396.804688 C 336.925781 393.285156 337.929688 384.4375 339.851562 370.515625 C 339.679688 370.449219 339.507812 370.386719 339.335938 370.308594 C 339.105469 370.207031 338.875 370.109375 338.652344 369.988281 C 338.617188 370.242188 338.441406 370.484375 338.074219 370.707031 C 335.667969 372.164062 331.300781 368.179688 329.988281 366.042969 C 327.582031 361.378906 328.789062 348.257812 329.054688 344.09375 C 329.324219 339.929688 338.394531 313.480469 345.136719 305.777344 C 346.210938 304.550781 347.03125 302.835938 347.703125 300.800781 L 348.246094 300.863281 L 348.421875 300.339844 L 340.113281 299.417969 C 340.972656 294.300781 347.878906 255.667969 360.816406 255.667969 C 361.246094 255.667969 361.6875 255.710938 362.121094 255.796875 C 363.507812 256.074219 364.800781 256.550781 365.964844 257.21875 L 366.1875 257.347656 L 366.429688 257.253906 C 368.8125 256.335938 371.398438 255.839844 373.914062 255.820312 L 374.445312 255.8125 L 374.445312 255.296875 C 374.265625 255.296875 374.085938 255.28125 373.90625 255.28125 L 373.90625 251.960938 C 372.832031 252.207031 371.796875 252.300781 370.894531 252.21875 C 366.464844 251.828125 365.472656 245.71875 366.847656 240.003906 C 366.972656 239.484375 367.140625 239.003906 367.328125 238.546875 C 367.441406 238.71875 367.578125 238.875 367.726562 239.023438 C 367.757812 238.933594 367.789062 238.847656 367.824219 238.753906 L 367.933594 238.492188 L 367.777344 238.25 C 366.675781 236.585938 367.1875 233.808594 368.070312 232.746094 C 369.164062 231.429688 370.335938 230.792969 371.644531 230.792969 C 372.515625 230.792969 373.449219 231.066406 374.507812 231.632812 L 374.695312 231.730469 L 375.285156 231.570312 C 376.15625 231.324219 377.609375 230.914062 379.386719 230.914062 C 380.984375 230.914062 382.496094 231.257812 383.875 231.933594 C 386.621094 233.28125 389.320312 236.550781 389.167969 240.8125 L 389.152344 241.28125 L 389.613281 241.359375 C 394.878906 242.269531 399.382812 248.027344 400.949219 252.984375 C 403.191406 259.214844 401.980469 263.851562 400.582031 269.222656 L 400.355469 270.082031 L 400.425781 270.25 C 405.265625 281.707031 405.886719 296.777344 405.964844 299.691406 L 402.640625 299.96875 L 402.617188 300.4375 C 402.617188 300.460938 402.613281 300.484375 402.613281 300.511719 L 403.152344 300.464844 C 402.757812 308.871094 400.144531 319.539062 390.09375 323.488281 C 390.03125 323.320312 389.96875 323.152344 389.90625 322.984375 C 389.902344 322.984375 389.902344 322.988281 389.898438 322.988281 L 389.40625 323.183594 L 389.589844 323.675781 C 392.714844 332.199219 395.078125 339.898438 396.609375 346.554688 C 398.640625 355.378906 399.449219 364.136719 400.160156 371.863281 C 400.914062 380.0625 401.511719 386.539062 403.300781 390.3125 C 403.746094 391.253906 404.46875 392.734375 405.398438 394.636719 C 410.230469 404.527344 420.28125 425.105469 426.210938 440.941406 L 426.726562 440.800781 C 426.722656 440.785156 426.71875 440.769531 426.71875 440.753906 C 424.839844 429.984375 423.324219 420.046875 423.195312 415.382812 C 423.195312 415.355469 423.195312 415.320312 423.191406 415.289062 C 423.367188 415.355469 423.554688 415.417969 423.738281 415.480469 C 423.734375 415.445312 423.734375 415.40625 423.734375 415.371094 L 423.722656 415.007812 L 423.378906 414.785156 C 418.757812 413.089844 418.195312 411.910156 418.132812 411.585938 C 417.699219 409.386719 420.183594 392.707031 424.777344 366.960938 L 424.863281 366.476562 L 424.386719 366.347656 C 420.679688 365.363281 419.773438 364.527344 419.582031 364.289062 L 423.195312 346.0625 C 422.988281 346.203125 422.78125 346.335938 422.570312 346.449219 C 421.0625 347.273438 419.429688 347.46875 417.667969 346.699219 C 409.078125 342.949219 411.738281 326.574219 412.863281 321.238281 C 412.902344 321.042969 412.9375 320.875 412.976562 320.710938 L 410.21875 319.957031 C 411.921875 315.433594 423.828125 284.449219 432.597656 279.1875 C 437.972656 275.964844 443.5 274.191406 449.035156 273.90625 L 449.542969 273.882812 L 449.542969 273.359375 C 449.367188 273.363281 449.183594 273.363281 449.007812 273.371094 L 449.007812 268.839844 C 447.933594 269.085938 446.894531 269.179688 445.992188 269.097656 C 441.5625 268.707031 440.570312 262.597656 441.945312 256.882812 C 442.046875 256.476562 442.171875 256.09375 442.3125 255.726562 C 442.4375 255.878906 442.582031 256.015625 442.734375 256.140625 C 442.761719 256.066406 442.785156 255.996094 442.8125 255.914062 L 442.925781 255.621094 L 442.722656 255.378906 C 441.398438 253.804688 441.835938 250.734375 442.8125 249.640625 C 444.453125 247.808594 446.878906 246.878906 450.015625 246.878906 C 453.890625 246.878906 457.625 248.3125 458.628906 248.8125 C 461.792969 250.5 463.589844 254.023438 463.300781 257.996094 C 462.863281 264.0625 458.53125 266.96875 455.746094 267.023438 L 455.21875 267.03125 L 455.21875 267.539062 C 455.394531 267.554688 455.574219 267.5625 455.757812 267.558594 L 455.757812 273.753906 C 455.574219 273.722656 455.398438 273.703125 455.21875 273.679688 L 455.21875 274.207031 L 455.667969 274.28125 C 460.027344 274.996094 464.421875 276.648438 468.734375 279.191406 C 480.417969 286.089844 489.929688 313.636719 491.210938 317.488281 C 490.554688 317.796875 489.183594 318.425781 487.492188 319.144531 L 487.082031 319.320312 L 487.179688 319.753906 C 487.183594 319.785156 487.191406 319.816406 487.199219 319.851562 C 487.367188 319.78125 487.542969 319.707031 487.703125 319.636719 C 489.890625 329.671875 490.6875 343.453125 483.261719 346.695312 C 482.09375 347.207031 480.933594 347.289062 479.800781 347.054688 C 479.769531 346.867188 479.742188 346.675781 479.714844 346.488281 L 479.152344 346.371094 L 479.785156 350.617188 C 480.511719 355.523438 481.148438 359.792969 481.441406 362 C 480.832031 362.472656 478.957031 363.808594 475.738281 365.21875 L 475.320312 365.402344 L 475.433594 365.84375 C 476.695312 370.757812 476.792969 380.15625 476.890625 390.105469 C 476.945312 395.824219 477.007812 401.734375 477.300781 406.949219 C 477.460938 409.84375 478.027344 411.945312 478.398438 413.335938 C 478.609375 414.117188 478.8125 414.859375 478.734375 415.09375 C 478.679688 415.261719 478.394531 415.722656 476.90625 416.277344 L 476.347656 416.488281 L 476.582031 416.953125 C 476.753906 416.898438 476.9375 416.839844 477.09375 416.78125 C 485.628906 433.730469 493.628906 473.933594 495.933594 476.15625 C 496.210938 476.425781 496.476562 476.726562 496.730469 477.039062 C 496.535156 477.058594 496.332031 477.109375 496.136719 477.179688 C 496.195312 477.25 496.257812 477.308594 496.316406 477.378906 L 496.496094 477.601562 L 496.785156 477.574219 C 496.835938 477.570312 496.886719 477.566406 496.9375 477.566406 C 497.144531 477.566406 497.4375 477.613281 497.613281 477.832031 Z M 270.4375 422.671875 L 270.09375 420.679688 C 269.203125 415.511719 268.394531 409.300781 267.679688 402.214844 L 267.609375 401.523438 L 266.960938 401.765625 C 266.136719 402.070312 265.292969 402.363281 264.429688 402.636719 L 263.964844 402.789062 L 264.078125 403.300781 C 264.246094 403.246094 264.425781 403.203125 264.59375 403.148438 C 266.601562 412.269531 268.128906 419.214844 269.003906 420.136719 C 269.199219 420.339844 269.386719 420.554688 269.566406 420.769531 C 269.628906 421.140625 269.695312 421.492188 269.761719 421.851562 Z M 340.597656 365.117188 C 340.425781 365.019531 340.253906 364.921875 340.097656 364.820312 C 339.742188 364.59375 339.445312 364.363281 339.222656 364.144531 C 339.414062 364.335938 339.710938 364.59375 340.085938 364.902344 C 340.238281 365.027344 340.398438 365.160156 340.570312 365.296875 Z M 344.058594 341.519531 L 343.582031 341.347656 C 343.566406 341.378906 343.546875 341.410156 343.527344 341.441406 C 340.957031 345.726562 339.199219 348.753906 339.238281 349.152344 C 341.09375 351.367188 341.34375 354.097656 341.316406 356.363281 C 341.316406 356.375 341.3125 356.386719 341.3125 356.398438 L 341.847656 356.441406 C 342.578125 351.421875 343.328125 346.363281 344.058594 341.519531 Z M 388.757812 257.324219 L 389.410156 257.542969 L 389.464844 256.859375 C 389.511719 256.324219 389.535156 255.785156 389.535156 255.242188 C 389.535156 252.917969 389.367188 249.527344 387.914062 246.933594 L 387.488281 246.175781 L 387 246.894531 L 386.839844 247.144531 C 385.554688 248.96875 382.683594 250.214844 380.558594 250.597656 L 380.117188 250.675781 L 380.117188 251.214844 C 380.128906 251.214844 380.140625 251.214844 380.152344 251.214844 C 380.316406 251.195312 380.488281 251.15625 380.652344 251.125 L 380.652344 256.351562 C 380.472656 256.289062 380.296875 256.25 380.117188 256.195312 L 380.117188 256.738281 L 380.480469 256.859375 C 380.710938 256.9375 380.9375 257.019531 381.167969 257.105469 L 381.367188 257.183594 L 381.566406 257.101562 C 382.371094 256.765625 383.246094 256.597656 384.164062 256.59375 L 384.203125 256.59375 C 385.792969 256.597656 387.328125 256.839844 388.757812 257.324219 Z M 56.113281 273.507812 L 31.976562 369.296875 L 67.679688 369.296875 L 69.1875 381.988281 L 173.136719 381.988281 L 160.25 273.507812 Z M 56.113281 273.507812 " fill-opacity="1" fill-rule="nonzero"/></g><path fill="#fcd116" d="M 568.515625 194.648438 L 568.515625 216.007812 L 547.351562 211.855469 L 547.351562 190.496094 Z M 403.785156 390.082031 C 400.371094 382.875 401.308594 364.574219 397.132812 346.429688 C 395.328125 338.585938 392.601562 330.335938 390.09375 323.488281 C 388.746094 319.820312 387.464844 316.558594 386.417969 313.980469 C 383.058594 314.765625 380.109375 309.199219 374.625 309.523438 C 369.789062 309.808594 362.449219 316.054688 358.644531 315.816406 C 354.378906 323.625 347.820312 334.285156 343.53125 341.441406 C 342.800781 346.285156 342.046875 351.34375 341.316406 356.363281 C 341.300781 357.753906 341.179688 358.972656 341.261719 359.785156 C 341.699219 362.503906 346.132812 363.554688 345.652344 365.496094 C 345.253906 367.105469 341.960938 366.015625 340.101562 364.820312 C 340.097656 364.847656 340.09375 364.875 340.089844 364.902344 C 342.515625 366.902344 347.765625 370.921875 342.890625 371.089844 C 341.722656 371.15625 340.507812 370.835938 339.335938 370.304688 C 337.65625 382.488281 336.398438 392.792969 336.324219 396.789062 C 336.304688 397.941406 336.304688 399.4375 336.320312 401.195312 C 336.398438 409.914062 336.886719 425.199219 337.351562 438.296875 C 337.492188 442.253906 337.632812 446.007812 337.757812 449.324219 C 337.875 452.425781 337.980469 455.144531 338.0625 457.277344 C 338.183594 460.378906 338.261719 462.238281 338.261719 462.238281 L 352.074219 462.722656 L 367.140625 463.253906 L 380.351562 463.714844 C 380.792969 446.238281 370.878906 403.59375 369.273438 395.78125 C 368.660156 392.789062 369.054688 388.359375 369.789062 383 C 370.632812 390.382812 371.414062 396.179688 372.023438 398.890625 C 374.792969 411.144531 389.472656 462 389.472656 462 L 403.003906 459.191406 L 417.765625 456.125 L 429.074219 453.773438 C 428.273438 449.488281 427.464844 445.054688 426.714844 440.75 C 419.613281 421.792969 406.507812 395.824219 403.785156 390.082031 Z M 371.96875 303.625 C 372.011719 303.460938 376.394531 287.09375 375.199219 273.507812 L 375.148438 272.972656 L 373.5625 273.113281 L 373.609375 273.648438 C 374.792969 287.097656 370.472656 303.046875 370.429688 303.207031 L 370.289062 303.726562 L 371.828125 304.144531 Z M 169.25 344.6875 L 160.730469 272.96875 L 55.695312 272.96875 L 43.011719 359.6875 L 67.199219 369.832031 L 68.707031 382.523438 L 173.742188 382.523438 L 169.3125 345.230469 Z M 169.25 344.6875 " fill-opacity="1" fill-rule="nonzero"/><path fill="#ce1126" d="M 106.871094 183.886719 C 106.636719 184.175781 106.386719 184.453125 106.128906 184.71875 C 106.105469 184.742188 106.085938 184.765625 106.0625 184.792969 C 105.78125 185.074219 105.488281 185.347656 105.183594 185.605469 C 105.179688 185.605469 105.175781 185.609375 105.171875 185.613281 C 103 187.445312 100.207031 188.566406 97.15625 188.625 C 97.15625 188.625 97.152344 188.625 97.152344 188.625 C 97.066406 188.628906 96.980469 188.640625 96.894531 188.640625 C 96.804688 188.640625 96.722656 188.628906 96.632812 188.625 C 93.578125 188.566406 90.789062 187.445312 88.613281 185.613281 C 88.609375 185.609375 88.605469 185.601562 88.597656 185.597656 C 88.296875 185.339844 88.003906 185.074219 87.726562 184.789062 C 87.703125 184.765625 87.683594 184.742188 87.660156 184.71875 C 87.402344 184.449219 87.152344 184.175781 86.917969 183.886719 C 86.875 183.835938 86.839844 183.78125 86.800781 183.730469 C 86.589844 183.460938 86.382812 183.191406 86.195312 182.90625 C 86.140625 182.828125 86.09375 182.738281 86.042969 182.660156 C 85.878906 182.398438 85.710938 182.136719 85.5625 181.859375 C 85.5 181.742188 85.449219 181.617188 85.390625 181.5 C 85.265625 181.25 85.140625 181.007812 85.035156 180.75 C 84.96875 180.59375 84.917969 180.429688 84.855469 180.265625 C 84.773438 180.039062 84.679688 179.8125 84.609375 179.582031 C 84.546875 179.378906 84.5 179.171875 84.449219 178.964844 C 84.398438 178.761719 84.339844 178.566406 84.296875 178.359375 C 84.242188 178.101562 84.210938 177.832031 84.175781 177.570312 C 84.152344 177.410156 84.121094 177.253906 84.105469 177.09375 C 84.0625 176.664062 84.039062 176.230469 84.039062 175.789062 C 84.039062 175.347656 84.0625 174.914062 84.105469 174.484375 C 84.121094 174.320312 84.152344 174.167969 84.175781 174.007812 C 84.210938 173.742188 84.242188 173.476562 84.296875 173.21875 C 84.339844 173.011719 84.398438 172.816406 84.449219 172.613281 C 84.503906 172.40625 84.546875 172.199219 84.609375 171.996094 C 84.679688 171.761719 84.773438 171.539062 84.855469 171.308594 C 84.917969 171.148438 84.96875 170.984375 85.035156 170.828125 C 85.140625 170.570312 85.265625 170.324219 85.390625 170.078125 C 85.449219 169.957031 85.5 169.835938 85.5625 169.714844 C 85.710938 169.441406 85.875 169.179688 86.042969 168.917969 C 86.09375 168.835938 86.140625 168.75 86.195312 168.667969 C 86.382812 168.386719 86.589844 168.113281 86.800781 167.847656 C 86.839844 167.796875 86.875 167.742188 86.917969 167.691406 C 87.152344 167.402344 87.402344 167.128906 87.660156 166.859375 C 87.683594 166.835938 87.703125 166.8125 87.726562 166.789062 C 88.003906 166.503906 88.296875 166.234375 88.597656 165.976562 C 88.605469 165.972656 88.609375 165.96875 88.613281 165.964844 C 90.789062 164.128906 93.578125 163.011719 96.632812 162.949219 C 96.722656 162.949219 96.804688 162.9375 96.894531 162.9375 C 96.980469 162.9375 97.066406 162.949219 97.152344 162.949219 C 97.152344 162.949219 97.15625 162.949219 97.15625 162.949219 C 100.207031 163.011719 103 164.128906 105.171875 165.964844 C 105.175781 165.96875 105.179688 165.972656 105.183594 165.972656 C 105.488281 166.230469 105.78125 166.5 106.0625 166.785156 C 106.085938 166.808594 106.105469 166.835938 106.128906 166.859375 C 106.386719 167.125 106.636719 167.402344 106.871094 167.6875 C 106.910156 167.738281 106.945312 167.789062 106.980469 167.835938 C 107.195312 168.105469 107.402344 168.378906 107.59375 168.664062 C 107.644531 168.746094 107.6875 168.828125 107.742188 168.910156 C 107.910156 169.171875 108.074219 169.4375 108.222656 169.710938 C 108.285156 169.828125 108.335938 169.953125 108.394531 170.070312 C 108.519531 170.320312 108.644531 170.566406 108.753906 170.820312 C 108.820312 170.980469 108.871094 171.148438 108.929688 171.308594 C 109.015625 171.535156 109.105469 171.757812 109.179688 171.992188 C 109.238281 172.195312 109.285156 172.402344 109.335938 172.609375 C 109.386719 172.8125 109.449219 173.007812 109.488281 173.210938 C 109.542969 173.46875 109.574219 173.734375 109.609375 173.996094 C 109.632812 174.15625 109.664062 174.316406 109.683594 174.476562 C 109.726562 174.90625 109.746094 175.34375 109.746094 175.78125 C 109.746094 176.222656 109.726562 176.660156 109.683594 177.089844 C 109.667969 177.25 109.632812 177.410156 109.609375 177.570312 C 109.574219 177.832031 109.542969 178.097656 109.488281 178.355469 C 109.449219 178.558594 109.386719 178.753906 109.335938 178.957031 C 109.285156 179.164062 109.238281 179.375 109.179688 179.574219 C 109.105469 179.808594 109.015625 180.03125 108.929688 180.257812 C 108.871094 180.417969 108.820312 180.585938 108.753906 180.742188 C 108.644531 181 108.519531 181.246094 108.394531 181.496094 C 108.335938 181.613281 108.285156 181.738281 108.222656 181.855469 C 108.074219 182.128906 107.90625 182.394531 107.742188 182.65625 C 107.6875 182.738281 107.644531 182.820312 107.59375 182.898438 C 107.402344 183.1875 107.195312 183.460938 106.980469 183.730469 C 106.945312 183.789062 106.910156 183.839844 106.871094 183.886719 Z M 491.863281 317.769531 C 491.863281 317.769531 481.828125 286.304688 469 278.726562 C 464.394531 276.007812 459.964844 274.441406 455.75 273.753906 C 453.433594 273.375 451.179688 273.257812 449.003906 273.371094 C 442.800781 273.683594 437.183594 275.808594 432.316406 278.726562 C 422.628906 284.539062 409.503906 320.320312 409.503906 320.320312 L 412.859375 321.238281 C 413.082031 320.175781 413.246094 319.539062 413.246094 319.539062 L 434.058594 323.304688 C 434.058594 323.304688 429.867188 342.457031 422.566406 346.449219 L 419.015625 364.363281 C 419.015625 364.363281 419.109375 365.503906 424.246094 366.867188 C 427.949219 367.847656 436.230469 373.867188 447.039062 374.734375 C 462.097656 375.945312 470.179688 368.238281 475.949219 365.714844 C 480.066406 363.910156 482.007812 362.234375 482.007812 362.234375 C 481.671875 359.660156 480.769531 353.652344 479.792969 347.054688 C 478.386719 337.554688 476.824219 326.824219 476.582031 323.3125 C 479.785156 322.820312 484.378906 321.050781 487.695312 319.640625 C 490.121094 318.609375 491.863281 317.769531 491.863281 317.769531 Z M 265.765625 376.332031 C 259.957031 347.691406 250.703125 302.859375 247.640625 292.589844 C 244.8125 283.125 242.417969 279.238281 240.992188 277.644531 C 242.78125 273.105469 244.953125 267.003906 246.613281 260.511719 C 239.027344 261.15625 224.339844 221.320312 224.878906 219.675781 C 220.3125 220.328125 216.429688 222.359375 214.15625 224.480469 C 220.914062 221.597656 222.621094 236.011719 219.84375 245.003906 C 217.066406 253.996094 203.601562 273.191406 203.601562 273.191406 L 202.339844 280.554688 C 198.613281 302.535156 194.667969 327.566406 191.371094 349.027344 C 191.34375 349.195312 191.316406 349.367188 191.292969 349.539062 C 186.914062 378.039062 183.703125 400.113281 183.703125 400.113281 C 185.625 401.972656 192.367188 403.960938 201.53125 405.417969 C 206.703125 406.242188 212.644531 406.898438 218.933594 407.261719 C 228.457031 407.820312 238.761719 407.71875 248.351562 406.539062 C 254.136719 405.832031 259.660156 404.726562 264.59375 403.148438 C 265.460938 402.871094 266.3125 402.578125 267.144531 402.269531 C 266.109375 391.988281 265.625 383.195312 265.621094 382.003906 C 265.617188 380.191406 265.667969 378.285156 265.765625 376.332031 Z M 265.765625 376.332031 " fill-opacity="1" fill-rule="nonzero"/><g clip-path="url(#e079a4e45e)"><path fill="#0038a8" d="M 328.378906 308.71875 C 328.789062 314.664062 329.339844 320.816406 330.15625 327.101562 C 330.15625 327.101562 328.160156 328.824219 323.917969 330.65625 C 318.121094 333.164062 308.863281 342.605469 293.960938 341.410156 C 283.011719 340.535156 275.933594 332.6875 272.253906 331.695312 C 267.253906 330.347656 267.164062 329.226562 267.164062 329.226562 L 270.308594 309.421875 C 270.308594 309.421875 259.355469 309.394531 257.902344 294.207031 C 256.445312 279.019531 270.777344 249.40625 280.464844 243.59375 C 285.246094 240.726562 290.96875 238.296875 297.152344 237.753906 C 299.351562 237.558594 301.605469 237.605469 303.898438 237.953125 C 308.230469 238.609375 312.695312 240.339844 317.148438 243.59375 C 332.410156 254.75 348.714844 305.59375 328.378906 308.71875 Z M 296.226562 366.34375 L 297.792969 366.644531 L 302.328125 343.160156 L 300.761719 342.859375 Z M 452.605469 377.996094 L 448.074219 401.480469 L 449.640625 401.785156 L 454.171875 378.300781 Z M 31.285156 369.832031 L 67.199219 369.832031 L 55.695312 272.96875 Z M 31.285156 369.832031 " fill-opacity="1" fill-rule="nonzero"/></g><g clip-path="url(#15332b8305)"><path fill="#000000" d="M 568.828125 194.179688 L 96.945312 101.660156 C 96.867188 101.644531 96.789062 101.664062 96.730469 101.714844 C 96.667969 101.761719 96.632812 101.835938 96.632812 101.914062 L 96.632812 272.96875 L 97.152344 272.96875 L 97.152344 102.226562 L 547.351562 190.496094 L 568.515625 194.648438 L 568.515625 422.972656 L 477.742188 405.171875 C 477.105469 391.207031 477.886719 373.25 475.949219 365.710938 C 470.179688 368.238281 460.128906 371.019531 445.070312 369.808594 C 434.261719 368.941406 427.949219 367.847656 424.246094 366.863281 C 422.273438 377.917969 416.949219 408.378906 417.601562 411.6875 C 417.832031 412.863281 420.0625 414.136719 423.191406 415.285156 C 429.566406 417.628906 439.675781 419.441406 444.261719 418.816406 C 445.167969 418.691406 445.863281 418.476562 446.265625 418.148438 C 447.039062 417.519531 446.554688 414.582031 447.464844 410.550781 C 447.730469 409.367188 448.011719 408.074219 448.296875 406.714844 C 448.976562 412.617188 449.644531 416.988281 450.195312 417.6875 C 450.683594 418.304688 452.695312 418.691406 455.445312 418.863281 C 461.929688 419.273438 472.535156 418.492188 477.089844 416.78125 C 478.28125 416.335938 479.058594 415.828125 479.242188 415.257812 C 479.539062 414.339844 478.105469 411.808594 477.832031 406.917969 C 477.808594 406.519531 477.789062 406.113281 477.769531 405.707031 L 568.726562 423.542969 C 568.746094 423.546875 568.761719 423.546875 568.777344 423.546875 C 568.835938 423.546875 568.894531 423.523438 568.941406 423.488281 C 569.003906 423.4375 569.035156 423.363281 569.035156 423.285156 L 569.035156 194.433594 C 569.035156 194.3125 568.949219 194.203125 568.828125 194.179688 Z M 449.214844 401.152344 L 448.703125 401.054688 L 453.035156 378.628906 L 453.542969 378.726562 Z M 191.292969 349.539062 L 169.3125 345.230469 L 169.246094 344.6875 L 191.371094 349.027344 C 191.34375 349.199219 191.320312 349.371094 191.292969 349.539062 Z M 221.78125 430.179688 C 221.78125 430.179688 223.046875 432.957031 223.046875 436.21875 C 223.046875 439.484375 223.046875 444.984375 223.046875 444.984375 L 215.921875 444.984375 L 215.921875 439.40625 L 198.886719 444.984375 L 182.277344 444.984375 C 182.277344 438.046875 195.867188 434.222656 195.867188 434.222656 L 196.71875 434.804688 L 200.78125 437.582031 L 221.339844 430.332031 Z M 226.035156 209.550781 C 225.890625 209.550781 225.777344 209.433594 225.777344 209.292969 C 225.777344 206.878906 227.667969 206.632812 227.6875 206.628906 C 227.824219 206.613281 227.960938 206.710938 227.976562 206.855469 C 227.992188 206.996094 227.890625 207.125 227.75 207.140625 C 227.691406 207.148438 226.292969 207.351562 226.292969 209.289062 C 226.296875 209.433594 226.179688 209.550781 226.035156 209.550781 Z M 227.9375 259.40625 C 224.25 256.859375 227.441406 251.851562 226.878906 244.488281 C 226.21875 235.859375 222.277344 233.417969 223.664062 224.425781 C 223.890625 222.953125 224.339844 221.320312 224.878906 219.675781 C 225.246094 218.5625 225.652344 217.4375 226.066406 216.351562 C 227.230469 213.28125 228.421875 210.480469 228.765625 208.894531 C 228.078125 210.089844 226.675781 211.121094 225.429688 211.121094 C 225.285156 211.121094 225.171875 211.003906 225.171875 210.859375 C 225.171875 210.71875 225.285156 210.601562 225.429688 210.601562 C 226.996094 210.601562 228.675781 208.78125 228.675781 207.496094 C 228.675781 206.839844 228.253906 206.167969 227.625 205.824219 C 227.03125 205.496094 226.359375 205.523438 225.785156 205.886719 C 225.769531 205.898438 225.75 205.890625 225.734375 205.898438 C 225.371094 206.261719 225.128906 206.882812 224.761719 207.71875 C 224.117188 209.1875 222.882812 210.160156 222.300781 209.835938 C 221.714844 209.511719 223.238281 204.578125 221.714844 203.742188 C 221.261719 203.488281 220.90625 203.140625 220.632812 202.730469 C 219.433594 200.910156 219.894531 197.863281 220.960938 196.585938 C 223.230469 193.859375 225.679688 194.0625 228.066406 195.339844 C 229.308594 195.015625 230.457031 194.867188 231.515625 194.867188 C 233.480469 194.507812 235.449219 194.648438 237.417969 195.632812 C 241.308594 197.707031 244.078125 201.832031 244.683594 206.007812 C 248.980469 235.683594 260.230469 254.609375 257.835938 257.804688 C 256.855469 259.109375 252.089844 260.046875 246.617188 260.511719 C 239.027344 261.15625 230.074219 260.886719 227.9375 259.40625 Z M 198.269531 279.339844 C 198.207031 279.339844 198.144531 279.320312 198.09375 279.273438 C 197.988281 279.179688 197.980469 279.015625 198.074219 278.90625 L 202.472656 274.03125 C 202.570312 273.925781 202.734375 273.914062 202.839844 274.011719 C 202.945312 274.109375 202.953125 274.273438 202.859375 274.378906 L 198.460938 279.253906 C 198.410156 279.3125 198.339844 279.339844 198.269531 279.339844 Z M 298.808594 450.011719 C 299.359375 451.1875 302.664062 462.550781 299.203125 462.550781 C 295.742188 462.550781 269.105469 462.550781 265.898438 462.550781 C 262.691406 462.550781 263.335938 460.042969 263.894531 458.257812 C 264.972656 454.8125 274.222656 451.335938 277.957031 449.441406 C 279.019531 448.90625 279.929688 449.160156 280.804688 449.769531 C 283.011719 451.300781 284.980469 455.152344 288.511719 454.8125 C 293.441406 454.335938 294.53125 451.777344 295.226562 450.394531 C 295.664062 449.519531 296.757812 449.132812 297.644531 449.261719 C 298.15625 449.335938 298.601562 449.582031 298.808594 450.011719 Z M 338.058594 457.277344 C 329.5 459.386719 319.136719 461.941406 317.238281 462.410156 C 314.121094 463.179688 314.148438 460.589844 314.261719 458.722656 C 314.480469 455.117188 322.632812 449.527344 325.804688 446.796875 C 326.707031 446.023438 327.652344 446.050781 328.648438 446.429688 C 331.15625 447.390625 333.992188 450.660156 337.335938 449.484375 C 337.484375 449.429688 337.613281 449.375 337.753906 449.320312 C 337.871094 452.425781 337.976562 455.144531 338.058594 457.277344 Z M 268.609375 438.304688 L 274.605469 437.089844 C 276.460938 439.238281 278.949219 440.683594 281.652344 441.460938 C 286.699219 442.917969 292.472656 442.011719 296.292969 438.898438 C 297.308594 438.070312 298.203125 437.105469 298.886719 435.964844 C 303.546875 428.226562 293.144531 383.65625 294.238281 378.378906 C 294.503906 377.105469 295.183594 373.824219 296.0625 369.589844 C 296.890625 375.480469 297.933594 381.269531 299.238281 386.285156 C 299.945312 388.992188 313.71875 431.777344 321.570312 437.332031 C 323.554688 438.734375 325.863281 439.527344 328.246094 439.789062 C 331.339844 440.132812 334.546875 439.570312 337.347656 438.296875 C 336.882812 425.199219 336.394531 409.914062 336.316406 401.195312 C 331.378906 389.488281 326.171875 378.296875 326.046875 375.644531 C 325.816406 370.71875 324.195312 336.484375 323.917969 330.65625 C 318.121094 333.164062 308.125 335.875 293.222656 334.679688 C 282.273438 333.800781 275.933594 332.6875 272.253906 331.695312 C 270.488281 340.050781 266.554688 360.109375 265.765625 376.332031 C 265.667969 378.285156 265.617188 380.191406 265.621094 382.007812 C 265.625 383.195312 266.109375 391.988281 267.144531 402.269531 C 267.753906 408.339844 268.554688 414.921875 269.5625 420.769531 C 269.722656 421.679688 269.882812 422.570312 270.046875 423.441406 L 252.296875 434.054688 L 247.761719 432.140625 L 246.8125 431.738281 C 246.8125 431.738281 234.253906 438.183594 235.632812 444.984375 L 251.910156 441.6875 L 267.5 432.835938 Z M 301.1875 343.488281 L 301.695312 343.585938 L 297.367188 366.015625 L 296.859375 365.917969 Z M 295.972656 227.117188 C 295.832031 227.117188 295.714844 227 295.714844 226.855469 C 295.714844 224.441406 297.609375 224.195312 297.628906 224.195312 C 297.765625 224.175781 297.898438 224.28125 297.917969 224.421875 C 297.933594 224.5625 297.832031 224.691406 297.6875 224.707031 C 297.621094 224.71875 296.234375 224.921875 296.234375 226.855469 C 296.234375 227 296.117188 227.117188 295.972656 227.117188 Z M 272.800781 307.921875 C 272.660156 307.890625 272.570312 307.753906 272.601562 307.613281 L 281.957031 264.378906 C 281.984375 264.238281 282.125 264.148438 282.265625 264.179688 C 282.40625 264.210938 282.496094 264.347656 282.464844 264.488281 L 273.109375 307.722656 C 273.082031 307.84375 272.972656 307.929688 272.855469 307.929688 C 272.835938 307.929688 272.816406 307.925781 272.800781 307.921875 Z M 326.925781 305.976562 L 321.203125 264.472656 C 321.183594 264.328125 321.285156 264.199219 321.425781 264.179688 C 321.5625 264.160156 321.699219 264.257812 321.71875 264.398438 L 327.441406 305.902344 C 327.460938 306.046875 327.359375 306.175781 327.21875 306.195312 C 327.207031 306.199219 327.195312 306.199219 327.183594 306.199219 C 327.054688 306.199219 326.945312 306.105469 326.925781 305.976562 Z M 299.800781 231.535156 C 299.847656 230.28125 300.796875 227.253906 299.933594 224.660156 C 299.386719 223.027344 298.433594 222.789062 297.628906 222.863281 C 297.691406 222.890625 297.753906 222.902344 297.8125 222.933594 C 298.613281 223.375 299.132812 224.207031 299.132812 225.0625 C 299.132812 226.71875 297.089844 228.6875 295.367188 228.6875 C 295.226562 228.6875 295.109375 228.570312 295.109375 228.425781 C 295.109375 228.285156 295.226562 228.167969 295.367188 228.167969 C 296.933594 228.167969 298.613281 226.34375 298.613281 225.0625 C 298.613281 224.40625 298.191406 223.730469 297.566406 223.390625 C 297.027344 223.097656 296.433594 223.101562 295.902344 223.371094 C 295.171875 223.929688 294.78125 225.207031 294.785156 225.957031 C 294.789062 226.882812 292.398438 226.734375 292.363281 226 C 292.328125 225.265625 292.832031 222.144531 291.3125 221.304688 C 290.972656 221.117188 290.691406 220.871094 290.457031 220.59375 C 288.980469 218.828125 289.429688 215.503906 290.558594 214.148438 C 292.824219 211.425781 295.277344 211.628906 297.664062 212.90625 C 298.902344 212.582031 300.050781 212.433594 301.109375 212.433594 C 303.078125 212.074219 305.042969 212.214844 307.011719 213.199219 C 310.585938 215.101562 311.480469 218.652344 310.703125 222.570312 C 309.925781 226.488281 306.917969 229.765625 306.125 231.921875 C 305.914062 232.773438 304.984375 233.109375 303.902344 233.136719 C 302.0625 233.179688 299.773438 232.324219 299.800781 231.535156 Z M 424.746094 471.074219 C 424.746094 471.074219 394.25 478.535156 391.136719 479.296875 C 388.023438 480.058594 388.054688 477.472656 388.171875 475.605469 C 388.398438 472 396.554688 466.425781 399.734375 463.699219 C 400.457031 463.082031 401.417969 463.042969 402.46875 463.351562 C 406.03125 464.398438 410.644531 469.453125 410.644531 469.453125 L 422.230469 466.617188 L 423.574219 466.289062 Z M 368.980469 474.507812 L 370.363281 474.507812 L 370.363281 479.433594 C 370.363281 479.433594 338.964844 479.433594 335.761719 479.433594 C 332.554688 479.433594 333.199219 476.925781 333.757812 475.140625 C 334.835938 471.695312 344.085938 468.21875 347.820312 466.328125 C 348.671875 465.894531 349.613281 466.089844 350.5625 466.640625 C 353.773438 468.503906 357.050781 474.507812 357.050781 474.507812 Z M 389.960938 312.210938 C 389.859375 311.160156 390.894531 306.96875 392.042969 301.386719 L 403.152344 300.460938 L 406.511719 300.179688 C 406.511719 300.179688 406.378906 282.960938 400.921875 270.035156 C 402.367188 264.46875 403.851562 259.460938 401.457031 252.820312 C 399.800781 247.582031 395.0625 241.75 389.703125 240.828125 C 389.859375 236.4375 387.105469 232.917969 384.109375 231.445312 C 379.960938 229.410156 376 230.832031 374.757812 231.152344 C 372.371094 229.875 369.921875 229.671875 367.652344 232.398438 C 366.585938 233.675781 366.125 236.722656 367.328125 238.542969 C 367.597656 238.953125 367.953125 239.300781 368.40625 239.554688 C 369.929688 240.394531 368.40625 245.324219 368.992188 245.648438 C 369.574219 245.972656 370.808594 245 371.453125 243.53125 C 371.820312 242.699219 372.0625 242.078125 372.421875 241.710938 C 372.441406 241.707031 372.460938 241.714844 372.480469 241.703125 C 373.054688 241.335938 373.726562 241.3125 374.320312 241.636719 C 374.945312 241.980469 375.367188 242.652344 375.367188 243.308594 C 375.367188 244.59375 373.691406 246.414062 372.121094 246.414062 C 371.980469 246.414062 371.863281 246.53125 371.863281 246.675781 C 371.863281 246.816406 371.980469 246.933594 372.121094 246.933594 C 373.84375 246.933594 375.886719 244.96875 375.886719 243.308594 C 375.886719 243.097656 375.855469 242.890625 375.792969 242.683594 C 376.003906 243.007812 376.210938 243.398438 376.390625 243.910156 C 377.28125 246.402344 375.050781 246.785156 375.09375 248.347656 C 375.136719 249.910156 377.730469 251.53125 380.15625 251.214844 C 380.316406 251.195312 380.488281 251.15625 380.65625 251.128906 C 383.058594 250.695312 385.960938 249.332031 387.285156 247.457031 C 387.34375 247.367188 387.390625 247.285156 387.449219 247.195312 C 388.746094 249.515625 389 252.558594 389 255.242188 C 389 255.769531 388.972656 256.292969 388.929688 256.8125 C 387.46875 256.320312 385.882812 256.054688 384.164062 256.058594 C 383.144531 256.0625 382.210938 256.253906 381.359375 256.605469 C 381.125 256.515625 380.890625 256.433594 380.65625 256.351562 C 378.363281 255.578125 376.085938 255.257812 373.90625 255.273438 C 371.121094 255.296875 368.503906 255.871094 366.234375 256.746094 C 365.054688 256.070312 363.726562 255.5625 362.226562 255.265625 C 346.859375 252.207031 339.492188 299.878906 339.492188 299.878906 L 347.699219 300.796875 L 364.289062 302.644531 C 363.144531 306.292969 361.898438 309.527344 360.667969 311.972656 C 360.082031 313.140625 359.398438 314.4375 358.644531 315.816406 C 366.765625 316.316406 380.09375 315.457031 386.417969 313.976562 C 388.65625 313.457031 390.023438 312.855469 389.960938 312.210938 Z M 371.449219 303.484375 L 370.949219 303.347656 C 370.992188 303.1875 375.332031 287.058594 374.144531 273.601562 L 374.664062 273.554688 C 375.859375 287.105469 371.496094 303.320312 371.449219 303.484375 Z M 372.726562 245.367188 C 372.582031 245.367188 372.46875 245.25 372.46875 245.105469 C 372.46875 242.691406 374.363281 242.445312 374.382812 242.441406 C 374.519531 242.425781 374.652344 242.527344 374.671875 242.671875 C 374.6875 242.8125 374.585938 242.941406 374.441406 242.957031 C 374.375 242.964844 372.988281 243.171875 372.988281 245.105469 C 372.984375 245.25 372.871094 245.367188 372.726562 245.367188 Z M 338.980469 364.273438 C 338.875 364.15625 336.363281 361.4375 336.066406 358.378906 L 336.582031 358.332031 C 336.863281 361.210938 339.335938 363.890625 339.363281 363.917969 Z M 332.035156 359.78125 C 332.441406 364.128906 337.859375 368.742188 337.914062 368.789062 L 337.582031 369.183594 C 337.351562 368.992188 331.945312 364.390625 331.519531 359.828125 Z M 450.65625 485.144531 C 451.210938 486.320312 454.515625 497.683594 451.054688 497.683594 C 447.59375 497.683594 420.953125 497.683594 417.746094 497.683594 C 414.542969 497.683594 415.183594 495.175781 415.742188 493.390625 C 416.824219 489.945312 426.074219 486.46875 429.808594 484.574219 C 430.871094 484.039062 431.78125 484.292969 432.65625 484.898438 C 434.859375 486.429688 436.832031 490.285156 440.363281 489.945312 C 445.292969 489.46875 446.382812 486.910156 447.074219 485.527344 C 447.511719 484.652344 448.609375 484.265625 449.496094 484.394531 C 450.007812 484.46875 450.453125 484.714844 450.65625 485.144531 Z M 498.035156 477.492188 C 498.851562 478.5 504.785156 488.742188 501.425781 489.570312 C 498.066406 490.398438 472.199219 496.777344 469.085938 497.542969 C 465.972656 498.3125 466 495.722656 466.113281 493.855469 C 466.332031 490.25 474.480469 484.660156 477.65625 481.929688 C 478.558594 481.15625 479.503906 481.183594 480.5 481.5625 C 483.007812 482.523438 485.84375 485.792969 489.1875 484.617188 C 493.863281 482.972656 494.308594 480.230469 494.648438 478.71875 C 494.863281 477.765625 495.835938 477.125 496.726562 477.039062 C 497.242188 476.992188 497.730469 477.121094 498.035156 477.492188 Z M 447.824219 262.25 C 447.679688 262.25 447.566406 262.132812 447.566406 261.988281 C 447.566406 259.574219 449.460938 259.328125 449.480469 259.324219 C 449.617188 259.308594 449.75 259.410156 449.765625 259.554688 C 449.785156 259.695312 449.679688 259.824219 449.539062 259.839844 C 449.472656 259.851562 448.082031 260.054688 448.082031 261.988281 C 448.082031 262.132812 447.964844 262.25 447.824219 262.25 Z M 475.914062 320.355469 L 473.054688 301.207031 C 473.03125 301.066406 473.128906 300.933594 473.273438 300.914062 C 473.414062 300.894531 473.546875 300.988281 473.566406 301.132812 L 476.429688 320.28125 C 476.449219 320.421875 476.351562 320.554688 476.210938 320.574219 C 476.199219 320.578125 476.183594 320.578125 476.171875 320.578125 C 476.046875 320.578125 475.933594 320.484375 475.914062 320.355469 Z M 449.480469 257.996094 C 449.539062 258.019531 449.601562 258.03125 449.660156 258.066406 C 450.464844 258.503906 450.980469 259.339844 450.980469 260.195312 C 450.980469 261.851562 448.941406 263.816406 447.214844 263.816406 C 447.074219 263.816406 446.957031 263.699219 446.957031 263.558594 C 446.957031 263.414062 447.074219 263.300781 447.214844 263.300781 C 448.78125 263.300781 450.460938 261.476562 450.460938 260.195312 C 450.460938 259.535156 450.039062 258.863281 449.414062 258.519531 C 448.878906 258.226562 448.289062 258.234375 447.753906 258.5 C 447.019531 259.058594 446.628906 260.339844 446.632812 261.089844 C 446.636719 262.015625 444.246094 261.871094 444.210938 261.132812 C 444.175781 260.398438 444.679688 257.277344 443.160156 256.4375 C 442.824219 256.25 442.542969 256.007812 442.304688 255.726562 C 440.816406 253.953125 441.230469 250.59375 442.40625 249.28125 C 447.214844 243.914062 456.894531 247.347656 458.863281 248.332031 C 462.433594 250.234375 464.121094 254.046875 463.832031 258.03125 C 463.371094 264.390625 458.859375 267.5 455.75 267.558594 C 455.363281 267.566406 454.996094 267.535156 454.664062 267.449219 C 451.648438 266.667969 452.644531 262.386719 451.78125 259.792969 C 451.234375 258.160156 450.285156 257.921875 449.480469 257.996094 Z M 436.453125 323.5625 C 436.308594 323.546875 436.207031 323.421875 436.222656 323.28125 L 438.316406 302.867188 C 438.332031 302.726562 438.460938 302.617188 438.601562 302.636719 C 438.742188 302.652344 438.847656 302.777344 438.832031 302.921875 L 436.738281 323.332031 C 436.722656 323.464844 436.613281 323.5625 436.480469 323.5625 C 436.472656 323.5625 436.460938 323.5625 436.453125 323.5625 Z M 94.253906 328.53125 L 90.292969 328.53125 L 90.945312 334.019531 L 87.578125 334.019531 L 85.859375 319.570312 L 89.226562 319.570312 L 89.902344 325.253906 L 93.863281 325.253906 L 93.1875 319.570312 L 96.554688 319.570312 L 98.273438 334.019531 L 94.90625 334.019531 Z M 112.058594 322.847656 L 105.582031 322.847656 L 105.859375 325.199219 L 111.359375 325.199219 L 111.75 328.476562 L 106.25 328.476562 L 106.519531 330.742188 L 112.996094 330.742188 L 113.382812 334.019531 L 103.542969 334.019531 L 101.824219 319.570312 L 111.667969 319.570312 Z M 126.976562 326.398438 C 127.273438 325.71875 127.375 324.933594 127.269531 324.0625 C 127.167969 323.195312 126.886719 322.414062 126.429688 321.734375 C 125.964844 321.039062 125.355469 320.496094 124.617188 320.117188 C 123.894531 319.75 123.085938 319.5625 122.210938 319.5625 L 116.316406 319.5625 L 118.035156 334.019531 L 121.398438 334.019531 L 120.753906 328.566406 L 122.1875 328.566406 L 125.589844 334.019531 L 129.507812 334.019531 L 125.601562 327.976562 C 126.222656 327.601562 126.683594 327.070312 126.976562 326.398438 Z M 123.730469 324.78125 C 123.671875 324.949219 123.578125 325.074219 123.453125 325.160156 C 123.320312 325.246094 123.160156 325.289062 122.964844 325.289062 L 120.363281 325.289062 L 120.074219 322.839844 L 122.671875 322.839844 C 122.875 322.839844 123.042969 322.878906 123.191406 322.96875 C 123.339844 323.054688 123.460938 323.175781 123.558594 323.347656 C 123.675781 323.542969 123.753906 323.785156 123.789062 324.0625 C 123.820312 324.34375 123.800781 324.582031 123.730469 324.78125 Z M 142.960938 330.742188 L 143.351562 334.019531 L 133.507812 334.019531 L 131.792969 319.570312 L 141.636719 319.570312 L 142.023438 322.847656 L 135.550781 322.847656 L 135.828125 325.199219 L 141.328125 325.199219 L 141.71875 328.476562 L 136.21875 328.476562 L 136.488281 330.742188 Z M 90.679688 311.644531 L 84.25 297.199219 L 87.867188 297.199219 L 91.367188 305.425781 L 92.90625 297.199219 L 96.527344 297.199219 L 93.53125 311.644531 Z M 110.988281 302.597656 C 110.863281 301.527344 110.53125 300.566406 110 299.738281 C 109.457031 298.890625 108.738281 298.226562 107.867188 297.757812 C 107.011719 297.296875 106.054688 297.066406 105.023438 297.066406 C 103.988281 297.066406 103.085938 297.296875 102.339844 297.757812 C 101.578125 298.226562 101.019531 298.890625 100.679688 299.738281 C 100.34375 300.566406 100.238281 301.527344 100.367188 302.597656 L 100.800781 306.25 C 100.925781 307.316406 101.261719 308.277344 101.792969 309.105469 C 102.335938 309.953125 103.054688 310.621094 103.921875 311.085938 C 104.777344 311.546875 105.734375 311.78125 106.769531 311.78125 C 107.800781 311.78125 108.703125 311.546875 109.449219 311.085938 C 110.210938 310.621094 110.765625 309.953125 111.109375 309.105469 C 111.445312 308.277344 111.550781 307.316406 111.421875 306.25 Z M 107.910156 307.488281 C 107.792969 307.796875 107.613281 308.027344 107.351562 308.191406 C 107.089844 308.359375 106.769531 308.441406 106.375 308.441406 C 105.980469 308.441406 105.640625 308.359375 105.335938 308.1875 C 105.039062 308.027344 104.800781 307.796875 104.609375 307.492188 C 104.40625 307.164062 104.273438 306.765625 104.222656 306.3125 L 103.773438 302.535156 C 103.71875 302.078125 103.753906 301.683594 103.882812 301.355469 C 104 301.046875 104.183594 300.816406 104.441406 300.652344 C 104.703125 300.484375 105.027344 300.402344 105.417969 300.402344 C 105.8125 300.402344 106.152344 300.484375 106.460938 300.65625 C 106.753906 300.816406 106.992188 301.046875 107.183594 301.355469 C 107.386719 301.679688 107.519531 302.078125 107.570312 302.53125 L 108.019531 306.308594 C 108.074219 306.765625 108.039062 307.160156 107.910156 307.488281 Z M 124.238281 297.199219 L 124.628906 300.476562 L 120.980469 300.476562 L 122.308594 311.644531 L 118.941406 311.644531 L 117.613281 300.476562 L 113.96875 300.476562 L 113.578125 297.199219 Z M 138.320312 300.476562 L 131.84375 300.476562 L 132.125 302.828125 L 137.625 302.828125 L 138.015625 306.105469 L 132.515625 306.105469 L 132.78125 308.371094 L 139.257812 308.371094 L 139.648438 311.644531 L 129.804688 311.644531 L 128.089844 297.199219 L 137.929688 297.199219 Z M 140.230469 352.980469 L 109.609375 352.980469 L 110.257812 358.429688 L 94.863281 350.117188 L 108.28125 341.800781 L 108.929688 347.25 L 139.550781 347.25 Z M 376.691406 355.28125 L 377.195312 355.410156 L 370.609375 381.324219 L 370.109375 381.195312 Z M 376.691406 355.28125 " fill-opacity="1" fill-rule="nonzero"/></g></svg>