<svg xmlns="http://www.w3.org/2000/svg" xmlns:xlink="http://www.w3.org/1999/xlink" width="800" zoomAndPan="magnify" viewBox="0 0 600 599.999999" height="800" preserveAspectRatio="xMidYMid meet" version="1.0"><defs><clipPath id="45134fe68a"><path d="M 0 0 L 595.5 0 L 595.5 600 L 0 600 Z M 0 0 " clip-rule="nonzero"/></clipPath></defs><path fill="#d18765" d="M 594.433594 297.144531 C 594.433594 133.621094 461.335938 0.585938 297.730469 0.585938 C 256.910156 0.585938 217.34375 8.765625 180.132812 24.90625 C 144.199219 40.488281 112.089844 62.730469 84.703125 91.023438 L 84.316406 91.425781 L 83.886719 91.066406 C 79.527344 87.421875 74.003906 85.417969 68.324219 85.417969 C 54.925781 85.417969 44.027344 96.320312 44.027344 109.71875 C 44.027344 117.105469 47.339844 124.007812 53.117188 128.652344 L 53.550781 129.003906 L 53.234375 129.460938 C 19.144531 178.992188 1.128906 236.976562 1.128906 297.144531 C 1.128906 311.632812 1.066406 579.199219 1.066406 579.199219 L 62.566406 579.257812 L 62.566406 593.027344 C 62.566406 595.675781 64.722656 597.835938 67.371094 597.835938 L 178.910156 597.835938 C 181.5625 597.835938 183.71875 595.675781 183.71875 593.027344 L 183.71875 579.371094 L 286.609375 579.464844 L 286.410156 580.21875 C 284.703125 586.613281 283.171875 592.644531 281.734375 598.625 C 286.542969 598.601562 304.671875 598.589844 335.695312 598.589844 L 341.136719 598.589844 L 341.140625 599.1875 C 341.140625 599.273438 341.195312 599.367188 341.320312 599.386719 C 341.414062 599.386719 341.5 599.3125 341.527344 599.105469 L 341.601562 598.589844 L 342.125 598.589844 C 376.441406 598.59375 418.691406 598.605469 451.410156 598.617188 L 451.945312 598.699219 L 452.015625 599.21875 C 452.027344 599.3125 452.109375 599.386719 452.207031 599.386719 L 452.234375 599.382812 C 452.335938 599.367188 452.382812 599.277344 452.382812 599.199219 L 452.40625 598.617188 L 502.582031 598.628906 C 501.175781 592.777344 499.675781 586.652344 498.113281 580.40625 L 497.929688 579.660156 L 594.433594 579.753906 Z M 336.964844 437.621094 C 335.238281 444.71875 331.058594 454.796875 325.273438 468.75 C 315.214844 493.011719 300.015625 529.671875 286.835938 578.628906 L 286.71875 579.074219 L 183.71875 578.980469 L 183.71875 576.820312 C 183.71875 574.949219 182.609375 573.234375 180.894531 572.453125 L 180.542969 572.292969 L 180.542969 492.566406 L 180.882812 492.402344 C 182.632812 491.5625 183.71875 489.933594 183.71875 488.164062 L 183.71875 481.554688 C 183.71875 476.78125 181.800781 472.332031 178.324219 469.023438 C 174.878906 465.746094 170.304688 463.941406 165.441406 463.941406 L 147.789062 463.941406 L 148.667969 461.148438 C 148.882812 461.128906 149.097656 461.105469 149.320312 461.082031 C 161.800781 459.65625 182.082031 453.277344 190.617188 440.570312 C 209.769531 435.800781 244.648438 431.09375 271.839844 424.253906 C 271.839844 424.253906 271.839844 424.253906 271.84375 424.253906 C 271.546875 424.125 271.269531 423.980469 270.988281 423.84375 C 271.21875 423.785156 271.460938 423.730469 271.691406 423.671875 L 271.890625 423.621094 L 272.078125 423.703125 C 275.0625 425 278.6875 425.65625 282.859375 425.65625 C 286.992188 425.65625 291.746094 425.011719 296.992188 423.738281 L 297.546875 423.601562 L 297.710938 424.152344 C 297.761719 424.328125 303.101562 441.8125 319.449219 441.8125 C 324.464844 441.8125 330.066406 440.175781 336.101562 436.949219 L 337.28125 436.316406 Z M 384.9375 259.355469 C 385.097656 259.316406 385.253906 259.285156 385.414062 259.246094 L 385.414062 259.929688 L 384.972656 259.953125 L 384.890625 259.363281 C 384.90625 259.359375 384.921875 259.355469 384.9375 259.355469 Z M 594.046875 550.488281 L 565.175781 550.488281 L 565.175781 579.332031 L 497.832031 579.269531 L 497.714844 578.816406 C 484.96875 528.035156 472.101562 485.976562 460.511719 457.195312 L 460.441406 457.019531 C 460.648438 457.003906 460.855469 456.988281 461.066406 456.972656 C 493.535156 454.570312 536.460938 447.925781 544.304688 429.652344 C 544.304688 429.648438 544.304688 429.648438 544.308594 429.648438 C 544.3125 429.636719 544.316406 429.625 544.320312 429.613281 C 544.550781 429.074219 544.738281 428.542969 544.894531 428.019531 C 546.433594 423.269531 546.238281 417.636719 544.773438 411.421875 C 544.773438 411.421875 544.773438 411.417969 544.773438 411.417969 C 544.5625 411.394531 544.351562 411.367188 544.140625 411.339844 L 543.996094 410.730469 L 545.503906 410.898438 C 546.957031 411.039062 548.378906 411.113281 549.726562 411.113281 C 560.894531 411.113281 565.539062 406.371094 567.316406 403.542969 C 567.507812 403.238281 567.6875 402.925781 567.84375 402.609375 C 568.371094 401.585938 568.738281 400.515625 568.945312 399.429688 C 569.15625 398.285156 569.199219 397.136719 569.070312 396.007812 C 568.863281 394.261719 568.242188 392.582031 567.273438 391.148438 C 557.320312 376.433594 510.375 314.722656 472.992188 283.898438 C 461.28125 274.238281 445.480469 267.054688 427.304688 263.128906 L 426.832031 263.027344 L 426.832031 234.578125 C 426.832031 210.65625 415.371094 196.9375 395.390625 196.9375 C 364.675781 196.9375 360.816406 216.953125 360.359375 220.851562 C 361.003906 220.863281 362.109375 220.882812 363.5625 220.902344 L 364.308594 220.914062 L 364.167969 221.511719 C 363.964844 221.507812 363.746094 221.503906 363.554688 221.503906 C 363.367188 222.296875 363.203125 223.109375 363.078125 223.953125 C 360.550781 240.941406 364.703125 258.433594 376.914062 260 C 376.9375 260.003906 376.960938 260.007812 376.984375 260.007812 L 376.976562 260.597656 C 355.949219 262.792969 336.5 268.816406 320.742188 278.011719 C 286.511719 297.992188 248.210938 336.710938 232.351562 361.132812 C 229.492188 365.351562 227.402344 369.207031 226.128906 372.613281 C 224.96875 375.53125 224.46875 377.917969 224.640625 379.777344 C 224.648438 382.738281 225.074219 385.46875 225.914062 387.890625 L 226.09375 388.417969 L 225.570312 388.644531 C 225.5 388.453125 225.410156 388.277344 225.34375 388.085938 L 185.363281 405.3125 C 185.359375 405.3125 185.359375 405.3125 185.355469 405.3125 C 177.304688 407.464844 162.121094 408.273438 148.566406 410.890625 C 143.476562 411.875 138.078125 416.171875 133.3125 421.160156 L 133.960938 421.363281 C 133.886719 421.4375 133.820312 421.5 133.746094 421.574219 L 133.488281 421.84375 L 120.449219 417.742188 L 105.925781 463.941406 L 80.132812 463.941406 C 70.121094 463.941406 62.566406 471.511719 62.566406 481.554688 L 62.566406 488.164062 C 62.566406 490.273438 63.636719 491.992188 65.359375 492.644531 L 65.746094 492.789062 L 65.746094 572.292969 L 65.394531 572.453125 C 63.675781 573.230469 62.566406 574.949219 62.566406 576.824219 L 62.566406 578.867188 L 1.453125 578.8125 C 1.453125 578.8125 1.519531 311.636719 1.519531 297.148438 C 1.519531 237.082031 19.5 179.191406 53.519531 129.734375 L 53.863281 129.234375 L 54.359375 129.582031 C 58.476562 132.484375 63.304688 134.015625 68.324219 134.015625 C 81.71875 134.015625 92.617188 123.117188 92.617188 109.71875 C 92.617188 103.007812 89.925781 96.753906 85.035156 92.109375 L 84.59375 91.691406 L 85.019531 91.257812 C 141.402344 33.039062 216.945312 0.976562 297.730469 0.976562 C 461.121094 0.976562 594.042969 133.839844 594.042969 297.148438 L 594.042969 550.488281 Z M 594.046875 550.488281 " fill-opacity="1" fill-rule="nonzero"/><path fill="#0038a8" d="M 593.445312 549.886719 L 593.445312 578.761719 L 564.578125 578.734375 L 564.578125 549.886719 Z M 498.300781 578.671875 C 486.171875 530.363281 473.265625 487.253906 461.070312 456.972656 C 440.117188 458.523438 423.519531 458.304688 423.519531 458.304688 C 423.519531 458.304688 422.253906 463.84375 407.359375 464.644531 C 402.917969 464.886719 398.136719 464.285156 394.394531 465.847656 C 400.511719 469.574219 401.339844 477.539062 396.78125 477.785156 C 392.957031 477.992188 378.730469 475.089844 374.617188 472.535156 C 370.5 469.976562 371.085938 466.320312 371.910156 464.886719 C 364.332031 462.925781 365.148438 452.609375 368.585938 450.53125 C 365.960938 445.421875 369.148438 441.972656 374.617188 438.605469 C 381.972656 434.078125 400.28125 431.023438 418.5 429.023438 C 418.535156 429.015625 420.09375 428.429688 422.714844 427.453125 C 408.523438 417.066406 393.757812 404.910156 384.070312 393.84375 C 375.054688 408.207031 358.542969 423.542969 340.902344 434.824219 C 339.34375 435.820312 337.839844 436.699219 336.382812 437.476562 C 336.382812 437.476562 336.382812 437.476562 336.382812 437.480469 C 331.5625 457.277344 306.742188 502.367188 286.257812 578.476562 C 286.113281 579.007812 285.972656 579.53125 285.828125 580.0625 C 284.175781 586.257812 282.550781 592.628906 280.96875 599.230469 C 284.851562 599.199219 309.230469 599.191406 340.539062 599.191406 C 340.539062 599.152344 340.527344 599.121094 340.53125 599.082031 L 342.121094 599.191406 C 376.4375 599.191406 418.691406 599.207031 451.40625 599.21875 L 452.992188 599.082031 C 452.996094 599.128906 452.984375 599.171875 452.984375 599.21875 C 479.753906 599.226562 499.824219 599.234375 503.339844 599.230469 C 501.808594 592.828125 500.257812 586.507812 498.695312 580.261719 C 498.5625 579.730469 498.433594 579.199219 498.300781 578.671875 Z M 412.519531 321.96875 C 406.890625 321.976562 401.261719 321.980469 395.632812 321.984375 C 395.585938 322.378906 395.261719 322.6875 394.855469 322.6875 C 394.449219 322.6875 394.128906 322.378906 394.078125 321.984375 C 391.984375 321.988281 389.890625 321.992188 387.792969 321.988281 C 381.082031 321.984375 374.363281 321.960938 367.648438 321.9375 C 374.222656 331.097656 380.136719 340.839844 384.390625 349.964844 C 391.699219 340.722656 401.824219 330.960938 412.519531 321.96875 Z M 381.847656 243.34375 C 380.511719 242.699219 378.042969 241.757812 375.015625 241.757812 C 372.261719 241.757812 371.347656 242.796875 371.054688 243.628906 C 373.558594 244.9375 378.363281 244.875 381.847656 243.34375 Z M 371.09375 245.386719 C 371.4375 246.613281 372.496094 248.929688 375.632812 248.929688 C 378.683594 248.929688 381.089844 246.382812 382.222656 244.921875 C 380.238281 245.75 377.941406 246.160156 375.785156 246.160156 C 374.050781 246.160156 372.414062 245.894531 371.09375 245.386719 Z M 69.835938 565.539062 L 174.863281 565.539062 L 174.863281 505.773438 L 69.835938 505.773438 Z M 299.859375 413.1875 L 305.996094 411.773438 L 307.859375 417.667969 C 308.03125 418.21875 312.234375 431.09375 324.15625 431.09375 C 329.324219 431.09375 335.445312 428.886719 342.363281 424.539062 C 343.015625 424.132812 343.210938 423.269531 342.800781 422.613281 C 342.40625 421.988281 341.507812 421.785156 340.882812 422.179688 C 334.410156 426.246094 328.78125 428.304688 324.148438 428.304688 C 314.25 428.304688 310.664062 417.300781 310.515625 416.832031 L 308.265625 409.707031 C 308.046875 409.023438 307.332031 408.609375 306.621094 408.769531 L 299.21875 410.472656 C 294.558594 411.585938 290.417969 412.148438 286.914062 412.148438 C 281.851562 412.148438 278.339844 411.003906 276.464844 408.75 C 273.671875 405.386719 273.941406 398.871094 274.355469 396.878906 L 276.867188 384.808594 C 276.964844 384.34375 276.816406 383.867188 276.480469 383.53125 C 276.144531 383.203125 275.65625 383.058594 275.199219 383.164062 L 262.980469 385.886719 C 258.78125 386.824219 254.925781 387.300781 251.519531 387.300781 C 238.347656 387.300781 236.5625 381.074219 236.558594 374.980469 C 236.554688 372.574219 238.167969 368.679688 241.097656 364.011719 C 241.296875 363.695312 241.359375 363.324219 241.277344 362.960938 C 241.191406 362.597656 240.972656 362.285156 240.65625 362.089844 C 240.023438 361.691406 239.132812 361.898438 238.734375 362.527344 C 235.484375 367.707031 233.765625 372.011719 233.769531 374.984375 C 233.769531 378.71875 233.785156 390.089844 251.519531 390.089844 C 255.128906 390.089844 259.191406 389.59375 263.585938 388.613281 L 273.695312 386.355469 L 271.625 396.308594 C 271.152344 398.585938 270.632812 406.082031 274.320312 410.527344 C 276.746094 413.453125 280.984375 414.933594 286.914062 414.933594 C 290.640625 414.9375 294.996094 414.347656 299.859375 413.1875 Z M 384.183594 393.667969 C 384.402344 393.800781 384.652344 393.871094 384.90625 393.871094 C 385.390625 393.871094 385.847656 393.613281 386.089844 393.203125 C 386.382812 392.726562 393.230469 381.457031 392.550781 372.964844 C 391.894531 364.726562 386.914062 352.222656 386.703125 351.699219 C 386.429688 351 385.597656 350.632812 384.890625 350.917969 C 384.546875 351.058594 384.273438 351.324219 384.128906 351.664062 C 383.980469 352.007812 383.976562 352.386719 384.121094 352.738281 C 384.324219 353.261719 389.167969 365.582031 389.773438 373.1875 C 390.367188 380.652344 383.785156 391.636719 383.714844 391.75 C 383.316406 392.402344 383.523438 393.261719 384.183594 393.667969 Z M 333.886719 288.203125 C 334.15625 288.527344 334.546875 288.710938 334.964844 288.710938 C 335.285156 288.710938 335.597656 288.601562 335.84375 288.398438 C 336.132812 288.160156 336.3125 287.828125 336.351562 287.457031 C 336.386719 287.085938 336.277344 286.722656 336.039062 286.433594 L 328.003906 276.613281 C 327.535156 276.039062 326.617188 275.945312 326.042969 276.417969 C 325.449219 276.902344 325.363281 277.785156 325.847656 278.378906 Z M 458.503906 291.5625 C 458.792969 291.5625 459.074219 291.472656 459.3125 291.304688 L 468.761719 284.574219 C 469.382812 284.125 469.527344 283.253906 469.085938 282.628906 C 468.652344 282.023438 467.742188 281.871094 467.140625 282.300781 L 457.695312 289.03125 C 457.070312 289.480469 456.925781 290.351562 457.371094 290.976562 C 457.628906 291.34375 458.050781 291.5625 458.503906 291.5625 Z M 565.066406 392.273438 C 565.011719 391.902344 564.816406 391.578125 564.515625 391.351562 C 563.925781 390.917969 563.015625 391.046875 562.566406 391.640625 C 558.589844 396.984375 552.886719 399.695312 545.617188 399.695312 C 536.769531 399.695312 528.660156 395.578125 528.578125 395.535156 C 527.910156 395.1875 527.042969 395.464844 526.699219 396.128906 C 526.523438 396.457031 526.492188 396.835938 526.605469 397.191406 C 526.71875 397.546875 526.960938 397.839844 527.289062 398.011719 C 527.375 398.054688 535.921875 402.480469 545.660156 402.480469 C 553.835938 402.480469 560.277344 399.394531 564.804688 393.304688 C 565.027344 393.007812 565.121094 392.640625 565.066406 392.273438 Z M 565.066406 392.273438 " fill-opacity="1" fill-rule="nonzero"/><path fill="#fcd116" d="M 54.015625 130.074219 C 54.25 129.734375 54.492188 129.402344 54.726562 129.0625 C 54.285156 128.765625 53.871094 128.4375 53.453125 128.109375 C 53.21875 128.449219 52.976562 128.78125 52.742188 129.121094 C 47.070312 124.554688 43.429688 117.566406 43.429688 109.71875 C 43.429688 95.964844 54.578125 84.816406 68.324219 84.816406 C 74.394531 84.816406 79.953125 86.996094 84.273438 90.605469 C 84.191406 90.691406 84.109375 90.78125 84.023438 90.867188 C 84.421875 91.21875 84.824219 91.566406 85.199219 91.9375 C 85.285156 91.851562 85.367188 91.761719 85.453125 91.675781 C 90.226562 96.210938 93.222656 102.605469 93.222656 109.714844 C 93.222656 123.46875 82.074219 134.617188 68.324219 134.617188 C 62.992188 134.617188 58.066406 132.925781 54.015625 130.074219 Z M 184.320312 576.820312 L 184.320312 593.023438 C 184.320312 596.011719 181.898438 598.433594 178.910156 598.433594 L 67.375 598.433594 C 64.386719 598.433594 61.96875 596.011719 61.96875 593.023438 L 61.96875 576.820312 C 61.96875 574.632812 63.273438 572.753906 65.148438 571.90625 L 65.148438 493.203125 C 63.1875 492.460938 61.96875 490.503906 61.96875 488.164062 L 61.96875 481.554688 C 61.96875 471.269531 69.847656 463.339844 80.132812 463.339844 L 105.484375 463.339844 L 102.484375 472.878906 L 145.609375 472.878906 L 148.609375 463.339844 L 165.441406 463.339844 C 175.726562 463.339844 184.320312 471.265625 184.316406 481.554688 L 184.316406 488.164062 C 184.316406 490.269531 182.976562 492.0625 181.140625 492.945312 L 181.140625 571.90625 C 183.011719 572.757812 184.320312 574.632812 184.320312 576.820312 Z M 168.429688 509.433594 L 76.269531 509.433594 L 76.269531 561.878906 L 168.429688 561.878906 Z M 410.871094 251.230469 C 413.425781 250.246094 415.242188 247.777344 415.242188 244.875 C 415.242188 243.695312 414.941406 242.585938 414.417969 241.621094 C 413.261719 239.496094 411.011719 238.058594 408.425781 238.058594 C 404.664062 238.058594 401.613281 241.109375 401.613281 244.875 C 401.613281 247.773438 403.429688 250.246094 405.980469 251.230469 C 403.425781 252.214844 401.613281 254.6875 401.613281 257.589844 C 401.613281 260.523438 403.46875 263.015625 406.070312 263.976562 C 406.804688 264.25 407.597656 264.40625 408.425781 264.40625 C 411.203125 264.40625 413.589844 262.738281 414.652344 260.355469 C 415.027344 259.507812 415.242188 258.574219 415.242188 257.589844 C 415.242188 254.6875 413.425781 252.214844 410.871094 251.230469 Z M 410.871094 251.230469 " fill-opacity="1" fill-rule="nonzero"/><path fill="#ffffff" d="M 133.316406 421.160156 L 159.296875 429.335938 L 155.359375 441.867188 C 153.554688 442.460938 151.605469 442.96875 149.492188 443.335938 C 138.152344 445.332031 135.902344 456.632812 139.113281 460.304688 C 140.066406 461.398438 143.988281 461.6875 149.320312 461.078125 L 148.609375 463.339844 L 145.613281 472.875 L 102.488281 472.875 L 105.484375 463.339844 L 120.058594 416.988281 Z M 569.535156 399.539062 C 569.320312 400.675781 568.9375 401.800781 568.382812 402.886719 C 568.210938 403.21875 568.027344 403.542969 567.824219 403.867188 C 564.667969 408.886719 557.503906 412.679688 545.445312 411.5 C 545.222656 411.476562 545 411.449219 544.773438 411.421875 C 527.191406 409.496094 510.523438 399.8125 493.773438 403.019531 C 493.058594 403.15625 492.289062 403.386719 491.496094 403.664062 C 489.695312 403.949219 487.886719 404.375 486.109375 404.988281 C 485.695312 405.132812 485.476562 405.585938 485.621094 406 C 485.628906 406.023438 485.644531 406.039062 485.65625 406.058594 C 484.9375 406.207031 484.246094 406.367188 483.597656 406.539062 C 467.808594 410.777344 434.464844 423.082031 422.714844 427.453125 C 408.523438 417.066406 393.757812 404.910156 384.070312 393.84375 C 375.054688 408.207031 358.542969 423.542969 340.902344 434.824219 C 339.34375 435.820312 337.839844 436.699219 336.382812 437.476562 C 336.382812 437.476562 336.382812 437.476562 336.382812 437.480469 C 305.824219 453.824219 297.136719 424.320312 297.136719 424.320312 C 285.285156 427.199219 277.257812 426.609375 271.839844 424.253906 C 271.839844 424.253906 271.84375 424.253906 271.84375 424.253906 C 257.644531 418.082031 261.386719 399.769531 261.386719 399.769531 C 241.652344 404.246094 229.21875 399.304688 225.347656 388.089844 C 224.492188 385.613281 224.050781 382.835938 224.046875 379.78125 C 224.042969 379.773438 224.042969 379.769531 224.042969 379.761719 C 223.859375 377.828125 224.410156 375.332031 225.574219 372.394531 C 226.90625 368.824219 229.0625 364.921875 231.855469 360.800781 C 248.085938 335.804688 286.671875 297.207031 320.441406 277.496094 C 336.75 267.976562 356.546875 262.128906 376.917969 260.003906 C 377.503906 260.078125 378.101562 260.128906 378.722656 260.128906 C 380.65625 260.128906 382.757812 259.863281 384.9375 259.355469 C 385.097656 259.34375 385.253906 259.339844 385.414062 259.332031 L 385.414062 277.972656 C 361.597656 279.5625 340.828125 284.804688 337.203125 288.917969 C 346.605469 295.96875 357.855469 308.300781 367.648438 321.941406 C 374.226562 331.097656 380.136719 340.839844 384.394531 349.964844 C 391.703125 340.722656 401.824219 330.960938 412.519531 321.96875 C 427.898438 309.035156 444.445312 297.6875 455.472656 291.738281 C 444.429688 282.207031 425.566406 278.308594 406.070312 277.617188 L 406.070312 263.976562 C 406.804688 264.25 407.597656 264.40625 408.425781 264.40625 C 411.203125 264.40625 413.589844 262.738281 414.652344 260.355469 C 418.980469 260.902344 423.246094 261.636719 427.433594 262.542969 C 444.996094 266.339844 461.046875 273.269531 473.375 283.4375 C 510.582031 314.113281 557.949219 376.292969 567.769531 390.8125 C 568.804688 392.34375 569.449219 394.105469 569.664062 395.941406 C 569.804688 397.125 569.761719 398.335938 569.535156 399.539062 Z M 326.3125 278 L 334.351562 287.820312 C 334.507812 288.011719 334.734375 288.113281 334.964844 288.113281 C 335.140625 288.113281 335.320312 288.050781 335.46875 287.929688 C 335.808594 287.652344 335.859375 287.152344 335.582031 286.8125 L 327.542969 276.992188 C 327.265625 276.652344 326.765625 276.605469 326.425781 276.878906 C 326.085938 277.160156 326.035156 277.660156 326.3125 278 Z M 342.296875 422.9375 C 342.058594 422.5625 341.566406 422.457031 341.199219 422.6875 C 334.632812 426.816406 328.894531 428.90625 324.148438 428.90625 C 313.800781 428.902344 310.097656 417.5 309.941406 417.011719 L 307.691406 409.886719 C 307.566406 409.496094 307.164062 409.261719 306.753906 409.355469 L 299.355469 411.058594 C 294.652344 412.179688 290.460938 412.75 286.910156 412.75 C 281.664062 412.75 277.992188 411.53125 276 409.132812 C 272.839844 405.328125 273.449219 398.292969 273.765625 396.757812 L 276.277344 384.691406 C 276.332031 384.425781 276.25 384.152344 276.058594 383.960938 C 275.867188 383.773438 275.59375 383.691406 275.328125 383.75 L 263.109375 386.476562 C 258.867188 387.421875 254.96875 387.902344 251.519531 387.902344 C 237.738281 387.902344 235.964844 381 235.957031 374.984375 C 235.953125 372.464844 237.601562 368.457031 240.589844 363.695312 C 240.824219 363.324219 240.710938 362.835938 240.339844 362.601562 C 239.96875 362.367188 239.480469 362.480469 239.246094 362.851562 C 236.050781 367.933594 234.367188 372.128906 234.371094 374.984375 C 234.375 378.570312 234.386719 389.492188 251.523438 389.492188 C 255.085938 389.492188 259.101562 388.996094 263.457031 388.027344 L 274.472656 385.570312 L 272.214844 396.429688 C 271.757812 398.632812 271.246094 405.886719 274.78125 410.144531 C 277.089844 412.925781 281.171875 414.335938 286.914062 414.335938 C 290.589844 414.335938 294.902344 413.75 299.722656 412.601562 L 306.398438 411.0625 L 308.429688 417.488281 C 308.597656 418.015625 312.652344 430.492188 324.15625 430.492188 C 329.203125 430.492188 335.222656 428.316406 342.042969 424.027344 C 342.417969 423.796875 342.527344 423.308594 342.296875 422.9375 Z M 391.953125 373.011719 C 391.308594 364.898438 386.359375 352.445312 386.148438 351.917969 C 385.984375 351.511719 385.523438 351.3125 385.113281 351.472656 C 384.707031 351.636719 384.507812 352.101562 384.671875 352.507812 C 384.722656 352.632812 389.742188 365.265625 390.375 373.136719 C 390.988281 380.871094 384.296875 391.949219 384.226562 392.058594 C 384 392.433594 384.117188 392.921875 384.492188 393.152344 C 384.621094 393.230469 384.765625 393.265625 384.90625 393.265625 C 385.171875 393.265625 385.433594 393.132812 385.582031 392.886719 C 385.871094 392.417969 392.613281 381.265625 391.953125 373.011719 Z M 468.597656 282.976562 C 468.339844 282.621094 467.84375 282.535156 467.488281 282.789062 L 458.042969 289.523438 C 457.6875 289.777344 457.605469 290.273438 457.859375 290.628906 C 458.011719 290.847656 458.257812 290.960938 458.503906 290.960938 C 458.667969 290.960938 458.828125 290.914062 458.964844 290.816406 L 468.410156 284.085938 C 468.765625 283.828125 468.851562 283.335938 468.597656 282.976562 Z M 564.160156 391.835938 C 563.808594 391.578125 563.3125 391.644531 563.046875 392 C 551.285156 407.804688 528.53125 396.191406 528.300781 396.070312 C 527.90625 395.863281 527.433594 396.019531 527.230469 396.40625 C 527.027344 396.796875 527.175781 397.277344 527.566406 397.480469 C 527.707031 397.554688 536.171875 401.878906 545.660156 401.878906 C 552.1875 401.878906 559.199219 399.832031 564.324219 392.945312 C 564.585938 392.59375 564.511719 392.097656 564.160156 391.835938 Z M 95.226562 542.109375 L 89.773438 524.292969 L 86.304688 524.292969 L 93.710938 547.019531 L 96.742188 547.019531 L 104.148438 524.292969 L 100.679688 524.292969 Z M 121.625 528.039062 C 122.285156 529.304688 122.617188 530.769531 122.617188 532.4375 L 122.617188 538.875 C 122.617188 540.542969 122.285156 542.007812 121.625 543.273438 C 120.960938 544.539062 120.027344 545.519531 118.820312 546.210938 C 117.609375 546.90625 116.214844 547.25 114.632812 547.25 C 113.046875 547.25 111.652344 546.90625 110.445312 546.210938 C 109.234375 545.519531 108.300781 544.539062 107.640625 543.273438 C 106.976562 542.007812 106.648438 540.542969 106.648438 538.875 L 106.648438 532.4375 C 106.648438 530.769531 106.976562 529.304688 107.640625 528.039062 C 108.300781 526.769531 109.234375 525.792969 110.445312 525.101562 C 111.652344 524.40625 113.046875 524.058594 114.632812 524.058594 C 116.214844 524.058594 117.609375 524.40625 118.820312 525.101562 C 120.027344 525.792969 120.960938 526.773438 121.625 528.039062 Z M 119.351562 532.328125 C 119.351562 531.304688 119.152344 530.40625 118.765625 529.628906 C 118.375 528.855469 117.820312 528.253906 117.109375 527.835938 C 116.394531 527.414062 115.570312 527.203125 114.632812 527.203125 C 113.695312 527.203125 112.867188 527.414062 112.15625 527.835938 C 111.445312 528.253906 110.890625 528.855469 110.5 529.628906 C 110.109375 530.40625 109.914062 531.304688 109.914062 532.328125 L 109.914062 538.984375 C 109.914062 540.007812 110.109375 540.90625 110.5 541.679688 C 110.890625 542.457031 111.441406 543.054688 112.15625 543.476562 C 112.871094 543.898438 113.695312 544.109375 114.632812 544.109375 C 115.570312 544.109375 116.394531 543.898438 117.109375 543.476562 C 117.820312 543.054688 118.375 542.457031 118.765625 541.679688 C 119.152344 540.90625 119.351562 540.003906 119.351562 538.984375 Z M 124.644531 527.324219 L 131.066406 527.324219 L 131.066406 547.015625 L 134.253906 547.015625 L 134.253906 527.324219 L 140.675781 527.324219 L 140.675781 524.292969 L 124.648438 524.292969 L 124.648438 527.324219 Z M 145.347656 524.292969 L 143.800781 524.292969 L 143.800781 547.019531 L 158.394531 547.019531 L 158.394531 543.988281 L 146.988281 543.988281 L 146.988281 537.25 L 156.675781 537.25 L 156.675781 534.21875 L 146.988281 534.21875 L 146.988281 527.328125 L 158.394531 527.328125 L 158.394531 524.296875 L 145.347656 524.296875 Z M 145.347656 524.292969 " fill-opacity="1" fill-rule="nonzero"/><g clip-path="url(#45134fe68a)"><path fill="#000000" d="M 595.035156 297.144531 L 595.035156 580.351562 L 498.695312 580.261719 C 498.5625 579.730469 498.433594 579.199219 498.296875 578.671875 L 564.578125 578.730469 L 593.445312 578.757812 L 593.445312 297.148438 C 593.445312 134.167969 460.789062 1.574219 297.730469 1.574219 C 214.507812 1.574219 139.222656 36.152344 85.449219 91.675781 C 73.9375 103.558594 63.417969 116.402344 54.011719 130.070312 C 21.296875 177.632812 2.117188 235.1875 2.117188 297.144531 C 2.117188 311.632812 2.101562 374.855469 2.085938 438.074219 C 2.070312 500.203125 2.054688 562.332031 2.054688 578.210938 L 61.964844 578.265625 L 61.964844 579.855469 L 0.464844 579.796875 L 0.464844 579.003906 C 0.464844 564.511719 0.480469 501.292969 0.496094 438.074219 C 0.511719 374.851562 0.527344 311.628906 0.527344 297.144531 C 0.527344 234.828125 19.828125 176.945312 52.738281 129.117188 C 62.175781 115.410156 72.726562 102.527344 84.269531 90.605469 C 138.335938 34.761719 214.042969 -0.015625 297.730469 -0.015625 C 461.664062 -0.015625 595.035156 133.289062 595.035156 297.144531 Z M 184.320312 579.96875 L 285.828125 580.0625 C 285.972656 579.53125 286.113281 579.003906 286.257812 578.472656 L 184.320312 578.378906 Z M 385.804688 226.304688 C 384.59375 226.304688 383.613281 227.699219 383.613281 229.417969 C 383.613281 231.140625 384.59375 232.535156 385.804688 232.535156 C 387.011719 232.535156 387.996094 231.140625 387.996094 229.417969 C 387.996094 227.699219 387.015625 226.304688 385.804688 226.304688 Z M 370.9375 229.417969 C 370.9375 227.699219 369.957031 226.304688 368.746094 226.304688 C 367.539062 226.304688 366.554688 227.699219 366.554688 229.417969 C 366.554688 231.140625 367.539062 232.535156 368.746094 232.535156 C 369.957031 232.535156 370.9375 231.140625 370.9375 229.417969 Z M 381.738281 220.820312 C 379.589844 221.648438 379.628906 225.199219 381.550781 224.390625 C 385.804688 222.597656 391.558594 224.933594 391.144531 223.828125 C 389.925781 220.578125 384.90625 219.597656 381.738281 220.820312 Z M 373.925781 230.574219 C 373.925781 230.132812 373.570312 229.777344 373.132812 229.777344 C 372.695312 229.777344 372.335938 230.136719 372.335938 230.574219 C 372.335938 232.414062 371.703125 233.03125 371.027344 233.683594 C 370.421875 234.269531 369.738281 234.933594 369.773438 236.265625 C 369.859375 239.578125 373.742188 239.578125 375.015625 239.578125 C 375.457031 239.578125 375.8125 239.21875 375.8125 238.78125 C 375.8125 238.339844 375.453125 237.988281 375.015625 237.988281 C 371.835938 237.988281 371.382812 237.09375 371.359375 236.222656 C 371.34375 235.613281 371.585938 235.355469 372.132812 234.824219 C 372.890625 234.09375 373.925781 233.089844 373.925781 230.574219 Z M 370.628906 243.394531 C 370.261719 243.152344 369.773438 243.253906 369.527344 243.621094 C 369.289062 243.988281 369.390625 244.476562 369.757812 244.722656 C 370.148438 244.980469 370.597656 245.199219 371.089844 245.386719 C 372.414062 245.894531 374.050781 246.160156 375.78125 246.160156 C 377.9375 246.160156 380.234375 245.75 382.21875 244.921875 C 383.453125 244.410156 384.566406 243.734375 385.449219 242.890625 C 385.769531 242.585938 385.78125 242.082031 385.476562 241.765625 C 385.175781 241.449219 384.671875 241.4375 384.351562 241.742188 C 383.671875 242.390625 382.808594 242.921875 381.84375 243.34375 C 378.363281 244.875 373.558594 244.9375 371.050781 243.628906 C 370.910156 243.554688 370.761719 243.480469 370.628906 243.394531 Z M 68.324219 573.003906 L 177.964844 573.003906 C 178.402344 573.003906 178.757812 572.648438 178.757812 572.210938 C 178.757812 571.773438 178.402344 571.417969 177.964844 571.417969 L 68.324219 571.417969 C 67.886719 571.417969 67.53125 571.773438 67.53125 572.210938 C 67.53125 572.648438 67.886719 573.003906 68.324219 573.003906 Z M 115.996094 499.894531 L 115.996094 495.128906 L 68.324219 495.128906 C 67.886719 495.128906 67.53125 494.773438 67.53125 494.335938 C 67.53125 493.894531 67.886719 493.539062 68.324219 493.539062 L 177.964844 493.539062 C 178.402344 493.539062 178.757812 493.894531 178.757812 494.335938 C 178.757812 494.773438 178.402344 495.128906 177.964844 495.128906 L 128.707031 495.128906 L 128.707031 499.894531 C 128.707031 503.339844 125.726562 506.253906 122.203125 506.253906 C 118.71875 506.253906 115.996094 503.460938 115.996094 499.894531 Z M 117.582031 499.894531 C 117.582031 502.570312 119.609375 504.664062 122.199219 504.664062 C 124.863281 504.664062 127.117188 502.480469 127.117188 499.894531 L 127.117188 495.128906 L 117.582031 495.128906 Z M 182.730469 485.59375 L 63.558594 485.59375 C 63.117188 485.59375 62.765625 485.949219 62.765625 486.386719 C 62.765625 486.824219 63.121094 487.179688 63.558594 487.179688 L 182.730469 487.179688 C 183.171875 487.179688 183.523438 486.824219 183.523438 486.386719 C 183.523438 485.949219 183.167969 485.59375 182.730469 485.59375 Z M 182.730469 590.488281 L 63.558594 590.488281 C 63.117188 590.488281 62.765625 590.84375 62.765625 591.28125 C 62.765625 591.71875 63.121094 592.078125 63.558594 592.078125 L 182.730469 592.078125 C 183.171875 592.078125 183.523438 591.71875 183.523438 591.28125 C 183.523438 590.84375 183.167969 590.488281 182.730469 590.488281 Z M 157.789062 441.289062 C 157.949219 441.269531 161.757812 440.84375 165.855469 437.480469 C 166.195312 437.199219 166.242188 436.699219 165.964844 436.359375 C 165.6875 436.023438 165.1875 435.972656 164.847656 436.25 C 161.140625 439.296875 157.660156 439.707031 157.625 439.707031 C 157.1875 439.753906 156.871094 440.144531 156.917969 440.582031 C 156.960938 440.988281 157.304688 441.292969 157.707031 441.292969 C 157.734375 441.292969 157.761719 441.289062 157.789062 441.289062 Z M 102.484375 472.878906 L 95.335938 472.878906 C 94.898438 472.878906 94.542969 473.234375 94.542969 473.671875 C 94.542969 474.109375 94.898438 474.464844 95.335938 474.464844 L 165.351562 474.464844 C 165.792969 474.464844 166.144531 474.109375 166.144531 473.671875 C 166.144531 473.234375 165.789062 472.878906 165.351562 472.878906 Z M 386.84375 457.167969 L 374.308594 462.453125 C 373.90625 462.621094 373.714844 463.089844 373.886719 463.492188 C 374.015625 463.796875 374.308594 463.976562 374.617188 463.976562 C 374.722656 463.976562 374.828125 463.957031 374.925781 463.914062 L 387.460938 458.628906 C 387.863281 458.460938 388.054688 457.992188 387.886719 457.589844 C 387.710938 457.183594 387.246094 457 386.84375 457.167969 Z M 383.28125 444.570312 C 383.113281 444.164062 382.644531 443.976562 382.242188 444.144531 L 369.707031 449.429688 C 369.304688 449.597656 369.113281 450.066406 369.285156 450.46875 C 369.410156 450.773438 369.707031 450.957031 370.015625 450.957031 C 370.121094 450.957031 370.222656 450.9375 370.324219 450.894531 L 382.859375 445.609375 C 383.261719 445.441406 383.453125 444.972656 383.28125 444.570312 Z M 514.117188 407.628906 C 514.441406 407.628906 514.746094 407.429688 514.863281 407.109375 C 515.015625 406.699219 514.804688 406.242188 514.394531 406.089844 C 513.859375 405.890625 502.808594 401.886719 491.496094 403.664062 C 489.691406 403.949219 487.882812 404.375 486.109375 404.988281 C 485.695312 405.132812 485.476562 405.585938 485.617188 406 C 485.625 406.023438 485.644531 406.039062 485.652344 406.058594 C 485.820312 406.429688 486.234375 406.628906 486.628906 406.488281 C 498.992188 402.199219 513.695312 407.527344 513.84375 407.578125 C 513.933594 407.613281 514.027344 407.628906 514.117188 407.628906 Z M 395.390625 196.335938 C 361.09375 196.335938 359.703125 221.441406 359.703125 221.441406 C 359.703125 221.441406 361.152344 221.472656 363.554688 221.503906 C 364.359375 221.515625 365.277344 221.523438 366.277344 221.535156 C 365.589844 222.101562 365.035156 222.847656 364.753906 223.824219 C 364.441406 224.933594 368.8125 222.59375 372.042969 224.390625 C 373.21875 225.039062 373.464844 222.871094 372.667969 221.566406 C 372.820312 221.566406 372.972656 221.566406 373.125 221.566406 C 377.640625 221.566406 384.636719 215.390625 389.578125 209.078125 C 394.167969 209.847656 398.035156 208.253906 402.804688 215.804688 C 407.570312 223.355469 405.757812 234.066406 409.132812 236.167969 C 409.726562 236.539062 410.609375 235.523438 411.492188 233.625 C 411.695312 233.578125 411.886719 233.476562 412.003906 233.28125 C 413.207031 231.246094 414.832031 230.210938 416.832031 230.210938 C 417.269531 230.210938 417.625 229.855469 417.625 229.417969 C 417.625 228.980469 417.269531 228.625 416.832031 228.625 C 415.34375 228.625 414.007812 229.085938 412.847656 229.953125 C 413.4375 227.972656 413.949219 225.652344 414.273438 223.164062 C 418.1875 224.09375 421.089844 226.253906 421.089844 230.308594 C 421.089844 234.289062 418.214844 239.050781 414.417969 241.621094 C 414.941406 242.585938 415.242188 243.695312 415.242188 244.875 C 415.242188 247.773438 413.425781 250.246094 410.871094 251.230469 C 413.425781 252.214844 415.242188 254.6875 415.242188 257.589844 C 415.242188 258.574219 415.027344 259.507812 414.652344 260.355469 C 418.980469 260.902344 423.246094 261.636719 427.433594 262.542969 C 427.433594 257.402344 427.433594 247.953125 427.433594 234.578125 C 427.433594 213.457031 418.296875 196.335938 395.390625 196.335938 Z M 353.796875 508.644531 C 353.375 508.589844 352.960938 508.890625 352.902344 509.324219 L 340.535156 599.082031 C 340.527344 599.121094 340.542969 599.152344 340.542969 599.191406 C 340.542969 599.578125 340.816406 599.921875 341.214844 599.976562 C 341.25 599.984375 341.285156 599.984375 341.320312 599.984375 C 341.710938 599.984375 342.054688 599.695312 342.105469 599.300781 L 342.121094 599.191406 L 354.476562 509.542969 C 354.535156 509.105469 354.230469 508.707031 353.796875 508.644531 Z M 439.730469 508.644531 C 439.292969 508.703125 438.992188 509.105469 439.050781 509.539062 L 451.40625 599.214844 L 451.417969 599.296875 C 451.472656 599.695312 451.816406 599.984375 452.203125 599.984375 C 452.242188 599.984375 452.277344 599.980469 452.3125 599.976562 C 452.699219 599.921875 452.96875 599.59375 452.984375 599.214844 C 452.984375 599.171875 452.996094 599.128906 452.992188 599.082031 L 440.625 509.324219 C 440.5625 508.886719 440.15625 508.582031 439.730469 508.644531 Z M 394.855469 313.152344 C 394.417969 313.152344 394.0625 313.507812 394.0625 313.945312 L 394.0625 321.894531 C 394.0625 321.925781 394.078125 321.953125 394.082031 321.984375 C 394.128906 322.378906 394.453125 322.6875 394.859375 322.6875 C 395.265625 322.6875 395.585938 322.378906 395.632812 321.984375 C 395.636719 321.953125 395.652344 321.925781 395.652344 321.894531 L 395.652344 313.945312 C 395.652344 313.507812 395.292969 313.152344 394.855469 313.152344 Z M 394.855469 313.152344 " fill-opacity="1" fill-rule="nonzero"/></g></svg>