<svg xmlns="http://www.w3.org/2000/svg" xmlns:xlink="http://www.w3.org/1999/xlink" width="800" zoomAndPan="magnify" viewBox="0 0 600 599.999999" height="800" preserveAspectRatio="xMidYMid meet" version="1.0"><defs><clipPath id="1ee2f092ba"><path d="M 0 560.433594 L 600 560.433594 L 600 600 L 0 600 Z M 0 560.433594 " clip-rule="nonzero"/></clipPath><clipPath id="d528252318"><path d="M 0 0.433594 L 600 0.433594 L 600 40 L 0 40 Z M 0 0.433594 " clip-rule="nonzero"/></clipPath><clipPath id="dfcb7eb395"><rect x="0" width="600" y="0" height="40"/></clipPath><clipPath id="b2690078d4"><path d="M 33 0 L 567.476562 0 L 567.476562 597 L 33 597 Z M 33 0 " clip-rule="nonzero"/></clipPath></defs><g clip-path="url(#1ee2f092ba)"><g transform="matrix(1, 0, 0, 1, 0, 560)"><g clip-path="url(#dfcb7eb395)"><g clip-path="url(#d528252318)"><path fill="#f9d252" d="M 0 0.433594 L 600 0.433594 L 600 40 L 0 40 Z M 0 0.433594 " fill-opacity="1" fill-rule="nonzero"/></g></g></g></g><path fill="#d18765" d="M 33.839844 433.648438 L 77.203125 433.648438 L 77.203125 477.007812 L 33.835938 476.941406 C 33.835938 472.574219 33.835938 456.34375 33.839844 433.648438 Z M 394.808594 122.765625 C 396.5625 122.765625 398.316406 122.460938 400.023438 121.867188 L 400.570312 121.675781 L 400.574219 121.6875 L 400.945312 121.53125 C 406.839844 119.050781 410.652344 113.320312 410.652344 106.925781 C 410.652344 98.195312 403.546875 91.089844 394.808594 91.089844 C 392.109375 91.089844 389.433594 91.789062 387.074219 93.113281 L 386.699219 93.324219 L 386.238281 93.621094 C 381.683594 96.558594 378.964844 101.53125 378.964844 106.925781 C 378.964844 115.660156 386.070312 122.765625 394.808594 122.765625 Z M 393.792969 544.191406 C 392.722656 543.539062 391.117188 543.207031 389.027344 543.207031 C 383.144531 543.207031 374.410156 545.832031 368.03125 547.75 C 365.75 548.4375 363.78125 549.027344 362.175781 549.441406 C 360.371094 549.90625 359.332031 551.050781 358.816406 553.160156 L 358.71875 553.558594 L 358.308594 553.609375 C 358.242188 553.617188 358.179688 553.621094 358.113281 553.628906 C 358.152344 553.421875 358.1875 553.214844 358.234375 553.019531 C 354.511719 553.488281 352.332031 552.417969 350.628906 549.453125 C 350.210938 548.730469 349.019531 546.644531 347.222656 543.523438 C 347.078125 543.65625 346.917969 543.792969 346.765625 543.929688 L 346.46875 543.40625 L 346.820312 543.082031 C 351.703125 538.59375 354.34375 534.539062 353.878906 532.234375 C 352.890625 527.300781 332.40625 500.410156 311.730469 476.898438 L 310.832031 475.882812 C 297.792969 461.125 288.382812 452.015625 285.019531 450.898438 L 284.792969 450.824219 L 284.679688 450.613281 C 275.082031 432.308594 249.527344 411.027344 228.816406 397.214844 L 227.441406 396.296875 L 227.429688 396.296875 L 227.28125 396.199219 C 225.230469 394.855469 223.308594 393.644531 221.570312 392.601562 C 220.15625 391.753906 218.667969 390.914062 217.148438 390.101562 L 216.960938 390 L 216.878906 389.800781 C 213.8125 382.335938 207.109375 376.335938 198.003906 372.914062 L 196.738281 372.441406 L 197.417969 372.09375 C 197.679688 372.1875 197.953125 372.261719 198.210938 372.359375 C 204.214844 369.296875 205.371094 359.027344 203.039062 349.332031 C 202.84375 348.53125 202.597656 347.78125 202.324219 347.058594 C 202.183594 347.230469 202.015625 347.378906 201.855469 347.53125 C 201.824219 347.441406 201.800781 347.363281 201.765625 347.269531 L 201.644531 346.945312 L 201.867188 346.675781 C 204.632812 343.375 203.652344 337.214844 201.667969 334.832031 C 199.429688 332.144531 197.027344 330.839844 194.3125 330.839844 C 192.539062 330.839844 190.636719 331.394531 188.5 332.539062 L 188.292969 332.648438 L 188.070312 332.589844 C 185.769531 331.992188 183.558594 331.6875 181.488281 331.6875 L 181.421875 331.6875 L 181.367188 331.679688 C 180.121094 331.449219 178.902344 331.335938 177.738281 331.335938 C 175.0625 331.335938 172.59375 331.917969 170.199219 333.113281 C 162.402344 337.269531 162.136719 345.035156 163.285156 350.816406 C 164.230469 355.578125 166.960938 359.949219 169.15625 363.464844 C 170.484375 365.59375 171.632812 367.433594 172.242188 369.097656 C 172.261719 369.175781 172.304688 369.261719 172.40625 369.464844 L 172.769531 370.214844 L 171.945312 370.316406 C 168.742188 370.71875 165.511719 371.351562 162.34375 372.195312 C 145.6875 376.640625 131.742188 398.777344 134.191406 416.886719 L 134.210938 417.035156 L 134.15625 417.175781 C 127.085938 436.09375 124.464844 459.984375 123.511719 476.699219 L 123.457031 477.710938 C 122.136719 502.121094 123.570312 522.929688 125.195312 533.332031 C 127.910156 550.695312 144.625 576.523438 179.558594 576.523438 C 186.414062 576.523438 193.710938 575.488281 201.25 573.449219 C 209.65625 571.175781 217.0625 568.066406 223.261719 564.210938 L 224.109375 563.683594 L 224.171875 564.675781 C 224.347656 567.28125 224.964844 570.382812 226.945312 570.382812 C 227.015625 570.382812 227.089844 570.378906 227.164062 570.371094 L 292.0625 564.238281 C 293.859375 564.066406 295.042969 563.523438 295.589844 562.617188 C 296.605469 560.917969 295.355469 557.933594 294.683594 556.328125 C 292.597656 551.367188 280.042969 547.011719 271.730469 544.128906 C 269.476562 543.347656 267.53125 542.671875 265.984375 542.066406 C 265.402344 541.839844 264.835938 541.722656 264.296875 541.722656 C 263.21875 541.722656 262.199219 542.164062 261.078125 543.113281 L 260.765625 543.378906 L 260.40625 543.183594 C 260.347656 543.148438 260.296875 543.113281 260.238281 543.078125 C 260.390625 542.9375 260.539062 542.789062 260.691406 542.660156 C 260.269531 542.429688 259.882812 542.191406 259.527344 541.945312 C 259.355469 542.066406 259.171875 542.183594 258.996094 542.300781 L 258.472656 541.941406 L 259.195312 541.453125 C 271.003906 533.496094 278.332031 526.699219 278.40625 526.632812 L 278.796875 526.261719 L 279.203125 526.617188 C 279.378906 526.769531 296.839844 542.050781 308.1875 554.738281 C 310.082031 556.855469 312.847656 557.929688 316.402344 557.929688 C 318.085938 557.929688 319.953125 557.6875 321.945312 557.207031 L 322.308594 557.121094 L 322.546875 557.40625 C 322.605469 557.480469 322.660156 557.546875 322.722656 557.617188 C 322.507812 557.671875 322.296875 557.738281 322.085938 557.789062 C 328.101562 565.023438 332.054688 570.125 332.3125 571.734375 C 332.433594 572.484375 332.617188 573.238281 332.832031 574 C 332.980469 573.828125 333.144531 573.664062 333.324219 573.511719 C 333.355469 573.625 333.375 573.71875 333.40625 573.839844 L 333.492188 574.144531 L 333.285156 574.386719 C 332.949219 574.78125 332.417969 575.574219 332.667969 576.445312 C 333.355469 578.828125 341.394531 595.59375 346.125 595.59375 C 346.5625 595.59375 346.949219 595.4375 347.3125 595.121094 C 352.402344 590.65625 391.589844 556.277344 396.304688 552.136719 C 397.664062 550.945312 398.304688 549.8125 398.214844 548.757812 C 398.042969 546.78125 395.277344 545.09375 393.792969 544.191406 Z M 244.316406 230.054688 L 244.316406 396.121094 L 514.976562 396.121094 L 514.976562 230.054688 Z M 244.316406 230.054688 " fill-opacity="1" fill-rule="nonzero"/><path fill="#fcd116" d="M 34.261719 433.054688 L 77.800781 433.054688 L 77.800781 476.59375 L 34.253906 476.523438 C 34.253906 471.566406 34.257812 455.382812 34.261719 433.054688 Z M 510.492188 234.535156 L 510.492188 391.128906 L 248.800781 391.128906 L 248.800781 234.535156 Z M 496.167969 372.019531 C 492.273438 355.886719 482.113281 345.019531 457.832031 340.304688 C 451.574219 330.160156 437.984375 321.578125 437.980469 321.578125 C 446.105469 316.71875 451.515625 308.097656 451.515625 298.261719 C 451.515625 283.078125 438.632812 270.769531 422.746094 270.769531 C 406.855469 270.769531 393.976562 283.078125 393.976562 298.261719 C 393.976562 301.859375 394.707031 305.289062 396.019531 308.4375 C 396.226562 319.980469 400.527344 329.820312 409.621094 329.820312 C 411.214844 329.820312 412.953125 329.601562 414.75 329.1875 L 414.75 337.804688 C 372.652344 339.328125 357.371094 351.34375 352.382812 372.019531 Z M 496.167969 372.019531 " fill-opacity="1" fill-rule="nonzero"/><path fill="#ffffff" d="M 413.832031 316.640625 C 412.855469 318.558594 411.15625 320.933594 408.613281 321.332031 C 408.363281 321.371094 408.125 321.390625 407.902344 321.390625 C 407.167969 321.390625 406.574219 321.179688 406.128906 320.761719 C 405.355469 320.023438 405.171875 318.824219 405.160156 317.949219 C 405.15625 317.863281 405.195312 317.777344 405.257812 317.722656 C 405.324219 317.664062 405.414062 317.640625 405.496094 317.648438 C 406.03125 317.71875 406.597656 317.753906 407.175781 317.753906 C 409.449219 317.753906 411.726562 317.203125 413.417969 316.246094 C 413.535156 316.183594 413.679688 316.199219 413.773438 316.289062 C 413.867188 316.378906 413.890625 316.523438 413.832031 316.640625 Z M 248.800781 281.347656 L 331.390625 281.347656 L 358.820312 245.058594 L 248.800781 245.058594 Z M 248.800781 281.347656 " fill-opacity="1" fill-rule="nonzero"/><path fill="#ce1126" d="M 378.367188 106.925781 C 378.367188 101.128906 381.378906 96.046875 385.914062 93.121094 C 391.488281 102.40625 396.285156 112.207031 400.222656 122.429688 C 398.523438 123.023438 396.707031 123.359375 394.808594 123.359375 C 385.726562 123.359375 378.367188 116.003906 378.367188 106.925781 Z M 411.246094 106.925781 C 411.246094 97.851562 403.886719 90.492188 394.808594 90.492188 C 391.890625 90.492188 389.15625 91.261719 386.78125 92.59375 C 392.390625 101.933594 397.21875 111.792969 401.175781 122.082031 C 407.089844 119.59375 411.246094 113.746094 411.246094 106.925781 Z M 229.144531 396.714844 C 228.617188 396.367188 228.109375 396.03125 227.605469 395.699219 C 225.484375 394.308594 223.550781 393.09375 221.875 392.089844 C 220.4375 391.226562 218.949219 390.386719 217.429688 389.574219 C 214.304688 381.96875 207.472656 375.839844 198.210938 372.359375 C 193.84375 370.71875 188.9375 369.667969 183.621094 369.332031 C 179.886719 369.097656 175.957031 369.214844 171.867188 369.726562 C 168.722656 370.121094 165.492188 370.738281 162.1875 371.621094 C 144.929688 376.222656 131.136719 398.765625 133.597656 416.964844 C 127.269531 433.894531 124.105469 455.816406 122.914062 476.664062 C 122.894531 477.003906 122.878906 477.339844 122.859375 477.679688 C 121.640625 500.21875 122.71875 521.375 124.601562 533.425781 C 127.988281 555.089844 152.480469 587.257812 201.402344 574.023438 C 210.289062 571.621094 217.585938 568.441406 223.574219 564.714844 C 267.402344 537.449219 240.347656 480.660156 240.347656 480.660156 C 240.347656 480.660156 286.0625 491.832031 289.113281 466.507812 C 289.714844 461.503906 288.183594 456.011719 285.207031 450.332031 C 274.769531 430.441406 246.46875 408.273438 229.144531 396.714844 Z M 498.304688 391.128906 C 497.714844 364.355469 490.730469 346.691406 457.828125 340.304688 C 450.542969 338.890625 441.984375 338.03125 431.941406 337.746094 L 431.941406 348.847656 L 422.742188 371.496094 L 414.75 348.847656 L 414.75 337.804688 C 361 339.75 350.960938 358.792969 350.246094 391.132812 L 417.164062 391.132812 L 416.398438 390.164062 C 416.835938 390.175781 417.277344 390.1875 417.714844 390.191406 L 418.460938 391.132812 L 428.230469 391.132812 L 428.757812 390.46875 C 429.199219 390.460938 429.644531 390.445312 430.085938 390.425781 L 429.527344 391.132812 L 498.304688 391.132812 Z M 498.304688 391.128906 " fill-opacity="1" fill-rule="nonzero"/><g clip-path="url(#b2690078d4)"><path fill="#000000" d="M 515.574219 395.699219 L 515.574219 229.457031 L 413.773438 229.457031 L 413.773438 190.070312 C 413.773438 166.125 409.304688 143.203125 401.175781 122.082031 C 397.214844 111.792969 392.390625 101.933594 386.78125 92.59375 C 353.5 37.171875 292.761719 0 223.492188 0 C 118.609375 0 33.28125 85.265625 33.28125 190.070312 C 33.28125 199.335938 33.269531 266.445312 33.257812 333.550781 C 33.25 400.65625 33.238281 467.761719 33.238281 477.027344 L 33.238281 477.535156 L 122.859375 477.679688 C 122.878906 477.339844 122.894531 477.003906 122.917969 476.664062 L 77.800781 476.59375 L 34.253906 476.523438 C 34.253906 471.566406 34.257812 455.382812 34.261719 433.054688 C 34.265625 405.933594 34.269531 369.742188 34.277344 333.550781 C 34.285156 266.445312 34.296875 199.339844 34.296875 190.070312 C 34.296875 85.828125 119.171875 1.015625 223.492188 1.015625 C 292.398438 1.015625 352.8125 37.992188 385.914062 93.121094 C 391.488281 102.40625 396.285156 112.207031 400.222656 122.429688 C 408.308594 143.445312 412.757812 166.246094 412.757812 190.070312 L 412.757812 229.457031 L 243.722656 229.457031 L 243.722656 395.699219 L 227.605469 395.699219 C 228.109375 396.03125 228.621094 396.367188 229.144531 396.714844 L 566.070312 396.714844 L 566.070312 520.421875 L 554.363281 520.421875 L 554.363281 475.488281 L 311.28125 475.488281 C 299.582031 462.25 289.078125 451.621094 285.207031 450.332031 C 288.1875 456.011719 289.714844 461.503906 289.113281 466.507812 C 286.066406 491.832031 240.347656 480.660156 240.347656 480.660156 C 240.347656 480.660156 267.402344 537.449219 223.574219 564.714844 C 223.820312 568.445312 224.8125 571.191406 227.214844 570.964844 C 233.957031 570.328125 285.867188 565.421875 292.113281 564.832031 C 298.359375 564.238281 296.644531 559.476562 295.226562 556.097656 C 292.492188 549.578125 273.824219 544.507812 266.199219 541.511719 C 264.023438 540.65625 262.285156 541.300781 260.6875 542.65625 C 256.683594 546.054688 253.554688 553.929688 246.621094 553.914062 C 244.246094 553.910156 242.300781 553.617188 240.6875 553.140625 C 247.769531 549.480469 254.121094 545.585938 259.527344 541.945312 C 271.519531 533.863281 278.808594 527.0625 278.808594 527.0625 C 278.808594 527.0625 296.285156 542.328125 307.738281 555.128906 C 310.964844 558.738281 316.230469 559.191406 322.082031 557.78125 C 330.726562 555.703125 340.648438 549.5625 347.222656 543.519531 C 351.992188 539.136719 355.003906 534.804688 354.464844 532.113281 C 353.363281 526.636719 331.367188 498.324219 312.175781 476.5 L 553.347656 476.5 L 553.347656 521.433594 L 567.085938 521.433594 L 567.085938 395.699219 Z M 510.492188 391.128906 L 429.527344 391.128906 L 451.269531 363.699219 C 451.390625 363.546875 451.414062 363.335938 451.328125 363.164062 C 451.242188 362.988281 451.066406 362.875 450.871094 362.875 L 437.871094 362.875 L 447.191406 342.402344 C 447.308594 342.148438 447.195312 341.847656 446.941406 341.730469 C 446.683594 341.617188 446.382812 341.726562 446.265625 341.984375 L 436.621094 363.171875 C 436.550781 363.332031 436.5625 363.511719 436.65625 363.65625 C 436.75 363.800781 436.910156 363.890625 437.082031 363.890625 L 449.820312 363.890625 L 428.230469 391.128906 L 418.460938 391.128906 L 396.875 363.890625 L 409.609375 363.890625 C 409.78125 363.890625 409.945312 363.804688 410.039062 363.65625 C 410.132812 363.511719 410.144531 363.332031 410.074219 363.171875 L 400.425781 341.984375 C 400.308594 341.726562 400.011719 341.617188 399.753906 341.730469 C 399.5 341.847656 399.386719 342.148438 399.503906 342.402344 L 408.820312 362.875 L 395.824219 362.875 C 395.628906 362.875 395.453125 362.988281 395.367188 363.164062 C 395.28125 363.335938 395.304688 363.546875 395.425781 363.699219 L 417.167969 391.128906 L 248.800781 391.128906 L 248.800781 234.535156 L 510.492188 234.535156 Z M 396.699219 552.582031 C 391.980469 556.71875 352.792969 591.097656 347.703125 595.5625 C 342.613281 600.027344 332.796875 579.046875 332.09375 576.605469 C 331.835938 575.707031 332.171875 574.769531 332.832031 573.996094 C 333.96875 572.664062 336.082031 571.820312 337.855469 572.542969 C 340.664062 573.6875 345.570312 576.042969 353.4375 570.378906 C 359.0625 566.328125 356.980469 558.117188 358.234375 553.015625 C 358.734375 550.984375 359.765625 549.441406 362.027344 548.863281 C 369.964844 546.824219 388.066406 540 394.101562 543.679688 C 397.230469 545.585938 401.414062 548.441406 396.699219 552.582031 Z M 192.03125 359.324219 C 192.035156 359.605469 191.804688 359.832031 191.523438 359.832031 C 191.246094 359.832031 191.015625 359.605469 191.015625 359.324219 C 191.015625 355.527344 188.285156 355.136719 188.167969 355.121094 C 187.890625 355.085938 187.691406 354.832031 187.726562 354.554688 C 187.757812 354.277344 188.007812 354.074219 188.285156 354.113281 C 188.324219 354.117188 192.03125 354.601562 192.03125 359.324219 Z M 198.59375 357.648438 C 198.523438 359.085938 193.84375 359.378906 193.851562 357.5625 C 193.855469 356.121094 193.128906 353.664062 191.746094 352.535156 C 190.683594 351.96875 189.488281 351.949219 188.410156 352.535156 C 187.1875 353.210938 186.359375 354.523438 186.359375 355.8125 C 186.359375 358.324219 189.644531 361.890625 192.710938 361.890625 C 192.992188 361.890625 193.21875 362.117188 193.21875 362.398438 C 193.21875 362.679688 192.992188 362.90625 192.710938 362.90625 C 189.335938 362.90625 185.34375 359.058594 185.34375 355.808594 C 185.34375 354.140625 186.355469 352.503906 187.921875 351.644531 C 188.027344 351.589844 188.128906 351.546875 188.234375 351.5 C 186.667969 351.371094 184.832031 351.863281 183.777344 355.027344 C 182.085938 360.105469 183.945312 366.027344 184.03125 368.480469 C 184.042969 368.765625 183.886719 369.050781 183.621094 369.332031 C 179.890625 369.097656 175.957031 369.214844 171.867188 369.726562 C 171.789062 369.570312 171.703125 369.421875 171.660156 369.242188 C 170.105469 365.019531 164.222656 358.605469 162.695312 350.933594 C 161.171875 343.261719 162.929688 336.316406 169.917969 332.589844 C 173.769531 330.664062 177.621094 330.386719 181.472656 331.09375 C 183.542969 331.09375 185.789062 331.382812 188.21875 332.015625 C 192.890625 329.515625 197.683594 329.121094 202.125 334.449219 C 204.328125 337.097656 205.214844 343.605469 202.320312 347.058594 C 201.859375 347.609375 201.3125 348.089844 200.648438 348.457031 C 197.671875 350.101562 198.660156 356.210938 198.59375 357.648438 Z M 213.019531 390.539062 C 200.207031 390.539062 191.898438 400.773438 183.859375 410.671875 C 179.019531 416.636719 174.449219 422.269531 169.230469 425.007812 C 162.433594 428.574219 153.726562 431.386719 146.578125 431.386719 C 143.304688 431.386719 140.355469 430.796875 138.070312 429.417969 C 137.832031 429.273438 137.753906 428.960938 137.898438 428.71875 C 138.042969 428.480469 138.355469 428.402344 138.597656 428.546875 C 145.53125 432.730469 159.089844 429.179688 168.757812 424.109375 C 173.789062 421.46875 178.296875 415.914062 183.070312 410.035156 C 190.875 400.417969 199.722656 389.523438 213.019531 389.523438 C 213.296875 389.523438 213.527344 389.75 213.527344 390.03125 C 213.527344 390.308594 213.300781 390.539062 213.019531 390.539062 Z M 236.90625 478.511719 L 212.625 448.917969 C 212.445312 448.703125 212.476562 448.378906 212.695312 448.203125 C 212.910156 448.023438 213.230469 448.058594 213.410156 448.273438 L 237.691406 477.867188 C 237.871094 478.082031 237.839844 478.40625 237.621094 478.582031 C 237.527344 478.660156 237.414062 478.699219 237.300781 478.699219 C 237.152344 478.699219 237.007812 478.632812 236.90625 478.511719 Z M 396.019531 308.4375 C 394.707031 305.289062 393.976562 301.855469 393.976562 298.261719 C 393.976562 283.078125 406.855469 270.769531 422.742188 270.769531 C 438.632812 270.769531 451.511719 283.078125 451.511719 298.261719 C 451.511719 308.09375 446.105469 316.71875 437.980469 321.578125 C 437.980469 321.578125 451.570312 330.160156 457.828125 340.304688 C 450.542969 338.890625 441.984375 338.027344 431.941406 337.742188 L 431.941406 318.503906 C 432.59375 317.703125 433.199219 316.859375 433.761719 315.976562 C 435.171875 315.976562 436.511719 315.976562 437.234375 315.976562 C 442.527344 315.976562 447.371094 309.8125 447.371094 305.011719 C 447.371094 301.949219 445.394531 300.1875 442.589844 299.308594 C 442.125 301.191406 441.417969 303.015625 440.570312 304.714844 C 440.863281 304.363281 441.179688 304.054688 441.527344 303.859375 C 442.601562 303.261719 443.742188 303.597656 444.664062 304.777344 C 444.835938 304.996094 444.796875 305.316406 444.574219 305.488281 C 444.351562 305.660156 444.035156 305.621094 443.863281 305.398438 C 442.949219 304.230469 442.25 304.621094 442.023438 304.75 C 440.582031 305.550781 439.5625 308.796875 440.203125 310.539062 C 440.300781 310.804688 440.164062 311.09375 439.902344 311.191406 C 439.847656 311.214844 439.785156 311.222656 439.726562 311.222656 C 439.519531 311.222656 439.328125 311.097656 439.25 310.890625 C 438.828125 309.742188 438.949219 308.199219 439.414062 306.828125 C 436.449219 311.792969 432.59375 315.226562 431.230469 315 C 431.007812 308.828125 432.933594 298.261719 424.976562 295.667969 C 416.863281 293.023438 417.335938 284.414062 417.335938 284.414062 C 417.335938 284.414062 414.996094 287.375 408.640625 290.214844 C 403.714844 292.417969 401.214844 293.089844 398.488281 293.285156 C 397.605469 295.195312 396.953125 297.335938 396.597656 299.722656 C 396.164062 302.652344 395.96875 305.597656 396.019531 308.4375 Z M 417.339844 304.269531 C 417.339844 305.703125 416.523438 306.863281 415.515625 306.863281 C 414.507812 306.863281 413.691406 305.703125 413.691406 304.269531 C 413.691406 302.839844 414.507812 301.679688 415.515625 301.679688 C 416.523438 301.679688 417.339844 302.839844 417.339844 304.269531 Z M 401.316406 306.863281 C 400.308594 306.863281 399.492188 305.703125 399.492188 304.269531 C 399.492188 302.839844 400.308594 301.679688 401.316406 301.679688 C 402.324219 301.679688 403.140625 302.839844 403.140625 304.269531 C 403.140625 305.703125 402.324219 306.863281 401.316406 306.863281 Z M 419.960938 299.617188 C 420.304688 300.539062 415.515625 298.59375 411.976562 300.089844 C 410.375 300.761719 410.34375 297.808594 412.132812 297.117188 C 414.765625 296.101562 418.945312 296.917969 419.960938 299.617188 Z M 397.992188 299.617188 C 398.765625 296.917969 401.941406 296.101562 403.941406 297.117188 C 405.300781 297.808594 405.273438 300.761719 404.0625 300.089844 C 401.371094 298.59375 397.730469 300.539062 397.992188 299.617188 Z M 403.320312 310.753906 C 403.25 311.03125 403.324219 311.125 403.351562 311.160156 C 403.679688 311.578125 405.121094 311.566406 406.074219 311.554688 L 406.535156 311.554688 C 406.816406 311.554688 407.042969 311.78125 407.042969 312.0625 C 407.042969 312.34375 406.816406 312.570312 406.535156 312.570312 L 406.082031 312.574219 C 405.914062 312.574219 405.738281 312.574219 405.566406 312.574219 C 404.355469 312.574219 403.109375 312.496094 402.554688 311.789062 C 402.367188 311.550781 402.179688 311.132812 402.339844 310.503906 C 402.5625 309.632812 403.046875 308.597656 403.5625 307.503906 C 404.035156 306.496094 404.523438 305.449219 404.816406 304.511719 C 404.898438 304.242188 405.179688 304.09375 405.453125 304.175781 C 405.71875 304.261719 405.867188 304.542969 405.785156 304.8125 C 405.472656 305.820312 404.96875 306.894531 404.480469 307.933594 C 403.988281 308.984375 403.519531 309.976562 403.320312 310.753906 Z M 414.417969 314.636719 C 412.285156 316.671875 408.070312 317.375 405.089844 316.847656 C 405.070312 316.84375 405.046875 316.839844 405.027344 316.835938 C 404.144531 316.675781 403.375 316.402344 402.800781 316.027344 C 402.566406 315.871094 402.253906 315.9375 402.097656 316.171875 C 401.945312 316.40625 402.007812 316.71875 402.242188 316.875 C 402.839844 317.265625 403.589844 317.5625 404.4375 317.757812 C 404.429688 318.574219 404.554688 320.25 405.632812 321.277344 C 406.214844 321.828125 406.972656 322.109375 407.894531 322.109375 C 408.15625 322.109375 408.433594 322.085938 408.722656 322.042969 C 413.179688 321.339844 415.167969 315.414062 415.25 315.160156 C 415.324219 314.9375 415.238281 314.695312 415.039062 314.574219 C 414.84375 314.449219 414.585938 314.472656 414.417969 314.636719 Z M 408.566406 321.035156 C 407.59375 321.191406 406.84375 321.023438 406.335938 320.542969 C 405.601562 319.847656 405.46875 318.640625 405.457031 317.941406 C 408.046875 318.28125 411.226562 317.828125 413.566406 316.503906 C 412.703125 318.203125 411.050781 320.644531 408.566406 321.035156 Z M 260.703125 271.839844 L 257.582031 271.839844 L 257.582031 254.554688 L 260.324219 254.554688 L 267.457031 265.828125 L 267.457031 254.554688 L 270.582031 254.554688 L 270.582031 271.839844 L 267.816406 271.839844 L 260.703125 260.738281 Z M 287.558594 271.851562 L 276.144531 271.851562 L 276.144531 254.554688 L 287.558594 254.554688 L 287.558594 257.585938 L 279.289062 257.585938 L 279.289062 261.742188 L 286.3125 261.742188 L 286.3125 264.773438 L 279.289062 264.773438 L 279.289062 268.820312 L 287.558594 268.820312 Z M 294.738281 271.851562 L 290.515625 254.554688 L 293.78125 254.554688 L 296.386719 266.117188 L 299.410156 254.554688 L 301.640625 254.554688 L 304.664062 266.117188 L 307.269531 254.554688 L 310.539062 254.554688 L 306.3125 271.851562 L 303.308594 271.851562 L 300.585938 261.53125 L 297.742188 271.851562 Z M 322.769531 266.894531 C 322.769531 266.414062 322.660156 266.058594 322.429688 265.796875 C 322.179688 265.519531 321.851562 265.308594 321.449219 265.167969 C 321 265.011719 320.402344 264.867188 319.679688 264.738281 C 319.613281 264.730469 319.542969 264.722656 319.480469 264.699219 L 319.355469 264.679688 C 318.246094 264.488281 317.320312 264.269531 316.613281 264.023438 C 315.847656 263.761719 315.1875 263.273438 314.648438 262.582031 C 314.097656 261.882812 313.824219 260.890625 313.824219 259.636719 C 313.824219 258.53125 314.074219 257.578125 314.574219 256.792969 C 315.070312 256.003906 315.808594 255.398438 316.757812 254.988281 C 317.683594 254.585938 318.800781 254.386719 320.082031 254.386719 C 320.703125 254.386719 321.316406 254.453125 321.914062 254.589844 C 322.507812 254.722656 323.105469 254.921875 323.683594 255.1875 C 324.257812 255.449219 324.832031 255.785156 325.390625 256.183594 L 325.730469 256.429688 L 323.925781 258.945312 L 323.585938 258.695312 C 322.992188 258.257812 322.394531 257.929688 321.8125 257.714844 C 321.242188 257.5 320.65625 257.394531 320.082031 257.394531 C 319.054688 257.394531 318.253906 257.59375 317.707031 257.988281 C 317.191406 258.359375 316.945312 258.871094 316.945312 259.558594 C 316.945312 260.027344 317.0625 260.367188 317.304688 260.613281 C 317.578125 260.886719 317.925781 261.09375 318.335938 261.226562 C 318.800781 261.375 319.457031 261.535156 320.289062 261.695312 C 320.394531 261.714844 320.4375 261.722656 320.480469 261.734375 L 320.707031 261.773438 C 321.730469 261.984375 322.59375 262.234375 323.285156 262.523438 C 324.023438 262.832031 324.644531 263.332031 325.140625 264.015625 C 325.640625 264.710938 325.890625 265.648438 325.890625 266.816406 C 325.890625 267.921875 325.628906 268.867188 325.109375 269.644531 C 324.585938 270.425781 323.832031 271.027344 322.855469 271.429688 C 321.902344 271.824219 320.75 272.023438 319.425781 272.023438 L 318.148438 272.015625 L 317.085938 271.789062 C 316.34375 271.628906 315.644531 271.390625 315 271.074219 C 314.359375 270.757812 313.75 270.359375 313.1875 269.886719 L 312.875 269.621094 L 314.84375 267.207031 L 315.171875 267.488281 C 315.753906 267.992188 316.40625 268.378906 317.109375 268.632812 C 317.816406 268.886719 318.597656 269.015625 319.425781 269.015625 C 320.53125 269.015625 321.386719 268.816406 321.96875 268.421875 C 322.507812 268.0625 322.769531 267.5625 322.769531 266.894531 Z M 322.769531 266.894531 " fill-opacity="1" fill-rule="nonzero"/></g></svg>