<svg xmlns="http://www.w3.org/2000/svg" xmlns:xlink="http://www.w3.org/1999/xlink" width="800" zoomAndPan="magnify" viewBox="0 0 600 599.999999" height="800" preserveAspectRatio="xMidYMid meet" version="1.0"><defs><clipPath id="6e72ec7446"><path d="M 532 506 L 559.96875 506 L 559.96875 556 L 532 556 Z M 532 506 " clip-rule="nonzero"/></clipPath><clipPath id="d2d16cdcba"><path d="M 364 113 L 559.96875 113 L 559.96875 521 L 364 521 Z M 364 113 " clip-rule="nonzero"/></clipPath><clipPath id="21026b52ae"><path d="M 364 199 L 559.96875 199 L 559.96875 521 L 364 521 Z M 364 199 " clip-rule="nonzero"/></clipPath></defs><path fill="#15193b" d="M 319.28125 113.605469 L 197.703125 113.605469 C 130.40625 113.605469 75.199219 171.589844 75.199219 242.457031 L 75.199219 555.777344 L 102.015625 555.777344 L 102.015625 520.410156 L 216.101562 520.410156 L 216.101562 555.777344 L 242.917969 555.777344 L 242.917969 520.410156 L 273.015625 520.410156 Z M 319.28125 113.605469 " fill-opacity="1" fill-rule="evenodd"/><path fill="#0697c5" d="M 75.199219 297.679688 L 219.519531 297.679688 L 219.519531 314.90625 L 75.199219 314.90625 Z M 75.199219 297.679688 " fill-opacity="0.38" fill-rule="evenodd"/><path fill="#ff9933" d="M 177.984375 230.363281 C 196.78125 236.015625 206.246094 238.910156 206.246094 238.910156 C 191.394531 262.574219 167.472656 303.203125 150.648438 261.65625 C 141.183594 238.382812 138.292969 207.222656 139.34375 161.464844 C 145.390625 162.519531 150.253906 165.148438 153.933594 169.488281 C 161.292969 178.164062 172.859375 216.6875 177.984375 230.363281 Z M 177.984375 230.363281 " fill-opacity="1" fill-rule="evenodd"/><path fill="#15193b" d="M 199.277344 236.804688 L 202.171875 237.726562 C 201.644531 241.273438 201.121094 244.695312 200.59375 247.847656 C 185.871094 270.988281 165.5 298.207031 150.515625 261.65625 C 144.996094 247.980469 141.707031 231.675781 140.132812 211.296875 C 143.023438 204.199219 146.835938 197.625 151.433594 191.707031 C 158.53125 223.261719 159.453125 251.136719 168.785156 258.105469 C 176.277344 263.496094 189.289062 249.425781 199.277344 236.804688 Z M 199.277344 236.804688 " fill-opacity="0.2" fill-rule="evenodd"/><path fill="#ffffff" d="M 185.476562 202.355469 L 205.851562 199.988281 C 207.429688 199.859375 208.609375 200.910156 208.480469 202.488281 L 205.851562 242.851562 C 205.71875 244.429688 204.40625 245.746094 202.828125 246.007812 L 182.453125 248.375 C 180.878906 248.507812 179.695312 247.453125 179.824219 245.878906 L 182.453125 205.511719 C 182.585938 203.933594 183.902344 202.621094 185.476562 202.355469 Z M 185.476562 202.355469 " fill-opacity="1" fill-rule="evenodd"/><path fill="#15193b" d="M 153.667969 124.914062 C 110.558594 184.605469 105.039062 224.972656 93.078125 241.539062 C 88.476562 247.847656 71.652344 249.03125 71.652344 249.03125 C 40.761719 218.527344 63.765625 177.769531 74.542969 147.265625 C 81.507812 127.414062 81.378906 97.171875 94.652344 84.15625 C 101.355469 77.710938 110.425781 73.636719 120.019531 72.058594 C 154.195312 66.273438 175.355469 90.992188 153.667969 124.914062 Z M 153.667969 124.914062 " fill-opacity="1" fill-rule="evenodd"/><path fill="#f7bfc8" d="M 117.390625 422.457031 C 86.898438 436.65625 71.519531 443.757812 71.519531 443.757812 C 72.308594 487.015625 70.335938 524.75 65.472656 556.832031 C 67.050781 558.015625 70.074219 559.199219 74.015625 560.25 L 75.199219 553.414062 C 75.59375 556.4375 76.382812 558.671875 77.960938 560.117188 C 81.773438 563.800781 110.820312 565.902344 113.054688 560.90625 C 112.136719 551.175781 95.046875 547.628906 91.761719 534.085938 C 88.082031 518.703125 111.347656 445.730469 117.390625 422.457031 Z M 117.390625 422.457031 " fill-opacity="1" fill-rule="evenodd"/><path fill="#f7bfc8" d="M 158.664062 422.71875 C 130.535156 436.917969 116.472656 444.019531 116.472656 444.019531 C 124.621094 487.277344 128.960938 525.011719 129.617188 557.09375 C 131.324219 558.277344 134.609375 559.460938 138.6875 560.511719 L 138.816406 553.675781 C 139.605469 556.699219 140.921875 558.933594 142.628906 560.382812 C 146.964844 564.0625 176.410156 566.167969 177.855469 561.167969 C 175.226562 551.441406 157.613281 547.890625 151.960938 534.347656 C 145.652344 518.964844 156.5625 446.125 158.664062 422.71875 Z M 158.664062 422.71875 " fill-opacity="1" fill-rule="evenodd"/><path fill="#15193b" d="M 68.496094 533.953125 C 67.707031 541.84375 66.65625 549.46875 65.605469 556.699219 C 67.183594 557.882812 70.207031 559.066406 74.148438 560.117188 L 75.332031 553.28125 C 75.726562 556.304688 76.515625 558.539062 78.09375 559.988281 C 81.902344 563.667969 110.953125 565.773438 113.1875 560.773438 C 112.527344 553.9375 103.855469 550.125 97.675781 543.8125 C 99.121094 551.175781 72.046875 549.335938 68.496094 533.953125 Z M 68.496094 533.953125 " fill-opacity="1" fill-rule="evenodd"/><path fill="#15193b" d="M 128.695312 534.347656 C 129.222656 542.238281 129.484375 549.863281 129.617188 557.09375 C 131.324219 558.277344 134.609375 559.460938 138.6875 560.511719 L 138.816406 553.675781 C 139.605469 556.699219 140.921875 558.933594 142.628906 560.378906 C 146.964844 564.0625 176.410156 566.167969 177.855469 561.167969 C 176.015625 554.332031 166.8125 550.519531 159.453125 544.207031 C 162.214844 551.441406 134.875 549.730469 128.695312 534.347656 Z M 128.695312 534.347656 " fill-opacity="1" fill-rule="evenodd"/><path fill="#ff9933" d="M 107.535156 154.101562 C 100.699219 159.230469 94.785156 161.203125 89 167.25 C 72.964844 175.007812 73.492188 230.492188 63.765625 299.128906 C 57.324219 345.015625 48.519531 398.527344 46.941406 431.660156 C 52.988281 459.007812 144.996094 470.972656 181.796875 433.894531 C 158.269531 280.0625 146.308594 247.585938 146.308594 247.585938 C 161.6875 219.582031 153.144531 186.449219 139.210938 161.464844 C 116.734375 156.207031 105.429688 155.550781 107.535156 154.101562 Z M 107.535156 154.101562 " fill-opacity="1" fill-rule="evenodd"/><path fill="#15193b" d="M 157.746094 295.578125 C 150.121094 258.105469 146.175781 247.585938 146.175781 247.585938 C 150.121094 240.355469 152.488281 232.859375 153.539062 225.234375 C 130.667969 238.515625 117.390625 235.882812 113.449219 217.476562 C 113.449219 217.476562 108.585938 209.457031 98.726562 193.417969 C 94.390625 183.027344 74.804688 176.71875 69.8125 247.191406 C 66.394531 321.085938 95.703125 337.125 157.746094 295.578125 Z M 157.746094 295.578125 " fill-opacity="0.2" fill-rule="evenodd"/><path fill="#f7bfc8" d="M 157.085938 240.75 C 160.765625 252.582031 162.609375 258.5 162.609375 258.5 C 181.140625 252.582031 192.050781 246.402344 195.335938 239.828125 C 195.863281 235.226562 200.59375 211.296875 194.941406 211.167969 C 192.839844 215.375 188.5 219.976562 181.796875 224.972656 C 184.425781 217.871094 184.820312 212.613281 183.242188 209.0625 C 181.667969 208.535156 180.089844 212.613281 173.78125 219.710938 C 169.046875 227.863281 163.394531 234.964844 157.085938 240.75 Z M 157.085938 240.75 " fill-opacity="1" fill-rule="evenodd"/><path fill="#f7bfc8" d="M 105.429688 158.308594 C 107.007812 165.671875 123.308594 178.820312 134.480469 182.898438 C 141.050781 176.71875 139.605469 170.273438 139.472656 162.519531 C 137.898438 156.996094 137.238281 152 137.503906 147.527344 C 130.140625 136.351562 120.285156 128.464844 107.929688 123.597656 C 111.871094 137.140625 111.082031 148.710938 105.429688 158.308594 Z M 105.429688 158.308594 " fill-opacity="1" fill-rule="evenodd"/><path fill="#ff9933" d="M 138.160156 157.390625 C 137.503906 153.839844 137.238281 150.554688 137.503906 147.527344 C 130.140625 136.351562 120.285156 128.464844 107.929688 123.597656 C 109.769531 129.648438 110.558594 135.300781 110.425781 140.691406 C 113.582031 153.839844 127.90625 162.386719 138.160156 157.390625 Z M 138.160156 157.390625 " fill-opacity="0.4" fill-rule="evenodd"/><path fill="#f7bfc8" d="M 146.703125 94.804688 L 130.273438 94.804688 C 122.125 94.804688 109.902344 108.085938 112.003906 117.8125 L 114.765625 130.304688 C 116.734375 139.507812 125.9375 147.132812 135.398438 147.527344 C 137.371094 147.660156 139.867188 147.660156 141.839844 147.265625 C 149.859375 145.953125 156.296875 138.195312 156.5625 130.171875 L 156.824219 119.128906 L 156.824219 117.683594 L 157.085938 105.058594 C 157.21875 99.40625 152.617188 94.804688 146.703125 94.804688 Z M 146.703125 94.804688 " fill-opacity="1" fill-rule="evenodd"/><path fill="#15193b" d="M 152.332031 112.03125 C 152.554688 112.046875 152.769531 112.117188 152.96875 112.246094 C 153.171875 112.375 153.34375 112.550781 153.488281 112.773438 C 153.632812 112.992188 153.738281 113.242188 153.804688 113.523438 C 153.871094 113.800781 153.890625 114.089844 153.871094 114.386719 C 153.847656 114.679688 153.785156 114.960938 153.675781 115.226562 C 153.570312 115.496094 153.429688 115.726562 153.253906 115.925781 C 153.078125 116.121094 152.882812 116.269531 152.664062 116.367188 C 152.449219 116.464844 152.226562 116.503906 152 116.488281 C 151.773438 116.472656 151.5625 116.398438 151.359375 116.269531 C 151.160156 116.140625 150.988281 115.964844 150.84375 115.746094 C 150.699219 115.523438 150.59375 115.273438 150.527344 114.996094 C 150.460938 114.714844 150.441406 114.429688 150.460938 114.132812 C 150.484375 113.835938 150.546875 113.554688 150.65625 113.289062 C 150.761719 113.023438 150.902344 112.789062 151.078125 112.59375 C 151.253906 112.394531 151.449219 112.25 151.664062 112.152344 C 151.882812 112.054688 152.105469 112.011719 152.332031 112.03125 Z M 152.332031 112.03125 " fill-opacity="1" fill-rule="nonzero"/><path fill="#ff9933" d="M 140.65625 127.148438 C 139.738281 126.753906 138.949219 126.230469 139.078125 125.703125 C 139.210938 125.441406 139.867188 125.570312 140.789062 125.703125 C 141.972656 125.835938 142.628906 125.835938 143.941406 125.703125 C 144.730469 125.570312 145.519531 125.441406 145.519531 125.703125 C 145.652344 126.230469 144.730469 126.886719 143.679688 127.28125 C 142.367188 127.675781 141.972656 127.675781 140.65625 127.148438 Z M 140.65625 127.148438 " fill-opacity="0.4" fill-rule="evenodd"/><path fill="#15193b" d="M 157.875 110.320312 C 157.613281 110.320312 157.21875 110.058594 156.5625 109.792969 C 155.773438 109.398438 154.722656 109.003906 153.933594 109.003906 C 152.222656 108.742188 151.039062 109.269531 149.464844 109.269531 C 148.675781 109.269531 148.28125 109.136719 148.148438 108.875 C 147.886719 108.214844 149.859375 106.902344 152.09375 106.902344 C 153.800781 106.902344 155.378906 107.425781 156.691406 108.609375 C 156.824219 108.480469 158.664062 110.1875 157.875 110.320312 Z M 157.875 110.320312 " fill-opacity="1" fill-rule="evenodd"/><path fill="#15193b" d="M 130.765625 111.8125 C 130.992188 111.828125 131.203125 111.902344 131.40625 112.03125 C 131.605469 112.160156 131.777344 112.332031 131.921875 112.554688 C 132.066406 112.773438 132.171875 113.027344 132.238281 113.304688 C 132.304688 113.585938 132.328125 113.871094 132.304688 114.167969 C 132.28125 114.464844 132.21875 114.746094 132.113281 115.011719 C 132.003906 115.277344 131.863281 115.507812 131.6875 115.707031 C 131.515625 115.902344 131.316406 116.050781 131.101562 116.148438 C 130.882812 116.246094 130.660156 116.289062 130.4375 116.269531 C 130.210938 116.253906 129.996094 116.179688 129.796875 116.054688 C 129.597656 115.925781 129.421875 115.75 129.277344 115.527344 C 129.136719 115.308594 129.03125 115.058594 128.964844 114.777344 C 128.898438 114.5 128.875 114.210938 128.898438 113.914062 C 128.917969 113.621094 128.984375 113.339844 129.089844 113.070312 C 129.195312 112.804688 129.335938 112.574219 129.511719 112.375 C 129.6875 112.179688 129.882812 112.03125 130.101562 111.933594 C 130.316406 111.835938 130.539062 111.796875 130.765625 111.8125 Z M 130.765625 111.8125 " fill-opacity="1" fill-rule="nonzero"/><path fill="#15193b" d="M 124.621094 109.925781 C 124.882812 109.925781 125.410156 109.664062 126.066406 109.269531 C 126.988281 108.875 128.039062 108.480469 128.828125 108.480469 C 130.667969 108.214844 131.851562 108.742188 133.558594 108.742188 C 134.347656 108.742188 134.742188 108.609375 134.875 108.347656 C 135.269531 107.691406 133.164062 106.375 130.800781 106.375 C 128.960938 106.375 127.25 106.902344 125.804688 108.085938 C 125.804688 108.214844 123.703125 109.792969 124.621094 109.925781 Z M 124.621094 109.925781 " fill-opacity="1" fill-rule="evenodd"/><path fill="#ffffff" d="M 144.601562 134.117188 C 144.46875 135.828125 141.972656 137.273438 138.816406 137.273438 C 135.664062 137.273438 133.164062 135.828125 133.164062 134.117188 C 133.164062 133.722656 133.558594 133.328125 133.953125 133.328125 L 143.8125 133.328125 C 144.207031 133.328125 144.601562 133.722656 144.601562 134.117188 Z M 144.601562 134.117188 " fill-opacity="1" fill-rule="evenodd"/><path fill="#f7bfc8" d="M 114.894531 118.078125 C 115.683594 125.703125 116.078125 129.515625 116.078125 129.515625 C 108.453125 127.9375 104.117188 123.730469 102.539062 119.390625 C 98.070312 107.425781 111.347656 104.667969 114.894531 118.078125 Z M 114.894531 118.078125 " fill-opacity="1" fill-rule="evenodd"/><path fill="#ff9933" d="M 113.316406 119.785156 C 113.84375 124.386719 113.976562 126.625 113.976562 126.625 C 109.375 125.703125 106.746094 123.203125 105.824219 120.574219 C 103.195312 113.34375 111.214844 111.632812 113.316406 119.785156 Z M 113.316406 119.785156 " fill-opacity="0.4" fill-rule="evenodd"/><path fill="#ff9933" d="M 164.183594 260.996094 C 158.007812 273.226562 108.71875 302.808594 93.207031 297.679688 C 77.433594 292.421875 71.914062 245.351562 73.359375 214.453125 C 74.675781 185.394531 86.636719 169.488281 96.757812 169.882812 C 101.355469 170.011719 108.191406 174.484375 110.820312 187.5 C 113.1875 199.203125 114.371094 236.148438 114.238281 247.71875 C 137.238281 236.277344 151.304688 231.546875 156.5625 233.648438 C 161.425781 237.855469 163.921875 247.058594 164.183594 260.996094 Z M 164.183594 260.996094 " fill-opacity="1" fill-rule="evenodd"/><path fill="#15193b" d="M 112.265625 112.421875 C 111.609375 94.410156 117.65625 88.492188 130.40625 94.804688 C 123.042969 98.488281 118.179688 108.214844 115.550781 123.863281 C 114.894531 117.683594 113.84375 113.871094 112.265625 112.421875 Z M 112.265625 112.421875 " fill-opacity="1" fill-rule="evenodd"/><path fill="#15193b" d="M 358.453125 506.210938 L 385.265625 506.210938 L 385.265625 555.777344 L 358.453125 555.777344 Z M 358.453125 506.210938 " fill-opacity="1" fill-rule="evenodd"/><path fill="#0697c5" d="M 358.453125 506.210938 L 385.265625 506.210938 L 385.265625 555.648438 L 358.453125 555.648438 Z M 358.453125 506.210938 " fill-opacity="0.102" fill-rule="evenodd"/><path fill="#15193b" d="M 190.339844 506.210938 L 217.15625 506.210938 L 217.15625 555.777344 L 190.339844 555.777344 Z M 190.339844 506.210938 " fill-opacity="1" fill-rule="evenodd"/><path fill="#0697c5" d="M 190.339844 506.210938 L 217.285156 506.210938 L 217.285156 555.648438 L 190.339844 555.648438 Z M 190.339844 506.210938 " fill-opacity="0.102" fill-rule="evenodd"/><path fill="#15193b" d="M 385.265625 113.605469 L 312.84375 113.605469 C 245.546875 113.605469 190.339844 171.589844 190.339844 242.457031 L 190.339844 515.546875 C 190.339844 517.125 190.339844 518.703125 190.472656 520.277344 L 385.265625 520.277344 Z M 385.265625 113.605469 " fill-opacity="1" fill-rule="evenodd"/><path fill="#0697c5" d="M 385.265625 113.605469 L 312.84375 113.605469 C 245.546875 113.605469 190.339844 171.589844 190.339844 242.457031 L 190.339844 515.546875 C 190.339844 517.125 190.339844 518.703125 190.472656 520.277344 L 385.265625 520.277344 Z M 385.265625 113.605469 " fill-opacity="0.2" fill-rule="evenodd"/><path fill="#0697c5" d="M 190.339844 389.058594 L 190.339844 515.546875 C 190.339844 517.125 190.339844 518.703125 190.472656 520.277344 L 385.265625 520.277344 L 385.265625 199.726562 Z M 190.339844 389.058594 " fill-opacity="0.2" fill-rule="evenodd"/><path fill="#15193b" d="M 503.296875 113.605469 L 381.714844 113.605469 C 314.417969 113.605469 259.214844 171.589844 259.214844 242.457031 L 259.214844 555.777344 L 286.027344 555.777344 L 286.027344 520.410156 L 400.117188 520.410156 L 400.117188 555.777344 L 426.933594 555.777344 L 426.933594 520.410156 L 457.03125 520.410156 Z M 503.296875 113.605469 " fill-opacity="1" fill-rule="evenodd"/><path fill="#0697c5" d="M 259.214844 297.679688 L 403.535156 297.679688 L 403.535156 314.90625 L 259.214844 314.90625 Z M 259.214844 297.679688 " fill-opacity="0.38" fill-rule="evenodd"/><path fill="#f7bfc8" d="M 327.433594 67.324219 C 313.761719 70.875 307.980469 84.8125 310.082031 108.875 C 305.875 118.207031 300.882812 124.914062 295.230469 128.859375 C 297.070312 147.003906 305.746094 157.128906 321.125 159.492188 C 326.773438 145.164062 332.953125 138.984375 339.65625 140.953125 C 334.398438 96.777344 330.457031 72.191406 327.433594 67.324219 Z M 327.433594 67.324219 " fill-opacity="1" fill-rule="evenodd"/><path fill="#f7bfc8" d="M 248.832031 415.355469 C 217.945312 397.476562 202.433594 388.535156 202.433594 388.535156 C 196.78125 437.839844 208.609375 494.378906 207.953125 547.101562 C 221.886719 544.339844 228.851562 543.023438 228.851562 543.023438 C 242.128906 457.957031 248.832031 415.355469 248.832031 415.355469 Z M 248.832031 415.355469 " fill-opacity="1" fill-rule="evenodd"/><path fill="#15193b" d="M 271.4375 558.015625 C 262.894531 560.644531 199.542969 566.296875 193.628906 559.855469 C 200.59375 541.054688 205.324219 530.796875 207.691406 529.351562 C 214.261719 532.507812 221.886719 533.03125 230.5625 531.058594 C 235.425781 536.453125 242.390625 540.660156 251.722656 543.8125 C 259.871094 546.445312 271.308594 546.707031 271.4375 558.015625 Z M 271.4375 558.015625 " fill-opacity="1" fill-rule="evenodd"/><path fill="#15193b" d="M 206.769531 292.160156 C 243.3125 305.570312 254.484375 352.640625 240.417969 433.371094 C 215.183594 427.453125 199.277344 419.039062 192.574219 407.863281 C 195.863281 359.738281 200.59375 321.085938 206.769531 292.160156 Z M 206.769531 292.160156 " fill-opacity="1" fill-rule="evenodd"/><path fill="#f7bfc8" d="M 291.550781 415.621094 C 259.082031 397.738281 242.785156 388.796875 242.785156 388.796875 C 241.339844 438.101562 258.03125 494.640625 261.976562 547.363281 C 275.644531 544.601562 282.480469 543.289062 282.480469 543.289062 C 288.394531 458.089844 291.550781 415.621094 291.550781 415.621094 Z M 291.550781 415.621094 " fill-opacity="1" fill-rule="evenodd"/><path fill="#15193b" d="M 326.378906 558.144531 C 317.96875 560.773438 255.273438 566.429688 248.699219 559.988281 C 253.957031 541.183594 257.902344 530.929688 260.136719 529.484375 C 266.96875 532.636719 274.59375 533.164062 283.269531 531.191406 C 288.527344 536.582031 296.019531 540.789062 305.480469 543.945312 C 313.761719 546.574219 325.328125 546.839844 326.378906 558.144531 Z M 326.378906 558.144531 " fill-opacity="1" fill-rule="evenodd"/><path fill="#15193b" d="M 298.382812 332.65625 C 266.050781 329.105469 240.417969 322.003906 221.359375 311.222656 C 217.8125 339.886719 220.046875 380.121094 228.195312 431.921875 C 240.683594 443.230469 264.210938 447.964844 298.777344 445.992188 C 301.40625 440.46875 301.277344 402.734375 298.382812 332.65625 Z M 298.382812 332.65625 " fill-opacity="1" fill-rule="evenodd"/><path fill="#0697c5" d="M 298.382812 332.65625 C 266.050781 329.105469 240.417969 322.003906 221.359375 311.222656 C 217.8125 339.886719 220.046875 380.121094 228.195312 431.921875 C 240.683594 443.230469 264.210938 447.964844 298.777344 445.992188 C 301.40625 440.46875 301.277344 402.734375 298.382812 332.65625 Z M 298.382812 332.65625 " fill-opacity="0.102" fill-rule="evenodd"/><path fill="#0697c5" d="M 309.292969 260.339844 C 312.054688 206.828125 330.851562 157.390625 314.289062 141.480469 C 306.535156 133.988281 301.011719 128.070312 301.277344 123.597656 C 296.542969 120.707031 271.703125 142.53125 268.417969 146.214844 C 260.265625 155.15625 252.773438 166.199219 245.808594 178.425781 C 222.019531 220.238281 205.195312 275.988281 197.703125 308.199219 C 199.148438 322.664062 257.242188 348.957031 296.9375 342.382812 C 308.242188 338.441406 308.375 311.09375 309.292969 260.339844 Z M 309.292969 260.339844 " fill-opacity="1" fill-rule="evenodd"/><path fill="#15193b" d="M 309.292969 260.339844 C 310.082031 246.273438 311.921875 232.335938 313.894531 219.316406 C 308.109375 199.464844 300.222656 178.558594 290.367188 156.601562 C 279.457031 171.722656 275.25 191.96875 277.484375 217.082031 C 281.035156 255.871094 306.929688 326.871094 251.328125 338.964844 C 266.574219 342.910156 282.875 344.621094 296.9375 342.253906 C 308.242188 338.441406 308.375 311.09375 309.292969 260.339844 Z M 309.292969 260.339844 " fill-opacity="0.2" fill-rule="evenodd"/><path fill="#f7bfc8" d="M 339.917969 77.84375 C 351.617188 67.71875 362.65625 64.167969 373.304688 67.195312 C 379.085938 75.609375 380.664062 85.734375 378.300781 97.433594 C 377.511719 101.378906 370.148438 107.425781 368.441406 111.632812 C 366.46875 115.449219 372.515625 117.15625 371.070312 120.179688 C 370.542969 121.234375 369.097656 120.839844 368.574219 121.757812 C 363.839844 130.304688 361.082031 135.828125 361.082031 135.828125 C 338.339844 117.945312 326.90625 109.003906 326.90625 109.003906 C 335.449219 88.230469 339.917969 77.84375 339.917969 77.84375 Z M 339.917969 77.84375 " fill-opacity="1" fill-rule="evenodd"/><path fill="#0697c5" d="M 323.359375 186.449219 C 316.128906 272.304688 345.832031 308.199219 412.605469 294 C 376.722656 268.492188 347.015625 232.730469 323.359375 186.449219 Z M 323.359375 186.449219 " fill-opacity="1" fill-rule="evenodd"/><path fill="#15193b" d="M 323.359375 186.449219 C 316.128906 272.304688 345.832031 308.199219 412.605469 294 C 376.722656 268.492188 347.015625 232.730469 323.359375 186.449219 Z M 323.359375 186.449219 " fill-opacity="0.2" fill-rule="evenodd"/><path fill="#ff9933" d="M 310.214844 108.875 C 313.367188 107.691406 316.128906 106.113281 318.496094 104.140625 C 309.949219 87.179688 326.511719 81.917969 329.796875 90.730469 C 330.71875 93.359375 330.585938 97.171875 328.351562 102.429688 C 327.5625 104.273438 326.511719 106.375 325.328125 108.609375 C 323.621094 112.6875 336.894531 147.398438 352.144531 149.894531 C 361.738281 151.472656 366.207031 129.910156 368.308594 122.023438 C 362.132812 125.046875 352.40625 118.734375 338.472656 105.453125 C 341.101562 97.304688 343.863281 80.34375 351.878906 78.371094 C 361.738281 76.003906 373.171875 88.230469 385.003906 82.3125 C 398.539062 75.609375 389.339844 54.441406 380.007812 47.078125 C 364.367188 34.71875 338.867188 33.929688 321.253906 42.476562 C 294.835938 55.230469 306.929688 85.734375 310.214844 108.875 Z M 310.214844 108.875 " fill-opacity="1" fill-rule="evenodd"/><path fill="#0697c5" d="M 408.925781 285.847656 C 394.464844 303.464844 387.238281 312.273438 387.238281 312.273438 C 301.277344 318.847656 269.46875 205.90625 290.367188 156.734375 C 294.835938 146.214844 302.722656 141.21875 314.289062 141.480469 C 344.519531 155.550781 317.046875 270.726562 408.925781 285.847656 Z M 408.925781 285.847656 " fill-opacity="1" fill-rule="evenodd"/><g clip-path="url(#6e72ec7446)"><path fill="#15193b" d="M 532.476562 506.210938 L 559.292969 506.210938 L 559.292969 555.777344 L 532.476562 555.777344 Z M 532.476562 506.210938 " fill-opacity="1" fill-rule="evenodd"/><path fill="#0697c5" d="M 532.476562 506.210938 L 559.421875 506.210938 L 559.421875 555.648438 L 532.476562 555.648438 Z M 532.476562 506.210938 " fill-opacity="0.102" fill-rule="evenodd"/></g><path fill="#15193b" d="M 364.5 506.210938 L 391.3125 506.210938 L 391.3125 555.777344 L 364.5 555.777344 Z M 364.5 506.210938 " fill-opacity="1" fill-rule="evenodd"/><path fill="#0697c5" d="M 364.5 506.210938 L 391.3125 506.210938 L 391.3125 555.648438 L 364.5 555.648438 Z M 364.5 506.210938 " fill-opacity="0.102" fill-rule="evenodd"/><g clip-path="url(#d2d16cdcba)"><path fill="#15193b" d="M 559.421875 113.605469 L 487 113.605469 C 419.703125 113.605469 364.5 171.589844 364.5 242.457031 L 364.5 515.546875 C 364.5 517.125 364.5 518.703125 364.628906 520.277344 L 559.421875 520.277344 Z M 559.421875 113.605469 " fill-opacity="1" fill-rule="evenodd"/><path fill="#0697c5" d="M 559.421875 113.605469 L 487 113.605469 C 419.703125 113.605469 364.5 171.589844 364.5 242.457031 L 364.5 515.546875 C 364.5 517.125 364.5 518.703125 364.628906 520.277344 L 559.421875 520.277344 Z M 559.421875 113.605469 " fill-opacity="0.2" fill-rule="evenodd"/></g><g clip-path="url(#21026b52ae)"><path fill="#0697c5" d="M 364.5 389.058594 L 364.5 515.546875 C 364.5 517.125 364.5 518.703125 364.628906 520.277344 L 559.421875 520.277344 L 559.421875 199.726562 Z M 364.5 389.058594 " fill-opacity="0.2" fill-rule="evenodd"/></g><path fill="#ffffff" d="M 419.835938 201.042969 L 503.957031 201.042969 C 507.636719 201.042969 510.660156 204.066406 510.660156 207.746094 L 510.660156 322.003906 C 510.660156 325.6875 507.636719 328.710938 503.957031 328.710938 L 419.835938 328.710938 C 416.152344 328.710938 413.128906 325.6875 413.128906 322.003906 L 413.128906 207.746094 C 413.128906 204.066406 416.152344 201.042969 419.835938 201.042969 Z M 419.835938 201.042969 " fill-opacity="1" fill-rule="evenodd"/><path fill="#ffffff" d="M 426.667969 328.578125 L 503.957031 328.578125 C 507.636719 328.578125 510.660156 325.554688 510.660156 321.875 L 510.660156 246.929688 Z M 426.667969 328.578125 " fill-opacity="1" fill-rule="evenodd"/><path fill="#0697c5" d="M 503.957031 201.042969 L 419.835938 201.042969 C 416.152344 201.042969 413.128906 204.066406 413.128906 207.746094 L 413.128906 322.003906 C 413.128906 325.6875 416.152344 328.710938 419.835938 328.710938 L 426.667969 328.710938 L 510.660156 247.191406 L 510.660156 207.746094 C 510.660156 204.066406 507.636719 201.042969 503.957031 201.042969 Z M 503.957031 201.042969 " fill-opacity="0.2" fill-rule="evenodd"/><path fill="#15193b" d="M 363.695312 101.058594 C 363.964844 101.183594 364.191406 101.371094 364.375 101.628906 C 364.558594 101.882812 364.683594 102.183594 364.753906 102.527344 C 364.824219 102.871094 364.835938 103.238281 364.78125 103.621094 C 364.730469 104.003906 364.617188 104.378906 364.449219 104.742188 C 364.28125 105.105469 364.066406 105.433594 363.808594 105.71875 C 363.546875 106.007812 363.265625 106.238281 362.953125 106.40625 C 362.644531 106.574219 362.335938 106.671875 362.023438 106.695312 C 361.707031 106.71875 361.417969 106.667969 361.148438 106.542969 C 360.878906 106.417969 360.652344 106.230469 360.46875 105.976562 C 360.285156 105.71875 360.160156 105.421875 360.089844 105.074219 C 360.019531 104.730469 360.007812 104.363281 360.0625 103.980469 C 360.117188 103.597656 360.226562 103.222656 360.394531 102.859375 C 360.5625 102.496094 360.777344 102.171875 361.035156 101.882812 C 361.296875 101.59375 361.578125 101.363281 361.890625 101.195312 C 362.199219 101.027344 362.507812 100.929688 362.824219 100.90625 C 363.136719 100.882812 363.425781 100.933594 363.695312 101.058594 Z M 363.695312 101.058594 " fill-opacity="1" fill-rule="nonzero"/><path fill="#15193b" d="M 356.742188 95.988281 C 357.007812 96.121094 357.792969 95.988281 358.847656 95.988281 C 360.160156 95.988281 361.738281 95.988281 362.789062 96.25 C 365.15625 96.777344 366.46875 97.960938 368.574219 98.75 C 369.625 99.144531 370.148438 99.144531 370.414062 98.882812 C 371.203125 98.222656 369.230469 95.59375 366.339844 94.542969 C 364.105469 93.753906 361.738281 93.621094 359.371094 94.277344 C 359.109375 94.277344 355.824219 95.460938 356.742188 95.988281 Z M 356.742188 95.988281 " fill-opacity="1" fill-rule="evenodd"/><path fill="#ffffff" d="M 360.949219 130.832031 C 360.554688 132.144531 358.1875 132.804688 355.691406 132.144531 C 353.195312 131.488281 351.484375 129.777344 351.878906 128.464844 C 352.011719 128.070312 352.40625 127.9375 352.667969 128.070312 L 360.421875 130.171875 C 360.816406 130.171875 361.082031 130.566406 360.949219 130.832031 Z M 360.949219 130.832031 " fill-opacity="1" fill-rule="evenodd"/><path fill="#ff9933" d="M 365.550781 121.363281 C 364.628906 120.96875 363.839844 120.445312 363.972656 119.917969 C 364.105469 119.65625 364.761719 119.785156 365.679688 119.917969 C 366.863281 120.050781 367.519531 120.050781 368.835938 119.917969 C 369.625 119.785156 370.414062 119.65625 370.542969 119.917969 C 370.675781 120.445312 369.753906 121.101562 368.703125 121.496094 C 367.257812 121.890625 366.734375 121.890625 365.550781 121.363281 Z M 365.550781 121.363281 " fill-opacity="0.4" fill-rule="evenodd"/></svg>