<svg xmlns="http://www.w3.org/2000/svg" xmlns:xlink="http://www.w3.org/1999/xlink" width="800" zoomAndPan="magnify" viewBox="0 0 600 599.999999" height="800" preserveAspectRatio="xMidYMid meet" version="1.0"><defs><clipPath id="ae7951038b"><path d="M 0 543 L 600 543 L 600 600 L 0 600 Z M 0 543 " clip-rule="nonzero"/></clipPath><clipPath id="c0d4f63953"><path d="M -9.40625 543.636719 L 662.164062 559.40625 L 660.828125 616.277344 L -10.738281 600.507812 Z M -9.40625 543.636719 " clip-rule="nonzero"/></clipPath><clipPath id="eafcaed155"><path d="M 0 0.601562 L 600 0.601562 L 600 57 L 0 57 Z M 0 0.601562 " clip-rule="nonzero"/></clipPath><clipPath id="9921a8e06d"><path d="M -9.40625 0.636719 L 662.164062 16.40625 L 660.828125 73.277344 L -10.738281 57.507812 Z M -9.40625 0.636719 " clip-rule="nonzero"/></clipPath><clipPath id="8fdba68135"><rect x="0" width="600" y="0" height="57"/></clipPath><clipPath id="830bb4f05e"><path d="M 86 11.375 L 522 11.375 L 522 600 L 86 600 Z M 86 11.375 " clip-rule="nonzero"/></clipPath></defs><g clip-path="url(#ae7951038b)"><g clip-path="url(#c0d4f63953)"><g transform="matrix(1, 0, 0, 1, 0, 543)"><g clip-path="url(#8fdba68135)"><g clip-path="url(#eafcaed155)"><g clip-path="url(#9921a8e06d)"><path fill="#0038a8" d="M -9.40625 0.636719 L 662.164062 16.40625 L 660.832031 73.277344 L -10.738281 57.507812 Z M -9.40625 0.636719 " fill-opacity="1" fill-rule="nonzero"/></g></g></g></g></g></g><path fill="#d18765" d="M 114.074219 128.535156 C 114.074219 134.519531 109.199219 139.390625 103.214844 139.390625 C 102.132812 139.390625 101.0625 139.230469 100.027344 138.914062 L 99.710938 138.816406 L 99.234375 138.628906 C 95.054688 136.976562 92.355469 133.015625 92.355469 128.53125 C 92.355469 122.546875 97.226562 117.675781 103.214844 117.675781 C 104.90625 117.675781 106.542969 118.066406 108.074219 118.835938 L 108.449219 119.023438 L 108.828125 119.253906 C 112.109375 121.242188 114.074219 124.710938 114.074219 128.535156 Z M 308.433594 564.785156 L 308.378906 565.257812 L 309.023438 565.375 L 310.265625 565.375 L 310.265625 568.011719 L 308.464844 568.011719 L 308.625 568.601562 L 309.234375 568.601562 C 310.316406 572.566406 314.15625 576.769531 322.023438 579.566406 L 321.621094 580.042969 C 321.691406 580.066406 321.753906 580.09375 321.828125 580.121094 L 322.210938 580.257812 L 322.878906 579.46875 L 334.5625 584.289062 L 334.328125 585.613281 L 334.675781 585.820312 C 334.746094 585.863281 334.800781 585.898438 334.867188 585.941406 L 334.976562 585.316406 C 338.535156 587.4375 340.296875 589.246094 341.167969 590.515625 L 340.394531 590.460938 C 340.5 590.597656 340.597656 590.726562 340.679688 590.847656 L 340.839844 591.082031 L 343.601562 591.289062 L 343.601562 597.644531 L 282.777344 597.644531 L 282.777344 586.132812 C 282.777344 571.8125 287.460938 565.886719 287.992188 565.257812 L 288.117188 565.113281 L 288.132812 564.921875 C 288.136719 564.878906 288.136719 564.832031 288.140625 564.785156 L 287.625 564.785156 C 287.625 564.785156 287.59375 564.820312 287.546875 564.878906 C 288.523438 552.023438 285.804688 506.6875 289.644531 479.996094 C 289.671875 479.800781 289.707031 479.605469 289.734375 479.410156 L 260.261719 479.410156 C 260.167969 479.605469 260.082031 479.796875 259.988281 479.996094 C 247.785156 506.300781 221.886719 553.832031 219.914062 557.472656 C 219.871094 557.550781 219.839844 557.628906 219.804688 557.707031 L 219.238281 557.535156 L 219.042969 557.972656 L 219.632812 558.269531 L 220.8125 558.632812 L 220.039062 561.15625 L 218.320312 560.628906 L 218.300781 561.238281 L 218.882812 561.417969 C 218.757812 565.527344 221.195312 570.671875 227.894531 575.648438 L 227.371094 575.984375 C 227.429688 576.03125 227.484375 576.078125 227.542969 576.121094 L 227.871094 576.363281 L 228.738281 575.804688 L 238.496094 583.839844 L 237.882812 585.035156 L 238.15625 585.339844 C 238.207031 585.398438 238.25 585.449219 238.300781 585.507812 L 238.589844 584.941406 C 241.371094 588.015625 242.527344 590.261719 242.984375 591.734375 L 242.261719 591.453125 C 242.324219 591.613281 242.378906 591.769531 242.421875 591.910156 L 242.507812 592.179688 L 245.085938 593.183594 L 243.222656 599.261719 L 185.070312 581.429688 L 188.445312 570.417969 C 192.652344 556.714844 198.859375 552.433594 199.554688 551.992188 L 199.714844 551.890625 L 199.789062 551.710938 C 199.800781 551.671875 199.820312 551.625 199.835938 551.585938 L 199.339844 551.433594 C 199.339844 551.433594 199.300781 551.457031 199.238281 551.496094 C 204.773438 537.371094 218.601562 478.746094 232.269531 460.171875 C 235 456.464844 236.882812 446.253906 238.15625 435.527344 C 238.339844 435.589844 238.535156 435.652344 238.726562 435.714844 C 238.730469 435.671875 238.734375 435.636719 238.738281 435.597656 L 238.796875 435.125 L 238.34375 434.972656 C 231.578125 432.6875 227.847656 430.273438 228.105469 428.339844 C 229.238281 419.777344 231.328125 410.816406 234.492188 400.9375 L 234.679688 400.347656 L 234.675781 400.347656 L 234.746094 400.132812 C 238.351562 389.023438 242.652344 378.785156 246.445312 369.75 L 247.191406 367.96875 L 247.191406 306.882812 L 247.179688 306.820312 C 245.789062 300.441406 244.914062 294.929688 244.507812 289.972656 L 244.472656 289.503906 L 211.664062 284.683594 C 210.835938 284.5625 210.101562 284.125 209.601562 283.453125 C 209.105469 282.78125 208.894531 281.953125 209.019531 281.125 L 210.152344 273.402344 L 203.121094 272.371094 C 198.855469 271.742188 195.085938 269.488281 192.503906 266.019531 C 189.921875 262.546875 188.847656 258.289062 189.476562 254.023438 C 190.632812 246.140625 197.507812 240.199219 205.460938 240.199219 C 206.246094 240.199219 207.042969 240.257812 207.824219 240.375 L 247.0625 246.140625 L 247.1875 245.289062 L 247.191406 94.515625 L 402.546875 94.515625 L 402.546875 51.359375 C 406.152344 54.074219 409.675781 56.917969 413.109375 59.890625 C 420.433594 66.207031 427.355469 73.136719 433.683594 80.484375 L 434.003906 80.859375 C 434.851562 81.847656 435.691406 82.839844 436.515625 83.84375 C 437.003906 84.429688 437.480469 85.023438 437.957031 85.617188 L 439.199219 87.167969 C 441.003906 89.445312 442.804688 91.835938 444.558594 94.269531 L 444.734375 94.515625 L 530.0625 94.515625 L 530.0625 479.410156 L 324.558594 479.410156 C 324.53125 479.605469 324.503906 479.796875 324.476562 479.996094 C 320.382812 508.988281 309.867188 560.527344 309.058594 564.53125 C 309.042969 564.613281 309.039062 564.699219 309.023438 564.785156 Z M 244.527344 278.457031 L 216.355469 274.316406 L 215.679688 278.933594 L 244.261719 283.132812 L 244.277344 282.472656 C 244.3125 281.121094 244.375 280.019531 244.472656 279.011719 Z M 244.527344 278.457031 " fill-opacity="1" fill-rule="nonzero"/><path fill="#ffffff" d="M 445.035156 93.925781 L 246.601562 93.925781 L 246.601562 404.445312 L 277.644531 407.542969 C 277.644531 407.542969 275.046875 425.089844 271.570312 442.304688 C 271.472656 442.773438 271.378906 443.246094 271.28125 443.714844 C 271.234375 443.945312 271.1875 444.171875 271.140625 444.402344 C 271.046875 444.847656 270.957031 445.296875 270.863281 445.746094 C 270.804688 446.019531 270.746094 446.289062 270.6875 446.5625 C 270.546875 447.238281 270.402344 447.90625 270.257812 448.574219 C 270.183594 448.914062 270.109375 449.253906 270.035156 449.585938 C 269.957031 449.941406 269.878906 450.292969 269.800781 450.640625 C 269.703125 451.089844 269.601562 451.53125 269.5 451.976562 C 269.410156 452.359375 269.324219 452.742188 269.234375 453.125 C 269.128906 453.59375 269.015625 454.058594 268.90625 454.519531 C 268.84375 454.792969 268.777344 455.066406 268.710938 455.339844 C 268.597656 455.804688 268.488281 456.261719 268.375 456.71875 C 268.328125 456.914062 268.277344 457.113281 268.230469 457.308594 C 268.074219 457.929688 267.917969 458.539062 267.761719 459.140625 C 267.710938 459.335938 267.660156 459.527344 267.605469 459.71875 C 267.484375 460.1875 267.359375 460.648438 267.234375 461.101562 C 267.1875 461.273438 267.140625 461.449219 267.09375 461.621094 C 266.929688 462.210938 266.765625 462.789062 266.601562 463.347656 C 266.570312 463.464844 266.535156 463.574219 266.5 463.691406 C 266.363281 464.15625 266.226562 464.613281 266.089844 465.054688 C 266.042969 465.207031 265.996094 465.359375 265.945312 465.507812 C 265.777344 466.042969 265.609375 466.566406 265.441406 467.066406 C 264.414062 470.113281 262.488281 474.609375 259.992188 479.992188 L 289.644531 479.992188 C 290.320312 475.28125 291.203125 471.144531 292.347656 467.875 C 292.414062 467.683594 292.472656 467.480469 292.53125 467.269531 C 292.546875 467.203125 292.5625 467.132812 292.578125 467.066406 C 292.617188 466.914062 292.652344 466.753906 292.683594 466.589844 C 292.699219 466.511719 292.714844 466.429688 292.730469 466.347656 C 292.761719 466.175781 292.789062 466 292.8125 465.816406 C 292.824219 465.742188 292.835938 465.667969 292.847656 465.59375 C 292.878906 465.332031 292.910156 465.066406 292.933594 464.785156 C 292.933594 464.769531 292.9375 464.75 292.9375 464.734375 C 292.960938 464.472656 292.980469 464.195312 292.992188 463.914062 C 292.996094 463.824219 293 463.730469 293.003906 463.636719 C 293.015625 463.421875 293.019531 463.199219 293.027344 462.976562 C 293.03125 462.871094 293.03125 462.769531 293.03125 462.664062 C 293.035156 462.421875 293.039062 462.175781 293.035156 461.925781 C 293.035156 461.839844 293.035156 461.757812 293.035156 461.675781 C 293.03125 461.332031 293.023438 460.984375 293.011719 460.625 C 293.011719 460.605469 293.011719 460.582031 293.011719 460.5625 C 293 460.226562 292.984375 459.882812 292.96875 459.535156 C 292.960938 459.4375 292.957031 459.339844 292.949219 459.242188 C 292.9375 458.957031 292.917969 458.671875 292.898438 458.378906 C 292.890625 458.273438 292.882812 458.167969 292.875 458.058594 C 292.851562 457.742188 292.828125 457.417969 292.800781 457.089844 C 292.792969 457.019531 292.789062 456.953125 292.78125 456.882812 C 292.746094 456.46875 292.707031 456.050781 292.664062 455.625 C 292.664062 455.617188 292.664062 455.609375 292.664062 455.601562 C 292.621094 455.195312 292.578125 454.789062 292.53125 454.375 C 292.519531 454.277344 292.507812 454.179688 292.5 454.085938 C 292.460938 453.742188 292.417969 453.398438 292.375 453.050781 C 292.363281 452.953125 292.351562 452.855469 292.339844 452.757812 C 292.289062 452.363281 292.238281 451.964844 292.1875 451.566406 C 292.179688 451.523438 292.175781 451.484375 292.167969 451.441406 C 291.839844 449 291.429688 446.441406 290.972656 443.851562 C 290.972656 443.851562 290.972656 443.847656 290.972656 443.847656 C 288.234375 428.300781 283.742188 411.59375 283.742188 411.597656 L 320.296875 404.257812 C 320.296875 404.257812 323.105469 422.773438 324.820312 440.710938 C 325.097656 443.59375 325.34375 446.460938 325.546875 449.234375 C 325.566406 449.5 325.585938 449.765625 325.605469 450.03125 C 325.683594 451.179688 325.757812 452.300781 325.820312 453.410156 C 325.832031 453.664062 325.851562 453.921875 325.863281 454.175781 C 325.886719 454.5625 325.902344 454.941406 325.921875 455.324219 C 325.9375 455.652344 325.953125 455.980469 325.96875 456.304688 C 325.984375 456.652344 325.996094 456.996094 326.007812 457.335938 C 326.023438 457.6875 326.035156 458.039062 326.046875 458.386719 C 326.054688 458.695312 326.0625 459.003906 326.070312 459.308594 C 326.082031 459.675781 326.089844 460.042969 326.09375 460.402344 C 326.101562 460.675781 326.105469 460.945312 326.109375 461.210938 C 326.113281 461.617188 326.113281 462.011719 326.113281 462.402344 C 326.113281 462.613281 326.113281 462.824219 326.113281 463.03125 C 326.109375 463.617188 326.101562 464.195312 326.085938 464.75 C 325.988281 468.195312 325.394531 473.539062 324.484375 479.996094 L 530.652344 479.996094 L 530.652344 93.925781 Z M 315.578125 280.609375 C 317.503906 283.109375 319.460938 285.742188 321.402344 288.457031 L 314.570312 287.453125 Z M 284.683594 245.21875 C 284.578125 245.332031 284.46875 245.445312 284.355469 245.554688 C 284.207031 245.699219 284.050781 245.832031 283.890625 245.960938 C 283.773438 246.054688 283.65625 246.144531 283.53125 246.230469 C 283.355469 246.351562 283.171875 246.460938 282.980469 246.5625 C 282.855469 246.628906 282.734375 246.703125 282.605469 246.761719 C 282.386719 246.859375 282.15625 246.9375 281.921875 247.015625 C 281.804688 247.050781 281.695312 247.101562 281.574219 247.132812 C 281.210938 247.226562 280.832031 247.296875 280.433594 247.332031 C 279.59375 247.40625 278.679688 247.390625 277.71875 247.277344 C 277.460938 247.246094 277.195312 247.210938 276.929688 247.164062 C 276.589844 247.109375 276.242188 247.039062 275.894531 246.957031 C 269.515625 245.5 262.195312 240.214844 262.207031 230.917969 C 262.226562 216.667969 283.085938 214.222656 286.585938 228.746094 C 286.824219 229.742188 287.011719 230.742188 287.152344 231.738281 C 287.210938 232.144531 287.257812 232.542969 287.296875 232.941406 C 287.308594 233.046875 287.320312 233.15625 287.332031 233.261719 C 287.367188 233.625 287.386719 233.984375 287.40625 234.34375 C 287.417969 234.484375 287.425781 234.625 287.429688 234.761719 C 287.445312 235.101562 287.449219 235.4375 287.449219 235.769531 C 287.449219 235.925781 287.449219 236.078125 287.445312 236.234375 C 287.441406 236.550781 287.429688 236.867188 287.414062 237.179688 C 287.40625 237.34375 287.390625 237.503906 287.378906 237.664062 C 287.355469 237.964844 287.332031 238.261719 287.296875 238.554688 C 287.277344 238.71875 287.25 238.878906 287.226562 239.042969 C 287.183594 239.324219 287.144531 239.605469 287.09375 239.875 C 287.0625 240.039062 287.019531 240.191406 286.984375 240.351562 C 286.886719 240.789062 286.769531 241.210938 286.640625 241.621094 C 286.574219 241.832031 286.511719 242.046875 286.4375 242.25 C 286.371094 242.425781 286.289062 242.585938 286.21875 242.753906 C 286.132812 242.957031 286.046875 243.15625 285.949219 243.347656 C 285.871094 243.507812 285.78125 243.652344 285.695312 243.800781 C 285.589844 243.984375 285.480469 244.167969 285.367188 244.339844 C 285.273438 244.480469 285.171875 244.609375 285.074219 244.738281 C 284.949219 244.90625 284.820312 245.066406 284.683594 245.21875 Z M 367.027344 290.691406 C 366.617188 291.742188 366.066406 293.191406 365.394531 294.921875 C 365.183594 295.46875 364.957031 296.050781 364.726562 296.652344 C 364.683594 296.761719 364.640625 296.867188 364.597656 296.980469 C 364.351562 297.613281 364.09375 298.273438 363.828125 298.960938 C 363.816406 298.992188 363.800781 299.023438 363.789062 299.054688 C 363.542969 299.6875 363.285156 300.339844 363.023438 301.007812 C 362.960938 301.171875 362.894531 301.332031 362.828125 301.5 C 362.542969 302.222656 362.25 302.960938 361.945312 303.71875 C 361.84375 303.976562 361.734375 304.246094 361.628906 304.507812 C 360.695312 306.835938 359.683594 309.304688 358.628906 311.820312 C 358.613281 311.859375 358.59375 311.898438 358.578125 311.9375 C 357.527344 314.441406 356.425781 317 355.296875 319.519531 C 355.285156 319.546875 355.273438 319.578125 355.257812 319.605469 C 354.503906 321.289062 353.738281 322.953125 352.96875 324.578125 C 352.839844 324.851562 352.710938 325.121094 352.582031 325.390625 C 351.515625 327.617188 350.441406 329.753906 349.378906 331.730469 C 349.359375 331.769531 349.339844 331.804688 349.320312 331.84375 C 347.90625 334.472656 346.511719 336.828125 345.179688 338.734375 C 345.179688 338.738281 345.175781 338.746094 345.171875 338.75 C 344.839844 339.226562 344.507812 339.679688 344.183594 340.097656 C 344.097656 340.207031 344.011719 340.332031 343.925781 340.4375 C 343.789062 340.6875 343.628906 340.921875 343.457031 341.148438 C 343.410156 341.210938 343.363281 341.277344 343.3125 341.339844 C 343.121094 341.570312 342.921875 341.792969 342.691406 341.992188 C 342.289062 342.339844 341.886719 342.652344 341.480469 342.945312 C 341.464844 342.957031 341.449219 342.972656 341.433594 342.984375 C 341.429688 342.988281 341.425781 342.988281 341.421875 342.992188 C 340.988281 343.304688 340.550781 343.582031 340.113281 343.835938 C 339.964844 343.917969 339.816406 343.984375 339.667969 344.0625 C 339.378906 344.21875 339.089844 344.375 338.796875 344.503906 C 338.621094 344.582031 338.441406 344.644531 338.265625 344.714844 C 338 344.820312 337.738281 344.925781 337.476562 345.011719 C 337.289062 345.070312 337.101562 345.117188 336.910156 345.167969 C 336.65625 345.238281 336.40625 345.308594 336.15625 345.363281 C 335.960938 345.40625 335.769531 345.433594 335.578125 345.464844 C 335.328125 345.507812 335.082031 345.546875 334.835938 345.574219 C 334.640625 345.59375 334.449219 345.605469 334.253906 345.617188 C 334.007812 345.632812 333.765625 345.648438 333.519531 345.648438 C 333.328125 345.648438 333.136719 345.644531 332.945312 345.640625 C 332.699219 345.632812 332.457031 345.621094 332.210938 345.597656 C 332.027344 345.585938 331.839844 345.5625 331.65625 345.542969 C 331.40625 345.511719 331.15625 345.476562 330.910156 345.433594 C 330.734375 345.402344 330.554688 345.371094 330.382812 345.335938 C 330.125 345.28125 329.867188 345.222656 329.613281 345.15625 C 329.453125 345.117188 329.289062 345.074219 329.128906 345.03125 C 328.859375 344.953125 328.59375 344.871094 328.328125 344.78125 C 328.1875 344.734375 328.039062 344.6875 327.898438 344.636719 C 327.613281 344.535156 327.332031 344.425781 327.050781 344.308594 C 326.929688 344.261719 326.8125 344.214844 326.691406 344.164062 C 326.382812 344.03125 326.074219 343.890625 325.765625 343.742188 C 325.683594 343.703125 325.597656 343.667969 325.515625 343.625 C 325.15625 343.449219 324.804688 343.265625 324.453125 343.070312 C 324.429688 343.054688 324.398438 343.042969 324.371094 343.027344 C 323.203125 342.375 322.089844 341.648438 321.046875 340.886719 L 321.039062 340.886719 C 320.683594 340.625 320.339844 340.363281 320 340.097656 L 320.003906 340.097656 C 316.207031 337.117188 313.535156 333.90625 312.921875 333.144531 C 312.921875 333.140625 312.921875 333.140625 312.921875 333.140625 C 312.835938 333.035156 312.789062 332.976562 312.789062 332.976562 L 312.789062 332.972656 C 312.789062 332.972656 291.277344 304.535156 287.054688 290.855469 C 282.835938 277.1875 285.421875 255.300781 295.671875 259.617188 L 292.066406 284.148438 L 321.410156 288.460938 C 324.5 292.785156 327.550781 297.308594 330.382812 301.828125 C 330.664062 302.28125 330.945312 302.734375 331.222656 303.1875 C 331.503906 303.640625 331.785156 304.09375 332.058594 304.546875 C 332.625 303.972656 333.203125 303.398438 333.78125 302.824219 C 334.207031 302.402344 334.632812 301.980469 335.058594 301.558594 C 337.308594 299.34375 339.5625 297.144531 341.695312 294.964844 C 341.785156 294.867188 341.878906 294.773438 341.972656 294.675781 C 344.347656 292.238281 346.554688 289.828125 348.363281 287.457031 C 346.679688 278.726562 347.050781 263.011719 349.707031 262.339844 C 349.980469 262.273438 350.230469 262.242188 350.476562 262.222656 C 350.707031 262.207031 350.925781 262.21875 351.132812 262.25 C 351.152344 262.25 351.171875 262.25 351.1875 262.253906 C 351.40625 262.289062 351.609375 262.34375 351.800781 262.417969 C 354.769531 263.589844 354.839844 269.710938 354.828125 273.460938 C 356.175781 270.167969 357.609375 266.644531 359.007812 263.472656 C 359.15625 263.136719 359.304688 262.804688 359.453125 262.476562 C 359.496094 262.382812 359.539062 262.289062 359.582031 262.191406 C 359.695312 261.945312 359.808594 261.699219 359.917969 261.460938 C 359.964844 261.367188 360.003906 261.273438 360.050781 261.179688 C 360.191406 260.875 360.332031 260.578125 360.46875 260.285156 C 360.476562 260.273438 360.484375 260.257812 360.492188 260.242188 C 360.636719 259.933594 360.785156 259.632812 360.929688 259.339844 C 360.96875 259.261719 361.007812 259.1875 361.042969 259.113281 C 361.152344 258.894531 361.261719 258.679688 361.371094 258.46875 C 361.410156 258.386719 361.453125 258.304688 361.496094 258.226562 C 361.613281 258 361.730469 257.78125 361.847656 257.566406 C 361.871094 257.519531 361.894531 257.472656 361.921875 257.425781 C 362.058594 257.171875 362.195312 256.929688 362.332031 256.695312 C 362.363281 256.636719 362.398438 256.582031 362.429688 256.523438 C 362.535156 256.347656 362.636719 256.179688 362.734375 256.019531 C 362.777344 255.953125 362.820312 255.882812 362.859375 255.816406 C 362.960938 255.660156 363.058594 255.507812 363.15625 255.363281 C 363.1875 255.316406 363.222656 255.265625 363.253906 255.21875 C 363.378906 255.035156 363.503906 254.863281 363.625 254.703125 C 363.652344 254.667969 363.675781 254.640625 363.699219 254.609375 C 363.796875 254.484375 363.894531 254.367188 363.988281 254.257812 C 364.027344 254.21875 364.0625 254.175781 364.101562 254.136719 C 364.1875 254.042969 364.273438 253.957031 364.355469 253.875 C 364.386719 253.847656 364.421875 253.8125 364.453125 253.785156 C 364.566406 253.6875 364.675781 253.597656 364.78125 253.527344 C 364.796875 253.519531 364.8125 253.511719 364.824219 253.503906 C 364.917969 253.445312 365.007812 253.398438 365.09375 253.363281 C 365.125 253.351562 365.15625 253.34375 365.1875 253.332031 C 365.261719 253.3125 365.332031 253.296875 365.402344 253.289062 C 365.429688 253.289062 365.460938 253.285156 365.488281 253.285156 C 365.582031 253.285156 365.671875 253.300781 365.761719 253.335938 C 370.171875 255.09375 366.835938 262.277344 366.835938 262.277344 C 366.835938 262.277344 366.867188 262.289062 366.898438 262.300781 C 366.90625 262.300781 366.917969 262.304688 366.929688 262.3125 C 367.03125 262.351562 367.21875 262.433594 367.453125 262.570312 C 367.464844 262.574219 367.472656 262.578125 367.480469 262.582031 C 367.722656 262.726562 368.011719 262.925781 368.304688 263.195312 C 368.3125 263.203125 368.324219 263.210938 368.332031 263.21875 C 368.625 263.488281 368.921875 263.835938 369.1875 264.261719 C 369.199219 264.277344 369.210938 264.296875 369.21875 264.3125 C 369.351562 264.53125 369.476562 264.769531 369.585938 265.035156 C 369.871094 265.726562 370.0625 266.574219 370.066406 267.617188 C 371.6875 267.128906 372.964844 270.445312 372.703125 271.867188 C 376.21875 277.300781 371.355469 284.992188 367.027344 290.691406 Z M 367.027344 290.691406 " fill-opacity="1" fill-rule="nonzero"/><path fill="#f9d252" d="M 443.921875 93.925781 L 401.957031 93.925781 L 401.957031 51.308594 C 418.003906 63.304688 432.164062 77.691406 443.921875 93.925781 Z M 276.929688 202.3125 L 276.929688 214.289062 C 279.792969 213.429688 282.660156 213.9375 285.363281 217.183594 C 286.980469 219.128906 287.6875 223.769531 285.855469 226.535156 C 286.144531 227.226562 286.394531 227.957031 286.585938 228.75 C 286.824219 229.746094 287.011719 230.746094 287.15625 231.742188 L 500.320312 231.742188 L 500.320312 202.3125 Z M 276.929688 202.3125 " fill-opacity="1" fill-rule="nonzero"/><path fill="#ce1126" d="M 114.566406 127.144531 C 114.625 127.601562 114.660156 128.0625 114.660156 128.535156 C 114.660156 134.855469 109.535156 139.980469 103.214844 139.980469 C 102.6875 139.980469 102.175781 139.929688 101.667969 139.863281 C 101.550781 139.847656 101.433594 139.828125 101.316406 139.808594 C 100.816406 139.726562 100.328125 139.621094 99.855469 139.476562 C 99.324219 139.3125 98.816406 139.105469 98.320312 138.871094 C 98.269531 138.84375 98.210938 138.816406 98.160156 138.789062 C 97.9375 138.679688 97.714844 138.566406 97.5 138.441406 C 97.476562 138.429688 97.453125 138.414062 97.429688 138.398438 C 96.769531 138.011719 96.152344 137.558594 95.585938 137.050781 C 95.511719 136.984375 95.441406 136.921875 95.367188 136.855469 C 95.21875 136.710938 95.070312 136.566406 94.929688 136.417969 C 94.847656 136.332031 94.769531 136.246094 94.691406 136.15625 C 94.523438 135.96875 94.359375 135.777344 94.203125 135.578125 C 94.058594 135.398438 93.921875 135.214844 93.789062 135.027344 C 93.703125 134.898438 93.621094 134.765625 93.539062 134.632812 C 93.441406 134.480469 93.347656 134.328125 93.257812 134.171875 C 93.183594 134.042969 93.113281 133.914062 93.046875 133.78125 C 92.953125 133.601562 92.867188 133.417969 92.78125 133.234375 C 92.730469 133.117188 92.675781 133.003906 92.628906 132.886719 C 92.503906 132.589844 92.390625 132.285156 92.292969 131.976562 C 92.269531 131.902344 92.253906 131.828125 92.230469 131.753906 C 92.15625 131.5 92.089844 131.242188 92.03125 130.980469 C 92.007812 130.867188 91.988281 130.753906 91.96875 130.640625 C 91.921875 130.402344 91.886719 130.15625 91.855469 129.910156 C 91.84375 129.804688 91.828125 129.699219 91.816406 129.589844 C 91.785156 129.242188 91.765625 128.890625 91.765625 128.53125 C 91.765625 122.210938 96.890625 117.085938 103.210938 117.085938 C 103.648438 117.085938 104.078125 117.117188 104.503906 117.164062 C 104.601562 117.175781 104.695312 117.195312 104.792969 117.207031 C 105.132812 117.253906 105.464844 117.3125 105.792969 117.390625 C 105.875 117.410156 105.953125 117.429688 106.03125 117.449219 C 106.386719 117.542969 106.734375 117.648438 107.074219 117.769531 C 107.117188 117.785156 107.160156 117.800781 107.203125 117.816406 C 107.589844 117.960938 107.96875 118.125 108.335938 118.308594 C 108.605469 118.445312 108.871094 118.589844 109.128906 118.75 C 110.351562 119.488281 111.421875 120.453125 112.292969 121.585938 C 112.320312 121.621094 112.347656 121.660156 112.375 121.695312 C 112.628906 122.035156 112.863281 122.386719 113.078125 122.753906 C 113.101562 122.792969 113.128906 122.835938 113.152344 122.878906 C 113.601562 123.664062 113.957031 124.507812 114.210938 125.394531 C 114.246094 125.511719 114.269531 125.632812 114.300781 125.75 C 114.382812 126.082031 114.453125 126.414062 114.503906 126.753906 C 114.527344 126.886719 114.550781 127.015625 114.566406 127.144531 Z M 288.085938 251.574219 C 287.519531 250.957031 287.195312 250.265625 287.195312 249.539062 C 287.195312 246.90625 291.328125 244.765625 296.410156 244.765625 C 301.492188 244.765625 305.628906 246.90625 305.628906 249.539062 C 305.628906 252.140625 301.582031 254.257812 296.578125 254.304688 L 299.796875 254.777344 C 303.691406 254.023438 306.417969 251.992188 306.417969 249.539062 C 306.417969 246.421875 302.023438 243.976562 296.410156 243.976562 C 290.800781 243.976562 286.40625 246.421875 286.40625 249.539062 C 286.40625 250.199219 286.613281 250.828125 286.980469 251.410156 Z M 397.707031 249.539062 C 397.707031 246.421875 402.101562 243.976562 407.710938 243.976562 C 413.324219 243.976562 417.71875 246.421875 417.71875 249.539062 C 417.71875 252.65625 413.324219 255.101562 407.710938 255.101562 C 402.101562 255.101562 397.707031 252.65625 397.707031 249.539062 Z M 398.496094 249.539062 C 398.496094 252.167969 402.628906 254.308594 407.710938 254.308594 C 412.792969 254.308594 416.929688 252.167969 416.929688 249.539062 C 416.929688 246.90625 412.792969 244.765625 407.710938 244.765625 C 402.628906 244.765625 398.496094 246.90625 398.496094 249.539062 Z M 407.710938 280.359375 C 406.207031 280.359375 404.792969 280.539062 403.527344 280.859375 C 403.835938 281.0625 404.128906 281.269531 404.410156 281.472656 C 405.4375 281.269531 406.546875 281.148438 407.710938 281.148438 C 412.792969 281.148438 416.929688 283.289062 416.929688 285.921875 C 416.929688 288.550781 412.792969 290.691406 407.710938 290.691406 C 405.738281 290.691406 403.914062 290.367188 402.414062 289.820312 C 402.023438 289.941406 401.621094 290.058594 401.199219 290.171875 C 402.9375 290.992188 405.199219 291.484375 407.710938 291.484375 C 413.324219 291.484375 417.71875 289.039062 417.71875 285.921875 C 417.71875 282.804688 413.324219 280.359375 407.710938 280.359375 Z M 417.71875 322.304688 C 417.71875 325.421875 413.324219 327.863281 407.710938 327.863281 C 402.101562 327.863281 397.707031 325.421875 397.707031 322.304688 C 397.707031 319.183594 402.101562 316.742188 407.710938 316.742188 C 413.324219 316.742188 417.71875 319.183594 417.71875 322.304688 Z M 416.929688 322.304688 C 416.929688 319.671875 412.792969 317.53125 407.710938 317.53125 C 402.628906 317.53125 398.496094 319.671875 398.496094 322.304688 C 398.496094 324.933594 402.628906 327.074219 407.710938 327.074219 C 412.792969 327.074219 416.929688 324.933594 416.929688 322.304688 Z M 417.71875 358.6875 C 417.71875 361.804688 413.324219 364.246094 407.710938 364.246094 C 402.101562 364.246094 397.707031 361.804688 397.707031 358.6875 C 397.707031 355.566406 402.101562 353.125 407.710938 353.125 C 413.324219 353.125 417.71875 355.566406 417.71875 358.6875 Z M 416.929688 358.6875 C 416.929688 356.054688 412.792969 353.914062 407.710938 353.914062 C 402.628906 353.914062 398.496094 356.054688 398.496094 358.6875 C 398.496094 361.316406 402.628906 363.457031 407.710938 363.457031 C 412.792969 363.457031 416.929688 361.316406 416.929688 358.6875 Z M 417.71875 395.066406 C 417.71875 398.183594 413.324219 400.628906 407.710938 400.628906 C 402.101562 400.628906 397.707031 398.183594 397.707031 395.066406 C 397.707031 391.949219 402.101562 389.503906 407.710938 389.503906 C 413.324219 389.503906 417.71875 391.949219 417.71875 395.066406 Z M 416.929688 395.066406 C 416.929688 392.4375 412.792969 390.296875 407.710938 390.296875 C 402.628906 390.296875 398.496094 392.4375 398.496094 395.066406 C 398.496094 397.699219 402.628906 399.839844 407.710938 399.839844 C 412.792969 399.839844 416.929688 397.699219 416.929688 395.066406 Z M 417.71875 431.449219 C 417.71875 434.566406 413.324219 437.011719 407.710938 437.011719 C 402.101562 437.011719 397.707031 434.566406 397.707031 431.449219 C 397.707031 428.332031 402.101562 425.886719 407.710938 425.886719 C 413.324219 425.886719 417.71875 428.332031 417.71875 431.449219 Z M 416.929688 431.449219 C 416.929688 428.820312 412.792969 426.679688 407.710938 426.679688 C 402.628906 426.679688 398.496094 428.820312 398.496094 431.449219 C 398.496094 434.082031 402.628906 436.222656 407.710938 436.222656 C 412.792969 436.222656 416.929688 434.082031 416.929688 431.449219 Z M 333.808594 298.730469 C 333.808594 298.730469 333.429688 296.3125 328.746094 289.542969 L 297.003906 284.878906 L 282.710938 282.777344 L 244.109375 277.101562 C 244.023438 277.710938 243.953125 278.332031 243.890625 278.957031 L 243.886719 278.957031 C 243.882812 278.996094 243.882812 279.039062 243.878906 279.078125 C 243.871094 279.144531 243.867188 279.210938 243.863281 279.277344 C 243.820312 279.777344 243.78125 280.28125 243.753906 280.792969 C 243.585938 283.730469 243.660156 286.832031 243.921875 290.019531 C 243.925781 290.035156 243.925781 290.046875 243.929688 290.0625 C 244.148438 292.71875 244.496094 295.4375 244.933594 298.167969 C 244.957031 298.3125 244.976562 298.453125 245 298.597656 C 245.203125 299.832031 245.425781 301.070312 245.660156 302.304688 C 245.707031 302.546875 245.753906 302.789062 245.800781 303.03125 C 246.03125 304.210938 246.273438 305.386719 246.523438 306.558594 C 246.554688 306.6875 246.578125 306.816406 246.605469 306.945312 C 246.65625 307.179688 246.710938 307.410156 246.761719 307.644531 C 246.847656 308.027344 246.933594 308.410156 247.019531 308.792969 C 247.117188 309.21875 247.214844 309.648438 247.3125 310.074219 C 247.40625 310.480469 247.503906 310.886719 247.601562 311.292969 C 247.695312 311.691406 247.789062 312.089844 247.886719 312.484375 C 248.007812 312.988281 248.132812 313.484375 248.257812 313.984375 C 248.328125 314.273438 248.398438 314.5625 248.472656 314.847656 C 248.667969 315.625 248.867188 316.398438 249.0625 317.164062 C 249.125 317.40625 249.191406 317.644531 249.253906 317.882812 C 249.398438 318.449219 249.546875 319.011719 249.695312 319.566406 C 249.75 319.78125 249.808594 319.988281 249.863281 320.203125 C 250.03125 320.832031 250.199219 321.457031 250.363281 322.070312 C 250.382812 322.132812 250.398438 322.195312 250.414062 322.257812 C 251.789062 327.347656 253.078125 331.914062 253.933594 335.539062 C 253.9375 335.5625 253.945312 335.589844 253.949219 335.613281 C 254.058594 336.066406 254.15625 336.507812 254.25 336.929688 C 254.257812 336.96875 254.265625 337.007812 254.277344 337.050781 C 254.367188 337.46875 254.453125 337.875 254.527344 338.265625 C 254.53125 338.277344 254.53125 338.292969 254.535156 338.304688 C 254.691406 339.121094 254.8125 339.863281 254.894531 340.523438 C 254.941406 340.929688 254.964844 341.359375 254.96875 341.804688 C 254.96875 341.851562 254.964844 341.898438 254.964844 341.945312 C 254.964844 342.332031 254.945312 342.738281 254.910156 343.15625 C 254.902344 343.261719 254.890625 343.375 254.878906 343.480469 C 254.84375 343.851562 254.796875 344.234375 254.734375 344.628906 C 254.714844 344.757812 254.695312 344.890625 254.675781 345.023438 C 254.605469 345.421875 254.527344 345.828125 254.441406 346.246094 C 254.414062 346.375 254.390625 346.503906 254.359375 346.636719 C 254.25 347.117188 254.128906 347.609375 253.996094 348.117188 C 253.976562 348.1875 253.960938 348.257812 253.945312 348.328125 C 253.785156 348.921875 253.609375 349.527344 253.421875 350.152344 C 253.390625 350.25 253.355469 350.351562 253.328125 350.445312 C 253.167969 350.960938 253.003906 351.480469 252.824219 352.011719 C 252.746094 352.246094 252.664062 352.488281 252.582031 352.726562 C 252.441406 353.128906 252.300781 353.539062 252.152344 353.957031 C 252.046875 354.25 251.9375 354.542969 251.832031 354.839844 C 251.695312 355.210938 251.554688 355.589844 251.414062 355.96875 C 251.285156 356.304688 251.160156 356.636719 251.027344 356.980469 C 250.898438 357.316406 250.765625 357.660156 250.632812 358.003906 C 250.476562 358.398438 250.328125 358.792969 250.167969 359.195312 C 250.097656 359.367188 250.023438 359.546875 249.953125 359.722656 C 248.933594 362.28125 247.804688 364.992188 246.605469 367.851562 C 245.394531 370.730469 244.117188 373.769531 242.820312 376.921875 C 242.691406 377.226562 242.570312 377.53125 242.441406 377.835938 C 242.152344 378.542969 241.863281 379.25 241.574219 379.96875 C 241.367188 380.480469 241.160156 380.996094 240.953125 381.511719 C 240.695312 382.152344 240.441406 382.785156 240.183594 383.433594 C 239.75 384.53125 239.316406 385.644531 238.882812 386.765625 C 238.714844 387.207031 238.550781 387.652344 238.382812 388.097656 C 238.074219 388.910156 237.765625 389.726562 237.460938 390.554688 C 237.273438 391.0625 237.089844 391.566406 236.90625 392.078125 C 236.601562 392.90625 236.308594 393.742188 236.011719 394.582031 C 235.847656 395.054688 235.679688 395.519531 235.519531 395.992188 C 235.078125 397.269531 234.644531 398.550781 234.222656 399.851562 C 234.210938 399.882812 234.199219 399.917969 234.1875 399.953125 C 234.101562 400.21875 234.019531 400.492188 233.933594 400.757812 C 233.886719 400.898438 233.84375 401.046875 233.800781 401.1875 C 233.515625 402.089844 233.230469 402.992188 232.957031 403.90625 C 232.882812 404.136719 232.816406 404.375 232.746094 404.609375 C 232.484375 405.480469 232.226562 406.359375 231.976562 407.242188 C 231.890625 407.546875 231.808594 407.851562 231.726562 408.15625 C 231.496094 408.976562 231.273438 409.792969 231.054688 410.621094 C 230.949219 411.03125 230.847656 411.445312 230.742188 411.855469 C 230.558594 412.582031 230.371094 413.308594 230.199219 414.039062 C 230.066406 414.59375 229.945312 415.148438 229.816406 415.707031 C 229.679688 416.308594 229.539062 416.910156 229.40625 417.515625 C 229.25 418.253906 229.101562 419 228.953125 419.746094 C 228.867188 420.175781 228.773438 420.605469 228.691406 421.035156 C 228.492188 422.097656 228.304688 423.164062 228.128906 424.234375 C 228.109375 424.355469 228.082031 424.480469 228.0625 424.601562 C 227.867188 425.816406 227.683594 427.039062 227.523438 428.261719 C 227.5 428.4375 227.503906 428.617188 227.527344 428.792969 C 227.535156 428.847656 227.550781 428.898438 227.558594 428.953125 C 227.585938 429.078125 227.621094 429.203125 227.667969 429.328125 C 227.691406 429.390625 227.71875 429.453125 227.746094 429.519531 C 227.800781 429.636719 227.871094 429.753906 227.945312 429.875 C 227.984375 429.9375 228.019531 430 228.0625 430.0625 C 228.175781 430.21875 228.304688 430.378906 228.449219 430.535156 C 228.519531 430.613281 228.605469 430.691406 228.683594 430.773438 C 228.789062 430.875 228.894531 430.976562 229.015625 431.082031 C 229.121094 431.171875 229.238281 431.265625 229.351562 431.359375 C 229.449219 431.4375 229.550781 431.511719 229.65625 431.589844 C 229.792969 431.691406 229.9375 431.792969 230.085938 431.894531 C 230.175781 431.953125 230.269531 432.015625 230.367188 432.074219 C 231.003906 432.488281 231.742188 432.894531 232.574219 433.300781 C 232.589844 433.308594 232.601562 433.316406 232.617188 433.324219 C 232.910156 433.464844 233.214844 433.605469 233.527344 433.746094 C 233.5625 433.761719 233.59375 433.773438 233.628906 433.789062 C 252.148438 442.019531 307.523438 448.417969 326.214844 440.152344 C 326.261719 440.132812 326.304688 440.109375 326.351562 440.089844 C 326.75 439.910156 327.128906 439.722656 327.492188 439.53125 C 327.554688 439.5 327.609375 439.464844 327.667969 439.433594 C 328.007812 439.246094 328.335938 439.054688 328.644531 438.855469 C 328.703125 438.816406 328.757812 438.777344 328.8125 438.742188 C 329.113281 438.542969 329.394531 438.335938 329.660156 438.125 C 329.710938 438.082031 329.753906 438.042969 329.804688 438.003906 C 330.066406 437.785156 330.308594 437.5625 330.53125 437.332031 C 330.570312 437.292969 330.605469 437.253906 330.644531 437.214844 C 330.867188 436.976562 331.066406 436.730469 331.25 436.480469 C 331.277344 436.445312 331.304688 436.40625 331.332031 436.371094 C 331.511719 436.109375 331.671875 435.84375 331.808594 435.570312 C 331.824219 435.535156 331.84375 435.5 331.863281 435.464844 C 331.996094 435.183594 332.105469 434.898438 332.195312 434.601562 C 332.203125 434.578125 332.214844 434.558594 332.21875 434.539062 C 332.222656 434.523438 332.226562 434.507812 332.230469 434.496094 C 332.292969 434.273438 332.339844 434.046875 332.375 433.816406 C 332.378906 433.792969 332.386719 433.769531 332.390625 433.746094 C 332.394531 433.710938 332.394531 433.671875 332.398438 433.636719 C 332.425781 433.414062 332.445312 433.183594 332.449219 432.949219 C 332.453125 432.742188 332.449219 432.53125 332.433594 432.316406 C 332.425781 432.234375 332.417969 432.152344 332.410156 432.066406 C 332.375 431.75 332.328125 431.429688 332.246094 431.097656 C 331.71875 428.976562 330.445312 422.667969 328.667969 413.652344 C 328.621094 413.398438 328.566406 413.125 328.515625 412.863281 C 327.65625 408.507812 326.6875 403.554688 325.636719 398.152344 C 325.582031 397.890625 325.53125 397.628906 325.480469 397.363281 C 324.269531 391.15625 322.949219 384.382812 321.558594 377.273438 C 321.507812 377.007812 321.457031 376.746094 321.40625 376.480469 C 320.785156 373.316406 320.148438 370.070312 319.507812 366.800781 C 319.285156 365.667969 319.0625 364.53125 318.835938 363.390625 C 318.730469 362.847656 318.625 362.316406 318.519531 361.769531 C 318.46875 361.507812 318.417969 361.242188 318.363281 360.980469 C 318.316406 360.742188 318.269531 360.503906 318.222656 360.265625 C 317.632812 357.261719 317.035156 354.238281 316.433594 351.203125 C 316.402344 351.0625 316.378906 350.925781 316.351562 350.785156 C 313.960938 338.726562 311.515625 326.539062 309.167969 315.164062 L 330.027344 301.253906 Z M 333.808594 298.730469 " fill-opacity="1" fill-rule="nonzero"/><g clip-path="url(#830bb4f05e)"><path fill="#000000" d="M 233.929688 400.757812 C 200.304688 391.992188 169.472656 374.429688 144.25 349.207031 C 106.875 311.832031 86.289062 262.132812 86.289062 209.273438 C 86.289062 184.9375 90.660156 161.277344 99.019531 139.175781 C 101.710938 132.046875 104.828125 125.082031 108.339844 118.308594 C 117.59375 100.46875 129.628906 83.957031 144.25 69.335938 C 181.628906 31.960938 231.324219 11.375 284.1875 11.375 C 284.371094 11.375 284.550781 11.378906 284.734375 11.382812 C 286.046875 11.386719 287.359375 11.398438 288.671875 11.429688 C 289.214844 11.441406 289.757812 11.460938 290.300781 11.476562 C 291.289062 11.507812 292.277344 11.542969 293.261719 11.585938 C 293.828125 11.609375 294.390625 11.640625 294.957031 11.667969 C 295.96875 11.722656 296.976562 11.785156 297.988281 11.855469 C 298.484375 11.890625 298.976562 11.921875 299.472656 11.957031 C 300.769531 12.054688 302.058594 12.167969 303.347656 12.289062 C 303.542969 12.308594 303.742188 12.324219 303.9375 12.34375 C 305.484375 12.496094 307.027344 12.664062 308.566406 12.855469 C 308.777344 12.878906 308.988281 12.910156 309.199219 12.9375 C 310.5 13.097656 311.800781 13.277344 313.09375 13.464844 C 313.464844 13.515625 313.832031 13.574219 314.195312 13.628906 C 315.367188 13.804688 316.535156 13.992188 317.699219 14.191406 C 318.0625 14.253906 318.425781 14.3125 318.789062 14.378906 C 320.054688 14.601562 321.320312 14.835938 322.578125 15.082031 C 322.808594 15.125 323.035156 15.167969 323.265625 15.210938 C 326.246094 15.804688 329.207031 16.46875 332.148438 17.199219 C 332.582031 17.304688 333.015625 17.421875 333.453125 17.53125 C 334.4375 17.78125 335.417969 18.039062 336.398438 18.304688 C 336.960938 18.460938 337.519531 18.613281 338.082031 18.773438 C 338.914062 19.007812 339.742188 19.246094 340.570312 19.492188 C 341.210938 19.683594 341.855469 19.871094 342.496094 20.070312 C 343.167969 20.273438 343.835938 20.492188 344.503906 20.703125 C 347.640625 21.703125 350.746094 22.78125 353.824219 23.933594 C 353.925781 23.972656 354.03125 24.007812 354.132812 24.046875 C 355.335938 24.5 356.53125 24.96875 357.726562 25.445312 C 377.910156 33.515625 396.734375 44.9375 413.496094 59.445312 C 420.894531 65.832031 427.78125 72.726562 434.132812 80.101562 C 434.242188 80.226562 434.34375 80.355469 434.453125 80.480469 C 435.300781 81.46875 436.144531 82.460938 436.972656 83.46875 C 437.554688 84.171875 438.121094 84.882812 438.691406 85.589844 C 439.015625 85.996094 439.34375 86.398438 439.664062 86.804688 C 441.515625 89.144531 443.304688 91.519531 445.039062 93.925781 L 443.921875 93.925781 C 432.167969 77.691406 418.007812 63.304688 401.960938 51.308594 C 371.742188 28.722656 334.851562 14.59375 294.832031 12.457031 C 294.449219 12.433594 294.066406 12.417969 293.683594 12.398438 C 292.527344 12.34375 291.363281 12.300781 290.203125 12.265625 C 289.738281 12.25 289.269531 12.234375 288.804688 12.222656 C 287.40625 12.191406 286.007812 12.171875 284.605469 12.171875 C 284.464844 12.171875 284.324219 12.167969 284.1875 12.167969 C 258.710938 12.167969 234.351562 17.023438 211.984375 25.859375 C 211.890625 25.898438 211.800781 25.9375 211.707031 25.972656 C 210.191406 26.574219 208.683594 27.195312 207.183594 27.835938 C 164.921875 45.839844 130.191406 78.199219 109.132812 118.75 C 106.84375 123.164062 104.710938 127.671875 102.75 132.269531 C 102.113281 133.769531 101.492188 135.277344 100.886719 136.792969 C 100.851562 136.886719 100.8125 136.976562 100.773438 137.070312 C 100.460938 137.867188 100.164062 138.675781 99.859375 139.476562 C 91.613281 161.183594 87.082031 184.707031 87.082031 209.269531 C 87.082031 300.6875 149.636719 377.761719 234.1875 399.949219 C 234.097656 400.214844 234.015625 400.488281 233.929688 400.757812 Z M 264.570312 106.679688 L 256.070312 106.679688 L 256.070312 115.179688 L 264.570312 115.179688 Z M 264.570312 124.28125 L 256.070312 124.28125 L 256.070312 132.785156 L 264.570312 132.785156 Z M 264.570312 141.886719 L 256.070312 141.886719 L 256.070312 150.386719 L 264.570312 150.386719 Z M 264.570312 159.488281 L 256.070312 159.488281 L 256.070312 167.992188 L 264.570312 167.992188 Z M 264.570312 177.09375 L 256.070312 177.09375 L 256.070312 185.59375 L 264.570312 185.59375 Z M 256.070312 203.199219 L 264.570312 203.199219 L 264.570312 194.695312 L 256.070312 194.695312 Z M 512.679688 106.679688 L 512.679688 115.179688 L 521.179688 115.179688 L 521.179688 106.679688 Z M 512.679688 132.785156 L 521.179688 132.785156 L 521.179688 124.28125 L 512.679688 124.28125 Z M 512.679688 150.386719 L 521.179688 150.386719 L 521.179688 141.886719 L 512.679688 141.886719 Z M 512.679688 167.992188 L 521.179688 167.992188 L 521.179688 159.488281 L 512.679688 159.488281 Z M 512.679688 185.59375 L 521.179688 185.59375 L 521.179688 177.09375 L 512.679688 177.09375 Z M 512.679688 203.199219 L 521.179688 203.199219 L 521.179688 194.695312 L 512.679688 194.695312 Z M 512.679688 220.800781 L 521.179688 220.800781 L 521.179688 212.296875 L 512.679688 212.296875 Z M 512.679688 238.402344 L 521.179688 238.402344 L 521.179688 229.902344 L 512.679688 229.902344 Z M 512.679688 256.007812 L 521.179688 256.007812 L 521.179688 247.503906 L 512.679688 247.503906 Z M 512.679688 273.609375 L 521.179688 273.609375 L 521.179688 265.109375 L 512.679688 265.109375 Z M 512.679688 291.214844 L 521.179688 291.214844 L 521.179688 282.710938 L 512.679688 282.710938 Z M 512.679688 308.816406 L 521.179688 308.816406 L 521.179688 300.3125 L 512.679688 300.3125 Z M 512.679688 326.417969 L 521.179688 326.417969 L 521.179688 317.917969 L 512.679688 317.917969 Z M 512.679688 344.023438 L 521.179688 344.023438 L 521.179688 335.519531 L 512.679688 335.519531 Z M 512.679688 361.625 L 521.179688 361.625 L 521.179688 353.125 L 512.679688 353.125 Z M 512.679688 379.226562 L 521.179688 379.226562 L 521.179688 370.726562 L 512.679688 370.726562 Z M 512.679688 396.832031 L 521.179688 396.832031 L 521.179688 388.328125 L 512.679688 388.328125 Z M 512.679688 414.433594 L 521.179688 414.433594 L 521.179688 405.933594 L 512.679688 405.933594 Z M 512.679688 432.039062 L 521.179688 432.039062 L 521.179688 423.535156 L 512.679688 423.535156 Z M 512.679688 449.640625 L 521.179688 449.640625 L 521.179688 441.140625 L 512.679688 441.140625 Z M 512.679688 467.242188 L 521.179688 467.242188 L 521.179688 458.742188 L 512.679688 458.742188 Z M 291.851562 449.246094 L 277.722656 449.246094 L 277.722656 442.960938 C 277.457031 442.933594 277.195312 442.910156 276.929688 442.882812 L 276.929688 450.035156 L 291.96875 450.035156 C 291.929688 449.773438 291.890625 449.511719 291.851562 449.246094 Z M 379.152344 251.835938 L 310.457031 251.835938 L 310.457031 252.625 L 379.152344 252.625 Z M 332.882812 303.71875 L 331.550781 303.71875 C 331.714844 303.980469 331.871094 304.242188 332.03125 304.507812 L 332.101562 304.507812 C 332.359375 304.242188 332.621094 303.980469 332.882812 303.71875 Z M 352.582031 325.390625 L 379.152344 325.390625 L 379.152344 324.601562 L 352.957031 324.601562 C 352.832031 324.863281 352.707031 325.128906 352.582031 325.390625 Z M 314.21875 340.097656 C 314.269531 340.363281 314.324219 340.625 314.375 340.890625 L 321.046875 340.890625 C 320.691406 340.628906 320.34375 340.367188 320.003906 340.097656 Z M 379.152344 361.769531 L 379.152344 360.980469 L 318.359375 360.980469 C 318.414062 361.246094 318.464844 361.507812 318.515625 361.769531 Z M 379.152344 398.152344 L 379.152344 397.363281 L 325.476562 397.363281 C 325.53125 397.628906 325.582031 397.890625 325.632812 398.152344 Z M 332.386719 433.746094 C 332.347656 434.015625 332.292969 434.28125 332.21875 434.535156 L 379.152344 434.535156 L 379.152344 433.746094 Z M 421.757812 252.625 L 490.449219 252.625 L 490.449219 251.835938 L 421.757812 251.835938 Z M 421.757812 288.21875 L 421.757812 289.007812 L 490.449219 289.007812 L 490.449219 288.21875 Z M 490.449219 324.601562 L 421.757812 324.601562 L 421.757812 325.390625 L 490.449219 325.390625 Z M 490.449219 360.980469 L 421.757812 360.980469 L 421.757812 361.769531 L 490.449219 361.769531 Z M 490.449219 397.363281 L 421.757812 397.363281 L 421.757812 398.152344 L 490.449219 398.152344 Z M 490.449219 433.746094 L 421.757812 433.746094 L 421.757812 434.535156 L 490.449219 434.535156 Z M 499.53125 231.742188 L 500.320312 231.742188 L 500.320312 450.035156 L 325.597656 450.035156 C 325.582031 449.773438 325.5625 449.511719 325.542969 449.246094 L 388.230469 449.246094 L 388.230469 413.652344 L 328.667969 413.652344 C 328.617188 413.398438 328.5625 413.125 328.511719 412.863281 L 388.230469 412.863281 L 388.230469 377.273438 L 321.558594 377.273438 C 321.503906 377.007812 321.453125 376.746094 321.402344 376.480469 L 388.230469 376.480469 L 388.230469 340.890625 L 343.65625 340.890625 C 343.753906 340.746094 343.84375 340.59375 343.929688 340.4375 C 344.011719 340.332031 344.101562 340.210938 344.1875 340.097656 L 388.230469 340.097656 L 388.230469 304.507812 L 361.628906 304.507812 C 361.734375 304.242188 361.84375 303.976562 361.945312 303.71875 L 388.230469 303.71875 L 388.230469 293.839844 C 388.503906 293.632812 388.761719 293.414062 389.019531 293.191406 L 389.019531 303.71875 L 499.53125 303.71875 L 499.53125 268.125 L 389.019531 268.125 L 389.019531 270.140625 C 390.863281 271.664062 392.324219 273.597656 393.289062 275.785156 C 397.09375 277.316406 400.828125 279.0625 403.527344 280.859375 C 403.835938 281.0625 404.128906 281.269531 404.410156 281.472656 C 405.597656 282.351562 406.515625 283.234375 407.046875 284.105469 L 411.488281 284.757812 C 412.507812 284.910156 413.210938 285.855469 413.058594 286.871094 C 412.910156 287.890625 411.964844 288.59375 410.945312 288.445312 L 406.503906 287.789062 C 405.605469 288.601562 404.175781 289.265625 402.414062 289.820312 C 402.027344 289.941406 401.621094 290.0625 401.199219 290.171875 C 398.101562 290.992188 394.234375 291.515625 390.394531 291.851562 C 387.171875 295.441406 382.273438 297.402344 377.136719 296.648438 L 365.394531 294.921875 C 366.066406 293.191406 366.621094 291.742188 367.03125 290.695312 C 371.167969 285.242188 375.777344 277.972656 373.101562 272.597656 C 373.101562 272.652344 373.097656 272.707031 373.078125 272.761719 L 371.476562 276.953125 C 371.417969 277.113281 371.269531 277.207031 371.109375 277.207031 C 371.0625 277.207031 371.015625 277.199219 370.96875 277.183594 C 370.765625 277.105469 370.660156 276.878906 370.738281 276.675781 L 372.339844 272.480469 C 372.414062 272.277344 372.644531 272.171875 372.847656 272.253906 C 372.886719 272.265625 372.917969 272.292969 372.945312 272.316406 C 372.867188 272.167969 372.800781 272.015625 372.707031 271.871094 C 372.972656 270.449219 371.691406 267.136719 370.070312 267.621094 C 370.070312 266.578125 369.875 265.726562 369.589844 265.039062 L 381.527344 266.792969 C 382.324219 266.910156 383.09375 267.105469 383.839844 267.335938 L 388.230469 267.335938 L 388.230469 231.742188 L 389.023438 231.742188 L 389.023438 267.335938 L 499.53125 267.335938 Z M 388.230469 268.125 L 385.902344 268.125 C 386.726562 268.519531 387.5 268.992188 388.230469 269.519531 Z M 499.53125 413.652344 L 389.019531 413.652344 L 389.019531 449.246094 L 499.53125 449.246094 Z M 499.53125 377.273438 L 389.019531 377.273438 L 389.019531 412.863281 L 499.53125 412.863281 Z M 499.53125 340.890625 L 389.019531 340.890625 L 389.019531 376.480469 L 499.53125 376.480469 Z M 499.53125 304.507812 L 389.019531 304.507812 L 389.019531 340.097656 L 499.53125 340.097656 Z M 388.625 114.785156 L 277.324219 114.785156 L 277.324219 115.578125 L 388.625 115.578125 Z M 388.625 132.390625 L 277.324219 132.390625 L 277.324219 133.179688 L 388.625 133.179688 Z M 388.625 167.894531 L 277.324219 167.894531 L 277.324219 168.6875 L 388.625 168.6875 Z M 388.625 185.5 L 277.324219 185.5 L 277.324219 186.289062 L 388.625 186.289062 Z M 334.148438 589.996094 L 334.976562 585.316406 L 335.222656 583.925781 L 322.707031 578.757812 L 322.023438 579.566406 L 314.429688 588.527344 L 295.855469 587.148438 L 289.027344 568.601562 L 310.851562 568.601562 L 310.851562 564.785156 L 287.621094 564.785156 C 287.621094 564.785156 287.589844 564.820312 287.542969 564.875 C 286.894531 565.640625 282.1875 571.675781 282.1875 586.132812 L 282.1875 598.234375 L 344.191406 598.234375 L 344.191406 590.742188 L 341.164062 590.515625 Z M 236.425781 589.171875 L 238.59375 584.941406 L 239.234375 583.6875 L 228.78125 575.078125 L 227.894531 575.648438 L 218.007812 581.988281 L 200.65625 575.222656 L 199.5625 555.488281 L 218.882812 561.414062 L 220.429688 561.890625 L 221.550781 558.242188 L 219.804688 557.707031 L 199.339844 551.429688 C 199.339844 551.429688 199.300781 551.453125 199.238281 551.492188 C 198.398438 552.027344 192.125 556.417969 187.886719 570.246094 L 184.335938 581.816406 L 243.613281 599.996094 L 245.808594 592.832031 L 242.984375 591.730469 Z M 275.128906 232.46875 C 274.910156 232.441406 274.71875 232.597656 274.691406 232.8125 C 274.664062 233.027344 274.820312 233.222656 275.035156 233.25 C 275.125 233.261719 277.25 233.566406 277.25 236.519531 C 277.25 236.738281 277.425781 236.914062 277.644531 236.914062 C 277.863281 236.914062 278.039062 236.738281 278.039062 236.519531 C 278.039062 232.847656 275.15625 232.472656 275.128906 232.46875 Z M 288.28125 296.519531 C 288.074219 296.597656 287.972656 296.824219 288.050781 297.027344 L 296.8125 320.15625 C 296.871094 320.316406 297.023438 320.410156 297.183594 320.410156 C 297.226562 320.410156 297.273438 320.402344 297.320312 320.386719 C 297.523438 320.308594 297.625 320.082031 297.550781 319.875 L 288.789062 296.75 C 288.710938 296.546875 288.484375 296.445312 288.28125 296.519531 Z M 354.828125 273.464844 C 356.175781 270.171875 357.609375 266.648438 359.007812 263.480469 L 351.800781 262.421875 C 354.769531 263.59375 354.839844 269.714844 354.828125 273.464844 Z M 280.742188 291.664062 C 281.042969 289.628906 279.636719 287.738281 277.601562 287.4375 L 243.691406 282.457031 L 216.34375 278.4375 L 216.851562 274.984375 L 243.886719 278.957031 L 289.953125 285.726562 C 290.972656 285.875 291.917969 285.171875 292.066406 284.15625 L 292.066406 284.152344 L 296.339844 255.066406 L 318.847656 258.375 L 314.574219 287.453125 L 344.632812 291.871094 C 345.988281 290.386719 347.253906 288.917969 348.367188 287.460938 C 346.679688 278.730469 347.054688 263.011719 349.707031 262.34375 C 349.980469 262.273438 350.230469 262.246094 350.476562 262.226562 L 299.796875 254.777344 L 296.578125 254.304688 L 296.414062 254.28125 C 296.355469 253.421875 295.710938 252.695312 294.828125 252.5625 L 288.085938 251.574219 L 286.976562 251.410156 L 277.71875 250.050781 L 277.71875 247.277344 C 277.460938 247.246094 277.195312 247.210938 276.929688 247.164062 L 276.929688 249.933594 L 276.304688 249.84375 C 276.199219 248.894531 276.0625 247.929688 275.894531 246.960938 C 275.144531 242.558594 273.894531 238.183594 273.484375 235.921875 C 274.53125 237.738281 276.667969 239.300781 278.566406 239.300781 C 278.785156 239.300781 278.960938 239.125 278.960938 238.90625 C 278.960938 238.6875 278.78125 238.511719 278.566406 238.511719 C 276.183594 238.511719 273.628906 235.738281 273.628906 233.789062 C 273.628906 232.789062 274.269531 231.765625 275.222656 231.242188 C 276.128906 230.746094 277.148438 230.78125 278.023438 231.339844 C 278.050781 231.359375 278.082031 231.347656 278.109375 231.355469 C 278.660156 231.914062 279.027344 232.855469 279.585938 234.125 C 280.5625 236.359375 282.4375 237.839844 283.328125 237.347656 C 284.214844 236.851562 281.902344 229.347656 284.214844 228.070312 C 284.902344 227.6875 285.445312 227.160156 285.855469 226.535156 C 287.6875 223.769531 286.980469 219.128906 285.363281 217.183594 C 282.660156 213.9375 279.792969 213.429688 276.929688 214.289062 C 276.136719 214.53125 275.34375 214.867188 274.554688 215.289062 C 272.667969 214.796875 270.925781 214.574219 269.316406 214.574219 C 267.734375 214.285156 266.152344 214.214844 264.570312 214.429688 L 264.570312 212.296875 L 256.070312 212.296875 L 256.070312 218.808594 C 252.441406 222.1875 249.964844 226.828125 249.285156 231.523438 C 248.71875 235.449219 247.359375 239.980469 246.601562 245.199219 C 246.589844 245.289062 246.574219 245.378906 246.5625 245.472656 L 207.910156 239.789062 C 198.765625 238.445312 190.234375 244.789062 188.890625 253.933594 C 187.546875 263.078125 193.894531 271.609375 203.035156 272.953125 L 209.484375 273.898438 L 208.433594 281.039062 C 208.136719 283.074219 209.539062 284.964844 211.578125 285.265625 L 243.921875 290.019531 L 276.515625 294.808594 C 278.554688 295.109375 280.445312 293.699219 280.742188 291.664062 Z M 365.796875 263.527344 L 363.703125 269.015625 C 363.625 269.21875 363.730469 269.449219 363.933594 269.523438 C 363.980469 269.542969 364.027344 269.550781 364.074219 269.550781 C 364.234375 269.550781 364.382812 269.453125 364.441406 269.296875 L 366.535156 263.804688 C 366.613281 263.601562 366.511719 263.375 366.308594 263.296875 C 366.101562 263.21875 365.875 263.320312 365.796875 263.527344 Z M 368.117188 273.359375 C 368.164062 273.378906 368.210938 273.386719 368.257812 273.386719 C 368.417969 273.386719 368.566406 273.289062 368.628906 273.132812 L 370.371094 268.5625 C 370.449219 268.359375 370.34375 268.128906 370.140625 268.054688 C 369.9375 267.972656 369.710938 268.078125 369.632812 268.28125 L 367.890625 272.851562 C 367.8125 273.054688 367.914062 273.285156 368.117188 273.359375 Z M 337.15625 313.269531 C 336.34375 311.546875 335.425781 309.59375 334.203125 307.96875 C 334.074219 307.792969 333.828125 307.757812 333.652344 307.890625 C 333.476562 308.019531 333.441406 308.265625 333.574219 308.441406 C 334.746094 310.003906 335.648438 311.917969 336.445312 313.605469 C 336.707031 314.164062 336.964844 314.710938 337.21875 315.222656 C 337.289062 315.359375 337.429688 315.441406 337.574219 315.441406 C 337.632812 315.441406 337.691406 315.425781 337.75 315.398438 C 337.945312 315.300781 338.023438 315.066406 337.925781 314.871094 C 337.671875 314.363281 337.417969 313.824219 337.15625 313.269531 Z M 337.15625 313.269531 " fill-opacity="1" fill-rule="nonzero"/></g></svg>